<mxfile modified="2022-08-20T02:19:32.688Z" host="app.diagrams.net" agent="5.0 (Windows NT 10.0; Win64; x64) AppleWebKit/537.36 (KHTML, like Gecko) Chrome/104.0.0.0 Safari/537.36" etag="tkB-mBUlqmcomKmsmpAf" version="20.2.5" type="github">
  <diagram id="Ht1M8jgEwFfnCIfOTk4-" name="Page-1">
    <mxGraphModel dx="1579" dy="729" grid="1" gridSize="10" guides="1" tooltips="1" connect="1" arrows="1" fold="1" page="1" pageScale="1" pageWidth="1169" pageHeight="827" math="0" shadow="0">
      <root>
        <mxCell id="0" />
        <mxCell id="1" parent="0" />
        <mxCell id="-QjtrjUzRDEMRZ5MF8oH-9" value="1" style="rounded=1;whiteSpace=wrap;html=1;fillColor=#007CBD;strokeColor=none;fontColor=#FFFFFF;fontStyle=1;fontSize=22;" parent="1" vertex="1">
          <mxGeometry x="95.5" y="202.5" width="40" height="38" as="geometry" />
        </mxCell>
        <mxCell id="-QjtrjUzRDEMRZ5MF8oH-27" value="2" style="rounded=1;whiteSpace=wrap;html=1;fillColor=#007CBD;strokeColor=none;fontColor=#FFFFFF;fontStyle=1;fontSize=22;" parent="1" vertex="1">
          <mxGeometry x="273" y="202.5" width="40" height="38" as="geometry" />
        </mxCell>
        <mxCell id="-QjtrjUzRDEMRZ5MF8oH-28" value="3" style="rounded=1;whiteSpace=wrap;html=1;fillColor=#007CBD;strokeColor=none;fontColor=#FFFFFF;fontStyle=1;fontSize=22;" parent="1" vertex="1">
          <mxGeometry x="444.5" y="202.5" width="40" height="38" as="geometry" />
        </mxCell>
        <mxCell id="-QjtrjUzRDEMRZ5MF8oH-29" value="4" style="rounded=1;whiteSpace=wrap;html=1;fillColor=#007CBD;strokeColor=none;fontColor=#FFFFFF;fontStyle=1;fontSize=22;" parent="1" vertex="1">
          <mxGeometry x="585" y="202.5" width="40" height="38" as="geometry" />
        </mxCell>
        <mxCell id="-QjtrjUzRDEMRZ5MF8oH-30" value="5" style="rounded=1;whiteSpace=wrap;html=1;fillColor=#007CBD;strokeColor=none;fontColor=#FFFFFF;fontStyle=1;fontSize=22;" parent="1" vertex="1">
          <mxGeometry x="832.5" y="202.5" width="40" height="38" as="geometry" />
        </mxCell>
        <mxCell id="-QjtrjUzRDEMRZ5MF8oH-47" value="High Level Data Architecture Design" style="text;html=1;resizable=0;points=[];autosize=1;align=left;verticalAlign=top;spacingTop=-4;fontSize=30;fontStyle=1" parent="1" vertex="1">
          <mxGeometry x="56.5" y="64.5" width="540" height="40" as="geometry" />
        </mxCell>
        <mxCell id="-QjtrjUzRDEMRZ5MF8oH-48" value="Simplified version due to time constraint&amp;nbsp;and soft ware availability at home" style="text;html=1;resizable=0;points=[];autosize=1;align=left;verticalAlign=top;spacingTop=-4;fontSize=16;" parent="1" vertex="1">
          <mxGeometry x="57.5" y="114.5" width="550" height="30" as="geometry" />
        </mxCell>
        <mxCell id="-QjtrjUzRDEMRZ5MF8oH-49" value="Source DB" style="text;html=1;resizable=0;points=[];autosize=1;align=left;verticalAlign=top;spacingTop=-4;fontSize=16;fontStyle=1" parent="1" vertex="1">
          <mxGeometry x="76.5" y="164.5" width="110" height="30" as="geometry" />
        </mxCell>
        <mxCell id="SCVMTBWpLvtzJIhz15lM-1" value="" style="line;strokeWidth=2;html=1;fontSize=14;" parent="1" vertex="1">
          <mxGeometry x="52.5" y="139.5" width="947.5" height="10" as="geometry" />
        </mxCell>
        <mxCell id="SCVMTBWpLvtzJIhz15lM-3" value="" style="edgeStyle=orthogonalEdgeStyle;html=1;endArrow=open;elbow=vertical;startArrow=none;endFill=0;strokeColor=#545B64;rounded=0;fontSize=14;" parent="1" edge="1">
          <mxGeometry width="100" relative="1" as="geometry">
            <mxPoint x="164.5" y="389" as="sourcePoint" />
            <mxPoint x="214.5" y="389" as="targetPoint" />
          </mxGeometry>
        </mxCell>
        <mxCell id="SCVMTBWpLvtzJIhz15lM-5" value="" style="shape=curlyBracket;whiteSpace=wrap;html=1;rounded=1;fontSize=14;" parent="1" vertex="1">
          <mxGeometry x="669" y="284.75" width="11" height="211.75" as="geometry" />
        </mxCell>
        <mxCell id="7OVz4w7n9kzEPWy-4BBC-3" value="" style="rounded=0;whiteSpace=wrap;html=1;fillColor=#EAEDED;fontSize=22;fontColor=#FFFFFF;strokeColor=none;labelBackgroundColor=none;" parent="1" vertex="1">
          <mxGeometry x="76.5" y="670" width="539" height="451.25" as="geometry" />
        </mxCell>
        <mxCell id="7OVz4w7n9kzEPWy-4BBC-4" value="1" style="rounded=1;whiteSpace=wrap;html=1;fillColor=#007CBD;strokeColor=none;fontColor=#FFFFFF;fontStyle=1;fontSize=22;labelBackgroundColor=none;" parent="1" vertex="1">
          <mxGeometry x="95.5" y="688.38" width="40" height="38" as="geometry" />
        </mxCell>
        <mxCell id="7OVz4w7n9kzEPWy-4BBC-5" value="2" style="rounded=1;whiteSpace=wrap;html=1;fillColor=#007CBD;strokeColor=none;fontColor=#FFFFFF;fontStyle=1;fontSize=22;labelBackgroundColor=none;" parent="1" vertex="1">
          <mxGeometry x="96" y="789.88" width="40" height="38" as="geometry" />
        </mxCell>
        <mxCell id="7OVz4w7n9kzEPWy-4BBC-6" value="3" style="rounded=1;whiteSpace=wrap;html=1;fillColor=#007CBD;strokeColor=none;fontColor=#FFFFFF;fontStyle=1;fontSize=22;labelBackgroundColor=none;" parent="1" vertex="1">
          <mxGeometry x="96.5" y="827.88" width="40" height="38" as="geometry" />
        </mxCell>
        <mxCell id="7OVz4w7n9kzEPWy-4BBC-7" value="4" style="rounded=1;whiteSpace=wrap;html=1;fillColor=#007CBD;strokeColor=none;fontColor=#FFFFFF;fontStyle=1;fontSize=22;labelBackgroundColor=none;" parent="1" vertex="1">
          <mxGeometry x="96.5" y="910.13" width="40" height="38" as="geometry" />
        </mxCell>
        <mxCell id="7OVz4w7n9kzEPWy-4BBC-8" value="5" style="rounded=1;whiteSpace=wrap;html=1;fillColor=#007CBD;strokeColor=none;fontColor=#FFFFFF;fontStyle=1;fontSize=22;labelBackgroundColor=none;" parent="1" vertex="1">
          <mxGeometry x="96.5" y="1042.38" width="40" height="38" as="geometry" />
        </mxCell>
        <mxCell id="7OVz4w7n9kzEPWy-4BBC-13" value="&lt;ul&gt;&lt;li&gt;&lt;span&gt;System1: Customer, Account and&amp;nbsp; Transaction data&lt;/span&gt;&lt;/li&gt;&lt;li&gt;&lt;span&gt;System2: Credit Account data&lt;/span&gt;&lt;/li&gt;&lt;/ul&gt;" style="text;html=1;align=left;verticalAlign=top;spacingTop=-4;fontSize=14;labelBackgroundColor=none;whiteSpace=wrap;" parent="1" vertex="1">
          <mxGeometry x="146" y="688.38" width="449" height="57" as="geometry" />
        </mxCell>
        <mxCell id="7OVz4w7n9kzEPWy-4BBC-14" value="Due to time constraint, &lt;br&gt;&lt;ul&gt;&lt;li&gt;These 2 steps are simplified in SQL coding.&lt;/li&gt;&lt;li&gt;No ETL is designed&lt;/li&gt;&lt;li&gt;No Data Modelling is performed&lt;/li&gt;&lt;/ul&gt;&lt;div&gt;&lt;br&gt;&lt;/div&gt;" style="text;html=1;align=left;verticalAlign=top;spacingTop=-4;fontSize=14;labelBackgroundColor=none;whiteSpace=wrap;" parent="1" vertex="1">
          <mxGeometry x="145" y="774.88" width="450" height="104.5" as="geometry" />
        </mxCell>
        <mxCell id="7OVz4w7n9kzEPWy-4BBC-15" value="&lt;ul&gt;&lt;li&gt;&lt;span&gt;Views are created in Snowflake to illustrate&amp;nbsp;presentation&amp;nbsp;layer&lt;/span&gt;&lt;/li&gt;&lt;li&gt;In a production environment, materialized views are recommended&lt;/li&gt;&lt;/ul&gt;" style="text;html=1;align=left;verticalAlign=top;spacingTop=-4;fontSize=14;labelBackgroundColor=none;whiteSpace=wrap;" parent="1" vertex="1">
          <mxGeometry x="148" y="875.38" width="408.5" height="110" as="geometry" />
        </mxCell>
        <mxCell id="7OVz4w7n9kzEPWy-4BBC-16" value="&lt;ul&gt;&lt;li&gt;A PowerPoint presentation is performed&amp;nbsp; in this exercise.&amp;nbsp;&lt;/li&gt;&lt;li&gt;In a production environment, this is where Reporting, Analytics, Visualisation, and Machine Learning to consume the data&lt;/li&gt;&lt;/ul&gt;" style="text;html=1;align=left;verticalAlign=top;spacingTop=-4;fontSize=14;labelBackgroundColor=none;whiteSpace=wrap;" parent="1" vertex="1">
          <mxGeometry x="148" y="1019.88" width="450" height="83" as="geometry" />
        </mxCell>
        <mxCell id="RRd2hfE3uXQuu0yDxtk--1" value="" style="sketch=0;points=[[0,0,0],[0.25,0,0],[0.5,0,0],[0.75,0,0],[1,0,0],[0,1,0],[0.25,1,0],[0.5,1,0],[0.75,1,0],[1,1,0],[0,0.25,0],[0,0.5,0],[0,0.75,0],[1,0.25,0],[1,0.5,0],[1,0.75,0]];outlineConnect=0;fontColor=#232F3E;gradientColor=#4D72F3;gradientDirection=north;fillColor=#3334B9;strokeColor=#ffffff;dashed=0;verticalLabelPosition=bottom;verticalAlign=top;align=center;html=1;fontSize=12;fontStyle=0;aspect=fixed;shape=mxgraph.aws4.resourceIcon;resIcon=mxgraph.aws4.database;" vertex="1" parent="1">
          <mxGeometry x="76.5" y="289" width="78" height="78" as="geometry" />
        </mxCell>
        <mxCell id="RRd2hfE3uXQuu0yDxtk--2" value="" style="sketch=0;points=[[0,0,0],[0.25,0,0],[0.5,0,0],[0.75,0,0],[1,0,0],[0,1,0],[0.25,1,0],[0.5,1,0],[0.75,1,0],[1,1,0],[0,0.25,0],[0,0.5,0],[0,0.75,0],[1,0.25,0],[1,0.5,0],[1,0.75,0]];outlineConnect=0;fontColor=#232F3E;gradientColor=#4D72F3;gradientDirection=north;fillColor=#3334B9;strokeColor=#ffffff;dashed=0;verticalLabelPosition=bottom;verticalAlign=top;align=center;html=1;fontSize=12;fontStyle=0;aspect=fixed;shape=mxgraph.aws4.resourceIcon;resIcon=mxgraph.aws4.database;" vertex="1" parent="1">
          <mxGeometry x="78.5" y="419.5" width="78" height="78" as="geometry" />
        </mxCell>
        <mxCell id="RRd2hfE3uXQuu0yDxtk--12" value="" style="edgeStyle=orthogonalEdgeStyle;rounded=0;orthogonalLoop=1;jettySize=auto;html=1;" edge="1" parent="1" source="RRd2hfE3uXQuu0yDxtk--3" target="RRd2hfE3uXQuu0yDxtk--9">
          <mxGeometry relative="1" as="geometry" />
        </mxCell>
        <mxCell id="RRd2hfE3uXQuu0yDxtk--3" value="" style="shape=image;verticalLabelPosition=bottom;verticalAlign=top;imageAspect=0;aspect=fixed;image=data:image/jpeg,/9j/4AAQSkZJRgABAQAAAQABAAD/2wCEAAkGBwgHBgkIBwgKCgkLDRYPDQwMDRsUFRAWIB0iIiAdHx8kKDQsJCYxJx8fLT0tMTU3Ojo6Iys/RD84QzQ5OjcBCgoKDQwNGg8PGjclHyU3Nzc3Nzc3Nzc3Nzc3Nzc3Nzc3Nzc3Nzc3Nzc3Nzc3Nzc3Nzc3Nzc3Nzc3Nzc3Nzc3N//AABEIAHcAdwMBEQACEQEDEQH/xAAbAAEAAgMBAQAAAAAAAAAAAAAABAYDBQcBAv/EADsQAAEEAQEFBAcGBAcAAAAAAAEAAgMEBREGEiExQRNRYXEUIjJzgZGxBzM0QqHRUnLB4SMlNTZDkrL/xAAaAQEAAwEBAQAAAAAAAAAAAAAAAwQFAgEG/8QAKxEAAgIBAwQCAgIBBQAAAAAAAAECAwQFESESIjEyE0EjUTNxgRQkNGGR/9oADAMBAAIRAxEAPwDuKAIAgCAIAgCAIAgCAIAgCAIAgCAIAgCAIAgCAIAgCAIAgCAIAgCAIAgCAFAabMbQ1MVK2GRr5JSNS1nQeKsU4s7Vuijk59eO+l8sl4rJ18pW7esXaA6Oa7m0qO2qVcumRPj5EL49UD4zGXrYmJr7G85zvZY3mV1TRO57ROMnKhjreRiw2dq5bfbCHslYNSx/PTvXt+POn2OcXNryPXybYKAuBAEAQBAEAQBAEBBvZajj3NbcsMjc4ahvEnTyCkhVOfqiC3Jqq95bEivZhtRCWvK2Rh5OadVxKLi9mSQsjNbxe5zza3/cFnyb/wCQtvB/hR8vqf8AyZG7+z/7m7/O36FVNR9kaGjesiLt/wDjqnunfVS6d6yIdZ94kXYj/Wz7l31C61D+Nf2RaT/P/gvNu7WpRdrambGzvd1WTCEpvaKPorLYVLeb2MdDKU8iHehztkLfaGhBHwK6sqnX7I4pyKrvR7kLLZKWtMWsLgxugO40OcSQT8tB+vRe1w6iO+5xeyNhQmkmh1k032uLHFvAHTqo5LZk9cuqO5KXhIEAQBAeHkgOebX07MWXmsStcYZNCx/TTTktrBsg6+leT5jU6bFc5tcGro37WPl7SpKWHqOYd5hWLKYWraSKVOTZQ94M9yV1+QuPtSta17wNQ3lwGiVVKqHShkXO6zrZaPs/+5u/zN+hWfqPsjZ0b1kRtv8A8bU9076qTTfWRDrPvA0WLyEuMsOnrtaZCwsG9yGunH9FcupVselmdj5EqJdUTDbtT3JTLaldI89XdPJdQqjWtoojttnbLeb3LBsRSsHIG2GObA1haXEaBxPQd6o59sXDo+zU0mmxWdfhFxnpRzPEhMjH6ab0bt0kdxWUpNLY3pVqT3M0MLIIwyMaNHije51GKitkZF4dBAEAKA02R2kx9Cya8rpHSN9rs2ahvn/ZWa8WyyPUlwUbtQopl0yfJNr2amTrF0L454ncCOfwIUMozrfPDLELK7o7rlFey+yEcm9LjHCN/PsnH1T5HortOfJcTMvK0qMu6rhlRtVZ6cpitROieOjhzWpCyM1vFmHZTZW9prYt+wMT21LUpaQyR4DT36BZeoSTmkjd0eDVcm/sjbfRP7epNuncDC3e8dVJp0lzH7IdZg+qMvordGjZvy9lUhdI7qRyHmeiv2WwrW8mZVVFlz2gi44fZOvW3Zb5E8v8A9hv7rKuzZT4hwjextLhDus5Zu7t+njIQ+zI2Jo4NaOZ8gqsK52PaJfturoj3PYwYvPUcnI6Ks9wkaNdx7dCR3hd241lXMkR4+bTe9oPk2igLYQBAEB4UBzjaXFWqeQnsOY50Ejy8SDiBr0PctvEvhOCj9o+Wz8Wyu2U9uGayrbsU5hLVmdE8dR/XvVmdcLFtJFOq6dT3g9i34ja+KXdiyTeyfy7Vo9U+fcsu7AlHmHKNzF1aMu23hljfFVuRNc9kU8Z4tJAcD5KhvKD/RquMLFu+StbQbSCo70PFFgew6PeACG+ACv4+J1rrs8GTmah8f46T72fz8eTb6FlBG6V3slzRuyeGnevMnFdT66/B1hZ8b18d3ksWlajASBFBC3ieTQFS7pv9mn2VR38IrGY2vA3osWzePLtnjh8B+60KMBt72GRlasl20/+lSsWJrMplsSukkPNzjxWnCMYLaJiWWSse8uWb/ZHE2n5CK8+N0cEepDncN/hpw8FRzb4dHQuWammYtnyq1rZF+HJZB9GEAQBACgI1yxXrwOfaexkXIl/IrqEZSfb5I7ZwhHefg5vm5sdNb3sZA6KPqSdA7yHRbuPG2MdrGfKZc6Jz/CtjX6qyVC8YOpeGyksLS5k0gcYQToQD9FiXzreQn9H0uLVasRx+yv7OzVKOW/zSItc3VrS8cI3eIV7JjKyv8XgysKVdNz+dcmPJCLJZpzcPCfXd6obw1d1d4Be1b10/lPL+m/I/wBuiw7XVrhwtQaukEOnb7vHU6aa/NUsKdaubf8Ag09RrtePFfryUpbB86bbZ21jKtneyVcvOvqyH1ms82/14qplQtmuxl/Atorn+VHRa80U8TZIJGSRkcHNOoWJKLi9mfUQnGa3j4My8OwgCAIDw8kBzLaOzYsZiyLDnf4chaxpPBremgW9iQiq04nyWdZOd0lNmLGYi5k36Vo/UB0MjuDQurciuryyPHw7b32rj9l1xGzNPH7skg7ecfmdyb5BZN2XOzjwj6HG06qnl8sl5DN4/HODLM4D/wCBgLiPko68eyz1RNdmU08SZrcniaW0ULLlGZrZORkDdQfAjvU1V9mM+mRVvxas2KsrfJ90qmP2YqdtalBlfwdKW8XeDR3Lyc7cqW0TqqqjBh1TfJscfl6GS1bVnDnDmxw0d8iobKLKvZFmnKpvXYzXZfZapdJlq6V5zx9Ueq4+IU1OZOvh8oq5Om128x4ZTMjjLeNk3LURA6PHFrvIrWqvhau0wL8a2h7TRsNj5548zHFC53ZyA9ozXhppz0UGdCDq3fktaXOavUV4+zooWKfUBAEAQAoCDbxFC5IJbVWKSQfmI4nz71JC6cFtFkFmNTY+qUd2Ldyni64dM9kMY4NaBz8AAvIQnZLZciy2qiPc9kU/MbWWbWsdEGvEfzfnP7LUpwFHmfJhZOqzs4q4RXSS4kuJJPMk8Sr6SS2RlNt8suewBPo1sdBI0/osnUV3o39Gf45Ii7fuPplNuvARuOnxUum+JMh1lvrgirNc5jg9ji1zeILToQtFxUlszGi3F7plmxG1s0G7FkWmaMf8o9oefes+7AT5rNjF1WUe23lfstsE1PK1SYzHPC4cQRr8wsyUZ1y54ZtRnVfDjlHtLG06RcalaOIu5lreJSdk5+z3PaqKqvSOxMXBMEAQBAEB4eSA5xteJxnJjY13Tp2RPLd06fHVbeE4fFx5PldT+T531ePox4nA3MmQ9jeyg1+9eOB8h1XV2XXVx5ZzjYFt/PhEbMU2Y/IzVY3FzY9BvO5nUAqSix2VqTIcqlU2uC+i0fZ/+Hue8b9Fn6j7o2NF9Jf2RNv/AMbU9076qTTvWRBrPvA1GAxrMrdfWfI6M9k5zXAa6HUcx8VZyrnTFNFPCxo5E3Fv6PMphbuLce3j3oteErOLT+y9pya7PHk5yMG2h8rj9my2GZO7KPfHr2AjIkPTXp8VX1Bx6F+y5pCs+VteC/LIPowgCAIAgCAIDHLBFLp2sbHgct5oK9Ta8HMoRl5R9aADQDgvD3bY5vtY0t2gtbw013SP+oW5hfwo+V1JP/UyN9sA0irbcQdDIAD38FT1F96NLRl+OX9kTb9p9Lpu04dm4a+Oql05raSINaXdFkfYZrjmHuA4NhOp7tSF1qLXxoj0hP5m/wDovpaHAhwBB6ELIXB9G0n5PGRMjGkbGtHc0aL1tvyFFR8I+14ehAEAQBAEAQBAEBAyGJpZEtdbga9zeTtSD8wpIXWV+rK92NVd7okVKsNOEQ1o2xxt5NauJSlJ7yJa641rpitkfN2lXvRdlaibIznoei9hZKD3izm2mFq2mtz5o46rQjLKkLY2nnpzPmV7OyVj3k9xVRCpbQWxLXBKEAQBAEAQBAEAQBAEAQBAEAQBAEAQBAEAQBAEAQBAEAQBAEAQBAEAQBAEAQH/2Q==" vertex="1" parent="1">
          <mxGeometry x="233.5" y="329.5" width="119" height="119" as="geometry" />
        </mxCell>
        <mxCell id="RRd2hfE3uXQuu0yDxtk--4" value="Loading Zone" style="text;html=1;resizable=0;points=[];autosize=1;align=left;verticalAlign=top;spacingTop=-4;fontSize=16;fontStyle=1" vertex="1" parent="1">
          <mxGeometry x="240" y="164.5" width="130" height="30" as="geometry" />
        </mxCell>
        <mxCell id="RRd2hfE3uXQuu0yDxtk--5" value="&lt;span&gt;System1&lt;/span&gt;" style="text;html=1;resizable=0;points=[];autosize=1;align=left;verticalAlign=top;spacingTop=-4;fontSize=14;fontStyle=1" vertex="1" parent="1">
          <mxGeometry x="90.5" y="367" width="80" height="20" as="geometry" />
        </mxCell>
        <mxCell id="RRd2hfE3uXQuu0yDxtk--6" value="&lt;span&gt;System2&lt;/span&gt;" style="text;html=1;resizable=0;points=[];autosize=1;align=left;verticalAlign=top;spacingTop=-4;fontSize=14;fontStyle=1" vertex="1" parent="1">
          <mxGeometry x="90.5" y="497" width="80" height="20" as="geometry" />
        </mxCell>
        <mxCell id="RRd2hfE3uXQuu0yDxtk--15" value="" style="edgeStyle=orthogonalEdgeStyle;rounded=0;orthogonalLoop=1;jettySize=auto;html=1;" edge="1" parent="1" source="RRd2hfE3uXQuu0yDxtk--9" target="RRd2hfE3uXQuu0yDxtk--14">
          <mxGeometry relative="1" as="geometry" />
        </mxCell>
        <mxCell id="RRd2hfE3uXQuu0yDxtk--9" value="" style="shape=image;verticalLabelPosition=bottom;verticalAlign=top;imageAspect=0;aspect=fixed;image=data:image/jpeg,/9j/4AAQSkZJRgABAQAAAQABAAD/2wCEAAkGBwgHBgkIBwgKCgkLDRYPDQwMDRsUFRAWIB0iIiAdHx8kKDQsJCYxJx8fLT0tMTU3Ojo6Iys/RD84QzQ5OjcBCgoKDQwNGg8PGjclHyU3Nzc3Nzc3Nzc3Nzc3Nzc3Nzc3Nzc3Nzc3Nzc3Nzc3Nzc3Nzc3Nzc3Nzc3Nzc3Nzc3N//AABEIAHcAdwMBEQACEQEDEQH/xAAbAAEAAgMBAQAAAAAAAAAAAAAABAYDBQcBAv/EADsQAAEEAQEFBAcGBAcAAAAAAAEAAgMEBREGEiExQRNRYXEUIjJzgZGxBzM0QqHRUnLB4SMlNTZDkrL/xAAaAQEAAwEBAQAAAAAAAAAAAAAAAwQFAgEG/8QAKxEAAgIBAwQCAgIBBQAAAAAAAAECAwQFESESIjEyE0EjUTNxgRQkNGGR/9oADAMBAAIRAxEAPwDuKAIAgCAIAgCAIAgCAIAgCAIAgCAIAgCAIAgCAIAgCAIAgCAIAgCAIAgCAFAabMbQ1MVK2GRr5JSNS1nQeKsU4s7Vuijk59eO+l8sl4rJ18pW7esXaA6Oa7m0qO2qVcumRPj5EL49UD4zGXrYmJr7G85zvZY3mV1TRO57ROMnKhjreRiw2dq5bfbCHslYNSx/PTvXt+POn2OcXNryPXybYKAuBAEAQBAEAQBAEBBvZajj3NbcsMjc4ahvEnTyCkhVOfqiC3Jqq95bEivZhtRCWvK2Rh5OadVxKLi9mSQsjNbxe5zza3/cFnyb/wCQtvB/hR8vqf8AyZG7+z/7m7/O36FVNR9kaGjesiLt/wDjqnunfVS6d6yIdZ94kXYj/Wz7l31C61D+Nf2RaT/P/gvNu7WpRdrambGzvd1WTCEpvaKPorLYVLeb2MdDKU8iHehztkLfaGhBHwK6sqnX7I4pyKrvR7kLLZKWtMWsLgxugO40OcSQT8tB+vRe1w6iO+5xeyNhQmkmh1k032uLHFvAHTqo5LZk9cuqO5KXhIEAQBAeHkgOebX07MWXmsStcYZNCx/TTTktrBsg6+leT5jU6bFc5tcGro37WPl7SpKWHqOYd5hWLKYWraSKVOTZQ94M9yV1+QuPtSta17wNQ3lwGiVVKqHShkXO6zrZaPs/+5u/zN+hWfqPsjZ0b1kRtv8A8bU9076qTTfWRDrPvA0WLyEuMsOnrtaZCwsG9yGunH9FcupVselmdj5EqJdUTDbtT3JTLaldI89XdPJdQqjWtoojttnbLeb3LBsRSsHIG2GObA1haXEaBxPQd6o59sXDo+zU0mmxWdfhFxnpRzPEhMjH6ab0bt0kdxWUpNLY3pVqT3M0MLIIwyMaNHije51GKitkZF4dBAEAKA02R2kx9Cya8rpHSN9rs2ahvn/ZWa8WyyPUlwUbtQopl0yfJNr2amTrF0L454ncCOfwIUMozrfPDLELK7o7rlFey+yEcm9LjHCN/PsnH1T5HortOfJcTMvK0qMu6rhlRtVZ6cpitROieOjhzWpCyM1vFmHZTZW9prYt+wMT21LUpaQyR4DT36BZeoSTmkjd0eDVcm/sjbfRP7epNuncDC3e8dVJp0lzH7IdZg+qMvordGjZvy9lUhdI7qRyHmeiv2WwrW8mZVVFlz2gi44fZOvW3Zb5E8v8A9hv7rKuzZT4hwjextLhDus5Zu7t+njIQ+zI2Jo4NaOZ8gqsK52PaJfturoj3PYwYvPUcnI6Ks9wkaNdx7dCR3hd241lXMkR4+bTe9oPk2igLYQBAEB4UBzjaXFWqeQnsOY50Ejy8SDiBr0PctvEvhOCj9o+Wz8Wyu2U9uGayrbsU5hLVmdE8dR/XvVmdcLFtJFOq6dT3g9i34ja+KXdiyTeyfy7Vo9U+fcsu7AlHmHKNzF1aMu23hljfFVuRNc9kU8Z4tJAcD5KhvKD/RquMLFu+StbQbSCo70PFFgew6PeACG+ACv4+J1rrs8GTmah8f46T72fz8eTb6FlBG6V3slzRuyeGnevMnFdT66/B1hZ8b18d3ksWlajASBFBC3ieTQFS7pv9mn2VR38IrGY2vA3osWzePLtnjh8B+60KMBt72GRlasl20/+lSsWJrMplsSukkPNzjxWnCMYLaJiWWSse8uWb/ZHE2n5CK8+N0cEepDncN/hpw8FRzb4dHQuWammYtnyq1rZF+HJZB9GEAQBACgI1yxXrwOfaexkXIl/IrqEZSfb5I7ZwhHefg5vm5sdNb3sZA6KPqSdA7yHRbuPG2MdrGfKZc6Jz/CtjX6qyVC8YOpeGyksLS5k0gcYQToQD9FiXzreQn9H0uLVasRx+yv7OzVKOW/zSItc3VrS8cI3eIV7JjKyv8XgysKVdNz+dcmPJCLJZpzcPCfXd6obw1d1d4Be1b10/lPL+m/I/wBuiw7XVrhwtQaukEOnb7vHU6aa/NUsKdaubf8Ag09RrtePFfryUpbB86bbZ21jKtneyVcvOvqyH1ms82/14qplQtmuxl/Atorn+VHRa80U8TZIJGSRkcHNOoWJKLi9mfUQnGa3j4My8OwgCAIDw8kBzLaOzYsZiyLDnf4chaxpPBremgW9iQiq04nyWdZOd0lNmLGYi5k36Vo/UB0MjuDQurciuryyPHw7b32rj9l1xGzNPH7skg7ecfmdyb5BZN2XOzjwj6HG06qnl8sl5DN4/HODLM4D/wCBgLiPko68eyz1RNdmU08SZrcniaW0ULLlGZrZORkDdQfAjvU1V9mM+mRVvxas2KsrfJ90qmP2YqdtalBlfwdKW8XeDR3Lyc7cqW0TqqqjBh1TfJscfl6GS1bVnDnDmxw0d8iobKLKvZFmnKpvXYzXZfZapdJlq6V5zx9Ueq4+IU1OZOvh8oq5Om128x4ZTMjjLeNk3LURA6PHFrvIrWqvhau0wL8a2h7TRsNj5548zHFC53ZyA9ozXhppz0UGdCDq3fktaXOavUV4+zooWKfUBAEAQAoCDbxFC5IJbVWKSQfmI4nz71JC6cFtFkFmNTY+qUd2Ldyni64dM9kMY4NaBz8AAvIQnZLZciy2qiPc9kU/MbWWbWsdEGvEfzfnP7LUpwFHmfJhZOqzs4q4RXSS4kuJJPMk8Sr6SS2RlNt8suewBPo1sdBI0/osnUV3o39Gf45Ii7fuPplNuvARuOnxUum+JMh1lvrgirNc5jg9ji1zeILToQtFxUlszGi3F7plmxG1s0G7FkWmaMf8o9oefes+7AT5rNjF1WUe23lfstsE1PK1SYzHPC4cQRr8wsyUZ1y54ZtRnVfDjlHtLG06RcalaOIu5lreJSdk5+z3PaqKqvSOxMXBMEAQBAEB4eSA5xteJxnJjY13Tp2RPLd06fHVbeE4fFx5PldT+T531ePox4nA3MmQ9jeyg1+9eOB8h1XV2XXVx5ZzjYFt/PhEbMU2Y/IzVY3FzY9BvO5nUAqSix2VqTIcqlU2uC+i0fZ/+Hue8b9Fn6j7o2NF9Jf2RNv/AMbU9076qTTvWRBrPvA1GAxrMrdfWfI6M9k5zXAa6HUcx8VZyrnTFNFPCxo5E3Fv6PMphbuLce3j3oteErOLT+y9pya7PHk5yMG2h8rj9my2GZO7KPfHr2AjIkPTXp8VX1Bx6F+y5pCs+VteC/LIPowgCAIAgCAIDHLBFLp2sbHgct5oK9Ta8HMoRl5R9aADQDgvD3bY5vtY0t2gtbw013SP+oW5hfwo+V1JP/UyN9sA0irbcQdDIAD38FT1F96NLRl+OX9kTb9p9Lpu04dm4a+Oql05raSINaXdFkfYZrjmHuA4NhOp7tSF1qLXxoj0hP5m/wDovpaHAhwBB6ELIXB9G0n5PGRMjGkbGtHc0aL1tvyFFR8I+14ehAEAQBAEAQBAEBAyGJpZEtdbga9zeTtSD8wpIXWV+rK92NVd7okVKsNOEQ1o2xxt5NauJSlJ7yJa641rpitkfN2lXvRdlaibIznoei9hZKD3izm2mFq2mtz5o46rQjLKkLY2nnpzPmV7OyVj3k9xVRCpbQWxLXBKEAQBAEAQBAEAQBAEAQBAEAQBAEAQBAEAQBAEAQBAEAQBAEAQBAEAQBAEAQH/2Q==" vertex="1" parent="1">
          <mxGeometry x="392.5" y="329.5" width="119" height="119" as="geometry" />
        </mxCell>
        <mxCell id="RRd2hfE3uXQuu0yDxtk--10" value="Staging zone" style="text;html=1;resizable=0;points=[];autosize=1;align=left;verticalAlign=top;spacingTop=-4;fontSize=16;fontStyle=1" vertex="1" parent="1">
          <mxGeometry x="408" y="164.5" width="120" height="30" as="geometry" />
        </mxCell>
        <mxCell id="RRd2hfE3uXQuu0yDxtk--14" value="" style="shape=image;verticalLabelPosition=bottom;verticalAlign=top;imageAspect=0;aspect=fixed;image=data:image/jpeg,/9j/4AAQSkZJRgABAQAAAQABAAD/2wCEAAkGBwgHBgkIBwgKCgkLDRYPDQwMDRsUFRAWIB0iIiAdHx8kKDQsJCYxJx8fLT0tMTU3Ojo6Iys/RD84QzQ5OjcBCgoKDQwNGg8PGjclHyU3Nzc3Nzc3Nzc3Nzc3Nzc3Nzc3Nzc3Nzc3Nzc3Nzc3Nzc3Nzc3Nzc3Nzc3Nzc3Nzc3N//AABEIAHcAdwMBEQACEQEDEQH/xAAbAAEAAgMBAQAAAAAAAAAAAAAABAYDBQcBAv/EADsQAAEEAQEFBAcGBAcAAAAAAAEAAgMEBREGEiExQRNRYXEUIjJzgZGxBzM0QqHRUnLB4SMlNTZDkrL/xAAaAQEAAwEBAQAAAAAAAAAAAAAAAwQFAgEG/8QAKxEAAgIBAwQCAgIBBQAAAAAAAAECAwQFESESIjEyE0EjUTNxgRQkNGGR/9oADAMBAAIRAxEAPwDuKAIAgCAIAgCAIAgCAIAgCAIAgCAIAgCAIAgCAIAgCAIAgCAIAgCAIAgCAFAabMbQ1MVK2GRr5JSNS1nQeKsU4s7Vuijk59eO+l8sl4rJ18pW7esXaA6Oa7m0qO2qVcumRPj5EL49UD4zGXrYmJr7G85zvZY3mV1TRO57ROMnKhjreRiw2dq5bfbCHslYNSx/PTvXt+POn2OcXNryPXybYKAuBAEAQBAEAQBAEBBvZajj3NbcsMjc4ahvEnTyCkhVOfqiC3Jqq95bEivZhtRCWvK2Rh5OadVxKLi9mSQsjNbxe5zza3/cFnyb/wCQtvB/hR8vqf8AyZG7+z/7m7/O36FVNR9kaGjesiLt/wDjqnunfVS6d6yIdZ94kXYj/Wz7l31C61D+Nf2RaT/P/gvNu7WpRdrambGzvd1WTCEpvaKPorLYVLeb2MdDKU8iHehztkLfaGhBHwK6sqnX7I4pyKrvR7kLLZKWtMWsLgxugO40OcSQT8tB+vRe1w6iO+5xeyNhQmkmh1k032uLHFvAHTqo5LZk9cuqO5KXhIEAQBAeHkgOebX07MWXmsStcYZNCx/TTTktrBsg6+leT5jU6bFc5tcGro37WPl7SpKWHqOYd5hWLKYWraSKVOTZQ94M9yV1+QuPtSta17wNQ3lwGiVVKqHShkXO6zrZaPs/+5u/zN+hWfqPsjZ0b1kRtv8A8bU9076qTTfWRDrPvA0WLyEuMsOnrtaZCwsG9yGunH9FcupVselmdj5EqJdUTDbtT3JTLaldI89XdPJdQqjWtoojttnbLeb3LBsRSsHIG2GObA1haXEaBxPQd6o59sXDo+zU0mmxWdfhFxnpRzPEhMjH6ab0bt0kdxWUpNLY3pVqT3M0MLIIwyMaNHije51GKitkZF4dBAEAKA02R2kx9Cya8rpHSN9rs2ahvn/ZWa8WyyPUlwUbtQopl0yfJNr2amTrF0L454ncCOfwIUMozrfPDLELK7o7rlFey+yEcm9LjHCN/PsnH1T5HortOfJcTMvK0qMu6rhlRtVZ6cpitROieOjhzWpCyM1vFmHZTZW9prYt+wMT21LUpaQyR4DT36BZeoSTmkjd0eDVcm/sjbfRP7epNuncDC3e8dVJp0lzH7IdZg+qMvordGjZvy9lUhdI7qRyHmeiv2WwrW8mZVVFlz2gi44fZOvW3Zb5E8v8A9hv7rKuzZT4hwjextLhDus5Zu7t+njIQ+zI2Jo4NaOZ8gqsK52PaJfturoj3PYwYvPUcnI6Ks9wkaNdx7dCR3hd241lXMkR4+bTe9oPk2igLYQBAEB4UBzjaXFWqeQnsOY50Ejy8SDiBr0PctvEvhOCj9o+Wz8Wyu2U9uGayrbsU5hLVmdE8dR/XvVmdcLFtJFOq6dT3g9i34ja+KXdiyTeyfy7Vo9U+fcsu7AlHmHKNzF1aMu23hljfFVuRNc9kU8Z4tJAcD5KhvKD/RquMLFu+StbQbSCo70PFFgew6PeACG+ACv4+J1rrs8GTmah8f46T72fz8eTb6FlBG6V3slzRuyeGnevMnFdT66/B1hZ8b18d3ksWlajASBFBC3ieTQFS7pv9mn2VR38IrGY2vA3osWzePLtnjh8B+60KMBt72GRlasl20/+lSsWJrMplsSukkPNzjxWnCMYLaJiWWSse8uWb/ZHE2n5CK8+N0cEepDncN/hpw8FRzb4dHQuWammYtnyq1rZF+HJZB9GEAQBACgI1yxXrwOfaexkXIl/IrqEZSfb5I7ZwhHefg5vm5sdNb3sZA6KPqSdA7yHRbuPG2MdrGfKZc6Jz/CtjX6qyVC8YOpeGyksLS5k0gcYQToQD9FiXzreQn9H0uLVasRx+yv7OzVKOW/zSItc3VrS8cI3eIV7JjKyv8XgysKVdNz+dcmPJCLJZpzcPCfXd6obw1d1d4Be1b10/lPL+m/I/wBuiw7XVrhwtQaukEOnb7vHU6aa/NUsKdaubf8Ag09RrtePFfryUpbB86bbZ21jKtneyVcvOvqyH1ms82/14qplQtmuxl/Atorn+VHRa80U8TZIJGSRkcHNOoWJKLi9mfUQnGa3j4My8OwgCAIDw8kBzLaOzYsZiyLDnf4chaxpPBremgW9iQiq04nyWdZOd0lNmLGYi5k36Vo/UB0MjuDQurciuryyPHw7b32rj9l1xGzNPH7skg7ecfmdyb5BZN2XOzjwj6HG06qnl8sl5DN4/HODLM4D/wCBgLiPko68eyz1RNdmU08SZrcniaW0ULLlGZrZORkDdQfAjvU1V9mM+mRVvxas2KsrfJ90qmP2YqdtalBlfwdKW8XeDR3Lyc7cqW0TqqqjBh1TfJscfl6GS1bVnDnDmxw0d8iobKLKvZFmnKpvXYzXZfZapdJlq6V5zx9Ueq4+IU1OZOvh8oq5Om128x4ZTMjjLeNk3LURA6PHFrvIrWqvhau0wL8a2h7TRsNj5548zHFC53ZyA9ozXhppz0UGdCDq3fktaXOavUV4+zooWKfUBAEAQAoCDbxFC5IJbVWKSQfmI4nz71JC6cFtFkFmNTY+qUd2Ldyni64dM9kMY4NaBz8AAvIQnZLZciy2qiPc9kU/MbWWbWsdEGvEfzfnP7LUpwFHmfJhZOqzs4q4RXSS4kuJJPMk8Sr6SS2RlNt8suewBPo1sdBI0/osnUV3o39Gf45Ii7fuPplNuvARuOnxUum+JMh1lvrgirNc5jg9ji1zeILToQtFxUlszGi3F7plmxG1s0G7FkWmaMf8o9oefes+7AT5rNjF1WUe23lfstsE1PK1SYzHPC4cQRr8wsyUZ1y54ZtRnVfDjlHtLG06RcalaOIu5lreJSdk5+z3PaqKqvSOxMXBMEAQBAEB4eSA5xteJxnJjY13Tp2RPLd06fHVbeE4fFx5PldT+T531ePox4nA3MmQ9jeyg1+9eOB8h1XV2XXVx5ZzjYFt/PhEbMU2Y/IzVY3FzY9BvO5nUAqSix2VqTIcqlU2uC+i0fZ/+Hue8b9Fn6j7o2NF9Jf2RNv/AMbU9076qTTvWRBrPvA1GAxrMrdfWfI6M9k5zXAa6HUcx8VZyrnTFNFPCxo5E3Fv6PMphbuLce3j3oteErOLT+y9pya7PHk5yMG2h8rj9my2GZO7KPfHr2AjIkPTXp8VX1Bx6F+y5pCs+VteC/LIPowgCAIAgCAIDHLBFLp2sbHgct5oK9Ta8HMoRl5R9aADQDgvD3bY5vtY0t2gtbw013SP+oW5hfwo+V1JP/UyN9sA0irbcQdDIAD38FT1F96NLRl+OX9kTb9p9Lpu04dm4a+Oql05raSINaXdFkfYZrjmHuA4NhOp7tSF1qLXxoj0hP5m/wDovpaHAhwBB6ELIXB9G0n5PGRMjGkbGtHc0aL1tvyFFR8I+14ehAEAQBAEAQBAEBAyGJpZEtdbga9zeTtSD8wpIXWV+rK92NVd7okVKsNOEQ1o2xxt5NauJSlJ7yJa641rpitkfN2lXvRdlaibIznoei9hZKD3izm2mFq2mtz5o46rQjLKkLY2nnpzPmV7OyVj3k9xVRCpbQWxLXBKEAQBAEAQBAEAQBAEAQBAEAQBAEAQBAEAQBAEAQBAEAQBAEAQBAEAQBAEAQH/2Q==" vertex="1" parent="1">
          <mxGeometry x="550" y="329.5" width="119" height="119" as="geometry" />
        </mxCell>
        <mxCell id="RRd2hfE3uXQuu0yDxtk--16" value="Presentation layer" style="text;html=1;resizable=0;points=[];autosize=1;align=left;verticalAlign=top;spacingTop=-4;fontSize=16;fontStyle=1" vertex="1" parent="1">
          <mxGeometry x="549" y="164.5" width="160" height="30" as="geometry" />
        </mxCell>
        <mxCell id="RRd2hfE3uXQuu0yDxtk--19" value="Reporting/Analytics/Visualisation" style="text;html=1;resizable=0;points=[];autosize=1;align=left;verticalAlign=top;spacingTop=-4;fontSize=16;fontStyle=1" vertex="1" parent="1">
          <mxGeometry x="721.5" y="164.5" width="280" height="30" as="geometry" />
        </mxCell>
        <mxCell id="RRd2hfE3uXQuu0yDxtk--20" value="" style="shape=image;html=1;verticalAlign=top;verticalLabelPosition=bottom;labelBackgroundColor=#ffffff;imageAspect=0;aspect=fixed;image=https://cdn0.iconfinder.com/data/icons/long-shadow-web-icons/512/python-128.png" vertex="1" parent="1">
          <mxGeometry x="721.5" y="280" width="60" height="60" as="geometry" />
        </mxCell>
        <mxCell id="RRd2hfE3uXQuu0yDxtk--21" value="" style="shape=image;verticalLabelPosition=bottom;verticalAlign=top;imageAspect=0;aspect=fixed;image=data:image/png,iVBORw0KGgoAAAANSUhEUgAABLAAAAHsCAYAAADCVVTkAAAABmJLR0QA/wD/AP+gvaeTAAAgAElEQVR4nOzdeXxdVbn/8c86SUdaKC1TmcsgQ1GmMpU2JcwgiIKAF0W4oEVRriIo0KZwaNMiiIJe4WpxAhGkCIgyylCSDhQokwhY5nlsK1Ba2ibnrN8fK/01QIcM+5xn77W/79frvNKWNPkCyc7az37WsxwiSSo+2ZOWuetT8BtTrtkA5zcGBoBbK7z1bW9ZGxiAx+HoD9QCawA9V/HRPfAeuKV4vxDHQmApnvdwtADzwM3Fl+fi3Dw871BgLhTmUtPyOsX69yr7Ly8iIiIiIiIileCsA0jGnD6zD/3KW+D9EDxb4NgC/BBgM3AbgF/fOuIqLAReAV5ve70CvIrjGUpL/82k/d82TSciIiIiIiIiK6QClqxYcfqGlMvbUfbbghsKbANsBww2TlZJ7wPPAHPwfg64J8A/wsRRr1oHExEREREREckzFbDy7ugpNWy1wTYU3K44dgW/K7ADYZufBHOBR3DuEco8Qg8epjjyBetQIiIiIiIiInmhAlbeFKdvSEtpJK6wV1uxamfC7CnpnLdw/n7KhekUSvdTs+7DFIcutQ4lIiIiIiIiEiMVsGJ3zrTPUMsIvK8DRgBbWkeK1GJgNjAVxz3UDLpfBS0RERERERGRZKiAFZtz7h5EodeBuPLB4A4ENrCOlFOLgGa8v4cC91BT9zhFV7YOJSIiIiIiIpJFKmBl3Wm39WKt/iNx5cMpu8PCqYCSQvNx3APuFpa4m7hoxALrQCIiIiIiIiJZoQJWFp12Wy/W7Hcwzh0D/mBgoHUk6ZQF4G7HlW+mpnwbxfr3rAOJiIiIiIiIpJkKWFlx5p1r0KfvUXh/NLA/0Ns6kiSiBMwCfz21tddS3Psd60AiIiIiIiIiaaMCVpodPaWGbQbX4/2xOL4EDLKOJBX1UVtn1nXUrHELxWGLrAOJiIiIiIiIpIEKWGk0bvpQyqX/wbmjgbWt44iJJTj+hneTaRxxDzhvHUhERERERETEigpYaXH6zD70Kx2P96OBXa3jSKo8C/4aPL9l4qhXrcOIiIiIiIiIVJsKWNaKUzemtfZk8N8ANraOI6m2GLgBzy+YWPegdRgRERERERGRalEBy8qYGTtRKJ0NfBmosY4jWeNn4dzPebvvDUwe1mKdRkRERERERKSSVMCqtrFNdRQ4G+8ORv/9pdv863h3OeWlv+aC/edZpxERERERERGpBBVQquHoKTVsO/ireP8DYEfrOBKlpXj/B6BRc7JEREREREQkNipgVVLRF2iZfizOnw18zjqO5MIiHJOpKfyE4og3rMOIiIiIiIiIJEEFrEoZO+1wHJPA72AdRXJpMd7/jh7lCyjWv2YdRkRERERERKQ7VMBK2thpR+M4V4UrSYkW4M/UuiLFkS9YhxERERERERHpChWwkjK2qQ7nLgCGW0cRWYEwI6tHzfnaWigiIiIiIiJZowJWdzXM2BJKE4BjgYJ1HJHVWABcyuKPLuTigxZahxERERERERHpCBWwuqo4a01KSybg3alArXUckU6aD348c97+JdcfU7IOIyIiIiIiIrIqKmB1mneMm3483v8YGGydRqSbngb3AxpH3mEdRERERERERGRlVMDqjLBd8BfAodZRRBLkgWuoLfxI87FEREREREQkjVTA6ojl2wW/DfSwjiNSIYvAjae29acU61utw4iIiIiIiIgsowLW6px73wGUC78GhlhHEamS+3H+FCaMesI6iIiIiIiIiAiogLVyP5ren57+J+BHo/9Okj8tOPdTPqwZzyXDP7IOIyIiIiIiIvmmwsyKjG0+AsevgA2so4gYe5kCJzO+7h7rICIiIiIiIpJfKmC1V5w5kFLrr/AcbR1FJEU83l9Bj/IZFOs/tA4jIiIiIiIi+aMC1jINTV8A92vUdSWyYp6XqCmfxPh9plpHERERERERkXxRAav4ZE9K8y7E8z3030NkdUo4LqSmdJ5OKhQREREREZFqyXfB5pzm7anlejzbW0cRyZhHwH+FxlHPWgcRERERERGR+BWsA5gZ1/wVapil4pVIl+wC7mHGTjveOoiIiIiIiIjEL38dWKfP7MMarb8GdOMtkow/Uls6VQPeRUREREREpFLyVcAa27QJzl0H7GUdRSQyj1PrjqQ48gXrICIiIiIiIhKf/GwhHDP9EJx7FBWvRCphR1r9QzQ0HWgdREREREREROITfwdW0RdobZ4E7kfk4d9XxJYHfxG1dWMourJ1GBEREREREYlD3AWd027rxVprTAb3desoIvniprB40UlcfNBC6yQiIiIiIiKSffEWsIrTN6W1dDO4nayjiOTUk9SWDqNY/5J1EBEREREREcm2OAtY46btgfc3AYOto4jk3Fx84UtMHDHdOoiIiIiIiIhkV3xD3Mc2nYD3Tah4JZIG6+DKdzN22n9ZBxEREREREZHsiquANbZ5DM79HuhlHUVE/r9eOP9HGpq+Zx1EREREREREsimOLYTFqbW01FyB40TrKCKyCt5fTo+603RCoYiIiIiIiHRG9gtYxam9aa25FviidRQR6QDnb6KmfBzF+sXWUURERERERCQbsl3A+tH0/vTwN+N8vXUUEemUe1la+CIXjVhgHURERERERETSL7sFrOLUdWituQ3YzTqKiHSFn03JHcoFde9aJxEREREREZF0y2YBa8zd61PocQe4nayjiEi3PEpp6QFcsP886yAiIiIiIiKSXtkrYBWnb0pL+R4cW1lHEZFEqIglIiIiIiIiq5StAlZD0xBwTcAm1lFEJEHO/ZuS35dJdW9aRxEREREREZH0KVgH6LCxMzcCdxcqXonEx/ttqXH3MqZ5sHUUERERERERSZ9sFLCKU9fBle4AtrSOIiIV4v22FLiV4tQB1lFEREREREQkXdK/hXDM3etT6NkEbGMdRUSq4iGWFvbjohELrIOIiIiIiIhIOqS7A6s4cyCFnnei4pVInuxGD38zxam9rYOIiIiIiIhIOqS3gHX2tLVpbb0b2NE6iohUmfP1tNZcR3FqrXUUERERERERsZfOAlZxai01/lpgZ+soImLmC7TW/tI6hIiIiIiIiNhLZ3dDS+EyHAdZxxBZhcXAQjzv4/wH4D5s+zOAVhwrm9/UF0+vtl/3AAaCHwhuINCnwpkzyJ9CQ/PrNNZNsE4iIiIiIiIidtI3xL2h+YfARdYxJJeW4Hgez3PA2zjeBN7F+zdw7m1qSm+zuHYevVsXUKxvTfyznz6zD2uV12Zpy0BcYSCwCRTWx/mNgQ3AbYzz6+PZFMjTfCiP98czcdSfrIOIiIiIiIiIjXQVsBqavwxcR1q3Nkos3sK7J3A8heMZXOlZyu45autepujK1uFWzzvG3r8hlIdQ8Fvgy1sAQ8BtBewArGkcsBKW4P2BTBzVbB1EpMJ6A+u0vfq3e61F+N6uWcXf/QAotf36Q6Cl7dcLgaVtv14E/Kft9R7LO0dFJH/6E641A9t+P4Bwb7AWYS3e/pqzBtBzBR+jDLzf7vftrz0twALCtWZB2z/7kHCtEpF06g0M4tPrkAGsfh2yAFj2kL/9tWARsKTt1x+xfB3yH7QOkU5KTwFr7PQ9ceV70TYqSU4J+BeeR8E9geOflPzjXFD3rnWwyvGO4vQhtLAjrrwjuB0JByEMsU6WgPlQGE7jiDnWQUS6aCCwJbBp22szYHNgMLA+YbG4RpUztV9Izm17vQPMa/f7l4FXgTdYvhgVkXQaAGwEbEi4tix7OxhYj3Bjuuy1ooJUtbzPx4tab7e9Xm97+xrhWrTs90tW/GFEpBMGsHwdsmwNsinhOrEesC7Qr8qZFvPpdci77X49j+XrkNdZ/kBOciodBayGpiHgZhG+cUS66j2cvx/v7qfATBYXHuSiESubRZUvxanr0FK7FwWG49kb/DCyWSx+ntra3SkOn28dRGQlCsAWwOeA7YCtgc+0vQYZ5kpCGXiLsJB8BXiu7fU88GzbPxORylsf2J5wI7pFu7dbsLybKjZzCdeYV4BnCNecZa9XCNcnEQnrkCHAZ/n0OmRdw1xJ8Cy/DrxCWH881+7t623vIxGzL2CdPW1tav0MwjeYSGcsApqBf1Au3UXPfZ7KxhbAFBg9uwfrf7QLZfam4PfFM4rqP3HpGs+dPPPW57n+mNLq31mkonoAOwF7ALsStvBuD/S1DGVoIfA08DjwRNvrccLTUxHpvIHAboSC+LaEtfK2wNqWoVLoI+DfwBzgybZfP0EodOlmVmJWS7g+LFuHfI6wDql2N3daLCasQ9qvQZ5AD9iiYlvAKvoCrdNuBQ42zSFZ8gSOO3Hlf1Dw0yjWa990EkbP7sG6i/fA+f2A/cDvge3WglVzTGJC3VjrGJI7awOj2l57ADuTrwMVuup14EHgfmAW8DDhAYSILNcHGEYoWO3W9uutTBNl3/uE683sttcswjYkkaxak4+vQ3Ylmzsqqu0dwjpkVtvrITSLL7NsC1gNTUVw55lmkCx4GLgB/F9oHPWsdZhcOPPONejV90CcPwI4jPRtffLAkTTW/dU6iEStD2GRuC9QTyhYrWp4qXRMK/BPYDowFZiGurQkfwYBw4GRwAjCjWh6HxzF4xXCNWdG29snUZeWpFdvwvVhP8I6ZBhahyShDDxFWIc0AfehLq3MsCtgjZl+CIXyLejEQVmxh4Dr24pWL1qHybWjp9SwzeCROH8EniNIz0D4D6Cwu4a6S8K2BA4BDgX2QU82q6EM/IuwgLyn7bXQMpBIBfQg3IgeSth5MBTrB8kC4ab1TuAO4C5UTBd7mxPWIYcQHqDldTtgtf2bUMy6l3At+I9tHFkZmx+cxamb01rzMPEOmpQu8a8DVwNX0jjqaes0shJjpw/D+a+B/y/sD154ktq+u1Mcpu1I0h07AkcDRxHmy4itxYRi1i3AbYAeYkhWbQB8nlC02p+w/UfSq0R4gHozcBNhppZINQxl+TpkB+MsEjrFZwC3tr2eso0j7VW/gFWc2pvWmumEVmmRxcBNFLiSp9+6W4O5M6Q4tZbWwoHgvgYcgdXgau8nM3HUKSafW7JsB+BY4BjCyTySXv8CpgB/Jpw4JpJmmwNHAl8ibBHUToPseppQyLoeeMw4i8RnW+ArhMLV9sZZZNVeIFwHrgMeNc6Se9UvYI1tvgLHN6r+eSVt3gF3OSV/ORfUvWsdRrrpR9P707P8FfCngtup6p/f82Um1t1Q9c8rWTMA+C/gvwlDkiV7HiEUsq4jzLIRSYONgeOBLwO7GGeRyngCuBK4BnjTOItkV3/Cw7P/JhS4JXueYfk6RJ1ZBqpbwGpo/jZweVU/p6SMn4Uv/Ix3+/yVycNarNNIBYxr2pky38K5r1K9ffsfgt9FQ/5lJeqA0YSuCM20ikMZuBu4AvgbsNQ2juRQb+CLwInAAajTKi9KhJlZlwG3owHw0jF7At8iFLk10yoes4DfEIpZHxpnyY3qFbDOad6eGh5GR47n1f3gG2msux2cftjnwTnN61LwJ+PcqcAmVfiM06kt1VOsb63C55L060XotvofwumBEq93gKsIxaxnjLNI/IYC3waOA9Y2ziK25gA/J1x/dPCEfFJPQsHqe8DuxlmkshYQurImA7ONs0SvOgWsMCvnfnDDqvL5JE0eAFekceQd1kHEyOjZPVh34XE490PCwr+SzqWxbkKFP4ek27rAdwlPOq0PGZDqKhOGrf6UcJKQSFIKwGGEgvi+6PRA+bj5hB0mPwfmGmcRewOBU9teg42zSPXNIKxDbiasSyRh1fkBPG7aBLxvqMrnkrS4F184j4kjplsHkRQZO30ErnwW4VSmSlx/WvHszcS6ByvwsSXdNgXOBE7G6kABSZOHCQvI6wmnCYl0RX/gm8B3gC2Ms0j6fQj8GrgYeMs4i1TfhsAPgFOAfsZZxN5zwKXAH1CHZqIqX8Aa17Qz3j0A9Kj455I0eA3vz2TiqOusg0iKjW0ajnMTCE+yk/YE73+4G/976JIKfGxJn22AcwjbefRzRj7peWACcDVhdo1IRwwETiN0XA00ziLZs5hQyGpEHVl5sAVwNvB1wvgCkfbeBX5CmJu3yDhLFCpbwDp9Zh/6lR7B+20r+nkkDT4E30DtOv9HcaiG6UrHjLtvL3zNheBHJvuB3U9pHHlmsh9TUmYrYBJwFBqeLKv3CjAR+B3qyJKV2wRoAE5AN6LSfYuA/yX8rPrAOIskbwhwIVqHSMfMJ1wPLgHeN86SaZUtYDVMuxj8GRX9HJIGf6S2NIZi/WvWQSSjGqbtD/5nwGcT+ohlHPsyoU5zcOIziPCk8zvoREHpvKcIWzzutA4iqdKfcF35PtqCLMl7ldAp/CfrIJKItYAfEq4XOlFQOutNwoOSP6AZWV1SuQLWuGl74P0MoKZin0OsvYPzpzFh1BTrIBKB4pM9aZ33HeA8wuKgu56mdtBO6giMRg9C0eo8YIBxFsm+m4HTgRetg4ipWuAbwPno0AepvLsI85F03cmmGmA0YVv6IOMskn0PEbaqP2AdJGsq0+54+sw+eH8lKl5FzF1DbWmoileSmOLQpTTWXUJtaVvgj4Dv5kfcjpZ52kYYh4OBfxLarlW8kiQcQejGGo86bvLq84Tryv+h4pVUxwHAvwhdoLpHypZ9gUcJp02qeCVJ2A24H/g9sL5xlkypTAfWuOaJeMZU5GOLtZfBj6Zx1D+sg0jkxjTvQoFfAnt146MsgcKONI6Yk1QsqarNgV8SbjRFKuU5wumVzdZBpCo2BX5BKGKKWHmAcPjIC9ZBZJU2IlwvjrQOIlGbT+gKv8o6SBYk34HV0DQEz+mJf1yx5/kDtaWdVLySqphU9wi1pTq8+x7haOqu6AXli5OMJVVRA5xF6JBR8UoqbSugCZiCTpyLWS+gCMxBxSuxtwehG+t71kFkhQqEdcgzqHgllTcQuJLwIG1r4yypl3wH1rjmW/C64YjMm+BPVOFKzIxpHkyBycBhXfr73h3DxJHXJxtKKmQI8BtCu75Itb1I6Maaah1EErU7MBnY0TqIyApcDZwKLLAOIgBsTLheHGIdRHLpfeAM4LfWQdIq2QJWQ9OB4HSyT1zupbZ0gk4YFHNFX6B12veAiXT+9LlXWFi7LZcM/6gCySQ53yDMuepnHURyrUy4zpwPlIyzSPf0AMYRToCrNc4isipPAl9AWwqtfRW4jGQOExLpjuuBbxIKWtJOcgWs4tTetNb8C9gysY8plhbh3OlMGHEFuO4O0xZJTnHq5rTU/g7n6zv19xzjmVB3XoVSSfdsQGidPtA6iEg7s4GvAM9bB5Eu2YUwT2SodRCRDloA/Bdwq3WQHBpI6P7+knUQkXZeI8zKm2YdJE2Sm4HVWnMaKl7F4kWcq2PCyMkqXknqFOtfokfrgTguojMnFXp+wJjmwZULJl1URxhmq+KVpM0wYBbhFEzJDkeYKzQDFa8kW/oDNxK2MUv17AE8iIpXkj4bA3eD5ou3l0wH1tgZm+FKT6GjqLPPcQNLCv/NRSO0D1/S79z76inXXAu+o8fP/pHGuq9XNJN0xpnAj9Fx4pJuJcI8ip9bB5HVWpNwJLmGLkvWjQMarUPkwKnApYTtxiJpdiUwGlhqHcRaMh1YrtSIildZ54EJ1Iw8RsUryYzx+0ylluHAox38G19lXNPOlYwkHdKXcOLbT1DxStKvhnCDcy3Q2ziLrNxuwBOoeCVxmAD8H5U4MV4gzFK9hjDvSsUryYITCKcUbmAdxFr3O7DGNe2Mdw8n8rHEyvt4dzwTR/7dOohIlxSn9qa19pfgV992791UJo7UCXd2NiBskdjLOohIF9wFHAO8Zx1EPuZYwvwaHQAhsfkN8C10oESS1iEMyN7HOIdIVzwPHA48bR3ESveLTg3Nt6P5ENnleAbvD6Nx1LPWUUS6raH5dDrS1VMoH8j4fe6qSiZpbyhwO7CJdRCRbniMMLPtXesgggPGAw3WQUQq6PeEuViaS9t9WxPWIZrbLFk2n1B/ecg6iIXutaWee98BqHiVXY5bqSntquKVRKOx7hIK5UNY3ZGz5cIF4NU1Wl0HEwZiq3glWbcT4eCBIdZBcq4vcAMqXkn8/hv4pXWICIwkXLtVvJKsGwjcB+xvnMNE9wpYZTc+oRxSdf4qagYdSbH+Q+skIokav89dlNkXeGMV77UrDc2HVCuScBxwM9reI/EYAkwFtrIOklPrAfeiU8MkP04FfmQdIsOOJmwBX9s6iEhC+gK3AF+wDlJtXS9gjZl+CLg9E8wi1eGBc2msO5Hi0NyfYiCRmlT3CLWlPQgDfVfmfHVhVcU3gKuAntZBRBK2GeGGaFPrIDmzKdAE7GEdRKTKLiDM4JPOOQ74E9DLOohIwnoBfyaMNciNrhewCmW1bGdPC94fT2PdBHDaRy9xK9a/RmlpPfDIit/BDWPstNw9taiy04DJ6KRBidfmhE6sDY1z5MWWwHRgW+sgIgYKwJXA7tZBMuQU4Gp00qDEqw/wd3JUxOpaAevc5v2A4clGkQr7iDJfYuKoP1kHEamaC/afR21pP+DBFf5z51WIr5zvAj9HJ9RK/LYA7iTMpJDK2ZJQLNQcPcmz3sBfUdG8I04ALkfrEIlfT+AvwDDrINXQtQJWmXEJ55DKeh/vD2ZS3a3WQUSqrlj/HrU9DwBmfvofumE0TNun2pFy4ERUvJJ82QG4ifAkVJK3KfAPVLwSARhM2Jpfax0kxY4BfkN35z2LZEd/QidW9LM5O/9NPXb6nsCo5KNIhbxLmX2ZOKrZOoiImeKeH1BbOgj49PeB82dWP1DUvoAWjZJPdYStKircJmtDQufVFtZBRFJkP0CHaa3Y/oRrsQp8kjcbEDrCB1kHqaTO32AUyj+oQA6pCP86FEYyqW4lM4BEcqRY/yFLC4cBj37szz2Hck7z9jahojMcuA7NvJL8OhLdVCZpIGFQvopXIp92Fmoq+KSdCd2wmnklebUF8DciPjypcwWshhlb4jmqQlkkSZ6XqK0ZTuOIOdZRRFLjohELqC0dCLT/vnDU6GjqBGxN+IHZ2zqIiLGxhCPbpXv6ArcBesAgsmIF4PeErUMSthrfCvSzDiJibDjwU+sQldK5ApYrndrpvyMW3sH5QymOeMU6iEjqFOvnUnJfAOa2+9OvUJy6gVWkCKxFeOIZdcuySAc5wumbW1sHybAC8DtgD+sgIik3BGi0DpECaxDWIYOtg4ikxHeB46xDVELHi1HFqf3wfKOCWSQZcymX9qNx1NPWQURS64KRz+ALhwOL2v6kF60137SMlGGOcKz3UOsgIikyALgRDXXvqouAY61DiGTEd4ER1iGM/RrYxTqESMpcQThkJiodL2C1Fr4KrFm5KJKA+ZRrDmBS/b+sg4ik3sQRs4CvAr7tT0ZTnKqBn513LnCEdQiRFNqBcBqndM43gTOsQ4hkSIFQwMnr3KczCOs5Efm4vsCUtrfR6GAByzuc+5/KRpFuWoBzBzJp78esg4hkRmPdX8EvG7i8Ma01XzTNkz2HEgpYIrJi3yQc5y4dMxK4zDqESAZtD5xiHcLAKODH1iFEUmw7IpuH1bEC1tgZe+M1RDPFllAoH8GEkQ9bBxHJnNq68cAdbb/7tmWUjNkI+AOaiyiyOv9LONpaVm094E/kt4tEpLvOA9a2DlFF6xKuGeqeF1m1U4BDrEMkpWM3Hq6s2Vfp5fH+FMbvM9U6iEgmFV2Z8tITgTeAes6Z9hnjRFnggN8SFo8ismrrEb5fZOVqgeuBTayDiGTYOkDROkQV/YrwME1EVs0RTixdxzpIElZfwCpO7Qd8ufJRpGvcOUwcdaV1CpFMm7T/2/jCsUArtV7D3Ffvf4CDrEOIZMihwNetQ6TY+UCddQiRCHybcDJh7E4GjrQOIZIh6xPJXM7VF7BKtUcSjiaVtPH+chpHXmgdQyQKE0dMB3c+nuM4ekqNdZwUG4rmTYh0xc+I5OlnwkYBZ1uHEIlED+BH1iEqbEsiuREXqbLjCA/UMm31BawyJ1Y+hnSa87fzzNsarC+SpNoRFwAvsPWGB1pHSallJx31tg4ikkGDgPGrfa986QtMRrP0RJJ0IrChdYgKuhw1V4h01c+AXtYhusOt8p8Wp25Ma83LaGGRNi9TYjcuqHvXOohIdMZNH4r3p9M4UrP/Pu0kNMvH2gLgA+B94KPVvG9/lg+37UcooKi70FYZ2BuYZR0kJS5Hh2ekwRJgPh+/pixq+/PV6Q+s2fZWRYX0uBQ43TpEBRwDXGcdIuc+ZPk6ZNFq3rcfyw/mWIOwDtHQfXtFwtb9TFp1Aauh+YfARdWJIh30Afg9aRz1tHUQkWg1NH+bliXXcOEB71tHSZG1gDmEPfSSrDLwEvA84TCB14A3gVfbfj8f+A9hsVju5udam7CNbVDb23WArYGt2l5bE25EpXIeAvYAvHUQYwcAd7K6tah01VLCNeQV4OW215vAPMI1Zdnb+cDChD5nDaGYNaDttRHhBM6NgMGErqCNgc+gYlelLQI2Jfx/jkVf4GnCv5ckyxOuFc8T1iCvE64Xr7S9nQu8R1iHlLr5uQYQDgEaxPK1yLL1x7K1yFrd/ByyaouBbQj/fzNndRXQL1UlhXScd99iYp2KVyKVNOetyWw1eEvCD2oJzkXFq+7ywDPAI8CTbb+e0/bqSKdDEv7T9np2Fe+zPmFhszMwDNi17ffqxk7GbsBRwF+sgxjqDVyGildJWAg8RriuPEL43n4ReIvuF7w7q8TyawzAo6t4340IN6yfaXu7A7An4eZWuq8vcAJhu1AszkLFqyS8AMwGngL+zfK1yOq6qZLyXttrVeuQ9QjXhl0Ia5BhhHWIusiT0ZvQhXWScY4uWfnCoTh1c1prXljl+0i1XUJj3Q+sQ4hI7mwHPM7yNnDpmLeBaYSF4kPAw2S3KNqfUNDandA5U4dmoXXHHMINe6t1ECNF4DzrEBlUIlxHprO8YPUM3e+ISAsHbEsoZDf0wNsAACAASURBVO3V9nYHdC/SVXMIP79j6PYcQnjw08c6SMb8h7AOeYjla5GsduX1I6xDdiOsQ0ahr4fuKAE7Er6vMmXlPxAams4Ad3EVs8iq3c87fUcxeViLdRARyZ1bgM9bh8iADwhbou5ue71gG6eiaoCdgP2Bwwk3m+rQ6pxTgf+zDmFge0JnTk/rIBngCUWqZdeUmVSvSyItBgL7Ea4zh6MOrc46ELjLOkQC/gwcax0iA5YQCla3AH8nP+uQ/YF90HytzrqNDK7vV1HAmtYMfmQVs8jKfUjJ7coFI5+xDiIiubMb8AB6Ar4yHxEWidcQbjCTmiWTNVsAX217bWOcJSteI2yRWN0w/tjcRbjZkJWbSbim3E7cN6Cd1RvYlzDi5BjCvC1ZtSlkv/AzFPgnekiyMq3APwjXjNtYvoU3bzYHjiOsQ7a3jZIpexN+5mTGim9Izrl7EDU930b7TNPiaBrr8jwrQ0Ts3A4cbB0iZUqEYtU1wE2EkwFluWHA1wg3TRsYZ0m77xJmQeXFl4AbrUOk1PPA1W2v54yzZMEawNHAycAI4yxptpQwQH++dZBuuB74snWIFLqfsA6ZArxjnCVtdiasQ75CODxCVu5OMrbOX3EBa2zTsTj35ypnkRW7ksa6E61DiEgujSC0okvwATAZ+Dmhe0ZWrZZwg/kjQpu/fNqLhC6sPMzCqiF0UejJ+HKLgT8CfyDcjMYwq8jCtoRC1mjUlbUiJwG/tw7RRTsT5r6pCzxYClwL/IQMzi4yUEM4NOVHhGHw8mmeMCz/MesgHbXiVkznDqtyDlmx51n80XesQ4hIbmnIcvAGy08/+iEqXnVUK2GhvTNwEHCPbZxUGkIo8uXB8ah4tcx/gEmELS+jCds3VLzqun8Trs1DgEbCwwZZ7ijrAN1wLipeQej0/imwJXAiKl51VInQoTaMsHX9H7ZxUskRCnyZ8ekLQtEXaJ32JuH4SrHjKXAI4+vutA4iIrm0A6FbIs8Lx7mEIt5vCE89pft2Bc4ng0NDK+hRwtPPmPUiFBk2N85h7T3g0rZXVk8kzYJ1gLGEgxJ0WEAY7L0+2fua2wJ4lnzPvlpMuF5cSLh+SPftRDgJ9wjjHGnSSphfmomZi5++IJSad0TFqxRwl6t4JSKGvkt+i1dLgZ8BWwOXo+JVkh4GDgMOJRzxLqFD7UDrEBV2CvkuXi0BLiJ0CJ1P9goJWTMXOB3YDnVcQCggH24dogu+Q76LV38hdK2eg4pXSXoM+CLh5+5TxlnSohb4gXWIjvr0RcG7faofQz7G8xy1fTLVyiciUVmbsN0nj24hdJ+dgRaMlXQ78FngTHQzD/A/1gEqqA8wxjqEoZsJ15Sz0DWl2l4gDCc+Cf23P9I6QCetQfj/lkePA6MI28tfNM4Ss7uAHYHvkd+TG9s7kYzMEPx0Acv5kQY5pD3nTqM4bJF1DBHJrZOBvtYhqmwRYRbN4YQtC1J5LYSZHtsQZmXl2cHAxtYhKuQEwvalvJlHOAHri+hUQUueMMB8Z2CWcRZL9WTrdPnjgQHWIarMA5cAewDNxlnyohX4BeEwlauMs1hbAzjOOkRHfLyAVfQFvBtllEUAcFNoHHmHdQoRybXR1gGq7HHCgM8rrIPk1NuERdN/kd+noDWEp5+xqSF0M+bNHYQOw+usg8j/9xJQRygQ5NEAsnUK2ynWAarsXcIDtB8QthxLdc0lPGz5ctuv8+ob1gE64uMFrKX3bQ8MtIkiwCJqW8+yDiEiubYHYfZTXlwG7Ak8bR1E+DOhnX+mdRAjJxHfvJcvAVtZh6iiFsJpeIcCbxpnkU9rIRQITiafsw33tQ7QQUMJg7bzoonw73urdRDhBsI6pMk6iJFdCd2qqfbxhVKhZi+jHALg/QSK9S9ZxxCRXMtE+3ACyoQhv98lnPIj6fAqsA9ha6G3jVJ1Q4D9rEMkLE/zPN8idPhcTP6+drPmd4Rtuwusg1RZVgpYeVmHQOjSPBB4wzqI/H9vAPsDk8jntTz1XVifeNLn9rCJIcAceqzzM+sQIpJrtcCx1iGqoAR8nXA0taRPC2G4+9fJ31aK/7YOkKBRwG7WIarkSUInZ55nLGXNVMJN6nzrIFU0gnAiYZo58lPA+hXh3zWP3YBp1wqMJayJPzLOUm3HkfLrxCcKWD4vC40U8mMoDtUFTEQs7U/8w5aXFa/+ZB1EVutqQkfSPOsgVXQ44dS+GORlhs00QmHgZesg0mkPEq4xeTmhsA+wi3WI1dgb2Nw6RBVMBk4ldINLel1P6Ap/xzhHNQ0gdAWm1vICVnHWmoRjfqX6ZtA46kbrECKSe0dZB6iCU4FrrENIh80g3GC+ax2kSvoBB1mHSMDahPlXsZsKHEJ+CiAxeoxQOM7L6d9pL2DlYR0yBfgW+dyelkUPEopYeZpr+GXrAKuyvIDVsmQH4hsemg0FzrOOICJCmAkSs58QnnpKtjxOmN2SlyegqV44dtBXgd7WISrsHuDzwELrINJt04GvkY+CQtoHNMe+DnmAcOJsHr7WYvI0oYj1unGOavkC0NM6xMosL1g5PmuYI7+cv53xdfdYxxCR3NsR2Ng6RAXdDOiU1+z6F6GIlYfthEeQ/W2EsW8fnEHo2snbbJSY3QRMtA5RBbtaB1iFrYBtrUNU0JuEwoCuG9n0DKGI9ZZxjmoYQIq7wdt1XLmhdjFyq0zJnW0dQkSElO9376Y3gNHoiWfWPUko7sS+1acfYR5dVu1C3CMpngOORDehMTqf0I0Vs+1Jb2fFAdYBKsgDJ5GfTuJYPUd4eJGHE0xTOwag/ZZBFbCqzflbmVT3T+sYIiLE3bb/HbRojMUMwkl9sRcjD7cO0A0nWAeooA8IHRS6nsSplXDIR8w3pz1J7z3fIdYBKuh3wB3WISQRswnb5GMfwH8YKR0v1T5UzE/LUspdaJ1ARIQwq2aEdYgK+RvwV+sQkqgpwI+tQ1RYVjsRHKE7KUZl4HjCLBSJ14vA6dYhKmw76wArUEPYnhWjuWiEQWz+DhStQ1TYusBO1iFWpBaAs+5aC1jPNkruTGdC3QzrEJlXnN2X0qKd8XwOxxbgt8S7jVlenH0fmA/8B3gR/OP4Ho8zcXhehvCJdMQupHdLQXe0AGdYh5CKaAB2I9tb7VZlc8I8mOeMc3TWHsQ7S+8iQkFc4vc7QifhSOsgFbKFdYAVGAr0tw5RIeeTj/mNedNIWIdkuWN6dQ4AHrEO8UmhgFXTa0vjHDmk7quu8Y6xM/agUP4SnkNoXbQ94alN24YSt5q/78C1QkPzHBw3U/Y3M3HUzAqHFkm7vawDVMivyV4BQDqmDBwHPAZsaJylUg4ie1+/R1sHqJAHgXHWIaRqPHAa8DDL1phxSWMBK9Z1yHOEtYjExxO2HD9KeOgUo4OA1NUswt3+2GlH4/wU4yw54v5F44jPgYt9hkdyxs7ciELraLw/GdxGCX/0p3FcztIlf+TCA95P+GOLZMF1wDHWIRLWQlikv2YdRCrqYOA2Vv/0IotuBI6yDtFJz5POm+PuWAIMI5yEKflyJeEGNTb3AfXWIT7ht4Qh57H5FipgxW4f4B5SOi+qmxYDA0nZoSVt/6HL6sCqKv8LFa86aFzTZxnXPAXX+hKecytQvALYDs//0qPXizQ0ncFpt/WqwOcQSbMYn3xOQcWrPLiDcOMTo/1Y1imfDbsSX/EKYCIqXuVVkTDYPTZpvO+LcR0yD7jKOoRU3H3AL61DVEhvYJR1iE9aVikcYpoiXxZQW7rWOkTqFaduRcO0P+HdY3iOpjqL+LXBXcxa/Z6moenQKnw+kTRYH9jEOkQF/Mo6gFTNOYQhubFZC/isdYhOOMw6QAU8D1xsHULMvEjoUI7NhqRr7mV/YBvrEBVwFSnrXJGKORd40zpEhaRuFmAoYBUq0tUiK3Y1xfoPrUOkVvHJnjQ0/ZjWmqfAH4dNO+YQcLcyrnkKxZkDDT6/SDWl8TSi7noZ0CEZ+TEXONs6RIXsbh2gE2IcqP99dAOadzGeeFoDpOnebxvi3H51jXUAqZr3iffQoNStQ8LFwrOBcY78cOXfW0dIrYam7WidNx3cWUAP6zh4jqa1dRYNTVtbRxGpoG2tA1TAn2k71kFy4/fAbOsQFbCndYAOWpPsZO2oqcAt1iHE3L+Ae61DVMC61gHaiXEd8ixx/kySlbsWmGYdogL2IGUF5mVhYj3BJ20eZsI+D1mHSKWGpu+Be4RwHGmabA3uYRqmHWwdRKRCYizQ3m4dQKquTNhKGJth1gE6aATZmtfVEedbB5DUuMI6QAUMsg7QTozrkDusA4iJs4nvAWrqtvgWKPoC6arCx8s7DfL7pOKTPWmY9itwlxIGxaVRf/A3cW7zQdZBRCrgM9YBErYImGUdQkzcDTRbh0jYdoTFY9rtZx0gYfcCTdYhJDVuJAzkjkmaClixrUMgdHBK/swkzuJlqrYRFuC+gcT31CyNyvRwf7EOkSrFWWvSOu9W8KdYR+mA3pS5kXHNe1sHEUlYbAvH+wnH3ks+TbIOkLAastGFFVsB6yLrAJIqS4G/WYdImApYleNRATzPYluHQPoKWAywDpET0yiOeMM6RGoUp29I69JmsjX0tS+eWxjXlKVToURWxQGbW4dI2CPWAcTUncDD1iESlvYC1jrA56xDJOgJ4B/WISR1brAOkLB1rAO0M8Q6QMJeBuZbhxAz04lvFlaq1iEFSrVrWYfIBed0EsUyY5oH01puBna0jtIFA/DuVooz1rMOIpKAtUnXUdpJ+Kd1ADF3mXWAhA21DrAauxGK4bG4lPhmmEj33Q0ssA6RoLR0YPUivmYKrUMktnXI9qTo53wBX1YBq/JaqGm90TpEKhRnDqTAncCW1lG6YRNaSzdSfDK2G3/Jn/WtA1TA09YBxNwUwpHWsdjOOsBqpGprQTctAK6zDiGptIS4uirWsA7QZj1SdGOckH9bBxBzNwHvWodIUD9gU+sQyxTwBRWwKs276RTr51rHMHf0lBpaW68DYtiCtzeleROtQ4h0U4ydhK9bBxBzC4GYup63I903eGk7Pbg7phC+fkRW5F7rAAnqZR2gTYwP0rQOkaXAldYhEra9dYBlCoSKmlSS407rCKmw7QaTyNbMq1XznMm45q9YxxDphtgWjq3AO9YhJBWutg6QoP7AJtYhViGmAtYfrANIqsV0slxadhHE+CBNM48F4lqHQKoKWAV6WIeInitrGOjY5qPw/NA6RuI8v2XMjJ2sY4h0UWwFrPlA2TqEpML9hEG6sUjNwvETNiOeG9DXgRnWISTVHgcWWYdIiDqwKke7bgTC9SKmsRapWYcU8GUVsCrrTSbUPWYdwtTYpk1w/JZ0b4Hoqr4USrdRnL6hdRCRLuhvHSBhi60DSGp44ppllJqF4yfENP/qZjS8XVatRDilMgZp6cCKbR0C8JF1AEmNP1sHSFBq1iEFnFMBq6L8XeByvCDyDud+B8Q8a20wreXrNdRdMqi3dYCEadEo7f3NOkCC0nrwSQwzLZe5yTqAZEIsD6XT0oEV2zoE9DBNlotpHbKVdYBlCnhtIawoV7jHOoKpsdO/TExzr1ZuOK3zJ1mHEOmktCxgk5LjhwWyAg8Qz2mEqTn95xO2sQ6QkAVAk3UIyYTHrQMkJC0PXWNbh4BGGchyjwNvW4dIyDpAX+sQAAW8i3FbV3rUtM60jmCm+GRPnL/AOkb1+DMY13ScdQqRToht4ZiWY8ElHVqBu6xDJGQz6wArsZ11gITcB7RYh5BMeNY6QEIK1gHaxLYOAa1FZDkP3GEdIkGpWIsUCAs8qYy5FPd53jqEmdK80aR320NleHcF45p2to4h0kGxLRxT8WRIUiWWrpo0nkJYIEVbCrrpPusAkhkvWgeITGzrENBaRD4ulnUIpGQtUsB5PXGqnAdzO/9q9OweeM6xjmGgL979lTF3x3iqisQnttkTeuopn3S/dYCEDCB9w443BfpYh0jIvdYBJDNeQQ//kxTbOgSgn3UASZVY1iGQknEG6sCqJO9j+oLtnPUXHQvk9WS+TSn0vI3ibD2BEamu3sB61iEkVf5JPMP9U7FwbGdb6wAJ+ZB4TpaTymsB3rAOIamWii4VSY05wH+sQyQkFV/bBZz2/FeM40HrCGY837aOYGwXWhddbh1CZDWWWAeogHxtW5bVaQEetg6RkLQVsGIZ4P4wULIOIZky1zpARLQOkdh5iKYmkIp1SAEd9Vk5ZZfPJ3rFaVsAw61jpMAJjG060zqEyCostQ5QAVo4yifF8rM4bVvTU7GQTcBD1gEkc1TASo7WIZIHsaxDNrAOAFCgVIjliOm0+Q+T6t60DmGipXykdYTUcO4ixjUdYx1DZCViXDjuZB1AUudp6wAJGWQd4BM2sg6QkNnWASRz5lkHiIjWIZIHT1kHSMhA6wAABWrKH1iHiJOfY53AjHOHW0dIEYd3V3BO8/bWQURWIMbW/RHWASR1YilgpWLh2E4scy5jubGQ6ollnk0axLgO2ZR4OlQlGbGsQ1LxIK1AqaQOrIpwsXyhds7pM/sAe1nHSJk1qeE2nUwoKRTjwnEXdIS1fFwsD5RSsXBsJ4YOrBLwrHUIyZwYf3ZaifW/pR6mSXtahySogNMWworw/Ns6gol+S3cCeljHSKHNKPS8kdNu62UdRKSdGJ8i9wD2tQ4hqfIGcZy4nIqFYxtHHB1YL6FZsNJ5sRZdLMS4DgE40DqApMp/gAXWIRKwFlBrHaJAS8171iHi5F60TmDCF4ZZR0ix4azZ71LrECLtxDqIVnPnpL0ScRx7n6YthIOA3tYhEhDLU3GprhjnNlmJdR1yBKCH1tLeq9YBEuCAta1DFLhoxALgQ+sg0Sn4GBbLXbG1dYBUc3yLhqYzrGOItIl1EO0RxHFzLcl5zTpAAtLUgRXD9kGAl60DSCa1WAeISKwFrAHAAdYhJFViWIdACtYioQXM8xaOrYyzxKXG5fMEQsemeOsQaecuomHaHBpH3mKdRHIv1oXjmsCXgautg0hqnEBofc+yNG1bSlM3WHfE8ERcqq+ndYCIxLoOATgJ0FpflvkWcfzsfMU6QChgOd4GFbAS9eGit60jmPBsbB0hAwrgr6ShaU8aR2l4rFiKeeF4FvAnUEldAHjOOkBksl4MXMZ8IS6ZpINCkhPzOuSLwPbopFMJXmx7STcV2t7ms1uoct7n4oMWWocwom07HTMQ3J0Up65jHURy7W2gbB2iQnZA7fsilRJLASuWLR1SXSpgJec94CPrEBXigNOsQ4jEJhSwXG7nNVXKO9YBDBVW/y7SZgitNX/k6Ck11kEkt5YAr1uHqKBGdE0SqYQ1rQMkJObuD6mcWL7+08ADL1iHqKCT0C4nkUSFhb2P+sJhYZF1ADPOOesIGXMw22zwE+sQkmvPWweooN0Ii0cRSVYsHVjzrQNIJm1qHSAyMa9DegI6gVwkQaGAVXaaDZEoH2sr7Op5r6eZnXc646adah1Cciv2/fjjiedmWyQtYulAec86gGTSJtYBIhP7OuTzwIHWIURi0daBVYq58m3A5bcDC96yDpBJ3v+cc5v3s44huRR7B+5g4JfWIUQiE0NReDHxzt6RyqkFNrIOEZnY1yEAvwEGWIcQiUE4hbAXL9FKGc0KSYbL9YJIBwJ0TS1lrqU4dXeK9S9Zh5FcycNJmF8DbgX+bB1EJBLjgAutQ3RTrAdYSGXtAPSwDhGZOdYBqmAT4DLgq9ZBRLIuFLCK9YtpaH4dtcQmZbF1ADv+8XDohnTBurTW3Exx6t4U6z+0DiO58ah1gCr5FfA48LR1EJEIvEO+D6yR/NrdOkCE8rIOOQ5oAiZbBxHJsvYdV0+YpYiNz/Eg83L5AesIGfc5Wmr+opMJpYqeAz6wDlEFawF/B9axDiIiIpmlAlby3gFesw5RJb8E6q1DiGRZ+wLWk2YpouN7Wicw05N/AwusY2Sa4yC22WCCdQzJjTLwmHWIKtkSuBHoax1EREQyx6Fh3JWSly6sHsD1wPbWQUSyankByzt1YCXF53hvfLG+FdzfrWNE4Bwamr9pHUJyY7Z1gCoaCdxFPKeoiYhIdeyKxq1UysPWAapoEDAdGGYdRCSL2hWwCipgJcbltwMLgPIN1gkicRnjmkdZh5BcyFMBC2A4YTuhilgiItJRX7AOELEHrQNU2dqEw2U+ax1EJGuWF7B6Lv030GoXJSLO57cDC2Dx4jvJx0ydSuuB51rGztRxzVJp9wDeOkSV1QH3A5sb5xARkfTrAZxsHSJiTcBS6xBVth5hHfJ56yAiWbK8gFWsX4zmYCVlDesApi4+aCFOJ2wkZDCu5a+cPrOPdRCJ2jvk4xjrT9oemAZ8zjqIiIik2heADa1DRGwR+dpGuMwahNmcx1sHEcmKwsd/62bZxIiNX886gbmawiXk70lKhbhhrNF6DUVfWP37inTZVOsARjYmPAE9wTqIiIik1vetA+TAvdYBjPQErgJ+0fZrEVmFj98QO5+3OSgV4tYF76xTmCqOeAO40jpGRL5I67Sx1iEkanktYEE4lfAPwG/RCYUiIvJxhwEjrEPkQJ7XIQCnEbrCNzfOIZJqHy9glUrqwEpGT86ePsA6hLna2rOBedYxInI+45qOsw4h0boDWGwdwthJwFNAvXUQERFJhR7AT61D5EQzMN86hLHdCeuQs/jUTikRgU9+Yzz77tPAQpsokXGsax3BXHH4fOBC6xgRcXg3mTEzdrIOIlFaQH7b99vbDLgLmAT0Ns4iIiK2zgQ+Yx0iJ1qA26xDpEAf4MfATcBg4ywiqfPxAtb1x5TwqAsrCbWl9a0jpMI7fS8lzJeRZKxBoXQzY+7W15dUwhTrAClRA5wDPA+MRk9BRUTyaG9gvHWInNE6ZLkvENYhPwb6GWcRSY0VLcr1BD4JvmYr6wipMHlYC+WlXwLetI4SkU0p9LyN4mzN6pGk3QK0WodIkQ2BXwP3ALsaZxERkeoZRJjlWmsdJGfuInSES9CHsJ3wMeBI4ywiqbCCAlahufoxIuS8CljLTNr/bcqFk4GydZSI7ELrosutQ0h05gF3W4dIoX2Ah4A/AUNso4iISIX1AP4CbGkdJIcWA3+zDpFCWwI3ADOA4cZZREx9uoD1bu8H0Bys7vPaL/8xk0bcjvdnWceIzAmMbWqwDiHR+a11gJRywHHA08D/oZkoIiIxKgBXEB5ciA2tQ1ZuOKGI9TegzjiLiIlPF7AmD2shfGNI92xtHSB1Jo66GM8frGNExbnxjGs6xjqGROWvwBvWIVKsF/AtYA4wHTicUNwSEZFs6034GXiCdZCcmwo8aR0i5Q4HmoB/EmZ16tAZyY0VD6b1fmqVc8RoC/C6qfmkHqXTgCesY0TE4d0VnNO8vXUQiUYrcLV1iIzYm/AU9EHgK2hWiohIVq1FOPXtcOsgAqAH3h30WcKszqeB76Fh75IDKy5gFWr+XuUcMepP8T7tnf+kYv2H1BYOA96xjhKRNanhNp1MKAn6DeCtQ2TIMOBa4DmgAdjENo6IiHTCUMKDiIOtg8j/dyWwxDpEhmwOXAq8ClxCKGyJRGnFBawJI54kfANId5RqhllHSKXiiFfAfRWddpakzXC9rmX07B7WQSQKzwJ6kNF5mwETgJeAOwhdWWrrFxFJJwd8E5iF5hqmzbvAVdYhMmgA8H3C1sKHgG+3/ZlINFZcwALwXjcv3beHdYDUahx5N45vWseIivP1rLfwN9YxJBoXWgfIsAJwEKEr6w3gl8CupolERKS9TYDbgclo21Va/QSdYN4dw4DLgTcJpyjvz6ru/UUyYuVfxI5bq5gjTp7drSOk2oS6P+C41DpGXNzXaWg6wzqFRGEmMM06RATWBr4DzCYMpR0P7GiaSEQkv/oAYwkzgw4yziKr9ixwo3WICPQmnKJ8F6FD/BJgBCpmSUatfMh4cXZfWhfNJVzopWsWUVtai2K9tsqtzOjZPVhv0R3AvtZRItJKgYMZX3ePdRDJvM8Dt1iHiNRzwA2ExflDaOaYiEgl1RJu4s8nzAvKu4cgEw/ahxGySvLeJBxccAPhRMOSbRyRjll55bU4bBHO31HFLDHqS6lWT9pXZfKwFmprj8bznHWUiNRSZgoNTVtbB5HMuw2Ybh0iUlsBZwEPsPyJaD2gOXYiIsnpBXwDmEMYDL65aRrprNmEAoskbzBwKnAP8BZwBeHBZV/LUCKrs7rWwT9XJUXMvD/QOkLqFYfPx/kDgbnWUSIyENydFKeuYx1EMs0Dp6EZFJW2KWHo6r3AB4Q2/7PQ3CwRka4aCvyacOr1FcAWtnGkG74PLLIOEbl1CIXeWwjrkNlAkbAOWfmOLREDqy5g1axxC7CwOlEi5d0B1hEyoXHUi3h/FLDUOkpEhtBaeyPFJ3taB5FMeww9zKim3oRBqz8mLCCfAC4ibLPW97KIyMqtDZwE/AN4HBgNrGmaSJLwGmEYuVRHDaFwdR5hHfIs8L/Aoag7S1Jg9RXVhmk3gD+yCllitZTFHw3k4oNUCOyIcdNOxfvLrGNExfvLmTjqO9YxJNM2JQy81cLF1kLCYP17CS3/j6HuOBHJt37AEcCxhKHsKvR3TFZmYC0zAHgGWNc6SM4tIRzyc2/b60FAs56lqlZ/+oDz11chR8x60rvvSOsQmTFh5OV4r6csSXLuVMZNO9U6hmTaK4QncWJrDeBgQkfWw8C7hNkg3wG2NcwlIlJNQ4BvAn8hbBG8GjgcFa9i9h5hK6HY6kWY1zkBmAHMB/4OnA58Dm03lCpY/RfZj6b3p2f5TcLCWbrCcTET6n5oHSMzik/2pHX+3eBV+EvOUlx5fybsM806iGRWLWHg+C7WQWSl3iCcJDQNaAaeQqcbikj2DSRso96/7bWlbZwoZK0Da5lbCVvZJJ3eJaw/lr2eQKcbSsI6ViUd2/RbnDupwlli9iqNIzcDpxuJjirOHEhrm4RI4wAAIABJREFU6yxAJ+klZz74PWkc9ax1EMmsXQhFrFrrINIhcwlPSJcVtR5Drf4ikn5bAnsQCix7E372rH7XiHRGVgtYmwL/AvpbB5EOeZ9wmvW0ttdDQItpIsm8jhaw6nCuqcJZ4ubcnkwY+YB1jExpmL4NlGcR9r1LMuZQW9qTYv171kEksxqBsdYhpEsWEGZXLOvQeghYbJpIRPJuEKGQ0v6lE5QrL6sFLIBTgF9Zh5AuWQTMYnmH1gPohEnppA7uU/WOhmnPopbdrnP8jAl1Z1jHyJyGpgPB3Yo6PpL0D+a8dSjXH6OWXumKAnAXYTuHZFsJmEN4Ono3MJXQtSUikrR1gJ2AocD2bW+HooeUVrJcwAL4I/A16xDSbe3XITMI65BXTRNJ6nV80NrY5nNxnF/BLLF7jcaRm2obYReMbf4+jkusY8TF/ZTGkWdap5DM2gx4lHBkucSjlfD/tZnl2w7VrSkindGLcKjENsB2hCLVDoSREHoYmR5ZL2ANIPy82tw4hySrBPyTsA65j7AOmWcZSNKn4wWshqYh4J5De9C7TtsIu66h+SrgeOsYEfE4/zUmjLrGOohk1lHA9ejEmZiVgccJxaz7CAvJ+ZaBRCQ1BhIKVdt94u3mQI1dLOmgrBewAPYkFDp6WAeRiikDTxLWIE2E/9/vWgYSe5278RjX9De8O7xCWfLgChrrRluHyKTRs3uw7kd34ny9dZSItOA4gAl1mm8nXVUEzrMOIVX1AqHNfzrwD+Al0zQiUklrEIpSy7b9bdH26y0JnVaSXTEUsCA83L7KOoRU1ZssH31wF/CibRypts4VsMZMP4RC+bYKZcmDhbQs2YgLD3jfOkgmnXP3IAo9Z+HYyjpKROZR63anOPIF6yCSSQ64FjjWOoiY0UJSJNscMITlxan2harBhrmksmIpYAFcDGjOcH61X4fMIHRsScQ6ufXDOxqmzSHsY5cu8d+lcdRl1ikyq6FpO3D3A2tZR4mG4ylqeu5Fcc8PrKNIJq0J3E+46ZF888DThFb/ZXO03rIMJCIfszGhMLXt/2PvvuPzqsv/j79OkrZ0MMsoyJ5lyZBZmqRhb5BREFAQBb4gIAgC0gRvScqSpYgIioAoIgVkyYbSpBQoZe+9lCUFKqMj4/z+uJpfQ2lLxjn3dc7nvJ+PRx7RmNz3W0ju+3Ou8/lcF3P6VA1HhaoiCqmAVQXcCWzjHUQy4UXmrEEmAP/xjSNJ63nvkvrmnwPnJB+lICKep7FmXe8YuVbfsiPEt6EeC0m6iarqvSlFHd5BJJdWxvojLe+cQ7LnJex3o3Mx+bZvHJFCWBxrnL4esH6Xz5r4J51CKmCB/c7fj026FOnqNeasQZrRTvHc63kBq/Tg0rS1v43OvvdeXLElY0c+7B0j1+qbG4DTvWME5jSaahq9Q0huDccWB0t7B5FMe5OvTjl8xTWNSL5VYruoNpz90Vms0s0E+SahFbDA1h8PYAMFRObnHeYUs1qwHVuSI72bHlXf/Gfgh8lGKZLoGpqqD/ROkW9xRH3LNcD+3kkCEkO8D021N3oHkdxaE1sQLOMdRHLjv9gFx73A7cC/XdOIZNdS2NS172BHttfFXnOrPENJboVYwAL7O5mAiljSfVOx3Xv3YkdRtVM843pZwJq4FnQ8D1QkG6cw2mmP1uHM6pe9g+Ra6bn+tE29G6j1jhKQGUTRKBqrH/EOIrm1GbYAWNw7iOROO3ZRdffsj0eANtdEIj4WAjYGNgc2wXZXrYVaJ0hyQi1ggbU1uA8bRiDSEx3A49ga5C6sx2urayL5mt4VsAAaJtxCHO2WYJZiifkTY2sO846Re6feuwwV/ScDK3pHCch7VLVvRqlOOyGktzbG3vyHegeRXJuGXYTcCdyGTRoSCU2E7aTaHCsobA5sAPTzDCXBC7mABXaM9j7sb0uktz4DxjNnHfKObxyBvhSwxkyoIYomJJilaFqpqlid0khtU+yrhpYNiOOJwBDvKAF5nKpB1ZQ2+dI7iOTWt4F7UE8sSUYMTAFuxRaRT/jGEem1IcAIYCusWLU5aq4u5Rd6AQtsuua9aEqyJOcJbB1yK/AYtjaRMut9AQugfsJDEG2RUJYiuoCmmp95hwhCffOewA3oWGuSrqepejREenGW3loLKzas7h1EgvMO9rt1C3Z3dKZvHJH5WhoYCVTP/rwh6lsl/opQwAJYEvgn9rcnkqR3sXXIrdhuv+m+cYqjbwWshub9ifl7QlmK6DPaZ63CmdtO9Q4ShIaWRuK43jtGUOL454ytPdc7huTaUKy4rF51kpbPgTuAv8/+PMM3jhTcisAo5hSshrumEZm3ohSwAAYAlwIHeweRYH2J9cy6FitoqZiVor4VsGwS3JPYURHpjZjfMbbmGO8YYYgj6luuBjThMTkxUbw/jbXXeQeRXOsPXAIc6h1EgjcNuAkrZt2HmsBL+hYB6oDtgG2xnaciWVekAlanU4Cx6LSGpOtzbB1yLdYPVk3gE9bHAhbQMGE0cfSPBLIUVSvt0XqaSJiQ0viFaKt8AOspIcn4nCgaSWP1U95BJPe+j90FHegdRAphGnbEcBzWgFWLSEnCQtjOqm2B3VB/HcmnIhawAGqAfwDDvINIIUzHjhleje3QmuUbJwx9L2CV4graWp4E1u97nIKKuIHGmn28YwSjNH4YbZWPYhNIJBlv0TFrc87Y9gPvIJJ7I7CCwnLeQaRQ3sYWkH8E3nLOIvmzGFas2hPYBljUN45InxW1gAWwCtbaYCPvIFIo7zJnHfKac5Zc63sBC9QLKwkRI2msedA7RjAaJmxEHLUAg72jBGQS0z7fmot2VrNk6athwDXYsRuRcmrH+mRdOvtzu28cybBlgD2AvYCtgX6+cUQSVeQCFthO8N8CP/YOIoXTgU3pvhTrl6VWBz2UzBngF98fB7ySyGMVVcxY7whBaax9gjg60jtGYEawyJALvUNIEN7HdjEcAXzhnEWKpRLYFVs0/gc4C7sbLwKwNlACnsNepy4FdkDFK5HQTAcOA7bH3gtEyqUCe1+5Efgv8BtgNddEOZPMDiyA+uZ9sGMh0lsRP6Sx5krvGEFpaP4VMad5xwhLfCJNted5p5BgrA/8FQ0DET+twM3AH7DG71IsSwAHAD8ANiHJtbFIdhV9B1ZXy2DHunbzDiKF1Y71yroEa/we+8bJtgTfpOOI+pYHgS2Te8zCmUo7a3NmzX+9g4QjjqhvuQbY3ztJQDog2oOm6tu8g0gwBmDTgX4x+z+LeHkKOA+bHqSm7+GqBHYEDsEuWvW6I0WjAtbXfR97/V/KO4gU2nPA+cDfALVtmYcEx4hGMXF8SnKPV0hDqYzO9A4Rlijmi6pDsTdqSUYFxNdw6vj1vINIMGYCv8IaqrY4Z5Fi2wD4C/A68HNgEd84krC1gbOBd7C73fug4pWImKuxqaJXoR0w4mdd4HLgTWAMsLhrmgxKfpt0ffMd2F0t6Z0Yoq1pqn7AO0hQShOXo619MkTf8o4SkDeoat+MUt1H3kEkKBHwI+AMdBdU/H0C/A7rUTHVOYv0zmDgQOBQYHPnLCJZoR1YC7Y11uR9Xe8gUnj/A34PXAB86JwlExLcgTVbXNGAqtZ9EUHHBZTGV3kHCUpp5LtE8feAWd5RArIKbZVXs+91ld5BJCgx8CdgTezNWse4xNPiQAN2J/RcYEnXNNITna8h/8Gasat4JSLddT+wIXAs8LFzFim2RbA2G29iRdVhrmkyIPkC1tiRU4DrEn/cQok2pLXyVO8UwWkc1QLxUd4xArMjw4ed6x1CgvQp8DOsufu/nLOIDAFOAF4FTgUG+caRBagD7gReBI4DFvWNIyI51QZchBXDf4duqImvgcAxwCtY240hvnH8JF/AAoirTgA+T+WxiyLil4yZUOMdIzhNtZcTRWd5xwhKzHE0tKgwKGl5EdgVuyhVLzvxtigwFngZO+qazjpKeirCXicmYTsndkDTBCV5XwAne4eQspuKFQ7WAcahk0biawhwGnZD7SigcKe20ll4jR3xH1CRoI8qiKIrOWniwt5BglM5cgwRN3vHCEoc/4bTmrfxjiFBewA7ArQ/VjwQ8fQt7KjrFEA3m3ztATwB3IomYUt6HsEGjVzqHUTcvAqMBrYA7nPOIrIMcDHwJLCtc5aySu/O4bTPzsW2uEnvrUL/jvO8QwSnFHVQ2X4Q8LR3lIBU0cF11E9YwzuIBC0G/oFNEtsH7cgSfxsBE7Dfy5WcsxTNNsDDwE3Y9EiRNMwCSsBIdF0jZjJWMNgMuAHo8I0jBbcucA/2Xriac5aySK+AddHOM4kjbbPtu8Oon7C7d4jglOo+J67cHU1zSNISEN1Kafxi3kEkeB3YonEz7CL2bt84IowGnsMa/upYYbo2Au6d/aHG7JKWGOvpuzbWb6bNN45k0KPYzbThwB+Bmb5xpOD2AJ4Bfk7gxwrTXWSNrf4ndmdS+qTiMsZM+pZ3iuCM3eotiL+HmjImaS3aK6+kFOsCTsqls9/NGth0lhm+caTABgO/AR4HNnbOEqKVsILCY1jhWiQttwPrAfsBrztnkex7BTgcWB6bFve+bxwpsIHAOdix+s2cs6Qm/YvMKD4GFQj6KF6GqO06Ss/1904SnKba+4GfescISswetLU0eceQwnkV+1teD5sWNM03jhTYBsCD2NRCNRLvu37AicBTwL7on6mk5z5gZ2AX4HnnLJI/HwFnA2sBJwGv+caRAlsPaAHGAJXOWRKXfgGrsfYZoujs1J8nfCNo/egi7xBBaqq5hIjzvWME5hfUNx/mHUIK6TVsWtDS2LGue9HEICm/hYBzsal4qzpnybNRWCHh19gESJGkTcd2766B9TW6wzeOBOB/2GvW6sAmwGXYBEuRcuoPNAEPYa9vwSjPMZ9PP2sCXirLc4Usig6noeVQ7xhBqqz+OXCbd4zAXExDc613CCmsWdi46+2ADbFJLdqVJeW2BTa9TL0se6bzGMQ92EWgSNJexHYnrInt3n3VN44E6jHgCOxGxsno90zKb1Ns8MBo7yBJKd827PqWURDfX9bnDNMMomgkjdWPeQcJzkkTF6Z/PAni9byjBGQqVdFmlKrVQ0KyYBDW0+QwYEvnLFIsMXA+1h9FzaAXbDPgrwR2x1gyYSpwLXA1VljujUWBTxNL5OdRAu6Rk2ERUIf1zNoTGOAbRwrm98DPyPnAgfIWkxqaryNm37I+Z5heo33W5py57VTvIMGpn7gWdDwMaJJech7ji6pqLhgx3TuISBfLA3tjPXW2cs4ixfE4NrXqDe8gGdQfO3ZzNJrkKMl5DNthfyvW2Lijj4+nApYkZSB2bPX72AQ59TqWcngBW/++4B2kt8q7QKisOA4d4UjCalQMGMfhU/p5BwlO08iXIN4P3SFP0ncY3HYFxNp9KVnyb2xi3EhsYtyvgXdcE0kRbIz1o1DR9KtWwvrVHYuKV9I3bVjvudOAjbAeRCWskNXX4pVIkqZjhdXR2GvgT4GHUd9OSdfawERyPM23/BeUDS0/II6vKvvzhukqmmoO8Q4RpIaWQ4njy71jhCUeS1NtvXcKkQWowAoL38N2Zi3pG0cCNgM4ELjRO0gGbIsd6xrqHURy62WsX9o9wHisiXZatANL0rYqsD+2FlFbE0nLLOBH2JH9XHHYERFHjGm5g4gdyv/cAYqin9BY/XvvGEGqb74M65UjyYgh3oemWl2wSR5UYruzdsMacKsfjyStAzgem4BWRBFwInAmAY75ltRMA6ZgPawmY4WYd8v4/CpgSTmtgR0v3BVbk+i1UpIUA6cCZ3kH6QmfIz2nNi9LBc8CS7g8f1g6INqDpmpN0EvavtdVMnyZW4mjnbyjBERDCCSvhmOFrN2wBvBaREpSzgJ+4R2izAYCV2BDFUTm51Osb9XjXT6/hO9RQBWwxMtQYCdsLbIDsIhvHAnIRdgR1lwcX/XrSTOm5ftE8V/cnj8sn9HRPoIz6p71DhKcU1oWpyp+BO2+SNJbtLMpZ9b81zuISC8tCeyCFbO2QUMfpO9+h/V/ysXisY+WAG5BfcBkjplYYeoF4HngOaxglcUJxipgSRb0B2qxYtaOwOq+cSQAV2Anj9q9g3wT36bK9S03QLyXa4ZwvEFV+2aU6j7yDhIcTSZMw/1Ute9AqU7N8iUEq2J9fLbFFpIL+8aRnLoW+AHQ6h0kRWsCdwKreAcRFx8AzzCnSNX5+RPPUD2kApZk0dJYQWtbbJfWCr5xJKduw3rAzvAOsiC+BazS+OVpq3waWNw1Rzju5KX3d2Xc6MxXTnOnvnlP4AY0HSlB8dk01Z7inUIkYUOAUcB2sz/Wdk0jeXM1cAhhTktbD7gLWM47iKSqFXgLeK3LR+fuqjfJ/++2CliSdZXYxNvOdcgIbMeWSHfcgB3vz2w9wX+sff2EnSG6LRNZghBdTFP10d4pgjRmwolE0a+9YwQlin5EY/WfvWOIpGh5YGugDitsrewZRnLhIuw4YUjWA+4HlvIOIon4gq8WqLp+vA2EvLtaBSzJm8FANbYGqQO+g/p4yoL9GfgxGW1rkI2i0ZgJlxNFh3rHCIaKAimJI+pbrsFG20oyvqCjfQv1b5MCWYU5i8g6rMAlMrdfASXvEAlZD7gPO+Ii+TEDeGUeHy8D7zvm8qYCluTdIkANc9YiG6ITJvJ152GTgjMnGwWs0viFaKucDKzvHSUQbVSwI6fX3OcdJDiHT+nH0l/ei73wSxJiXqVt5iacvd007ygiDtbAFpE12IjslT3DSKYcCfzBO0QfrYvtvFLxKptasWN9L8/+6Fqoeof8H/dLgwpYEprFmVPQ2grYCKjyDCSZ8XPgXO8Qc8tGAQvg1PHrUVE5GRutLH33McRb0FT7ineQ4Jx67zJU9H8UNUhM0i00Ve8JUSa3qoqU0SLYRcVIbCE5EljINZF4accmTN3uHaSXVgIeBoZ5BxG+xKb6dW2c/jzwrmeonFIBS0JXBWzAnHVIHTZ9WYonxvphjfMO0lV2ClgAY5qPI+IC7xjBiKIXqWzbklJdCG+02XLqgxtS0T4RO1cuyTiWppqLvEOIZEw/4NvMWUhuAyzhmkjK6RNgc2xHTJ4sBjwIrOMdpGCmY4Wpuaf8vUWGG/LmjApYUkSr8tUba2uTtTqCpOVzbBDAM95BOmXrF68UV9DWcgewvXeUgNxEVfXelCJtA09aQ/NBxFztHSMgM4jiETTWPuEdRCTD+mHThbbCmrKOQMezQvc0sCW2iyYPqoCbgZ29gwQuxo79Pdrl4yny83uSVypgicwpaHUWtVTQCttL2M20TLR7yd4v2ikti1MVP4Y1upVEROfRVJ3JJmy519D8K2JO844RkLdpn7UxZ2471TuISI6sxZyC1lZYXy0Jy2XAEd4huuk3hDdFMQs+AyZhO9sewgoQmbiYKBgVsES+bihzdmdtBWwC9HdNJEm7BjjQOwRksYAF0PBANXHF/aiBXFJiovggGmuv8Q4SnFJcQXvzTcTRbt5RAvJ3mmoO8A4hkmPDsGLWSKwx6/poZHYI9gZu9A7xDQ4E/uodIhBTgfFACzAR212lY4D+VMAS+WYDsd+vzgE1I4AhrokkCT8A/9NH2SxggfphJa+ViO1orJngHSQ4x08ayODWZog28Y4SjIjDaKz5k3cMkUB09tHaljlb/hdzTSS9MQ0bd/6mc4752QQrtmjoQO+0AhOAe4HbsN5Vkj0qYIn0Ttc+Wtuh01Z59AX2Xv+iZ4jsFrCIIxpaxhGzt3eSgHxEVbQ5perXvYMEpzRxRdriyRAv4x0lEF/Q3r4JZ9a5vkCKBGohYFPm7NLaCpt+KNl3D7AD1v8oSxYDpgCreQfJmVbs3+mN2LTJ93zjSDeogCWSjLWxNUj17I+VXdNId03C/n259dfOcAELKE1agra2x7FRzJKIeApf9KvhghHTvZMEp75lFMR3Y7sdpO8eoap9JKW6Nu8gIgUw94QhTY/LrsOArO1QvQnYwztETnyBFazGYbuttB7LFxWwRNKxCPY72blbfFPURyurjgcu9HrybBewAE5t/jYVTAIGe0cJiCYTpqWh5QfE8VXeMQLya5pqTvIOIVJAw7Et/tsDo1DviiyZit25/q93kNn2Bq73DpEDTwF/BK7F/h1KPqmAJVIeQ4GtsXXI9sCKvnGki/8B6wL/9njy7BewABqaDyHmCu8YQYnjBsbWNnnHCNKYCRcTRUd5xwhEO3G8NWNrm72DiBRYf6wBa2dBa2OgwjWR/A04yDsEsDTwLLCUd5CM+hK4DrgUeNg5iyRDBSwRH2sxp5g1Ct1Y83YzsKfHE+ejgAVQ33IuxCd4xwiIJhOmpRRX0N5yCzG7eEcJxFvMqlifc0Z+5h1ERABYEtgG2AXYGbtLKuUVY8c9H3LOcQOwl3OGLHobOB+4ijCKHTKHClgi/jpvrO0I7IbaHnjZHuvjWFb5uYP60nsnE3OXd4yARMTR5Yxp1ptX0kpRB5X9D0AThJKyEv07zvYOISL/30fAP7BxyksC6wGnAA+SvebioYqw/hOeNyL3QMWruT0G7I5N1/oNYRQ6RESyZhbwALb2WBfbDXww1lvwc79YhXMeUFnuJ83PDiywpu6tbY8Ssap3lIC8R1X7ZpTqXM6wBq1+wioQTcYu8KRvYio6duD0UWWv8otIj6yBXcDvik2pKfvCpmD2AG5xeN7+wDPAmg7PnUVPA2OxXmDqLxo27cASybbFsGm9uwM7AYv7xgnegUBZT3Tlq4AF0NCyOXE8ARjgHSUgDzLt8224aOeZ3kGCc2rzLlRwM7qIS8IrfFG1gSZoiuTG0sC+wP7YVv/87PrOj+eBbwPtZX7ekwDtjLVm7PXAZahwVRQqYInkR3/smNv+2A0f9c1K3hvY4J9Z5XrC/C0mG6sfIeZAdEwhSVux6JC/Qpy/gmbWnVHzL+LoZ94xArEGg9t0wSSSHx8CF2M7sVYGTgSmeAYK0DrYFMByWhYr2hRZB9aYfS3gD6h4JSKSRbOA27ChJ0sDo4EbgRmeoQKzCmUeKpPfgkV98znAz71jhCU+kaba87xTBKl+wlUQ/cA7RgDaiStGMnakpjmJ5Nca2N3QQ7HClvTNFGDTMj7f74CflPH5suYx4IjZn6V4tANLJP8WwSboHYJNNMxvTSQbXsD6oZblZk7+dmB1aqo+GaLrvGOEJfo1DRNGe6cI0oeDf4w1G5S+qSTquJJjbtcRYpH8egVoxO7aVWNNV9tcE+XbJtgRiXJYGTi8TM+VNa1Yw+DNUfFKRCTP/gf8BdgaWB07Ev+Ra6J8WxsrCJZFfgtYRDFV/Q5Dk96SFBFHf+QXzRpFmrTLNmmlgwOA97yjBGAtFhl8vHcIEUnERGxL/9rYNJuPfePkVrmOqp8I9CvTc2XJu1gz4LMpf78xERFJz+vYzYlVgCOxoRzSc2VrmZP/7XKliSvSFk+GeBnvKAF5i6rKzSht9aF3kOBoCEFSZkK8EU21L3gHEZFEDcSOFx4PrO+cJU9irInqyyk+x/LY7rmFUnyOLLoVO+6qu/MCOkIoUgTVwDFYj8kcb/gpu42BJ9J+kvz/CymNfJu4Yy9AE/SSsxJt7f/UMa0UNFY/AvEJ3jECMACiSzR4QCQ404ErgA2A3YBJvnFyIwJ+nPJznEDxilfnY8ciVLwSESmOFmx3+HDgT5Rxwl7OHVaOJ8l/AQtgbO0koqioPRnSMoJFh1zqHSJITbUXE3Old4wA1NLQcrB3CBFJRYxNDtoK2AZ4xDdOLhyMjQxPw8LYLqSiaMfuvp+AJgyKiBTVK1hRZjXgj6hf5zc5ABiU9pOEUcACaKz+C0QXe8cIzMHUTyjypKH0tFYci01skL6IOZPSw4t4xxCRVN0PbIlt5X/ROUuWLQ3sntJjH4JNbSqCL4C9sGmLIiIi/8YGmKwH3IDdZJOvWxTbuZaqcApYAFVtxxFzn3eMsEQXclrzNt4pgnPOyM9oZx/suIz03jDaZzV4hxCR1MXAjcC3sf5YIfSgSUMau1Ij4OgUHjeLPgO2A27xDiIiIpnzErAPUAs86Zwlq1I/HRNWAatU10ZrxXchetY7SkCq6OCfnDp+Pe8gwTmz5nmi6DjvGLkXcxwNE9TsWaQYWoELgbWAP6O7oHPbFhiS8GPuCKyZ8GNm0XRsB9tD3kFERCTTWoBNsKmFnzhnyZpqYMk0nyCsAhbYzhY6dkcNN5O0MBWVt1Aan+ovYyE1Vl8GXO8dI+eq6Igu8A4hImX1IfAjYHvgLecsWbIQsFPCj/mjhB8vi9qB7wEPOOcQEZF8aAf+gB0rvM05S5ZUYkN4UhNeAQugqfYN4nhvNDEgSavQVnUjpefSahBbXFXtRwLvecfItYhtGNO8h3cMESm7e4H1gcu8g2TIngk+1mLALgk+XladANzsHUJERHLnXaxg8wNgmnOWrEhyHfI1YRawAMbWNhNHv/COEZa4mrapZ3mnCE6p7iOI/887Ru5VcA6HT+nnHUNEyu4z4AisL4V6Y1nBKambTXtju7pCdjnwG+8QIiKSa1cDGwGTvYNkwHbA4LQePNwCFsDY6vOBK7xjBOZ4GlqKNEq7PJpqb0G/q30TsybLTD/MO4aIuLkBWzw+6h3E2aLA5gk91kEJPU5WPQUc4x1CRESC8AYwEjjfO4izgUBNWg8edgEL4MNBR2AjuCUpcXypJhOmoC06AevrIr0Vx7+i9HBRRr2LyNe9CYwC/ukbw11dAo+xPCkuQDNgOrAfmgYsIiLJacWOpR8OtDln8ZTEOmSewi9gXbZJK1VV+xLzqneUgFTRwXXUT1jDO0hQzqr+hDg60TtGzi1J+6wTvEOIiKsvseOEF3oHcZTEwnE3wl4nnoaNRBcREUnaH7H30c+8gzhRAatPSiM+pqN9N9RYLUlLEFXcQmn8Yt5BgjK2+mpi7vOOkWsxP6M0fph3DBFx1QFl2DG5AAAgAElEQVQcD/zSO4iTLbEt/H2xcxJBMupRQNNrRUQkTXdi05KL2J9zI2wQTOKKUcACOLPuRSrYDxt5KUmI4+G0Vl7LvtdVekcJShQfCczwjpFjQ2irqvcOISKZcDpwincIBwOALfrw8wsBWyeUJWti4KdoPSgiIul7GGtq/rF3kDKrBKrTeODiFLAATq+5izgueccISsQODB92uneMoDTVvgJc5B0j3+IfM2bCCt4pRCQTzsYKWUXznT787ChgUEI5subvwEPeIUREpDCmADtiLQ6KpC/rkPkqVgELYGxtEzF/8o4RlJhTqW/W9LckVbWfDrzvHSPHBhBFDd4hRCQzStiI6yLZqA8/u1NiKbKlFdB7g4iIlNujwIFYi4Oi6Ms6ZL6KV8AC6Df0J0Czd4zAXExDc613iGCU6j4nihq9Y+TcIdRPWMU7hIhkQgz8GGjxDlJGG/bhZ0M9PngV8Lp3CBERKaSbgJO8Q5RRX9Yh81XMAlZp3Vl0zBoNvOMdJSD9iLmeUsuq3kGCUdl2GfCCd4wc60dcyN43IjJvs4D9gQ+9g5TJWvTuGOBiwDoJZ8mCduAM7xCSe/28A4hIrp0P3OgdokxWBIYm/aDFLGABnLHtB3RU7g584R0lIEvSFt9IafwQ7yBBKNW1EUdjvGPkWhT9ULuwRKSLd4HvU4wt/JXAer34uS0Ic314M/CGdwjJvYW8A4hIrsXAjyjObuANkn7AEBco3XfGVk8Sx0dgv0iSjA1oq/wjxJF3kCCMHXkTMNk7Ro71I45+5h1CRDLlbuB33iHKZPVe/MyIxFNkw2+9A0gQVMASkb76FDiYYtQgerMOWaBiF7AAxtb+DaJfeccIzP40TCzixKcURDFEv/ROkWsRh1EaP8w7hohkSgO2Gyt0vdmBumXiKfy9AkzwDiFBSPw4jIgU0kTgCu8QZZD4SRgVsACaRp4OXOsdIyhxPIaGCQd4xwhCU/WdwGPeMXJsAG2VR3mHEJFM+R9wvHeIMuhpX8oI2DyNIM6u8Q4gwVjKO4CIBONkYKp3iJQl3h9bBSwAopgvqg7FxltKMiLi6HIaWkJcCJdfFJ/jHSHnfsKJdw32DiEimTKO8N/3e7pwXAVYOI0gzv7uHUCCsYx3ABEJxkfA2d4hUqYCVmouGDGdqoo9If6Pd5SALEQc/5PS+OW9g+Teix/cQMTL3jFybAkGDjrYO4SIZEoMlLxDpKynW/d70/Q9614AXvIOIcHQYBgRSdLvgQ+8Q6RIRwhTVRr5LlH8PWzUtiRjWdoq/8Extw/wDpJr40a3Axd4x8i5YyjFes0Tka5uJ+xBGT3t/xdiAetf3gEkKInvJhCRQvsC+LV3iBQNBfon+YC6mJtb46gWIn7iHSMwI1hkyB+8Q+Te51VXAZ94x8itOB7OrJadvGOISOaEPJFwAD07EhhiAet27wASlDW8A4hIcP4MTPcOkaJEh1+ogDUvjTV/IkI9h5IUcQj1LWO8Y+TaBSOmE3G5d4xcizjGO4KIZM51WB+KUC3Zg+/9dmopfMwEJnmHkGD0A9b3DiEiwfkE+Id3iBT1ZB3yjaIkHywopfFVtFX+C9jeO0pA2iHenaZa3Q3trV+MH05l5fPob7e3OqiK1qBU/bp3kDI72TtAAqYA93mHkGBdBBztHSIlm2J/P98kwu4Ah3Tk/xFgC+8QEox1gOe8QyTkUWCzMj7f8SR8jMjB58DF3iEkWDXABO8QKakDHkjqwXQRvCAnTVyY/h0PorstSZpOzCjG1oTccyRd9c33ANt6x8itiPNprDnBO0aZfQ7kfQrjn4DDvENIsOqA+71DpGRH4K5ufN8w4L2Us5TbhdiFs0gSDgKu9g6RkHIXsN4n/xMc/wcs6h1CglUBvEv+/07mZR/ghqQeTEcIF+SckZ9R1b478F/vKAEZSMRNjJmwgneQ3IpRP7G+iDmU0pRB3jHKbJp3gARo0Shpmgh86h0iJYt38/tWTDWFjye8A0hQtvIOkGMhrEMWRtfOkp4Owu3Z2N11SLfoj/CblOrehPggoM07SkCWJYqu5/hJA72D5FK/obcCH3vHyLHFaJ++j3eIMvufd4AEqIAlaWqle7uU8mihbn5fiAWsZ7wDSFCqvQPkWAgFrAhYxDuEBC3UqbndXYd0iwpY3dFUezdEh3vHCMxmDG67nn2vq/QOkjuldWcRx9d7x8i1OC7aUbQQFo4qYEnaQu090d2+M6EVsNqAF7xDSDCWwnpgSe+EcCMNtBaRdBV9HdItKmB1V1P1FcRBj9r2sDNrLXu2d4hciirGeUfIuZHUT1zLO0QZhVDAGuYdQIIXam/G7jZlD62A9TYwwzuEBGNn1Du4L0JYh4DWIpKuj4AQB00lOhxGBayeePn944jiO7xjhCU+gfrmI71T5M5L740HPvSOkWtRfJB3hDIK4c7ncoB2bEqangVmeYdIQXfvfC6Xaorye8c7gARlB+8AORdKAUs9fCVtj3kHSIF2YLkZN7qd1ooDgVe8owTmt5z2wHbeIXJl3Oh2Ym70jpFrcXxIgY6whrBw7Acs6x1CgjaTMI+cdffO5xKppii/t70DSDD6oQJWX4WwDoHwdqpK9jzpHSAF2oHl6qzqT4jivYHPvKMEpIqOir9TP2EN7yC5UtmhAlbfLM9ayxalIetH3gESooWjpO1N7wAp6O6xp0SnBGXAu94BJBjbEl6Bt9xCWYdoB5ak7S3vAClI9Pi1Cli90Vj7zOzJhB3eUQIylCi6jdIkLRC6qyJuAb70jpFzRTlG+B/vAAlZzTuABC/EXTszu/l9oRWwpnoHkGB8zztAALQOEemeIq9DukUFrN5qqr0FONE7RlBi1qSt7VZK4xMdtRmsUt0MojjUaRVlEu9N6blEz2VnVCgLx3W9A0jwQuybVNQC1ifeASQIg4A9vUMEIJR1yHreASR4KmB9AxWw+qKp5gLi+DLvGIEZQVvVVRBr0kt3xNE93hFybjFmfbKNd4gyCOUojQpYkrYQd+10Z+FYSXjj4T/2DiBB2BdY2DtEAEIpYK0EDPYOIUELcR2S6ERgFbD6ql/HT4FHvGOEJR7NqS07e6fIhSi63ztC7kUde3lHKINQFo668ylpC/FYdncWjouScI+KDEh0wSyF9WPvAIEI5UZaBbCOdwgJWojrEO3AypRS3Qw6+C7wb+8oQangMsZM+pZ3jMxrHPk0RB94x8i1iO9SGl/lHSNl7xNGz76VUCNdSVdRF44DU09RfrO8A0jurQ2M9A4RiE+BL7xDJGQj7wAStA7CuwGjAlbmnFHzHlG0J2EufL0sR9R6E8dPCnFRnaAoJooneqfIuaF0RHXeIVLWCnzoHSIBEbCldwgJWojv491ZOPZLPUX5tXoHkNw7zjtAYELZDT7CO4AEb7p3gISpgJVJjdWPAQcSxi6HjIg2YXDbNZRi/Z4uSAeTvSPkXnvF7t4RyuAN7wAJ0cJR0lTpHSAFn3fje0IcZtHuHUBybRjwA+8QgdE6RKR7QluLdGcd0m0qDCSpqeYmiE7zjhGYPWmf+CvvEJkWRSpg9VXELt4RyuBl7wAJ0cJR0hTirt/u7L4McQdWiP+fpHyOBTQVO1kveQdIyOrA0t4hJGihvfYkegpEBaykNY08A6JrvGMEJY7H0DDhAO8YmTUregzt/OurVaifsLZ3iJS94B0gISPQRChJT1ELWCHuwBrgHUByaxmsgCXJetE7QEIiYDvvEBKsSsJ7T1YBK9uimKq2H6HJhEmKiKPLaWjZ3DtIJp0z8jPCuavlJw5+F9Yr3gES0h/Y2juEBGuQd4CExXRvJHeIu5VUwJLeOgEY7B0iQKHsBAfYyTuABCvE157/JvlgKmCloVQ3g6qK0ZoOl6iFiOPrOPXeZbyDZNST3gHyL9rRO0HKQipyhl5sFD/DvAMk7BO618w8xEmsmlgqvbEs8BPvEIEKaR2yI+H1KZJsCO1adyYwLckHVAErLaWRbxPFe5Nw1/2CW5GK/jdyzO26q/o1cUh3tXxEjAx86uWrhNPUeBf0/iXpWM47QMK6u20/xIl9Q70DSC41Et5OzKz4Dwk3c3Y0FNjKO4QEKbR1SKK7r0AXAOlqrHkQOAjbwi/JGMGiQy7wDpE5cUVId7W8DGDhtpAbhM8knAlAywGjvENIkIq6cAyxgLWUdwDJnY2BH3qHCFhMWMcIv+cdQIJU1HVIt6mAlbammuuJONM7RmCOpKF5f+8Q2RKF0t/IVxyN8o6Qsqe8AyToIO8AEqTVvAMk7O1uft+sVFP4WNE7gORKBFyIro3SFlLLi9Go154kr6jrkG7Ti3Q5vPj+acDt3jGCEvM79cPqol/rq94RghDHNd4RUjbZO0CCRgNDvENIUPoDw71DJKy7ux1CLGCt7h1AcuVHQLV3iAIIacjVEsBu3iEkOBt4B0hY4qeEVMAqh3Gj22mdeQDhjLHPgqFE/c/yDpEZpbpPSWGLZgFtHngfrMe8AyRoMLC3dwgJylqEN42vu7tzQzxCuKp3AMmNpUCnJcrkce8ACdORU0naut4BEpb4JgsVsMrl7O2mUdW+O/Cxd5RgRBzMmIlbeMfIkPe9AwRgAIPbN/cOkaLHCKsn37HeASQoG3kHSEF3C1gzUk3hYwlgee8QkgvnAUt6hyiIpwlrwNWOwBreISQYQwjv9ynxNjcqYJVTqe5ViPclzDudHiKi+BzvEBmiHVjJCLmA9SkpvJE42hhNAZLkhHiEuLt/75+mmsJPiEVJSdaewPe9QxTILMLqx1kBHO0dQoIxAqjyDpEwFbByr6n2fuL4MO8Y4YirtQvr/1MBKwlRvKV3hJRN8Q6QsJ95B5BgjPIOkLAPgGnd/N6ZwJcpZvHyHe8AkmkrAJd7hyig0NYhhwCLe4eQIIzyDpCwz4F3k35QFbA8jK29iogLvWMEI+o4zjtCJsQqYCUiDnoHFoTVQBXgu8CG3iEk91YkvMk/PW2cGmKLg1rvAJJZlcBfsaOmRRQ5PvfDjs+dhkWAE71DSBDqvAMk7GVSaF2iApaXDwadRByN944RiO9SGr+Yd4gMUAErGcMojQ+5b8q93gESFgFneIeQ3BvtHSAFj/bw+z9JJYWvEcAg7xCSSecQ5rHh7vIsYN1LWP04AX4KaDq69MXKhNfGpKfrkG5RAcvLZZu00jFzX+A17ygB6E9rlcbYwv+8AwSjrWIz7wgpegE7WhSSHYHQj35KukKcaNnTqaMhFrD6AyO9Q0jmfBc43jtEgb2H7cwIyWDgZO8Qkmt74VtYTkMq089VwPJ05rZTaWd3VHjouyjexzuCu4polneEgHzbO0CKYiC03Z8RcBF2JESkp1YlvLue0PM7nx+mksLfXt4BJFOGA1cR3oViT3n//7/P+fnTcDSwjncIya39vQOkIJV+dypgeTuz5nmI9gbavKPk3Nbse13BL15jFbCSEgVdwIIwF47fAQ73DiG5dCT+F3NJ+5ie7/B+O40gGbAHKm6LWQq4DVjYO4hwv3eAFPQDfucdQnJp09kfIZkBPJvGA6uAlQVN1feiSVp9NYThyw33DuFLO7AS0xGt7x0hZSEuHAGagGHeISRXBgM/8g6Rgin0vMfMO2kEyYBhwA7eIcTdQOAWwhvW0FveRfvxQIdzhjTUAQd5h5DcOdY7QAqeBFrTeGAVsLKiqeYibEuz9FZHvLF3BF/agZWYiFUoTQm58e/rsz9CswTwR+8Qkis/JMzx571pnBrqDiyAH3sHEFeVwN+ALbyDZIh3Aetj4HHnDGn5LfAt7xCSGyugQTI9ogJWlkz7/AhgkneM3KqIV/eO4CrWMdQEVdI+fW3vECm72TtASnYFDvMOIbkwCDjVO0RKenNMOOQC1q7YRYIUT4Td2Piud5CM8S5gQbjrkMWBP5ONf8aSfadhA0dCk1q7EhWwsuSinWdSVbUbMa96R8mlDpbzjuAqikLeMeQgXsM7Qcpu8g6QovNRI1X5ZscAy3qHSMFnwIO9+Lm3kg6SIf2AE71DSNlFWE+iH3oHyaB+3gGAf3oHSNH2aNKlfLM1gUO8Q6SglRTblaiAlTWlER9TEY8GvvCOkjsV8TLeEVzFHQO9IwQlZhXvCCl7kHCnjg3BFsaLeQeRzBoGnOIdIiXjgd4cKf8vMDXhLFnyY2Bp7xBSNhFwLnCUd5CMGuAdAHgOeNk7RIrOBrb2DiGZdh5Q5R0iBZOwm2mpUAErixprn4BoH6DdO0quxFEW3owdaQdWomJW9Y6QsnasoW2o1gT+it7nZN4uINwC5519+NnnEkuRPYOABu8QUhaVwGVoQNKCZGXNfKN3gBRVAf8AVnbOIdm0F3a8PUR3pfngWthnVVP1nRCN8Y6RK1Fc8IKfCliJioIvYEHYxwgBdsGaqYp0tROwv3eIFPVl4fh8Yimy6XCg2P0ywzcAKxqocf+CZaWAFfIxQoAlgduBod5BJFMWA37jHSJFfbmR9o1UwMqyppHnQHSdd4zciKNiF7CiWAWsZIV+hBDgXmCad4iU/QTQzQDptBxwpXeIFL1E3yaMhl7A6o+K2iFbHLgD2Ns7SA5kpYD1KGEPkABYG7gV2wUqEgGXA8t7B0nJe8CTaT6BCliZFsVUDfwh8Jh3kpwIuXfHN4tZyjtCYL4FcegTZGYC13qHKING1AdF7FjR3wi7D1Jfb3qFfISw007A97xDSOLWAB4C6ryD5ERWClgx8BfvEGWwJXA9sJB3EHF3DHZ8MFTXY3/XqVEBK+tKm3xJVfuuwL+9o+RA6HdwvkmI07Q89af0QBG2fF/hHaAMOidRHe0dRFxdDIzyDpGyvhaknyDlhWdGXES4d7+LqBYrXq3lHSRH+mPvjVlwJcV43dkJOzKpIlZx7YgNlwhZ6jfGVcDKg1Ld+8TxfthuCZmfKCp6ka/YUxjTMIth3hHK4BGKsesiwo4OHecdRFzUA0d4h0jZU/T9COAnwIsJZMm6odiQh0rvINInEdao/V7UY6inIiAr06tfAx7wDlEmOwI3A4O9g0jZbQKMA/p5B0nRW9jNhFSpgJUXY2snAQdRjDsUvdT+hHcCX/Fy3gmCUxUVZVdbEXZhgS3YLwB+TXbuPEv6jgFO9w5RBknd9Xw4ocfJulrgHO8Q0muLYEdmQx1DXw6LewfooijrEIDtgfHoxnORrI818x/iHSRl/6AMtQoVsPKkqeZ64ELvGBk1k0+/fNo7hJtSXAFRyH1dfLRXFmEHFsDVQKt3iDI6Efg72sZfBD/BJv2EXrCMUQGrN35G+DvzQrQpMBnYxztIzmWpgHUD4Q+V6WpTYBI69loE62G7RIvQq7gsfXVVwMqbl97/OXC3d4wMepyLdi7wEcsHliPsLalO4qIcSfgQuMk7RJntBzwIrOodRFJzCtbrKPTiFUAz8GZCj1WkAhZYb7SQG+qGpD/QhC78k5KlNc6XFKOZe1erokJs6DYH7ifs4TGdnsH6aKZOBay8GTe6nVkV+0D0rHeUTInjW7wjuGqrWMc7QpCiaFHvCGV0nncABxtjU1739A4iiarEihJnUoziFVihLinPAv9N8PGyrhK4BtjBO4gs0MbAo8AYdGQwKSt4B5jLhUC7d4gyWwTri3QhVqCVcOyOFa+KsPMKbFhSWaiAlUfnjPwMOnYHPvKOkhkRN3hHcBVXDPeOEKQoXsQ7Qhk9Akz0DuFgMWwq0B9QU9UQLAPcCRzlHaSM3saaAielA7gnwcfLgwHYP8O9vYPI1yyCHQOeDHzbOUtoslbAeh17Py6in2K7X3VDOv8qgV8CNwKDnLOUyyfYYJSyUAErr5pq34D4YIp3p+LrIp6nqfYV7xiuItb0jhCkDopUwIJi7sLqdATwOLbdW/JpW+DJ2Z+L5BKgLeHHvCvhx8uDAVgD2mO8g8j/ty/wAnAsmhiZhpW9A8xDkdchGwFTsN93XaPn07JYq58SxXrNuhw7BlwW+uPIs6ba24k51TtGBlziHcBfvLZ3giBFUdEKWDcDz3uHcLQmNv73L2g6UJ4MxaaR3QMUZfBCpy+w3YNJu4tiTj2uBH6LvRYW6Qh51tRiO66uAzRhOT3reweYh4eBB7xDOBqI7Th8HNjKOYt0XwVwMvAqsLVzlnJrI9k2Bt9IBay8G1tzDmXcspdB05hZcZV3CH/Rut4JwhQXZetvpxi7eCuyCPg+1ozyMNRrJev2wBb6+3oHcXIN8GkKj/sB8FQKj5sXu2Nj7lfxDlIwKwN/w/7Zb+obpRDWIZt9Ai/wDpABGwATsH6ORemhlFerA7cDZ1GcI4Nd3Ya1MigbFbBCUNV+GNbYsogus55gBVYavzLE2i2ShriQkx2vILlpZnm2FHAZ8DRq8p5FqwP/wqZnruicxUsr1qg+LUXtRdNpI2xtVdTiaDmthu0kfBE4gGwWVUK0KJDFHfy3Utzrmq4qsX6OrwGnAUN848hcBgGnYzc8izoEJAYay/2kKmCFoFQ3g45ZuwHveEcps6lUtZ/hHcJde8UI7wjBigpZwJoF/Mo7RIasjV3IT8YKWbqw8rUSVlh8HtjZOYu3K4A3Unz8a1N87LzoPJ56B1ZkkWStj+24egnrQzjAN04hZfHCOwbqvUNkyMLYuuw14BQoXH/WrBmINd1/FWgAFvKN4+pmbBd8WamAFYoztv2AjsrdsX4YxRDHZ1GqS+PoRN6o6XRqoiIWsACuxhrnyhybYoWsZ4CD0YVWuW2EFWxexo52FvVvs9MsYGzKz/EyDgvTjNoReBa7WNHfft9UYkd/78aOqR5AsZodZ80u3gHm426K3QtrXpbGdt2+BTSh/nDltiRwKlZIvBBr2F5kMdasvuxUwArJGVs9SRwd6R2jTF7hy34Xe4fIhJjNvCOEq6OoF8nt2HZ1+bp1gSuxHa9nUNzja+VQBeyD9QF5HDgE6O8ZKEP+RHl6TvyjDM+RFwthx0VexIqo+l3smaWx3SOvYUd/t0M7WrOgDljVO8R8jPEOkFGLYf9s3sReo2vQ31KaNsSm7L2D3TgqeuGq04049crUL3uI6pvPAX7uHSNFHcRxHWNrm72DuDt+0kAGt32C7gin5SGaaop6RDPCxjlv7B0k4zqAZqyZ9vXAJ75xgrAitivjSFQgnJfp2MTMf5fhuVbEjinqhufXvYUVsa/EdsTJ1w3Gjl4fAGyPhmJk1blk97rhFmA37xA58Dq2DrkG7aBPwmBgV2wdUuucJYvascLesx5PrgVJiF56/xdE8R3eMVITx39Q8Wq2wa3VqHiVpiJflMTAsbM/y/xVAKOwvkzvYTsLRmM9EqT7VgJOAB7C7iqfiYpX83M25Slege3yurNMz5U3KwGXYkctT0HHeToNBvbGelt9gE3K3hkVr7LsaLI7cfMEYKZ3iBxYFesb9jy2Y/kE4FuuifJnCLAfMA74EOsDqeLVvF2GU/EKtAMrXKXxQ2irnIQ1yAzJg3w4qI7LNmn1DpIJ9S0XQvxT7xgBu5emmu28Qzi7Euv5JD3zP+zC/57ZH2/5xsmcSuzu3bbYxe4maE3SHW9gx1inl/E5d8catcqCtWHN3i/HRqoXaZ2yDLZLZg/sb7rITY3z6m6sH1abd5B5aERN3XujA5gI3AXcCzyG7ZyROVYAtsZeu3ZENx+7Yyqw1uzPLrRYDFlp/Mq0VU7GxsGH4D06+A5n1LznHSQzGlpeII6He8cI2O001WS1wWm5LI1NiFrMO0jOvcycYtZ4rMBVJBXAt7HdanVYzw79TvXcXtgwgXKqwgpny5f5efPsA+A2rKB1D+H9vS+G7UzYGvt7Xg9dU4TgUuzIVNZ2Xg8EniO7u8Ty4mPgfuasRdKcYptVy2GvWXXYekTTZXvuKOASzwB6swndac070MG/yP+ElxlUdOzM6aPGewfJjNL45WmrfMc7RtAibqaxZk/vGBlwNHCRd4iAtGHTDJ8Cnpz9+SnC6Z9VAayO9U/baPbn7wCLe4YKwN34jbz/JU7ThgLQiu2CuANoAZ4gX0eiBmHF565/y98m/+vKJJwDnOQdImHXAT8Evkz4cQdjuzn3w/prNvXw57UTNHlvYccNn+ryEVJRa2nmvG5thL12ZXVgQV48ie2Yd93JpwJWEYxp+RlRfJ53jD6YBfF3aaq93TtIpjQ0/5iYP3rHCFt0DU3VB3qnyIBKYDJq6J62t7DFwXNYQ9bXZn/8BzsKkDULY3cvV5/9eTVgOHY0cGHHXCGagf1zfcnp+ZfGepPpeEXfzcL+zicDjwBPY3/nX3iGwvppDp/9sW6Xz2ui/lXzcj7wG8I8Hv46VrC+hr5dqK6A7XTZBWuIPWj215uAhl483s1YIUvS8ylWyHoGeAV7bXp99kcWC+/9sH6EXdcha2Lvl+oBlqwObPf8g95BVMAqijHNVxBxiHeMXpgF8fdoqr3RO0jmNEy4nTjayTtG4C6hqeYo7xAZsR5211RDA8pvJnZXtLOoNRU7CjC/j94e/1gE610zBCtADcQKF8vO/hjW5fNKWN8bKY+fARc4Z/gtcIxzhpB9wJy/8deB/2KNhD8APpr93z+iZ8XsKmAJbPdj18/LYRd3K8z+zytgf8/aVdU9t2HTFYdi/35C9QFWNLoHa9j8KvPukTUAWBnb3bIqsAFWuFp9Po/b2wLWsljBd8le/Kz0TYzdTOt8fXqPBa9DelvsGoitQxaf/Xkg9u97Gey1atjsj87XsBVRgb1cMjOtVAWsotj3ukrWGnYtsI93lB6YRsQeNNZM8A6SOaUHl6at/T/oRTtdUXQWjdW/8I6RIScCv/YOId0ykzlHQP7H1++i98eOdMz9nyV77ge2w38X3orYBWw/5xxix407gGlzfb2KObsfK7GitCTrGWAr4DNgUWzHSlHMwnYKfooVNAZi/dB6ujOztwUssOuYcb38WSmvmDl/H9OxncRz62wtEKG+mFn2LHZ0MBO78HTxWxTjRrdTmnIwbV8OA0Z6x+mGj4iiXefizWIAACAASURBVGmsfsQ7SCa1t++O/n7TF8ehNd7tq/OAbbBJLZJtA5izW069p/JrKvB9/ItXAG9jU0kPc84hc/6mh7qmKJ5/Y33oPpv93+d1QR6y/rM/PN9Trgf+DBzqmEG6J2LO74rWIfk1Hetdl4niFVijVSmK0iZf0jpzV+AB7yjf4BHiyk1UvFqAmP28IxRCFM19d7voYmz6yGff9I0ikojjgXe9Q3RxNrYLQ6RoZgCjsaNTnWaRvYl9RXACoCFGIuXRCDzvHaIrFbCK5uztplE1dAfgau8o8xBD9BuqhtYwdqsQm2Imo/Tg0tjoV0lbHH/oHSGD3gB+4h1CpACuInvv1a8Bf/AOIVJm7cDBwENzfT3Gv/l+EX2K7UydVz8uEUnOPdi01UxRAauISuvOoqn6YGJOxsY7+4t4mYqObWiqPo7Surq7uyCtbT9AxwfLI/rKnVaZ42ps+pKIpGMycIR3iPkoYU16RYqgAzgEuG4+/7vWCT4mYDuxRCQdr2FHB/syiTQVKmAVVhQztuYc4ooRRLzsGORLoJHK9g04fdR4xxw5EUdUROo/Ui6VkRam8/dzoMU7hEiA/os1Ks5Mv4m5fIIdJRQpgmOAvy7gf3+/XEHka34L/MU7hEiAvgT2wt7vM0cFrKIbO3IKlYM2ImYM5Z2kMouY31HVvhpNNadRqitaI8zeqW+uI2ZN7xiFMa1SBaz5a8W28E/1DiISkA7gB2S/v8tF2Ch1kZCdDvz+G75HBSxfx4DrjXiREP0UeNo7xPyogCXW3H1szRlUVa0G8Vjs7m9a3ieKmqhqX42xNcdQqtMbf49UZPVISYg+4YIR071DZNxbwIFkcHuxSE6dCtzpHaIbpgP/5x1CJEW/AX7Zje/TOtbX/4C90XAZkaRcAvzJO8SCqIAlc5RGfExTbT3TPl+BOD6ImPtIpkfWh8BVEO9N1dCVaKxuoFT37wQet1hKDy4N8Z7eMQrkTe8AOXEXtmNEk5hE+uZc8nU07x7gcu8QIim4EDium9+bpSmhRfUssCs2KVJEeu9qcjCoSY2g5esu2nkm8Dfgb5TGL0Zr1U5E1ELHBhCtDwxewE/PwI4+PEYcPQTRJPpt9TilqKMc0YPW1nYURP29YxRGpOMxPXANMBxo8A4iklPXAyd7h+iFU4DdgaW8g4gk5ArgxB58f9aP+xZFM3A4Nr01cs4ikkeTsOExmb8hrQKWLFip7lPg77M/oBRXwANL0FaxOFHFIl2+s43KivcobfWhR8zgnXjXYIiO9o5RKLEKWD10GrAY1o9CRLrvLuAArP9V3nyE7cC8HV00Sv79Gisk9+QC7pmUskjPXQ0M4Zv7lonIVz0J7IS1B8g8FbCkZ2wn1UezP6RcBgw6AuKh3jEKRTuweuNnwGrAzt5BRHLicWB/kjmu7+VO7Cjhj72DiPTBmVgPup56CWhD11RZcQm2I/xY7yAiOfEWsCfWTy4X1ANLJOsOn9KPKNYbcblFHa95R8ihNuC7wC3eQURy4AGghvJOAE7LMWgniuRTDBxN74pXADPRFLys+Sn56ico4uV5YAusiJUbKmCJZN1S0/cHVvKOUThtFc96R8ipWdiOknu9g4hk2EPYHc8vvIMkZAZwKHYxL5IXMdas/eI+Ps5zCWSRZP0CuNQ7hEiGvQrsSA4nqWq7q0iWlZ7rT+vU071jFNCHnFHzXoqPvzwwAjtutyJfvZnwLvAK8Ojsz3k0HWvsfCuwjXMWkaxpAXYhvLHvU4D/w5pgi2RdK9b0+8oEHutpYN8EHkeSEwNHYr35DnfOIpI1L2Hr8/+k8NhrApti1zjf6vL1DmzoxavYTbxeD8BQAUsky9o+OowoWtk7RgGlsftqHeAgYB9gjW7+zNvAjcBfgcdSyJSmziLWzcC2zllEsuJfwH6Es/NqblcC62P98ESy6mNgb+wYbxJaEnocSVaMFdVjbLqaiNj1xK4ku/NqS2wYzXf5atFqQV4GbsCucZ7vyZPpCKFIVp00cWGITvOOUUxRkr1cNsR6Qj2LbWnvbvEKbHfWcdjOhnuAzRPMVQ5fYm+S13kHEcmAi4E9CLd41ekkbLKiSBa9hPV8eSDBx3wIe7+T7OksYjV6BxHJgFuBWpIrXm0DTAQmYb0Eu1u8Atup9Qvs+ugWYIPu/qB2YIlkVb+OI4GlvWMUUhQ/mcCjDAHOwbauV87jf/8Ye9F+E5vq2Q4shRWt1gGGzfX922JvFFcAx5OfaSEzge8BH2JvbiJF0wGcCFzgHaRM2rFdZuOBjZyziHR1H3bU75OEH3cWdhG3fcKPK8k5Dbtovwht4JBiugi7fmhP4LGGAb/HdlzNy/vYrqq3sWucCLvGWRlYD1iiy/dGwG7YBPNLgZOBzxf05CpgiWRRafxitHGyd4ziqni0jw+wITAOWH2ur0/Ftspeg+2q6pjPz0fAt7HCzyHAMl2+figwCluEP97HnOXSgU0p+wA4Hfv/IVIEX2BHh2/yDlJm07DmsM3AWs5ZRAAuw26itKb0+PejAlbW/R67mfZXYIBzFpFyaQdOAH6T0OPtAFyNFaS6eg9rI3At1hdwfiqBTbAjhwcDi3b5+lHAdsBoYL6bCVSBFsmi1oqxfLU6LeXzKY1b9egs9lx2xPphdC1efQocC6yAHQmczPyLV2Bb3p8CTsEmUB7FV+8YrwpMAHbqQ04PTVhBboZzDpFyeAk79lu04lWnD7EL+l43ahVJwCzs/fcI0itegR3zl+y7HrtA/tA7iEgZdL4PJ1W8Ohy4ja8Wrz4CDsN2V53KgotXYAW1R4CfYtczv8b65nZaA7uO2nl+D6AClkjWNDywKVH0f94xCivmMYjiXv709tjF6pAuX5sMrItt3Z0+rx/6BjOBS2Y/xuQuXx+CNXjfuldJ/fwFqEYXtRK267EpPM95B3H2Nnb8OY1JRyLf5C2gBnv/TdsT2HQtyb4WbAdIX3fbi2TZQ8B3sN2hSTgc+ANfPcH3IHZ98ifsZkFPfYz1zRzOV0+VDAH+iW0K+BoVsEQyJY6IK36N/jb9RPGUXv7kulhBqeu29H9gx/3e7WMqsK25o7AL404LYS/wPWkMnwVTsMVjs3cQkYS1YRP4RgOfOWfJipexprFveQeRQvkXdvH2SJmeL8baA0g+vIMVN6/wDiKSgt9h1wz/TujxdsRupndtAXItdoMqid2Mb2M3t7te4/Sf/d/Xn/ub1YdEJEvGTDiYKLrSO0axRTvRVH1nD39oEHbnoGuvl78DB2KLWrAX+X0X8BgxdifiY+A1bMzt2/MKiL2g79Xla08Bm9G7ux+e+gHnYv2x9H4kefcq8H3gYe8gGbUSdid4Ve8gErQ2oAE4mznvv+WyFvBimZ8zj5qwf0dZcRRwPuqLJfk3FTsufUOCj/kt7DpjaJevjcOGtXS+xq6HreUXZNrsfG/MfryX5vE9EXb9tF+Xr72CDYT5ous3iUgWnDRxYfq3vwBRT0aQSrLaqOo/lNIWPZ3wdybWr6rTY9idhK5HBo/HFkjdFWNjaY/Ddix1tTB2kbxOl6+dgi3Y82gX4M9o6qbk12VYk9QFTs4RvgXcjg2pEEnau9jwE8/dvY9iO4xl/rJWwAJ7TfobdiEukkd3YoOe3kv4cccB+3T5788BW/DV9c5O2Ht7TzwH/By4Y66vD8KO+W7c5Wvnzv5eQMeURLKjX8dvVbxy92gvilcrY0eGOn2OjZXtTb+rriJgK6yItedc/9tn2A6smV2+Vg8s2cfn9PIvbPHY0zc/EW8fYOOfj0DFq+74D1bcv8s7iATnGux9xPto+uXOzy+98zTWt/BCyr9zT6QvpmMTVncm+eJVDV8tXrUCe5PMemddbN1/3Fxf/xK77ul6PXYcXdqlqIAl/6+9O4+TqyoTPv67vSQmEEAhbLJoAAFZREEcIN0hyiYCKgoOoCLDDMOoOIKsSUcK0gHhRZ0RHUZ4VURRQFHBlwwKTEh3COAEkX1HRGTfAtm7q877x+marm66k+50VZ+q6t/386lP1+2uuvch1HLPc5/zHFWDto5PkPGF1GGMeRnz1uJZZxHnaRd9h6E1KP8csU9O8fZZ4iB4Fn0rrpqJy9L2r056hL6riqxL30RarXkBOIT4JbwscSzSmgTiMtK7EFfk0dC9QXyvX5o6ENWF54iDnWOI01NSu5zyDyI1OlYQq+UPwoUnVBvmEafXfY/KJF7P7rd9OQNP/Sv1On3HN0cCnyeOcXK8dfGEi4j/DaX+Cswu2W4iXqgHnEIopXfGTevTPP4+YMvUoSjbn/aWm4fxhPWIJ6oTe7ZfJ/Z3eW2Ax/afQrgOq0/U/CvxSmDRKcC3+z1mMrEx8oSe7ReJU3S6hxB7NXsXsQHlxxLHIQ3kIWLPlFsTx1EPvkw8ebX3jNbGFcQr8wN956Z0KnFpeA2sGqcQ9rcecQD9JaAxcSxSfy8QP2eupHIVgzsQz3eKVgHvYeAFWUqnED4PbLaGfR8N/JTeXNSlxARXqQnEflmblBx/c+AVK7Ck1JrHX4zJq2rwJk3vGO7Ug8PpTV5B/AAu14n0d4AnS7b3HuAxLwHXlGxvDOxfpuOn9BSxQuPTeBVU1WMZMAPYDZNX5fJd4lTpJ1IHopryN+J3xLFUX/IK4lLz1VANprX3BvFC4oeIfU2lalAgrga4AzEBVMnprp/tt30t5VtN+GfALSXbA41xltO3UnscPc3dTWBJKbV1HkKcSqb05pHbabir+H2033Y5l9AOxOXniwZrcH51v+0DyxhDatcSG9V/h9qvKlPtyhPL5nckLthQa6t9Vru7gN3pm4yXBrKKWLG3E7F3YrVaghVY9eIuYhLrX4lV9lIqvyf2afsio/NaPKjfdrm/ox8ouT/YGOfKftsfBRNYUjq5ee+C8JPUYeh/rU0fm2kl918kNgEtp9IP9BWDPKaD2FSxqLXMMaRWvAr6Pmz8rNF3PfG1dxzwdOJY6tli4pXVz1KdFTVK7zfExNVpxNdLtfs2cH/qIFQWeeKFtO2I1S9eUNNoWgTsR7xA/cdROuZ69O1LVaD8leebltwfbIzzCH3PvVqBBhNYUgpHXNNId+PlwAapQxEAgaaG4SZHJtM7LxtiU8JylvLuRJyqVDRY08Sl9L2KsQP1eXHiQeLVoI8BDyeORfWvE5gKfJy+7y9VVnEZe1ckVdG9wEeIq/s+njiW4VgFnEgc+Kk+vEysfnk/cFPiWFT/HgX+HtiTvtPtRsOO9B1LPE55q762IK6aWLS68/o7Su6vB2xVj4McqfrtsFk7fat3lNb/kJs63OqKbfptP1amWLYCvkCsNir9jP7lap5TeuwJxCaH9Woucan0L2N/LJXfrcCHiVf5bksbypj1LDFRfRxxwKix6XliU98PAP+dOJa1dRtwWeogVHb3AwcQ+7DZH0vl9jCxGvm9xDYhlexzNZj+Y5xy9anchjjG6QQmlfz+F6t5Tv/x1bYmsKTR1ta5LyGcljoMlQhcuxbP6l89N9yGrUuJX0r9b38BfkRcTbDoUuJUwcH0P3a9V/Z1EZcM3gY4CXgmbTiqAzcTk1bTictSK73LiRWlPyDNCbzSeJG4utY2xO++fNpwRux0rBquVzcQexIdRpzmJY3EA8BRxBkYV5L2s2/9ftvDGeNsysDjm0Cs5PoRcbXxolt7fjeYl/ptbxATWCfNHc9Z83YYRmCS1kZu3hYQfo5L8laX5mx11U2DeVu/7cHmb4/E68R+H/+yhsct77c9oQKxVKOVxFXMtiUudW2PIg3HKuLCC39HXL2zM204GsArwD8Sk4tWOtS3l4EzgCnAN4mrftaDN4BPAW+mDkQVEYDfEhNZhwB3pg1HNei/gU8QZxdcRXVMO+4/jlhZgWOsIl6kOIzVJ+v6j3EmxgTWxQevpKHxME5eOFYGPdLoy81bl+7GG+jbtE7p/YFcy5Nr8bz+J9fD/fz8M/Bkz61/BdG3iCttbElccWlNX2YT+20vHWYstW4l8B/EK/ZHAgvShqMq9zxwLvEK4DE44KgFC4gDxCOxmqXevALMAN4NXEh9fn89CByPlYT17gbiBZG9iYmIrtU/XGPYMmLyZhdij7/rqI7EVdFIxjh5esc3TxLHO6V+RkzYbU6cJr6m5P46/baX9k4hzMIi1umeNYzgJA1ZyOhuvIyYXVc1CWF1865Xp/8qSBsN8/k7ExMu2xBP3EtXMAzAjcSluIei/7HH6lLP3cR59C3A7sCPqcxVI9WeAvEq52eBrYGzgeeSRqThCsT39y7EZED/k2LVlseArxC//85n6N93teoXwDmpg9CouJ04FexdQDtxWqwEsX/a14hNzP+Z6l2ptP8YZ8NhPPclesc32xCran9V8vcNiAm7oU5LnNxv+7XeBFZ76zzgSGbd2jKMACUNRVvH2cSVJFRdumluumItn9u/qeB7RhRHnAJXvDr7VWK1wVCVHnspDswhLjX8BWIV29eAh5JGo1SeIg4atyFe5bySWLau2tUN/JD4ufc5XCWylgTi6m2HEPubXczYmlp3DiaxxpJngVnExXmOIvZarKYqG42O14FLiKsJ7kKcZfFa0ojW7C2N00e4v5Ppra49mFj9PlT9x1ePlTRxzwJwDTT8J7l5/Xu7SFpbMzs+DpnVjdXpv8nts7ZXxl4lnpwUfZC+qwYO1wKgmExrJDYubh7C8yYRl7steginKZR6iXiy8F5iZdaPqZ/eKhrY68QEx4eJiascMZGl+tIN/JRY2fxJ7GFWzZYC/0msPD6AONVqrA7kc8SkhsaOlcQphfsD2wFz6Hv+qPqzitgb7ShgM+CLwP8kjWh4HiZ+xxZNYXhVWP09TaxGLPo33lpZNZi9Su6/BjzTb7AVfkRgR7qbfjCCACUVfb3jI2Rcw8gSG6qUkF0+wj2Urla2IXG575E4nd7pf7sAZw7hOfsCTSXb80cYQz1bQKzK2gz4PPHkwimG9WEZcYDwCWKfweOJ78+xOkgeSwrAb4iN3nclJkrGUlVPtSpO2/0H4qq6/0LsBaU4kPsSY7Ma9HnG9nnKk0AbsSrrAOAy4gIGqn0F4nnHCcTzzMOI5yWVWOSp0pbQd+GUjLhK80h8i94elhsRk1hrsjOxV1bRrUDoO6hun/YYhLsgHM3M+ceOMEhpbGtbsD0FrgLGpQ5FA3qTlcuuH+E+/qvf9pEj3N+LxBObopnEyqHV+XS/7RtHGMNY8AbwE+LJxSb0JrNq8SRjLHsBuJz4vtuYeKXzOkxKjmX3ERMlxf4inViROtruJk7b3oo4bfdHvLWfiuLCI62MndVzu4gD2O2JU+nGujxxOm0x2VFMZr2UMigN2zLi+eO/EFtWfJj4//HVlEGVSf8xzqdGuL9VwJdLto8GPraG53ym3/ZciNm0vto6j4PwQ2AloWEqc6YuGkGg0tiUW7AV3fmFkL0zdSga1MW0t35lhPtYh9hvalLP9svEBtEDTVE7mXjyVvrcgR7XCPyB3mquhcSpbwNVkkwG/kLv6iDPEgcNq1uOVoNbh3jycTBxFcit04ajfvLEK4Jze253YYWV1mwr4onyUbiQSqX8iTiI+zn2GxyujYiJ+DUN5GpVIDZwnoWvjaFoIPZKKp6HfABncVSbJ4jJnRuIFUH1evFzCvA4vfmilcTz4hcGeOxH6UkuEassN1vNfq+iNzH1V2KV1RsDPG4CcbGWTXq2l/fsd/Fb3xCL3/wZsQpgPFnhWnLzhruyljS2ndn5droLc01eVbUA4ZIy7Gcp8epy0UbEVZVGIk+cWlAcmO9N3ysWpU6n79K238fk1UgspfdK2ruIX6qnEb+UnZI0+grEZvzfIlbLbQh8iNgE+X8weaWheRr4BvA+Yv+Z04kXBnz9rL0VxGrfLxIHNO8Hvo4JirXxMrGp/eHUV6++AvBL4vvu0/jaGKoCcAfx/fRB4vSpLxCrxv+aLqwx7SlikvlY4ufdtsBJxM/Aek1eQZzuWlqFNZ54TjxSX6P3nHpL4iq0AzmJ3uQVxPfAYhioAgtgVscFBE4nPuI6GlsOJ5f5RS+tSW7RRLqX3UDsS6TqtYD21nKtuLo58QpFMZG0lHiV/8l+jxtqBVbRZcA/9txfQuyJ9VTJ33cjVmoVG72/TlyO/HVUCY3EK6GtxPf3VOJSwCqfpcAi4DbiCfwCqn+lHtWuzYCDiNPcPkLsnabBPU7sXXQD8Ht6V5RS+Uwg9r48BVg3cSxr61XiQPP7mLSqhCn0noe0Es/7VD554H56z0M6qa/E8nDtSfx3KOaMuoiJ1Xv6PW44FVgQk1gX9dwvEF/PpQuxbEecjr5Oz/ZK4mqET8NgCayZt21Nln+CeMIO5ZlqI9W33KKJdC3/f2RhpE3uVGlZOIbZ035Wxj22AbNLtm8jNjvsKvndcBNYGxGbHRZX/fgdcbAF8A5iBcqUksd/hbgkuUZHRvyC/WDJbTdgYsqgasgq4AHiSdBdxIqYe+m76o00mnYmJrL26bltvvqH17UCcRDXQRxUdBKny2t0bAD8E7ECYcvEsQxFF3Eq1eXE6YL1XJVSbTYG9qDvucjGSSOqHYE4Re3untvtxAvDS1IGVYUuJ1afFT1BfJ2VXmAcbgKrmfhvvlPP9iPEc+gVwPrE/xelK6yfC5xd3Bg4gQXQ1nk1hJKGxFmO9pZz1hCMNDadvmAS4wo3Eqd7qbr9lab8FHLTyzlQHk+8QrFbye9+DnyO3il9HyT2Vyr6Fn0TXAP5CPHEpOhy4BXiFfADSn5/O7FPltMH02oCdiA23t+l5+fOwDb0XhAaa/LEq5ePEq/G30vsl/Mga379Sym9i5jI2pM4DWpX4O0pA6qQAnFAcg+xCf4fidWPVvOm10xsnPz3xO/8Cat/+Kh6jTiF6vqen75eqseWxMRA6XnIjvRWs4xFLxAvCj9K/Jz7E/Ezb6DeS+prMvHfqjQp9V/AofSOO6YAR/TcXwp8dwj73Q04sGT7t8T/P9cRe8AV3Uf8Hv7fxPjgCayZC6aSFTr7/jJ8mfZp3xtCQNLYYfKqxmRn0t5yQQV2vA2xKqp0gHMjsVFhub4g1weuoW/y6mXi1DZ7I1SvtxGrtYq3bUvu10OVxwriVcynem5/Jk43eqTn51hcKl71aWtiIuu9xOkM2/fcaqFf7Cri9Iu/EBPI9xEHJQ/gdMBaMJFYhf1xYBqjv8jIc8TE5gJiRd69eNGsljQQXzOl5yDv6bn/bnrbUdSqPPA3es9BnqL3PORRXAl1pFqAW+j7Ovkv4hinXD1iNwCupu8Y53Vi8uqx0gcOnsACaOu4h74rtnRBOIT2ab8vT5xSjcvNW5fuxuvoW1mj6rWM/KqtOH+/Vyq0/72JvUFKr3I9QLyC+sgI970d8Gt6y20hljnvB9w5wn0rnXHEcv8te35uQWxauQlxULxhv9u4UYhpBfFk742e22s9t+eJS3w/S1zs5QVi4tSpRRrr3kF8D29JfA9vTlz9cKOe2+Se26TBdjACy4l9h14lvk9fJb5PnyImq57quT2HjevryWbERS32IlbXbE18za1tb8Y88XXzEjHRWRz4P9pz/9kRxqvqtgl9z0He2fOzeO4xueT+aPRny9N7/vEGveckLxA/y17s+VncfhqruivtM8CV9J1RcA/wSWLScCTeS5x+vH3J75YRK7QW9H/w6hNYs+YfTciu7PfbpZAdQnvLrSOLU6pxuYXvoLt7LvEEQjUh+z7tLSdW+CBTgd/Q27sK4pfqD4B24hWi4diY2GPrn+mbvHiVeCX2LR/sqmuTiBVdk4iJ0vHEAcuEnt8P1UriycFrxAHwMuIJ4lKsmJIqZTzxvbsesaJ2EnEwuLqpPcX3ZKB3mtZKepNW9htSqfWIiazxxIrw8by1N2Oxd01p0upF4mtMWpPia2r9nvvrEj/LxhNff0NVoPe8YxmxkudN4jmJfaiq02eI7UxKzzdXAv8BnEecFTIcWxB7W32B2Iaj6FViYqxjoCetPoF1xDWNbL/pQ8Qr/6WW0VD4BOfue9Mwg5Tqw4yOzWjIfg9h59ShaMjyEHakfdpja37oiL2HWAa7W7/fLwd+AfyM+KG8fJDnjyNWcx0FHM1br3bdR5xrPtKqLkmSJEkair2JfX636vf7N4jjm6uIC/MMVhE3gTgN+mjiWKb/xdc/AUfSb9pgqdUnsABmdn6OLFwxwF9WQTiK9mm/WuM+pHrStmB7KPyet75xVc0ClzOn9bhRPOJ44OvEpWLHD/D3FcQP56fovYI+jvi62o6BS7S7gO8QK7K86i5JkiRpNG0AfJNYOdUwwN+XEMc4T9Nb1f824uIo2zHwjIGVwEXEVd1Xru7ga05gnbComcnLHiXjXQMfKBxJ+7Tr17gfqR7Mmr8LIbuR+mi8PJYUyOd34vzpDyc49rbALGI11do2ySwA1xLLbB8qU1ySJEmStDb2II5NPsZQ8koD6yJWdJ1LXBF3jYZ2oFkdJxK4ZNCDhux45rT8ZEj7kmpVW+dBEK5mePO7VR2uor31qMQxbElcCvvTwO70bYI4kEBc5edXxJLcxysanSRJkiQNz47EC/WfJC42taYcUx5YRLw4fxXDXEl9aAmsk+aOZ/11noDsnYM8IpAxm9ktOchsAKj6M6vzi4Tw7/RtMKfakCfPrpzf+mDqQEqsT1wWdhvilMHS8ttniWW3i4iNVSVJkiSp2m1MrMzahriaZVGBmKh6HPgDsYH/Whl6qVdbx0nE3iurcyWLlxzPxQevdt6iVDOOuKaRHTa9iMBXU4eitTT6va8kSZIkSWU2UNOtgTVt+H3WPC/xGNafdBNn3bzhGh4nVb/TF0xih01+bfKqpq2kueHs1EFIkiRJkkZm6Ams3E6rCNlZa35gaKFx3J3MuK3/8vFS7Thr3g6MK9xJyA5NHYpGIOMSclOfTh2GJEmSJGlkhp7AApgz9ZfA7UN45DY05G+nbf7xaxWVlFLb/MNpbPwDsSGdcTk5kwAADy5JREFUatdrNObnpA5CkiRJkjRyw1/ucGbHnmTcMeTnZuHXrFp1HBfsv9aNuqRRccKiZiYv/S5ZdkLqUFQGWfbPzG65NHUYkiRJkqSRG14FFsCc1j+Q8ashPz5kn6R5fAdt87cb9rGk0TLj5k2YvPwGk1f1IvyJh5/7QeooJEmSJEnlMfwEFkBj/lRgOCsN7grZvbR1nsER1zSu1TGlSpnZeRQN4x4hC/unDkVlUSBr+Ed+cWQ+dSCSJEmSpPIY/hTCoraOC4HT1uKZN9PUcLyNlZXcyQsnMLH7QjK+xEjeC6oy4Qrapx2bOgpJkiRJUvmsXQUWwNKms4En1uKZ+9FdeJi2zjPIhbU/vjQSszr2YZ3uB8j4Miav6skr5LtOSR2EJEmSJKm8RjZwb5t/GGTXjWAPc2nKTiLX8uSI4pCG6ohrGnnPpl8j41xgfOpwVG7hq7RP+/fUUUiSJEmSymvklSdtnVdDOHIEe+giC5ewsrGNC6e+OeJ4pMHMuvWDhMYfQtg5dSiqiLt55PkP2vtKkiRJkurPyKfwhcKpwJIR7KGZkH2FcYV7YkWXVGYnLGpmZsfXCQ0LTF7VrTwhfNnklSRJkiTVp/L0/pnZeQpZ+GZZ9pVxAyGcRvu0h8qyP41tMzo+QAM/BN6XOhRVUMaFzG49I3UYkiRJkqTKKE8CKzevie7GO4EPlGV/kAeuIDSew5x9/lKmfWosObPz7TQxG8KJQGPqcFRRD7B4ye5cfPDK1IFIkiRJkiqjfKuvtS3YHgp3AxPKtk/oBn5OU/7r5KY/Vcb9ql7lHhhH96snQzgT2CB1OKq4FeTZnfNbH0wdiCRJkiSpcsqXwAJo6zgNuLCs+4yWQPh3mgr/Rm76yxXYv+rBzAV/R5a/GLI9Uoei0RLOoX1aLnUUkiRJkqTKKm8CKxca6FpwM1mYXtb99loFXE0+a+f8lkcrdAzVmrbOfSG0A/ukDkWj6k6a8lPJTe9OHYgkSZIkqbLKm8ACmHnb1mT5e4H1yr7vXgVgLlmWY3bLXRU8jqrZrM4PEUI7sF/qUDTqlkPD+2mf+kjqQCRJkiRJlVf+BBbArI4TCVxSkX33VYDsN1D4Hu2t8yALo3BMpTZzwR5k4SwIn6RSr2FVt8AZzGmtxHRlSZIkSVIVqtDgP2S0dc4FDqrM/gf0EHAJXSuv4IL9F4/icTUacqGBrs5DyTgFaE0djpKaS1PLoeSyQupAJEmSJEmjo3LVK2d1TKaRPwJbVOwYA1sC2ZUUwqWc1/rHUT62yu3U363DhInHEsJXge1Sh6Pk/kxT0x7k9n41dSCSJEmSpNFT2elXM+fvTZbdCjRX9DiDyXiQwE9pariS3NSnk8SgtTPr1r0IjcdC+AywQepwVBVWUGAfE9OSJEmSNPZUvn/QzM5TyMI3K36c1SsAnWT8lMb8L8lNfz1xPBpIbt4WdDd+DjgW2D51OKoyGf/E7Nb/mzoMSZIkSdLoG4UG2CGjbcEvIRxe+WMNSRchu5UGfkNj9/Xkpj+TOqAxLTdvU/JNh1Pg02RhGtCQOiRVoRB+yJxpx6cOQ5IkSZKUxuis4HbGTevTNH4RGduOyvGGLkC4i8B1hOx6zmu5z5UMR0Fu3hZ0NR1OFj4FTMWklVbvbpY27cO3916eOhBJkiRJUhqjk8ACmHHbbjTkbwMmjtoxhy17AbiFjFsoNNzCnH3+kjqiunDComYmL92LhuxAQjgAst0ZzdeeatlrNGV7kGt5MnUgkiRJkqR0RjeJMLPjU2RcQ+1U3DxBCLcAHWQspH3an1MHVBtCRlvHDsCHITsAmA5MShyUas8qGjiYc1tvSR2IJEmSJCmt0a+Caes4Czhv1I9bHs+RsZDAbYSG22l++x/J7bQqdVDJnfq7dZg4fk8KjXuThb0I7AW8I3VYqmmBEI5jzrQfpw5EkiRJkpRemmlcbfN/DNnnkxy7vLogewTC/cC9EB4A7qO99am67aU14+ZNaGralUK2K9Bzy3YGmhJHprqS5WhvOSd1FJIkSZKk6pAmgXXS3PGsv+7NxAbe9WgJ8Chkj5OFxwnZ44TsMcKKxzhvvxdSB7dGpy+YxPgwhVDYhsAUsmwKsB0xYbVx4uhU/35Me8txdZsEliRJkiQNW7pG2md1TKaBO8iYkiyGNJaR8QyB5yF7BsILhOwZKLxA1vACWX4x3Y2LGd/wOq8sXszFB68sy1Fz85pY0TSJt3WvzyrWpaFpC7KwKYEtCWFTsmwLYDNga0xSKZXALbw08aNcukdX6lAkSZIkSdUj7UpwbfN3hKwT2DBpHNVtBWSLCWEpGXngDQACr5PRv0LlbcCEeDc0ErL1yFgPWLfnb1IVy+6na8VULth/cepIJEmSJEnVJW0CC2BW54cI4WZikkXS2PQsTQ17kZv6dOpAJEmSJEnVpyF1AMxuuROyQ4EVqUORlMSzNOWnmbySJEmSJA0mfQVW0czOQ8nCr3A1O2kseZ58No3zWx5NHYgkSZIkqXqlr8AqmtPyWzKOg7f0dZJUn14hCweYvJIkSZIkrUn1JLAAZrf+FLJZqcOQVHFvkhUOZfa0+1IHIkmSJEmqftUzhbDUzPmnkmX/J3UYkiriTULDAcyZekfqQCRJkiRJtaG6KrCK5ky7CDgFpxNK9WYJIRxk8kqSJEmSNBzVmcACaG/9NnBG6jAklc1yyI5gzrSFqQORJEmSJNWW6pxCWKqt45+A/6Sak22S1uRlQsNHmTN1UepAJEmSJEm1p/oTWACzOv+BEC7DJJZUi56BcADt0x5KHYgkSZIkqTbVRgILYOb8Y8myy4Dm1KFIGrKnoeEA2qc+kjoQSZIkSVLtqp0EFkBb574Qfg1skDoUSWt0D035g8hNfz51IJIkSZKk2lZbCSyAWQt2IhTmAlulDkXSoBbSnR3CN1peSx2IJEmSJKn21V5PqdlTH6ApP40sezh1KJIGdCtdKw82eSVJkiRJKpfaS2AB5KY/xcpsT+D3qUORVCpcwCPP78cF+y9OHYkkSZIkqX7U3hTCUicvnMA63ZcBx6QORRrjugnZ15jT8p3UgUiSJEmS6k9tJ7CKZnWeQAjfxRUKpRReJONwZrfeljoQSZIkSVJ9qo8EFsCsW1sIDb8ENk4dijR2ZPfTxMfJtTyZOhJJkiRJUv2qzR5YA5m9bych7AH8MXUo0piQcR1N3XuZvJIkSZIkVVr9JLAA5kz7K10rPwzMTR2KVMcCGRfRmP80uelLUgcjSZIkSap/9TOFsI+Q0dbxFcguBMaljkaqI8/RUDiGc/edlzoQSZIkSdLYUacJrB6zOnenEK4iY9vUoUh14EbyfJ7zW19KHYgkSZIkaWyp7wQWwOkLJjGu8H3gqNShSDWqC8JptLd+B7KQOhhJkiRJ0thT/wmsolmdnyeES4CJqUORakf4G4GjmTOtI3UkkiRJkqSxa+wksCBOKQzhJ8COqUORql7IbiKEYzmv9bnUoUiSJEmSxraxlcACyM1rorvpaxDOxQbv0kBeJWQnMqflF6kDkSRJkiQJxmICq2hGx640cDnw/tShSFUj4zoa8yeSm/586lAkSZIkSSoauwksgBMWNbPx8lOsxpKsupIkSZIkVa+xncAqmtWxD4EfANunDkVKYD5N2T+Qa3kydSCSJEmSJA3EBFbRSXPHs/6kUyHMwJUKNTa8QcZMZrd8D7KQOhhJkiRJkgZjAqu/GR2b0cAFwOdShyJVSJ4sfI/G5nPI7f1q6mAkSZIkSVoTE1iDaevclyx8j8B7U4cildGdZNmXmN1yV+pAJEmSJEkaKhNYq5NbNJHupTMgOwWYkDocaQTeJGQ5XppwMZfu0ZU6GEmSJEmShsME1lDk5m1Ed8OpkH0VGJ86HGkYCmThu04XlCRJkiTVMhNYw3FWx3tp5HzgsNShSEOwgIwzmd16W+pAJEmSJEkaCRNYa2Pmgj2g8A0yPpI6FOmtsk6ycJaJK0mSJElSvTCBNRJt8w+DLAe8P3UoEoEnIXyd5tafk8sKqcORJEmSJKlcTGCVw8wFU8kK5wAfTh2KxqDAk5CdSfPUa01cSZIkSZLqkQmscprR8TEa+DqwZ+pQNCY8A3yLFcsv5aIDl6YORpIkSZKkSjGBVQkzFnyUhkIbsHfqUFSHMh4lhAtp2ugn5HZalTocSZIkSZIqzQRWJbUt2J4s/0VCdjywTupwVPMWQnY27S03pw5EkiRJkqTRZAJrNMy4eRMaxp0AnAhsnjoc1ZxbaeAbnNv6u9SBSJIkSZKUggms0XTComYmLz2cLDsJ2Cd1OKpqr0F2BflwKee3Ppg6GEmSJEmSUjKBlUpu3hZ0Nx1DCCeQMSV1OKoKAbiFkF1K8zuus7+VJEmSJEmRCazUcvOa6G46CDgOwiHAuNQhadS9DvyEQv5Szpt+f+pgJEmSJEmqNiawqklu3kZ0NxwDfBayPVKHo4paCvwWuJqm/I3kpq9IHZAkSZIkSdXKBFa1ys3biHzTwYRwBHAg0Jw6JI3YG8B1kF3BI8/N4xdH5lMHJEmSJElSLTCBVQtmLnwnWffhwKeAqUBj4og0dEvIwk0UuJauxuu5cOqbqQOSJEmSJKnWmMCqNbnbNiZfOIjAgRD2AzZOHZL6yXiUwA2QzWXxm51cfPDK1CFJkiRJklTLTGDVslxoYFXnbjRwIHAAsDc2gU9hOYEOyObS3D2X3PTHUwckSZIkSVI9MYFVT3Lz1qW7aV+y0EJgKrAHJrQq4WlgISG7HcIdvDTxbi7doyt1UJIkSZIk1SsTWPXs5IUTWLd7TwqhhSzbh1ihtV7qsGrMcuBuMu6gwEKaG24nN/XZ1EFJkiRJkjSWmMAaS464ppEdNtsZeB+E9xHYNd5ncuLIqkPgKRrCfZDdB+Eeugv38vhLj7laoCRJkiRJaZnAEszo2IyG7H3ExNbOwBTg3cBmaQOriFXAn4EnCDxJQ/YQ5O9jVde9XLD/4tTBSZIkSZKktzKBpcGdvHACb+t+N43ZFAjvJia13g1hU8jeCWxC9fXYWgo8C7wI2d/IeBLCE2SFJ2hoegL2eYZcVkgdpCRJkiRJGjoTWBqZ3LyNyDdvQta9OfnGTcnCphA2JMvGUwgTyRrWhTAO2ICY7FpnGHtfCSwDlpDRReB1Qugi401gBWQvAM8Rwos0NzwPE54nt8ey8v9HSpIkSZKklP4/m1qCRcjtG8sAAAAASUVORK5CYII=" vertex="1" parent="1">
          <mxGeometry x="799.5" y="284.75" width="84.76" height="34.75" as="geometry" />
        </mxCell>
        <mxCell id="RRd2hfE3uXQuu0yDxtk--22" value="" style="shape=image;verticalLabelPosition=bottom;verticalAlign=top;imageAspect=0;aspect=fixed;image=data:image/jpeg,/9j/4AAQSkZJRgABAQAAAQABAAD/2wCEAAoHCBIOEhcREhIYEQ4XEhEUEhIRGhEYEhISFxQYGBcXFxgbICwkHR0rHhcXJjklKS4wNTY1GiQ5PjsxPSwyMzIBCwsLEA4QHRISHTIgICowMjgyMjIyNTIyMDAyMj0wNDAzMzAyMzI4MDIyMjA9MDIwMjIyMjIyMjIzMjIyMzIyMv/AABEIAMYA/wMBIgACEQEDEQH/xAAcAAEAAgMBAQEAAAAAAAAAAAAAAQcEBQYCAwj/xABKEAACAQICBAYMCwYGAwAAAAABAgADEQQFEiExQQYiUWFxgRMWMkJScpGSobHR0gcjNFNUdIKjsrPBFDNic+HwF0NjotPxFZPC/8QAGQEBAAMBAQAAAAAAAAAAAAAAAAEEBQMC/8QAMxEAAgEBAwkHBAIDAAAAAAAAAAECAwQRURMhMTJxkbHR8AUSFEFhgaEVIjPhQlIjwfH/2gAMAwEAAhEDEQA/ALmiIgCIiAIiIAiJg4jMqdPVfSbkXX5TsgGdPLMBrJsOeaGtnFRu5AUeVvKdXomBVqs5uzFjzkmTcDoquY0k7/SPItz6RqmJUzxR3KE+MQPVeaS8i8XA2b51UOxVXyk+ufFs1rHv7dAX2TCvIvJuIMhsfVP+Y3UbeqeDjavzj+c0+N5F5FwPv+21fnH85p6XMaw/zG67H1zFkXi4GwGcVx3wPSq/pPsmfuO6RW6NIe2ai8i8m4HQ0s/Q90jL0WYfpM2jmVGpscX5G4p9M5C8gyLiTvYnD0MXUpdw5XmB1eTZNnhuELrqqKGHKupvJsPoi4HSxMLCZjSralfjeC2pvJv6pmyAIiIAiIgCIiAIiIAiJ4qVAgLMbKNpMA9zBxmYJS1d0/gjd0ndNdjc0Z+KnFTwu+PsmtvJuBlYrHvU1E2XwV1Dr5ZiReReSQTIvIvF4AvF5F5F4BN5F5F5F4AkXi8i8AXkReReALyLxeReALxeLyLwBeReLzzeATebLB51VpamPZE5G7odDe281d5EA7fA5hTxA4rcbep1MOrf0iZsrxXKkEEhhrBGog8xnQZXn2xK55hU3fa9v/ci4k6OJ5BvrGsT1IAiIgCInzq1AilmNlAuTAPNestNSzGw9JPIJzuNxjVjc6lHcruHtMjG4tqzXOpR3K8g9sxrySCZF5F5F5IJvIvF5F4BMi8i8i8Am883npEZzoqCzcgFzNphsiZtbtojwRrb2D0wDUXn0pYepU7hGbnANvLsnT0Mso09iaR5X4x9OoTOkXknL08krNtCr4x1+i8yU4PnvqnUq/qTN/EXg0y8H6e93PRoj9J9BkdH+I/am1iLwav/AMHQ5G85p5OQ0D4Q6Gm2iReDStwepHY7jrU/pPg/BvwavUy/qDOhiTeDk6vB+sO5KN0Eg+kW9Mwq+X1qfdU2A5QNIeUXncxF4K7vE7rE4ClW7tAx5djeUa5pcZwb30m+y/6MP1i8HO3kXn1xOGek2i6lG3X2HoOw9U+N5JBtcozhqBCNdqPJvTnXm5v7PX06iuoZSGUi4I2ESurzbZFmvYG0HPxLH/1tyjm5fL0w0SdnEgG8mQBOfzjF6baCniqdfO39JtcxxHYqZYd0dS9J/snqnLkyUCbyLyLxeSQIvIvIvAJvIvIvABJsBcnUANpMAgmbPAZQ1SzVLom4d+3smdlmVCnZ3F6m0LuT2mbeReSfDD4dKQsihRv5T0nfPvESAJz9bhdgKbNTeuQ6MyMOx1zZ1JVhcLY6wdk6CUhn/wArxH1nEfmPLljs8azalfmw/wCMr2mtKmk4lm9umXfSPu8R7kduuXfSPu8R7kqKTL306li965FPxtT03PmW3265d9I+7xHuR265d9I+7xHuSo5Ej6fSxe9ch42pgtz5lu9uuXfSPu8R7knt1y76R93iPclQyI+n0sXvXIeNqYLc+Zb3brl30j7vEe5Hbrl30j7vEe5KhkR9PpYveuRPjamC3PmW/wBu2XfSPu8R7kdu2XfSPu8R7kqCRH0+li965DxtTBbnzLnw/CrA1e5xSfb0k/GBNvRrLUXSRlZTsZSCD1iUDPrhsVUotp0nam/hIzKeu22c59mx/jK7b+uR6jbX/Jde/MvivQWqpV1DKdx/vUZy2bZG1G9Sndqe0jvkH6jn/wC5oMk4fVqZCYpezU9Q7KoC1F5yBxW9B6ZYeAx1LFIKtFxUQ7Cu47wRtB5jKFWhOk/uWbHyLlKtCpqnAXnm83/CHKBTvWpiyE/GKNik98Ob1ernrzmdTq+DGY6a9gc8ZRdCd6b16vV0To5WuHrtSdXXulII9nRuliYauKqK69yyhh1yGDTZ7Wu4Tcouek/0t5Zqrz7499Kq5/jYdQ1D1THvJRBN5F5Ei8Am8i8i8i8AXnQZJgNACq445HFB71Tv6TNVlWG7NUCnuBxm5wN3WbTrpF5IiIkAREQBKQz75XiPrOI/MeXfKPz/AOV4j6ziPzHml2brS2LiUrdqraYMiJE1TOERIgCIkQQIiIJEiJMECREiAJtMgzyrl9UOh0qZI7JTJ4rr+jDcf0uJq5E8yipK550Sm071pL5wmJp4qktRDpUqi3F94OogjygjmM4nNsEcNVZO97pSd6nZ+o6p8fgyzQ6T4RjxSDVp33MLB1HSCD1NyzpuF+G0qa1RtRrHxW/qB5Zg1qWSqOJtUamUgpHI3nX8EcTpU2pnajXHivc+sN5Zx95u+CdXRxGjuamw6wQR6AZyOh6qnjN4zeuebz1iV0ajjkdx/uM+d4IJvPN4vIvAF5F4vIvAOi4OUrU2fezW6lHtJm6mtyH9wvjP+IzZTySIiIAiIgCUfn/yvEfWcR+Y8vCUdn/yvEfWcR+a80uzdaWxcSlbdVbTAiJE1TOERIgg2mR5HVzB2SkyKyKGbshYCxNtWip1zef4eYz5yh51X/jn2+C/9/W/lL+OWZM21WupTqOMdGY0LPZ4Th3paf2Vb/h5jPnKHnVf+OP8O8Z85Q86r/xy0olfx9X03HbwlLApnNeCmMwal2QPTGtnpHTVRykEBgOe1pop+g5TPDXLVwmMZUGjTdVqKo2KHJBA5tJW6AQN0uWS1Oq+7LSVbRZ1TXejoNDESJeKZMiIgk2vBXEdhxuHb/VVD0PxD6Hlw53T08NVH+mzda8YeqUjlpIrU7bey07dOmsvXHfuqn8t/wAJmT2ivui/TriaNh1Xt64Fa3mx4PNo4qmfH/Laay82nBpNLFU+QByejQYesiUC6bXOaehWbkazDrGv0gzAvN/wiw91WoO9Oi3inZ6fXOfvCIF5EXkXgC8i8Xi8A6Xg3UvSZd6ufIQCPTebmcjkWK7HVAPcPxTzHvT5dXXOunlkiIiAIiIAlHZ/8rxH1nEfmPLxlHZ/8rxH1nEfmvNLs3WlsXEpW3VW018RE1TNIiIgHbfBf+/r/wApPxyzJUXAnOqOAq1HrFgroqroqWNw152Xb7gfCqeY0yLZRqTqtxi2sxp2arCNNJtLTxOricp2+YDwqnmNHb9gPCfzGlbw1X+r3HfL0/7LedXKk+EbFLVxuip/d0qdNvGJdiPI4m3zf4QxolcJTbTNx2Sro8XnVATc9JHQZwDuXYsxLOxLMx1lmJuSTy3l6xWacJd+ebAqWqvGS7sc55iImkUBERBJsODtA1cZQQb61InxVYO3oUy583qaGHqt/puOsqQPSZXXwaZYauIbEkcSkhVT/qVBbV0JpecJ2fC/E6FAU++qOB9leMT5dHyzGt8k6ijgjTsUboN4s4qdHwLoXqVKm5VCjpY39S+mc0TO/wCDWD7Dh1uLO/xjc1xxR5oHplNls2lWkHUq2sEEHrnGYqg1JyjbQdvKNxnbzU51gOzJpIPjFGoeEOTp5P6yEDl7xeQYvJIF5F4vIvABnV5LmPZ00WPxqjX/ABDc3t/rOSvPdGs1NgyHRYG4P97oBYETW5XmaYgW7moBxl5edeUeqbKeSRERAEo3P/leI+s4j8x5eUo3P/leI+s4j815pdm60ti4lK3ai2mBIiJqmcJESYIEiJEgkREiCBJiRJJEREAT64LCVMRUWlSXSqObKo9JJ3ADWTyCZWT5LiMe+jQQkXs1RrimnjN+gueaWtwZ4M0suS44+IYWqVSNdvBQd6vr37rVbRaY0ldplhzO1GhKo8FjyMvg/lK4DDrQXWRdnbw6h7pv0HMBOR4Q5h+01iVN6ScVOQgbW6z6AJu+FGcBFOHpnjkWqMO8XwRzn0CcnRptUYKg0nYgKo2kzEbcne9JrpKKuRn5Dl/7VWCkfFLZqnJo7l6zq6LyxZrsmy1cJSCDW51uw75vYNgmxnkkREQDns7yq96tMa9rqN/8Q5+UTn7ywZos3ybsl3pCz7WTYG5xyGSmDmpF5LKVJBBBBsQdRB554vJIJvIvIkXgHtHKkMpKsDcEaiDOhy3hADZK+o7qg2Hxhu6R6JzV4gFio4YAqQQdYI1gjmM9yv8ACY+pQN0ew3qdaHpE3+D4So2qqpQ+Etyvk2j0yLiToZRuf/LMR9ZxH5jy68PiadUXR1cfwkG3SN0pPhB8rxH1nEfmvNDs7WlsKVt1Ft/0YEiJM1jNEiJEARNrkWQ1sxLiiaYNMIW7IzLqYta1lPgmbr/DzG/OUPOqe5OUq1OLulJJnWNGclelejj4m2zrg9icBY1kHYybCpTOkl+QmwIPSBNTPcZKSvi70eJRcXc8wiInog2eT5ZRxJ0amMTDG+yornVy6WpP90sHKeAeDpWdy2JOogsQKZ5wq7esmVTNhlWc4nBNpUKrKL3NPajcukh1de3nlavSqTX2Tu6xWc70qlOD+6N/WDzF40qaUkCqq06ajUFAVFA5hqAnNZ3wlABp4c3Oxqu4eJynn8nLOWbhNVzAaLtoW1mmlwh5+U9eyThsM9ZwiKXc7AOTlJ3DnmJKm4SulpNWM1JXx0HzVWdrAFnY6gLlmY+szueD2SjCrpvY12HVTXwRz8p/s+8jyJMKNNrNXI1tuW+0L7Zu55bPQiIkAREQBERANfmOWU8QLkaL7nXb18onLY/LamHPGF03Ovcnp5D0zuZ5ZQRYi4O0GLwV1eRedZjuD9OpxqZ7G/INaHq3dXknP4zK61DW6XXw01r5d3XaegYd5F55vIvAPV55vIvIgHpXKm4JDDYRqI65yOYMWrVCTcmq5JOskliSSZ1d5yWO/ev/ADG/EZodn60thStuqtp8ZESJqmaIiRAO3+DLE06TYg1HVAVo20iBexe9r9InfnN8MP8APTqYGVBwf21OhfWZubzDtq/zS9uCNey/iXvxZ3eMzfBVEanUqK9NgVZdFmDA7tQlQ5xg0oVmVGL0b3puwIJQ7jfeNh6L750V5iZlhuzUyB3Y1r07x1xZK2Slc9D08+vIWmllI3rStHLrzuObnmIm4ZIkREEH0o1TTYOu0G/TyiXbwdTDmglTDj4uoobSOtydhDHlBuLbiDKNncfBvnnYahwjn4uodKkTsWrbWvQwHlHPKNuod+HeWlcP1p3lyyVe7LuvQ+JaMRExjTEREAREQBERAEREAREQDXYvKKFbW1MBvCXinp1aj1zT4nguw106gI5HFj5R7J1MQDga+T4intpMRypxvw65r3BU2IseQ6jLOnzqU1cWZQw5GAI9Mm8FZ3nJY397U/mN+Iy7amTYZ9tFR4o0fw2lMZ2gTFV0UWVcRXVRr1KHYAa+YTR7O1pbClbdVbTDkRImqZoiIgG34P7X6F9Zm5Jnv4OMvpYl6/ZF0woolRdhrJe+wi+wSw6WU4en3NFL8pUE+UzDtr/zS9uCNey/iXvxZXVOm1Q2RS55EBJ9E2WG4P4qp3mgOWoQvo2+iWAqhRYAAcg1CepVvLBS/C3IHwFRSxDU6gLBlvohweMuvpB6zyTn5d/CfKBj8M1HV2QcekT3tVe56jrU8zGUiylSVYFWBIYHaCDYg895tWOtlKdz0rNy69DJtVLuTvWh9Pr1IiIlwriAxUhlJVgQVYaiCDcEHcbyIkXgu3grnQzDDCobdlXiVlG6oBrIHIRYjptum8lKcDc8/YMSCxth3tTrcgF+K/2SfIWl1A3mFaqGSnm0PRy9jXs9XKRz6V1f78SYiJWO4iIgCIiAIiIAiIgCIiAIiIAlF8IPlmI+tYj8x5ekorhB8sxP1qv+Y80eztaWwpW3UW018RE1jNEREEne/BT3eJ8Wh63lkSt/gp7vE+LQ/wDuWRMK2/nl7cEa1l/EvfixERKpYEqj4R8m7BXGJQfFVjx7bFqga/OGvpDS15rM9yxcdh3oNqLC6N4DjWjeX0XE72etkpp+XnsOVenlINefkUVInutSam7Iw0XRmRlO1WU2I8onibxjCIkQBLW+DvPf2mj+zO161ECxO16WxT9nuT9nllUzMyjMnwVdMQndI2tdzodTIekfod04WijlYXefkdaNXJyv8vMv6Ji4LFpiKa1qZ0qbqGU8x5efmmVMHQbIiIgCIiAIiIAiIgCIiAIiIAlV5nwPxNbEVqivSAatWYBjUuA1Rjrsu3XES3ZJuEncV7RFSSvMbtHxXh0fOq+5I7R8V4dHzqvuREs+JqY/COGQhh8sdo+K8Oj51X3I7R8V4dHzqvuREjxNTH4QyEMPlnVcBMgrYB6/ZWptpLRC9jLm1i+26jlnaREp2lt1G36cCzQSUEl1nERE4HYREQCv+GfBF8ViBXoNTQuvxoqFhdlsAw0VO0WB6Oec92i4v5yj51X3IiaNOvNU45ylOjBzeYntExfzlHzqvuSO0XF/OUfOq+5ET14mpj8I85CGHyx2iYv5yj59X3JHaHi/nKPnVfckxPPiamPwhkIYfLOy4DZdicEr4es1N6V9On2NnJRieMOMo1HUem/LOviJVtP5G9nAtUVdBI//2Q==" vertex="1" parent="1">
          <mxGeometry x="915.74" y="284.75" width="51.52" height="40" as="geometry" />
        </mxCell>
        <mxCell id="RRd2hfE3uXQuu0yDxtk--23" value="" style="shape=image;verticalLabelPosition=bottom;verticalAlign=top;imageAspect=0;aspect=fixed;image=data:image/png,iVBORw0KGgoAAAANSUhEUgAAAOEAAADhCAMAAAAJbSJIAAABXFBMVEXxyREAAAAAAAPt1EryyQj3zhD60hvwyRMAAAXkwCD1TyXuyhP2zh3xzRxyZRv5zhP/uASCuAKXgR4qJAwICAooIwxnWBPx0CkCpO9DPBVJPRcJBgwfGyHkviwYDxFnWB16uAD0pxkAAAx8aRz1Rib1xw3ExEyBahVtXRa3ni3ylxrBwhDbxhHruhYbGh7yWBpvWCgAovUAABJrXCjaujfMuz0oGxS0v2LQwi0SBBI3LQ6MfhwtKw8oIhgRABg3LBm8nz2Dby8VESAjIiLmwA/QtB1SSBd+dhy1nCGkkB3LsiDBpR+ahRsbGBEcFxMsJBaukB+UeiFDQxurmRs3NhZVTBRMQw+diy8DEBkaHAtlXiPKqi8dAA8SByCVhDfnyTNmWDUeExyJdjsvGxNKPiGYdCrXsDRYRyIfFig5LCC9p0uljzUhExdya0hDLBBTSDOplU/Tt04dCCB9YywEjxYjAAAQUElEQVR4nO2d+3fa2LXHBfccPSrJ6jgP1bbAU6iuzW2jupi6lZ2AkYyDDTbhOo49IYahYYJT3Jlp8/+v1X0kgZHAARFe8tL3hyysgDgf9j777PMURYUKFSpUqFChQoUKFSpUqFChQoUKteRieF7FWBIEScIUhXi06AJNWzwliYXy+7Un+8evi7KkLro80xeii2ssG7GVuDzhaPyYrMhQuLAWcetl9ZQBf30kmIxaikTZfj42GolEK8nSkfQ4TIlLrMV0LwII19j45gUXfEgGFSy6aNSGZCNRF+1auSCQWskTdw6kVHrfijHEaG+P13+wLOjW/usST0tBJUTqiWM09gAiKC2fbj1z4UUtu55tX4gBja9I2LcN+EPMBkCYLpSP2UFLRo/LBZGG9zDBsiU6tV00EcO8c4WSMM0Vn595CCEYsfsHpzz8EIFCxKus5YZXtAMIKRv5V6X50utzt7taIbeyUhJxkPxVurTzGG6wzBj89WA9AVjRqCu+sjtvOJr4ayCMaVVDaBPoof+rgr+ebD6NuKrlBlg9sb5aCIgphSdWqZ/jof/LW5GHKyXTLn+1MiD2ZbIkBACySzjcho4wFk+rayTvYd3+mtgukiQdIf5rH1+sxiKECocxxZ1AIxLpT2CJ8yaOyzFhmftbYxJCFxlaEWhEthMefyUmXTs4pZc2HxiX0BGWhFJyP2I7rKu1XAF/lchbls1hfRISYbGwuu7xV+iIRDYu38REoFwyW05ACLkspmNvNl2ETsfkXbVAS8Pj8qI0CSERNCLgrzmS6bjDa+QsSXoi0N1aknRgUkJgRAj89WCNdecD5OXZ8yIHTeVyIE5OSITAWgWrEekLr3ZfDHoiyxFev42QCGEsX6xUWLvt6Id9ZQ9nLVjfTkgRh8X8afUlGd7p81cydHC2XVz0cNZUCBnoFGMsFFb/P+JSlPS4Fj38OhVCRxBfjy6ex21LuuLr24NTa3gAqfOfL5gmIRl6lTBfSpJ79lVIC5YMv9IQX+ceYKdLaAlLkPS4B9GBMcFGnj5/05i/v86AkLI7lSebrJUPuFKfyBr0nCWE5mjJ2RCS7hZNH6WSlWgk6skHok9en0pzNOSsCK0eBqLl0sFLj7uSMHRZkKb8fQ9rVoRdYeKvlwkSeFzRtSrMy1FnTUiRSilxF8/P3NM/0RVhTp46B0LKgjwqbbnHmDdn+5U9zYeQiAy/lt+x94MD5fmkrPMjBEtKksC92Uw47Qc7ZBR6BponIcVAr1iiY5cO4cpcvnSuhLYQvWIjDptKmL4WQAhf+s4Kp9GTedTEhRBKJbv1f/9oCXnRng+qzONbF0LI4OeWDROPlpCSSKxho9GAETJkMGOsMX3eIoR+VcAIoX8vjTe05hBGg0WIhdLBSrJcGKfrF0BCBglvntrN+HFhtBmZ4BGqgpNtRqNsoohHzZcGkFDYvu8VsWxplBWDR6heuHp+r+QR/ffgEQr77gG1kxGjMIEjRAXPjPe7UeselpwQqdC097fs+CTi1tnR1++w7K0Fg6Fx72/18KqHMMp9/Q7LTYjpWPHkoiT0xcsBwqfjES5h1oYYRii+tT6QrjLgrbYlfRMubz1kVGHFnoeAf95y3Ymkx0RIr0RYJ3eJRM4byE5ehhB+PTldBOHmWH0Cyd2yXwr25QHCjRGEc4009Lq1VL061kyJ+NK9DurU/pRvG86VEBdJoRPcOIsLccm90iuStC2/3IRQ7He5ywwe0jcfmJAeINmnh19fqkhDISQwGKvDcmWvIfCWZ4vCkwdj6RJFGltD1qAhTIuc4FoLg5NeQjvUBIFwoAiUdFR9BaWobMXuoyze8pA8Ee3rSx1Lh4rhcXHDXmcQSZR7xXhEhBS+IgsMrG0WLJvstiSPiBCXXAVOOYg46dkN9ewBwuWKpcPkTCt0deYEIh+ESx5pwITuPnvKadkDSYiszUu8a5HSQH1bwcOvB6UeShhLri0heNNT4nUndwkkoUqfJi/fXboWYg0QrgWWkEdSbyf+JSdRzuJPvOnJXdacPkTw6iFPl3prB9n4Kebt/PsREaLTxP1ys2i6W64pEH79e+dHKLrXub6nR3jplodw6euht0fLFh4dYdLdZY86SfYgYS+WBo3wnadk3VGJgdaiVw/deohwaSINXfHYavvREb7yeN22Q/JwLHVr6WMpXfGUbLQNx6uHY461zX7egn7pKdkownEjzdKMJg4Sdr3USxjUWAqED9TDGdtwnpFmTBtOuR4uAeES56W+zjaYwIZufWPfYpJYyvja7k8/85RsdD10a/5e2vC3Mnz8SDPlPv7khP8TEnoIB3KapfdSv4T+Y6lb84+l/gl9Zt7RRbcW/r3UX06z+N7TzCJNYOuh/1i66MzbL+ETT8nmlXnPj9Bv1uYlfDbhPP7kPWCfhFLL66XdHvBjaS3wJuseTlxd+pEov4QnHhuWHlsspbjzexsCa8su8DKPCPslxBd9Xsp2Tfjto/pLE0s9Neuq+32PiZCiV62zu8GA+kVv8dMSj2L4J6RwbOtZgk3sV7n7FaZjj0RN2h7OlZBCWOQ4TsTM/Qmdj4yQss6Wc/2Nt9y9JPa9z9ZidB+f7ASLsuy8CL3CRY+tTqZMSOF1y4ZniyKkGPcpJAkncExEiPHgSbwqZx2xHTn2vR9/WoQ41beCgY1cSc4aDd95KU8dVd9eWucL9hWNp+3JZ7a6MELC0nueR/S9wPeu+iNkKOEtqdLsWhlimVM4hpeK9s3ZU9/lnRohQ9/DJLuA/gl5VGSj1nHgkej6gX1SJJLoFGtn/GuC74JNjRBSgYJ1YvDG5ul9NPBdD3mp3H+5clDijrjipfMohkjR/7EYUyRkVOmoUCoc9YcJ34SMVIy4Mt/I07OEfRwf2HWSY5SmSEjxPIMQVl07KX0TUrTrrMiofeKXfcDpNTfBocrTJBwiXPWQvBydeYvldetQOvehw1E2ER9j3/6gZk34xkNy/OCemV5BSFJYXk943sBG9sfahzSgGROimLukbPnBfU+uj2EhduI+2ZRNimiiss6YkKK3+8YE2Ehcti+PzrzJoXQnl6z1A0Uj50lu0untWRNS3Mb9Yk02ksJ+dlhKmCuWX2+9LpeOJj+Gf+aEaqnPT+93moyVeTM8kohI++NvrrpPMyekcOGdc/p6/OR+t5Df/uHkmj0hqLSy/+zJcVnu2/H1qAgZ8ngEUaRR34FJvsdpJtdcbDgoaCfdPeYfZvYEiAURooJ7doBdn9lapwURUuL+0FGPGWhRhLjIst3BK7BmRZzZNy2KkOqdtWAhlobum56KFkbICO97LppI4dkd170wQooSTir2+eSb3CwPtFwgISWJpdXtrRMOq7MsxAIJeYrHZCOjOtvHzS3ShvNRSBh8hYTBV0gYfIWEwdfEhM5UEdmtjqb+zDtk3bl3W/LnxM9I/BYbInJ2hIS8qxa+WQyZ5iajiKozSEqOIpy48zE5IVKLKVsZWZwmI+IO7fsWM7Jq/Xp8Df6atI88kpBX+a7IGhNL9qiR/MG4Ma6zWT2dq/vcevNVMbFEWs9mb9LZdO5QJjeWd9KJfXnC2422ofri/xy9+KMj+7lF8p6iaNfxuKGY2fXYFBFjcUVpNg247102T0wn7mjKujzhN4wm5H//B1u/efG9oz+R60h+ZSo/1uv13TvNjO9O8elojbjS/Eenc7WrK0o2hQihAoQT3m0swt/YevH9d0Q9wo+acUVLkpBpKUqiRk7ShbCq8n1zKO6b832/AlLdF9X79yKwYbYmQQf5UFe0L1DHxd35En7XJdxTjFWBLJVINRWjihHFI0HkZE6wJ/IFURScF4IVJlRBEC0cLMgcI9pDF+QivEW+P+6aEOrEdKgBP90OvXhCRm1UlOskvKIz9Z1Wq73bgRhIyT/l84dWLTqEF2SViFzPf/kE3yd8yrdbrd0U4UexfD5fkOvtdq33jT3CWEsx8guzIQ+EpnElUeCasVeKlhSQ3NFvbw3l1tA/ZwRK+HJzc0zCg9wyblpQPpSJX3/IQGNQTUCE0prpXQ7xfCZuJP65mzDSqa7fgg3NbEpEPP63boK7IrRQQoE8wqGmm9cdLNfTinG+fpyLm9rHDBI7Wa0CrQjK3CnKeQZepHRtR0ZyPqs02/lN8Oy8gNTMnnL2L92Ipw+7JSGE+iHHNQ5/bqaT5KcR5kz4vcuGSJUabU3TMziVVZT2X2W5cZU1b3cFQhavYUbq6Ip5cwiRI980OoKUymofOrIgpHQzkUEICPfOX3UyqU99hJqZa7Uq8At1ZEgJ1dkSMvzv/+zoxXeOLEJV/mje/iNTq3VyTVPPC/KxoeQaJImT603CJh9rGthY2Dn/5UzLC6rcMrMZVW5rYDvMILyr6XUabGgqd+CKUn8sNU0FpJm/1DPgrUiYaWvBqEd/dcQcOeK7hKam608Nzcy2G7ixYTbr1gwSsZ7ewXT9WmnLqHGu/5pTWrLa0LWfZTWjK/q/BYidUGuVHbD0nnn7xbVajcTSs9b6emvvP3fXeymoqzMmxH/7C+h3oL//1pHaI1Q0w9Bu4vUGpmobEBasaIG4lqb9hKVa2vzQUGt6M7NrZBsSVMO8qJaykCf8+OPOjzstTWkzGAiNjmvM266H4O2ZDrFvA8/YhhT6m4U3hHBPMdv5L/n6YQwiOirqpp6xCeW2Am4JKQEJhXVjXT7cuEkJSSNbw7iYVkzDVvOmxZF6qKe8hIqRgpxbhSbfvLnCaMY5Df4KoVEXQGStK0IQULM2IQV1jRAKeUgE5PZ1nc7cNZNy2/gcQ7iYNc/zyXzSUpV5kJDMJ6KGbpKAu0hCcuS1andVMwkol/0RyAAgalISZF27mXNI6KBJbGf2mrsyRVoWPUOrkOwRUTaha3r0npBqbGgLJHTaw16Mlz9CiiUTa4qHhhInDSCQ7v+qf+agoTD2ftX1jgjXPijxq+66IUhioR7qtYF6mE1B5ofozoaiX4lQD7UFEvbeBxXObHZkaJ8zP2skiAL0zu3dL8amSBr7u1+UuwwUX9xtmpWaiFRBjL1hiJdqg4SKAZFGjh3CjwYN7bIQqpAnm0a706l+1LRmjdxX6DRNbaMjISa2p5zfEmoG1z4oyl0+VUvlK8ci8dIhNlTMVrvdzmWbShq8nZotIaNarQVpL1yEEE/27B5Fr2SZVtaE1qPZ1O+srBquQPdnI4MYHmKPoldp0p8SoHYqWjptGDdACK2FkvbWQ0iCFE3TlKb+kQASwttZ5jSN/3XEqF2R65T88+dXnb4RGkQ16rm4nm3m8hnHtI325xxYjleFnz7nKjX7vcKn3b1mlrztEw8/Qi730W1DqpGz1dq5ilndLuFLLtf2v4Z9TEIohErGZlSMrYfaU86BL7zKyBwn9vXs4YrYgCwuE5Od/iyiuEZD5skHBI7jnKd3qJQcq5G3WWUWG42G6Bof4Bm4xDU4Tu6efs7DbSZbPjsO4dc0ZBiRbHdBrrcgzwvnj94g5JDByP7/7l2YtJDhmPe3ipniCNVkCm0YfIWEwVdIGHyFhMFXSBh8hYTBV0gYfIWEwVdIGHyFhMFXSBh8hYTBV0gYfIWEwVdIGHj9Fw1lVj0Q5HeTAAAAAElFTkSuQmCC" vertex="1" parent="1">
          <mxGeometry x="721.5" y="357" width="52.5" height="52.5" as="geometry" />
        </mxCell>
        <mxCell id="RRd2hfE3uXQuu0yDxtk--24" value="" style="shape=image;verticalLabelPosition=bottom;verticalAlign=top;imageAspect=0;aspect=fixed;image=data:image/jpeg,/9j/4AAQSkZJRgABAQAAAQABAAD/2wCEAAkGBw0PDw8ODQ0PDQ8ODw8QDhAQEBAQEBUPFREWGBUSFRYZKCkgGBolGxUVITEhJiktLjAuFx8zODMtNygtLisBCgoKDg0OGxAQGyslHyYuLi0tLS0rLS0tLS0vLy4tLS0tLS0tLS0tLS0tLS0tLS0tLS0tLS0tLS0tLS0tLS0tLf/AABEIAKsBJwMBIgACEQEDEQH/xAAcAAEAAgMBAQEAAAAAAAAAAAAAAQYEBQcIAwL/xABGEAACAgEBBQQGBgYIBQUAAAABAgADBBEFBgcSIRMxQVEiNGFxdLMUNYGRobEyUlRyc7IXIzNCgpOi0hYkYpTRFSVEdcH/xAAZAQEAAwEBAAAAAAAAAAAAAAAAAgMEAQX/xAA0EQACAgEDAgMFBgYDAAAAAAAAAQIRAxIhMQRRE0GBImFxkfAUMjNDobEjQkTB0eEkNFL/2gAMAwEAAhEDEQA/AO4REQCZERAJiIgCIiAIiIAiIgCIiAIiYe1MvsaXt5ebk5emunewHf8AbIykopyfCOxi5NJcszImDsnO+kVC3l5NSw0117jp3zIyGYIxRedwrFV101bToNfDrEJqcVJcMSi4txfKPntG9q6bbF0LJWzDXu1A8Z8NhZj349V1gUM4JIUEL0YjprNJtLP2m1NoswERDWwdu2rOi6dTpr1nx2FnbRXGqWjBW2sA8jm1FJHMfAnpLdO3+ynxPa8+OzLlEx8J7GrRrUFdhHpoCDofLUd8x9ubQ+i49mRyc/ZhfR1011YDv+2RosulZsImq3d2r9MoF5r7PV2Xl5ubuPfrNrDVOgmmrQiInDoiIgCIiAIiIAiIgCIiAIkRAJiREAmIkQBEmRAESYgESYiAIiIAiRJgCaref1S73J8xZj7V2JZdabFvNYIUcoBPd494mq2psJ6aXsbJawLy6qVI11YDz9swdTly6Jx8PanvqXFc1z6cm3p8eLXCWve1tT78XwbndT1VP3n/AJpuZS9k7Ea6oWDJNYJYcoUnuPvE2uzthWU2rYck2BdfRKka6j3mc6XLl8OEfDdUt7Xzrn05HUY8Wucte9van8jZbWrZse5VBZmqcADqSSO6Y27VL14lKWKUZQeZWGhHpGbXWNZ6PkYa3smaPfb6vyPdX81Jh7wbs3ZV/bV5hoXkVeTlY9QT16MPOV/be6d+Pj2XPmm1UC6pyuNdXA8WPnJwjG07KpylTWn9Sw8PfUR/Ft/OWecy3d3ZuyqBdXmGhedl5OVj1Hj0YSwbH3Tvx767nzTaqE6pyuNdVI8WPnOzjG3ucxylSWn9S2xESovEREAREQBERAERIgExEQBEiIBMREARIkwBERAEREAREQBERAERPg+XSpIa2tSO8F1BgE15FbMyq6syHR1BBKn2jwmBvP6pd7k/nWazYWRUMzPY2IA1icpLKAe/u85YVeq0EBksHTUAqw9mv3SGbHqhKHdNfNHcGTTKM+z/AGZrd1fVU/ef+abmfOqtVGiqFHkBoJgPtzDVirZCBlJDDr0I7xIY0sOOMZNbJLtwWS1ZZylFPdt9zF3xYjEsIJB5q+oOh/SE+O47E4pJJJ7V+pJP91fOY28+18a3Feuq5XcshCjXXoQTPjujtXGpxylty1sbWbQ666FV6/gZkeSP2tO1Wnuq5Zvjin9icdLvX2d+Rcpot9vq/I91fzUmSNv4RIAyEJJAHf3mbCytXUq6hlPeGAIP2T0ITi3adnmZMckqkmr7ornDz1Efxbfzm3zNr4tNtdN1ypbaVFaHXVizco009vSfq3JxcbRGspx9dSqlkr18yBKFvjnUPtPZz13VuiWY5dldSqgZCk6kd3TrLYrXJ+pWvZikdLkTBr2viMwVcmlmYgKosQkk+AEz5WTIkxEAREQCJMRAEiTEAiJMQBEiIBMSJMAiIiATERAEREAREQBERAE0+Tu3hWu1tlRZ3OrHncdfcDNxE6m1wcaT5KVsbYeLZk5lVlXMlLqKxzONAdfEHrLNs3ZWPjc3YV8nPpzekza6a6d/vM/WJs6qqy21ObmuIL6nUajyHhNRxCdl2ZksjMjAV6MpKkf1qeIic3yS6bAp5Iw2TbSv4ssesreVulTY72G2wF2ZiBy6dTr06TH4aWM+zq2dmdu0s9JmLHv8zLbKZ44ZUtas0Slk6XLOEJbptX3p+8ou3t2asehrkssYqUADcunpMB4T57u7vVZNJtex1IsZNF5dNAAfH3ywb6ep2fvV/wAwnw3D9VP8V/5Ennvp8X2pQ0qtN16m9dVm+xvJqerVV/I/KbnY6srC230SD3p4HXylmkyr8SbGTZOYyMyMFq0ZWKsP65O4jqJ6WHBCD0wVXR5ebqMmRXN3Rm7d3axM1kfIDlq1KryuV6E69ZQd5t3cXGzsLGqDivIelbAzknRrgp0Ph0MsfCS132WrWO9jdveOZ2LNoG8zNztfdunKycfKeyxXxmRlVeXlPJYHGuo17xNSk8c3Ft0rKF7UUzFw9xtn02V3ItvPU6uuthI5gdRqJZ4iUuTfLJ0IiJwCIiAIiIAiIgCIiAIkRAJiIgCIiAIiIAiIgCRJiAIiIAiIgFX25vriYVxouW4uqqx5FUro3d3mVfezfnCy8K7HqS4PYF5S6qF9GxWOuh8gZ0K/ZmNYea3GptbTTmepGbTy1Ilb392Xi17NyXrxqK3Ar0dKkVxrancQJVNTp77HqdHPpfExpwlquO+ra7W9VdfVld3M31xMPDWi1Liys7E1qpXRjqPGWnYu/OHl3Jj0pcHcMQWVQPRGp8Zg8N9m4tuzq3txqbGLuCz1I7aA9OpEtdGy8Wtg1eNRW47mSqtWH2gRBSpb7Hetn0vi5E4S1W99W13zVXXuPvfQli8liB1OmqsNR07ukjGxq6l5akWtdddFAA185hby5VlGHkXVHleussp0B0OvlMXcvaN2VhV3XsGsZ7QSAFGi2EDoPYJbo21envPK1P7tmDvJv7hbPyPo2QlzP2aWaoqleViwHef+kypb4cRcDNwcjFpS8WXBApdVC9LFY66HyBnTMrZOJc3Pdi0XPoBzWVVu2g7hqR3Sq8RNkYdWyst6sTHrdVr5WSmtWH9cgOhA1E0YnjtKne3n5lU1Onuq+BU9w9/cLZ+EuNelzOLbX1RVK6M2o7zLjsPiLg5uRVi013iy0sFLqoXopY66HyE1vCjZOJdsxXuxaLX7e8c1lVbtoG6DUjWXWjY+HWwerEx63X9F0prVh006EDUTuaWPXLZ38TmNT0rdV8DPkyJMzFwiIgCIiAIiIBEmREAmIiAIiIBEmRJgERJiAJEmIAiIgCIiARJiIAiIgCaTe/Z1mVhXY9PL2lgr5eY6L0sVjqfcDN3EPdUTxzcJqceU0/luV7crZNuHhrj3cvOr2MeU8w0Y6jrNrtSy5KLWx0FlyoTUh7i/gPCZkTiVDLklkm5y5bs5rtzaW3XxrlycJK6WTSxxy6hde/ox/KY+6+0Ns14qLhYaXUBrOVzy6klyWHVh46+EvO9lTvg5KIrO7VEKqglidR3ATD3Ax7Ktn1JbW9bh7tVdSrdbWI6GaNa0cLngprfk2uxbcl6EbLrFV5150Gmg9I6dxPhp4zC302ZbmYGRi0cvaWqgXmPKvSxWOp9wM3sSlSqVok1aorPD7Yl+BgrjZHJ2gttf0G5l0ZtR1lmiROyk5NthKlRMRIkTpMREAREQBEiTAEREARIkwCIkxAIkxEASJMQBERAEREAREQBERAEREAREQBERAEjSfLIya6wDZYlYJ0BdgoJ8usijJrsBNdiWAHQlGDAHyOkA+8REAREQBERAEREAREQBERAEREAiTEQBERAIkxEAx7cylDyvbWh79GdVOnuM+qOGAKkEEagg6gjzBnDeMaj/ANUPT/41P5tOu7o/V2B8Hj/KWXTxaYRlfJXDJqk49jcRESksEREAREQBERAIMqOPxF2XZeuMr3dq1vZAGlwOfm5e/wB8t886bL+ua/8A7A/PM0YMUZqV+SKss3Gq8z0XERM5aIiIBzfjgP8AksXX9sHyLZHBED6Jk6ftA+Wsnjf6li/GD5Fsjgh6plfEj5azZ/S+pn/O9DpMRExmgREQBERAEREAREQBERAEREAREQCIkxAETie9+9O2qdoZdWPk3pTXby1qtNbKF5R0BKknx8Zqf+Mt4P2vJ/7er/ZNS6SbSdr9f8FDzpOqZncY/rM/DVfm065uj9XYHweN8pZ552xtHLybe1zLHtt5QvM6qjco7hoAPM+E22JvZtyutK6cnIWqtFWsLRUwCAaKASh6aaTRk6eUscY2tiqGVKTdcnoiJ59/4y3g/a8n/t6v9k6xw4z8rJ2dXbmWPZcbLgzOqo3KLCF6AAd2nhMmTp5Y46m0XwyqTqi1TW7c23i4NXbZVorXuUd7M36qqOpM2JnnffbbNm0NoWFeZ0Ww0YtY6jQMVBA82bU6+6MGHxJV5DLk0IvGVxhqDaU4FjqP71lq1k/4QG/OfT+l3HNLsMSxcheXlqZwa21PXSwDpoOvUTK3d4XYVdSnODZNzAFwGZK1JH6KgaE+8zTcRdxcHDxWzMXtKmR0U18xdDzNp49Rp75cl07lpSZB+KlbaLTuHvq+1XyEbFGP2C1NqLDZrzlxp3DT9GXOcj4Gf2u0P4eJ/NdOuSjqIqGRxjxt+xZibcE2J5tqyko2obrNeSrNd306nlW4k6T0lPNa4a37SNDEqt2Y9bFdOYBriNRr4y7o69q+xXn/AJfidDyuMNIbSnAsdf1rLVrJ+wBvzmy2HxSwMh1ryEfDZiAGch6tT4c47veQJm08NdjqnKcd7Dp+m1tnN7+hAE57xE3HGzuXIxmZ8axuRlbq1bnuGvip++dhHp8j0q0zknlirdHclYEAg6g9QR3aT9TnPBzbr349uHaxZsTkNZJ1PYvzaL/hKke4idGmXJBwk4svhJSVo5xxv9SxvjB8i2fngj6plfEj5ayeN/qWL8YPkWyOCHqmV8SPlrNP9N6lP53p/Y6TESt7+7cbAwLb6/7VuWunXwdzpzfYNT9kyRTk0kXt0rMfeffzA2exqdmvvHfVToSv7xPRfdrrKwnGKvm9LZ7hNe8XqW09xUD8ZSdzd2bNq5Lq1hStP6zJtPVvTJ6DXvZiG6nyJnVDw12N2fJ2T82mnads/Pr59+n4TZKGDF7Mrb+vejOpZZ7x2Rtt2d7MLaKn6NYRYo1elxy2KPPTxHtE38857Rpv2NtNlpsJbFsVkfu56mAblYeRU8p+2ehMHKW6qu5P0bUV19zDWU58ShTjwyzHkcrT5RkTA2rtTHxKmvybRVWveT4k9wA7yfYJnGcE4n7cfLz7KgxNOIxprQHp2gOljafra9P8M5hxeJKjuTJoVluzuMFCsRj4Nlqj+9ZYtWvtCgMfv0n6q4u47VWFsSyu5V1rQuGrdv1ecDVfeVjdThjjClLdoq1t1ihzUGKJXqNeQ6dS3nPlvzw/2fRh35eKHoehC/IGLow1HQhuo94l3/G1aaZV/FSs3G4+/j7TyLKGxVoFdXacwtL6+kBppoPOXmcV4Kev5Hwp+Ys7TKuogoZGolmGTcbZpN7N4q9m0LkW1WWq1q1ctfLzasGOvpEDT0Zj7n721bUW5qabahSyqwsKdeYE9OUnyml40fVtfxdXy7JreBv9lnfxaf5GnVji8Gvzs45vxNPkdPlCzuJuLTlWYjYuQz13mkuDVylg3LqOuukv0857yfXGV8e/zp3psUcjersdzTcUqPQ116VqXsYKq6ak9ANToPzET85GNXbWa7AGRguoPcdCCPxAiZ1XmW7n3kxE4DhfGP6zPw1X5tOubo/V2B8HjfKWcj4x/WZ+Gq/Np1zdH6uwPg8b5SzXn/BgUYvxJG4iImQvPy2uh07/AAnmzc4hdo4Xa9AMmsNr+trp1+2elDOBcR93LMHMe5FIx8hzbTYO5bCSWrJ8CD1HsImzpJL2od/9/wCTPnT2l2O/SmcW/qq3+LR8wSubA4s1rWte0KbWsUAG6gIwbQd7KSCD7ph798QcPPw3xMenIDM9bc9i1qgCtqR0Yn8JHHgyRyK15nZ5YSi6Z9uBn9rtD+HifzXTrk5LwMX089v+nFH43f8Amdakeq/Ffp+yJYfuL68xPOuzRptpAfDaJ+eZ6Knm2/MGPtR7ypcU51lhUHQnluJ01lnSb6kuxDP5P3npKU/iqyjZORzaalqAn73bL3fYDNYnFzZpXVsfMVv1OSk9fYefT79JQt+N9bdqFK1rNOPW2qV68zs56BmI8fIDz8ZHB0+TWm1R3JlhpdM3XBEH6ZlEdwxl1/zBp/8As7LKNws3afCxnuvXkvy+RmU961KDyKfI+kxI9vsl5lfUSUsjaJ4otQpnOeN/qWN8YPkWz88EfVMr4kfLWfrjd6li/GD5Fs/PBH1TK+JHy1lq/wCr6lf5312OkTnXGsH6Hjad30nr/ltpOizQ76bD+n4VuOpAsOj0k9wsU6jX2HqPtlGGSjkUn3LciuLRxjdDdTL2itzYuTVT2LIrq72qTzAkH0QenQ/cZYv6LNr/ALdR/m5H+2Vjdnb2VsfLcms6gmrKof0SQp8/Ag66Hu6+2dLo4sbLKgumTW3iprVuvsIbSbs0s6l7G6+CM2Pw69rZ/Eq78JtpsdWysVj5s95P3lZ1TdzBsxcPGx7GVnoqStiuvKSo06a6Si53FygkJiYlrMzKoe8oi9SBryqST+E6bM2eWVpeIXYlBN6AZ5tyTy7Us7XuXaL9pr3aDJPNr+M9JGcQ4r7tWY+U+Yia42UQWYdyXH9IN5A9CD56/bLo5JSafmczp6b7Hbh7JXeIp/8Aac7+CR/qEom63FMU0pRn022mtQi3VchYqBoOdWI66eIM+29/EnBy8O/Eopyea9OUO61qi9QevpE+HlIx6fJGa280dllg4vcweCXruV8KPmLOzzjHBL13K+FHzFnZo6v8V+gwfc+ZQuNH1bX8XV8uya3gb/ZZ38Wn+RpZuI+xrM3Z1tdI5ra2W6tR3sU11Ue0qW+2cu4b7217OttTIDdheF5mUasjrroxXvI6kHTrJ405dO4rmyE3pypvg73POe8n1xlfHv8AOnWdocStk1Vl67zkNp6NdaNzE+AJOgX7Zyjd/Ev2ptRWC9bck5N5H6KV9pzt/wCB9kl0sXDVKSpUM0lKkj0QvcPcIkiJhNJMREApe9fD+jaOT9Jsybam7NU5UVCNF169ffLRsvCGPRTjqxZaKq6gx7yEUAE/dMyJKU5SSi3siKik7QiIkSQnwy8Wu5GrurW2txoyOAyke0GfeIBRc7hZsqxiyC/H1/u1WAp9zg6fZPjTwl2WDq9uXZ7DYij/AEqD+M6BEt8fJ/6ZDw4dkajYW7uHgKy4dC1c/LztqWZuXXTmY9T3n75t4iVttu2SSrgiVPa3DzZOSzWNQ1Njksz0uyEsTqSR1XXX2S2xOxlKLuLoOKfJzz+iPZuvrGXp5c9X58s32wtx9mYTCymjntXuttY2OD5jXov2ASyxJSy5JKm2RWOK4RAiTIlZM5xxw9SxfjB8i2RwQP8AymV8SPlrL/mYNF4C3013Kp5lFiK4DaEagH2EyMPAooHLRTXSrHVhWioCfM6S5Zl4OiirR/E1GVEmQZSWmj3g3VwM/Q5VAZwNFtUlLQPLmHePYZVL+EOET6GVkKPI9kx+/QTo8mWRyziqTZBwi+UUnZPDLZWOwdltyWXQjtnBQEePKoAP26y6yYkZTlLeTslGKjwiJ876UsVksVXRhoysAVI8iJ9JMidKPtHhfsm5iyJbjE9dKbNE1/dYED7NJi18JNmA6tdluPLtK1H4LrOgxLVnyL+ZkPDh2NLsDdfAwNTiUCtmHKzks7ka66Fj4TdSYlbbbtkkklSI0lZ25uLszNY2XUclp/SspY1sT5tp0Y+8SzxEZOLtOg0nyUGvhPsoHVny7B+q1qAf6VB/GW3Y+xsXDTs8WhKVOnNyj0mPmzHqT75sYkpZJyVSbZxQjHhERJiQJH//2Q==" vertex="1" parent="1">
          <mxGeometry x="798" y="359.5" width="86.26" height="50" as="geometry" />
        </mxCell>
        <mxCell id="RRd2hfE3uXQuu0yDxtk--26" value="" style="shape=image;verticalLabelPosition=bottom;verticalAlign=top;imageAspect=0;aspect=fixed;image=data:image/jpeg,/9j/4AAQSkZJRgABAQEASABIAAD/2wBDAAMCAgICAgMCAgIDAwMDBAYEBAQEBAgGBgUGCQgKCgkICQkKDA8MCgsOCwkJDRENDg8QEBEQCgwSExIQEw8QEBD/2wBDAQMDAwQDBAgEBAgQCwkLEBAQEBAQEBAQEBAQEBAQEBAQEBAQEBAQEBAQEBAQEBAQEBAQEBAQEBAQEBAQEBAQEBD/wAARCAOsA4QDAREAAhEBAxEB/8QAHgABAQEAAgMBAQEAAAAAAAAAAAUGCAkEBwoDAgH/xABpEAABAQQECAYIDREFCAIBAwUAAQIDBAUGBxGCCBIVRGSiweEJEyExUZEZNUFhY3WV0RQiMjY4VVZXgZOztNQWM0JSU1RxcnR2kpShprGy0yM0N0NzGCQlJmKjw9IXWINHpPBllsLi8f/EABQBAQAAAAAAAAAAAAAAAAAAAAD/xAAUEQEAAAAAAAAAAAAAAAAAAAAA/9oADAMBAAIRAxEAPwDtTAASJ9m97YBIAAa4ABIn2b3tgEgABrgAEifZve2ASAMPWRXhVHVDBNR1ZFYMkkLKIqsu4qLZZetqncZd24yr3rAOLFaXDO1G0aV9B1YULn1MIhm3EiHyJAQrS/hbRXmoBxZrA4ZHCXpK226oVIqL0ShmrcVWIdqNiGb7xUYX4sD0BS3DpwuKavFezuvik7tV5kl79mBRn8HodliwD1nOK160aQtNNT6sek8xVvlaWLmz97jfhxmltAzb+NjIn+8xT57+O2rX8QPxAAAAAAAAAAAAAAAAAAAAAAAAAAAAAAAAAAAAAAAAAAAAAAAAAAAAAAAAAAAAAAAAAAAAAAA/SFiomCiXUZBv3jl+4bZeOnjtpWWmG0W1GkVOZUUDub4PrD3dV9yKCqhrUmTt3T6TucSEi3rSM5Zh2UT03+uyiemT7JPTJ3QObYADXAAJE+ze9sAkAANcAAkT7N72wCQAA1wACRPs3vbAJAADXAAJE+ze9sAkAANcAAkT7N72wCQAA1wAAAAASJ9m97YBIAAa4ABIn2b3tgEgABrgAHF7Cew8sHzB8x5XO6TMz6kkMjX/AAOUNMvn7LfJYy9b9Q65lRbVVU+1A6xK9OFJwga0Gn8roNEOaCSVu1lGJf6eLeMLanp3zXKlqLyoyiAcQJzO5zSKYPZtP5tGTKNfra8iYt+09et/haaVVUDwgAAAAAAAAAAAAAAAAAAAAAAAAAAAAAAAAAAAAAAAAAAAAAAAAAAAAAAAAAAAAAAAAAAAAAAAAAAAAAPOkU8nFGZzBUho/MX8BMpc/YiIWKcNqw8dPGVtZaZVOZbQO7fAQw3ZPhL0Wd0UpdEQ8FWFJ3CJGObUZZmLtnk9EOk6ftmU5l5eZQOWoGuAASJ9m97YBIAAa4ABIn2b3tgEgABrgAEifZve2ASAAGuAASJ9m97YBIAAa4ABIn2b3tgEgABrgAACRl7Q9fcAy9oevuAdu/A8TexreroAZB0zU3gMg6ZqbwGXtD19wDL2h6+4B278DxN7Gt6ugBkHTNTeAyDpmpvAxdbOEDVvUhROIppWZPIWTy1wljPGPbXr9vuO3TtExnja9DKKB1I4WPCr1qVxtxlEanfRVBqIt2umn7t4iTOOY5vTvGfrTK/aML+FpeYDgm/fv4p83ERL5t69eNK02220rTTSr3VVecD+AAAABckFBaa0qiWYOjVEpvNH7fqXcJBPHrS/gRlFA9pSLAkws6RsMvZdUBTRl216luJlbyHZXvorxESwDWQ/Bs4acSiNMVJx7Nv3SOhWP5niAf72NjDN95955Wgv6oDsbGGb7z7zytBf1QP7d8GnhovbeKqbfN2dE1gl/wDKB/XYzsNb3l4jypB/1QHYzsNb3l4jypB/1QPy7Gxhm+8+88rQX9UB2NjDN95955Wgv6oH9u+DTw0XtvFVNvm7OiawS/8AlA/rsZ2Gt7y8R5Ug/wCqA7Gdhre8vEeVIP8Aqgfl2NjDN95955Wgv6oDsbGGb7z7zytBf1QP7d8GnhovbeKqbfN2dE1gl/8AKB/XYzsNb3l4jypB/wBUB2M7DW95eI8qQf8AVA/LsbGGb7z7zytBf1QHY2MM33n3nlaC/qgf274NPDRe28VU2+bs6JrBL/5QP67Gdhre8vEeVIP+qA7Gdhre8vEeVIP+qB+XY2MM33n3nlaC/qgOxsYZvvPvPK0F/VA/t3waeGi9t4qpt83Z0TWCX/ygf12M7DW95eI8qQf9UB2M7DW95eI8qQf9UD8uxsYZvvPvPK0F/VAdjYwzfefeeVoL+qB/bvg08NF7bxVTb5uzomsEv/lA/rsZ2Gt7y8R5Ug/6oDsZ2Gt7y8R5Ug/6oH5djYwzfefeeVoL+qA7Gxhm+8+88rQX9UD+3fBp4aL23iqm3zdnRNYJf/KB/XYzsNb3l4jypB/1QHYzsNb3l4jypB/1QPy7Gxhm+8+88rQX9UB2NjDN95955Wgv6oH9u+DTw0XtvFVNvm7OiawS/wDlA/rsZ2Gt7y8R5Ug/6oDsZ2Gt7y8R5Ug/6oH5djYwzfefeeVoL+qA7Gxhm+8+88rQX9UD+3fBp4aL23iqm3zdnRNYJf8Aygf12M7DW95eI8qQf9UB2M7DW95eI8qQf9UD8uxsYZvvPvPK0F/VAdjYwzfefeeVoL+qB/bvg08NF7bxVTb5uzomsEv/AJQP67Gdhre8vEeVIP8AqgOxnYa3vLxHlSD/AKoH5djYwzfefeeVoL+qA7Gxhm+8+88rQX9UD+3fBp4aL23iqm3zdnRNYJf/ACgf12M7DW95eI8qQf8AVAdjOw1veXiPKkH/AFQPy7Gxhm+8+88rQX9UB2NjDN95955Wgv6oH9u+DTw0XtvFVNvm7OiawS/+UD8o/g28M2WQMRMY2pyIdw8K6bfvW8pwa4rDKKrS2I97iIoHGdthp2207bSxplVRU76Af4AAAW6FU0pPV3SmW00oZOIiVzmUv2YiFinDVjTDafsVFTkVF5FRVRQO9rAewt6KYWlBcWJjHEqpzJnTLM6lKfZ9z0S4tW1p00vc52FWxe4qhycy9oevuAZe0PX3AO3fgeJvY1vV0AMg6ZqbwGQdM1N4DL2h6+4Bl7Q9fcA7d+B4m9jW9XQAyDpmpvAZB0zU3gMvaHr7gGXtD19wDt34Hib2Nb1dADIOmam8BkHTNTeAy9oevuAZe0PX3AO3fgeJvY1vV0AMg6ZqbwGQdM1N4DL2h6+4Bl7Q9fcA7d+B4m9jW9XQAyDpmpvAZB0zU3gMvaHr7gGXtD19wDL2h6+4CQAAryHOLu0CuAAyIACvIc4u7QK4HF7DNw8KucFCRNS1hpzP6dRrpVgJI6ep/ZW8z2IaT62x3vVL3E7oHRxXXXtWXhAUxf01rLpC9mEW2qpDw7KqzDQbteZ25d8zDPN31s5VVQPX4AAB7YqWwWK+MICOYhqsavZjMIdpUxpg9Y4iDdpbZa0+bsZst6LQOdVUPA4QzLuHmVdlZDbbSojTyWSN3ZZ0sq/b7qdLLKoBy/q3wGMFqq906yJVNKZhFO0sWLnDHo56331R5axb+BlAOQ1D5VK5NBvZfJ5bCwMK7xUYcQzll07Z5+ZllERANCAAyIACvIc4u7QK4ADIgAK8hzi7tArgAMiAAryHOLu0CuAAyIACvIc4u7QK4ADIgAK8hzi7tArgAMiAAryHOLu0CuAAyIACvIc4u7QK4ADIgAK8hzi7tArgAMiAAryHOLu0CuAAyIACvIc4u7QK4ADIgAK8hzi7tArgAMiAAryHOLu0D8KfesWkfimL+RaA+XuO/vsR/qt/xUD8QP1h4SKi1eJCw7x8rp209bRhlWlZYZ9U0tncROVV7gH5AANfVPWtTapWnkrrGq/nD2XTiVPUeO22V9K9Y+ydvGfsmGk5FRe4oHe/goYUlDMKSrp1SiRPHcJO4FllzOpS03a8hH9nOic6u2uVWWvgXlA92AV5DnF3aBXAAZEABXkOcXdoFcABkQAFeQ5xd2gVwAGRAAV5DnF3aBXAAZEABXkOcXdoFcABkQAAAAAryHOLu0CuAAyIACvIc4u7QOIeH9wgUjwZpO8q/q/fw00rGmLlcVi1G3codtJyPnqd1tedlhfwryc4dIFK6V0ipxSGOpXSycRM0m0yfNP4qKiXittvG1W1VVV/gBJAAb+pmoetWv8ApS7ojVXRGMnMYqpx71hnFh4Vhfs3z1fSu2efnW1bLERV5AO2fBi4I6qmrV3CUmrxiXdOaRMYrz0CiKxLIZvoxOd9Z0t8nJ6lAOe0plEqkMA5lUklsLAQUOyjLqHhnTLt2wnQjLKIiAZ0ABXkOcXdoFcABkQAFeQ5xd2gVwAGRAAV5DnF3aBXAAZEABXkOcXdoFcABkQAFeQ5xd2gVwAGRAAV5DnF3aBXAAZEABXkOcXdoFcABkQAFeQ5xd2gVwAGRAAV5DnF3aBXAAZEABXkOcXdoFcABkQAFeQ5xd2gVwAGRAAV5DnF3aBXAAZEABXkOcXdoH4U+9YtI/FMX8i0B8vcd/fYj/Vb/ioH4gcouDWlUsnmFtRmTTmAcR0BGwE0cRMM/YRt29dtQT1GmWmV5FRUA0uH7gMzLBzpE9rBoBBP4urmbxFjCoittSh+0q2Q7xfua/YNr+KvKiWhw4AAexaha9qd4PFYkBWJQOPV1EQzSMRUK2q8TGw6r6dy9Z7rKp3edF5UA75cHbCFoJhJ1dwlPqExSMqtjqYS9tpFfQESiemdNp+1F5lSxQPc8hzi7tArgAMiAAryHOLu0CuAAyIACvIc4u7QK4ADIgAK8hzi7tArgAMiAAryHOLu0CuAAyIAABrgAEifZve2ASAAGuAAcRuEGwy5JgvUGcyyRvoeNp9PHLxmUwKrjJCsLYixT5PtGVtxU+yaSzmRVQOiGkdI57S+ex1J6TTWImU1mT9qIi4uIbVt49eNLaqqv/8ALAJwADmTgTcHNTzCbiIemtMWoijNXrp4mNGNMWRMxsXlYhmV7ncV4vInctXkA7lKCVN1b1HURl1CKsKLQcklcOiqrLlm14/b9KivHra+meNr3WmlVQLoADXAAJE+ze9sAkAANcAAkT7N72wCQAA1wACRPs3vbAJAADXAAJE+ze9sAkAANcAAkT7N72wCQAA1wACRPs3vbAJAADXAAJE+ze9sAkAANcAAkT7N72wCQAA1wACRPs3vbAJAADXAAJE+ze9sAkAANcAAkT7N72wCQAA1wACRPs3vbAJAADXAAJE+ze9sAx9NfWdPfFsV8k0B80kd/fYj/Vb/AIqB+IHLfgrPZr0L/Jpn8yfAd4lZVFKPU4o3E0SpXKoeZSmauHsNFwr9hGmHjtpERUVNvcA6IsN/AwpFguUyWZSlzER9A5y+aWVTBUxlcNc/oZ8vcbROZV9UnKBxhAAe48FrCep7gsVlw1OqHv2n8C+VlzOJS8bVHEwhreVhrobTlVlvnZXpRVRQ78Kra7aBYQNXclrJq8mrMXLo9hUeumlRH0I+TFx3L1n7FtlevkVLUUDTgANcAAkT7N72wCQAA1wACRPs3vbAJAADXAAJE+ze9sAkAANcAAkT7N72wCQAA1wAAAAASJ9m97YBIAAa4D1phE170QwcqqZzWfS9+zxcA6ViDhMaxuNimksduWO+q869xEVQPnYrmrdplXnWNOazKdTFuKmc3fq8sVfSOHX2Dl2n2LDLNiIgGJAAdhnB18HLE1wvYKuuuyWPoahTltH0plT1FYbnDSLajxtOdHFvwt9zk5VDuTlstl8ngIeVSmBcQcHCO2XTiHcO0YdumESxGWWU5ERAPBn2b3tgEgABrgAEifZve2ASAAGuAASJ9m97YBIAAa4ABIn2b3tgEgABrgAEifZve2ASAAGuAASJ9m97YBIAAa4ABIn2b3tgEgABrgAEifZve2ASAAGuAASJ9m97YBIAAa4ABIn2b3tgEgABrgAEifZve2ASAAGuAASJ9m97YBIAAa4ABIn2b3tgEgABrgAEifZve2AY+mvrOnvi2K+SaA+aSO/vsR/qt/xUD8QOW/BWezXoX+TTP5k+A72p9m97YBg6x6uaH1s0LmlAKdyd1MpNNnKun7ltOVlfsW2F52W2V5UaTlRQOiPC9wTqX4K9YTckmDL2PozMm23sjm6MWMv3Vv1tvuMvWU5FTu86cnMHoYAB7/wPcLWlmCxT9iawrT6PotM22Hc7lOP6V67t+uu+4j1lOZe7zKB3s1eVg0SrTobK6e0GnDmZyabuUfQ792vWw0n2LbK8isryoqAaIDXAAJE+ze9sAkAANcAAkT7N72wCQAA1wACRPs3vbAJAADXAAJE+ze9sAkAANcAAASMvaHr7gGXtD19wDt34Hib2Nb1dADIOmam8BkHTNTeB/jVIGGGVbbhUZZZS1VV5YiJ0ryAdGvCW4WcVhC1wPaIUdjraGULfPIOCYdt2sRUWi4r6I7/KmKzycyd20DhyAA5tcHFgLxGEfSv/AOSKwoF46q9o+/T0jxlUSbxTK2o4Z6XbPO2vd5Ge6tgd2EFMYOWwbiXy+Uu4aFhnbLpy5dKjLDthlLEZZREsRERAP3y9oevuAdu/A8TexreroAZB0zU3gMg6ZqbwGXtD19wDL2h6+4B278DxN7Gt6ugBkHTNTeAyDpmpvAZe0PX3AMvaHr7gHbvwPE3sa3q6AGQdM1N4DIOmam8Bl7Q9fcAy9oevuAdu/A8TexreroAZB0zU3gMg6ZqbwGXtD19wDL2h6+4B278DxN7Gt6ugBkHTNTeAyDpmpvAZe0PX3AMvaHr7gHbvwPE3sa3q6AGQdM1N4DIOmam8Bl7Q9fcAy9oevuAdu/A8TexreroAZB0zU3gMg6ZqbwGXtD19wDL2h6+4B278DxN7Gt6ugBkHTNTeAyDpmpvAZe0PX3AMvaHr7gHbvwPE3sa3q6AGQdM1N4DIOmam8Bl7Q9fcAy9oevuAdu/A8TexreroAZB0zU3gMg6ZqbwGXtD19wDL2h6+4B278DxN7Gt6ugBkHTNTeAyDpmpvAZe0PX3AMvaHr7gHbvwPE3sa3q6AGQdM1N4DIOmam8Bl7Q9fcAy9oevuAdu/A8TexreroAZB0zU3gMg6ZqbwGXtD19wDL2h6+4B278DxN7Gt6ugCHTmScXQmkDz0XbiyuLasxOex013wPmQjv77Ef6rf8VA/EDllwW8R6Fwz6Gv8THxYaZcltlv+5vQO9/t34Hib2Nb1dADIOmam8DCV1YPVBa+qvplV1T+HZi4CPdrxT1HacdCPk9Q+dNKvpW2V5e/yotqKqAdAmExg206wY6xomg9LnDT+EeK0+lM0dsKjmYQ1vI2z0NJzNM87K96xVD1IAA5SYDeGnP8ABdpiknnr6Ij6ATp8yk0gWbWmoRtVs9FOWftkT1TKeqTvogHetRKOo5TqjcupfRKkcPM5RNodiKg4uH9Mw9dtJaioqKBXy9oevuAZe0PX3AO3fgeJvY1vV0AMg6ZqbwGQdM1N4DL2h6+4Bl7Q9fcA7d+B4m9jW9XQAyDpmpvAZB0zU3gMvaHr7gGXtD19wDt34Hib2Nb1dADIOmam8BkHTNTeAy9oevuAZe0PX3AO3fgeJvY1vV0AMg6ZqbwGQdM1N4DL2h6+4Bl7Q9fcAy9oevuAkAAK8hzi7tArgAOEHCQYR61EVExMmkMerilNNceVy1WGrHjhyqf279O6mKytiL9s2yB0bKtvKoAD2xgv4PtJcJeuCTVZ0fYeO3EQ8R/M4xGbWYODZVOMeKvTZyJ0qqAfRVVrV1RWqeg0nq8oVLXcDJ5JCsQsO6YTlVETlbaXutNLaqr3VUDxwAFeQ5xd2gVwAGRAAV5DnF3aBXAAZEABXkOcXdoFcABkQAFeQ5xd2gVwAGRAAV5DnF3aBXAAZEABXkOcXdoFcABkQAFeQ5xd2gVwAGRAAV5DnF3aBXAAZEABXkOcXdoFcABkQAFeQ5xd2gVwAGRAAV5DnF3aBXAAZEABXkOcXdoFcABkQAFeQ5xd2gVwAGRAAV5DnF3aB+FPvWLSPxTF/ItAfL3Hf32I/wBVv+KgfiBys4MH2ZFEPyaZfM3oHfLIc4u7QK4ADj7hH4O1B8JWrqLoHTGGZdvrFey2YssIr2BiLPSvGV57O40z3UA6Gq9aj6c4PlYkxq6p5L2nEXCNK1DxDKLxMZDqvpHzprusqnUtqLzAevgAHNbg78PWaYNlJXVXNYMa/jKt5zEIjSNKrTUnftr9fdp9zVfVsXk5bbQ7m5ZM5dOpfDTaURziMgox0y+h4hw2jbt67aS1lplpORUVAPJAryHOLu0CuAAyIACvIc4u7QK4ADIgAK8hzi7tArgAMiAAryHOLu0CuAAyIAAAAAV5DnF3aBXA/wAVURFVV5EA+fDhC69nleOEhPXsBGcdIKKtNSKUoy1aw0y6aVHr5O4uO9xlRe6yjHQBxnAIiqqIiWqvMgHetwXWC+6qNqNcU7pDL+LpbTx27j4hXjNjcNAryuHPSlqKjap0tJ0Ac0gMiAAryHOLu0CuAAyIACvIc4u7QK4ADIgAK8hzi7tArgAMiAAryHOLu0CuAAyIACvIc4u7QK4ADIgAK8hzi7tArgAMiAAryHOLu0CuAAyIACvIc4u7QK4ADIgAK8hzi7tArgAMiAAryHOLu0CuAAyIACvIc4u7QK4ADIgAK8hzi7tArgAMiAAryHOLu0CuAAyIACvIc4u7QPwp96xaR+KYv5FoD5e47++xH+q3/FQPxA5WcGD7MiiH5NMvmb0DvlkOcXdoFcABkQPRuFrgq0Nwpqu3tHJww7gqQS9lt7I5wjFryEfWeoa7rTprmaZ+FLFQDogrPqyplU/TeZ1fU9lDyXTiVPVdvXbSeleM/YvHbX2TDScqNJ3O/wAgGWAAc++Dqw826qJjCVK1uzVtqh8e9R3K5k+aVckvml5GG1X/ACGl/RXl5rQO3109dP3TD5y8ZeO3jKNsNsKistMqlqKipzoqd0CzIc4u7QK4ADIgAK8hzi7tArgAMiAAryHOLu0CuAAyIACvIc4u7QK4ADIgAAGuAASJ9m97YBIA9NYYVbiVJYOdM6dQ8X6HmTEA1AytpGrGvRj/APs3as99nGV5+BhQPnsePG3rxp68aVpptVaaVe6qgfyB7/wGaif9oDCKo7RWPh1eSOWNrOZzazaysI4VFxF/1G1Yd37e4B39MMMO2GXbtlGWWURllESxERO4B/oGuAASJ9m97YBIAAa4ABIn2b3tgEgABrgAEifZve2ASAAGuAASJ9m97YBIAAa4ABIn2b3tgEgABrgAEifZve2ASAAGuAASJ9m97YBIAAa4ABIn2b3tgEgABrgAEifZve2ASAAGuAASJ9m97YBIAAa4ABIn2b3tgEgABrgAEifZve2ASAAGuAASJ9m97YBIAAa4ABIn2b3tgGPpr6zp74tivkmgPmkjv77Ef6rf8VA/EDlvwVns16F/k0z+ZPgO9qfZve2ASAAGuAAcUsPPAzothS0KdxME6h5dTuUuXiyeaKzZxqJy+hny86u2lXkX7FVtTuoodD1M6G0mq+pPMaG0xlERLJxKn7UPFQr9mxphtF/ai86KnIqcoEUAB2ecGZwhS0ffS3B1rvnX/DHrTMNRqdxTz+7NqtjMI+aX7BeZhpeb1K9wDtUnqo0kM0yqKi4yoqd3mAkgANcAAkT7N72wCQAA1wACRPs3vbAJAADXAAJE+ze9sAkAANcAAAAAEifZve2ASAOtLhlqzWoaSUGqhhIhpPRj17Po133GmWLXThfgVX3WB1ZAAO3vggKnWaNVOzyuKYQiJGUxmKwUE8aZ5UgoRcVVRe5jPmnlvTxbIHP8ABrgAEifZve2ASAAGuAASJ9m97YBIAAa4ABIn2b3tgEgABrgAEifZve2ASAAGuAASJ9m97YBIAAa4ABIn2b3tgEgABrgAEifZve2ASAAGuAASJ9m97YBIAAa4ABIn2b3tgEgABrgAEifZve2ASAAGuAASJ9m97YBIAAa4ABIn2b3tgEgABrgAEifZve2ASAAGuAASJ9m97YBj6a+s6e+LYr5JoD5pI7++xH+q3/FQPxA5b8FZ7Nehf5NM/mT4Dvan2b3tgEgABrgAEifZve2AcLcPPAflWEpRh5TKhcO4g6wpO4VYVuxGWZm6Z5fQ7xftvtGl5l5F5OYOkycyaa0dm0ZIZ7L38BMZe+bh4qGfsKw8cvGVsaZaZXlRUVAPDAIqsqjTKqipyoqdwDtj4OXD/aphAy3B+rrnVs5g2UcUdnMS3yxjvkRIZ80v+YiJ6VpfVJyLy2Adi4ADXAAJE+ze9sAkAANcAAkT7N72wCQAA1wACRPs3vbAJAADXAAAEjL2h6+4Bl7Q9fcA7d+B4m9jW9XQAyDpmpvA6JOFFpq1SvC4pHLHUUr6Fo1Dw8odIq+oaYYRXid706tL8IHEkD+nbt4+eMuXTDTbbbSMsssparSrzIiAfSLg3VbQ1XlRFB6uodhlwsgksM6fNMpbxr5phGnja83KreMq/hA9lZB0zU3gMg6ZqbwGXtD19wDL2h6+4B278DxN7Gt6ugBkHTNTeAyDpmpvAZe0PX3AMvaHr7gHbvwPE3sa3q6AGQdM1N4DIOmam8Bl7Q9fcAy9oevuAdu/A8TexreroAZB0zU3gMg6ZqbwGXtD19wDL2h6+4B278DxN7Gt6ugBkHTNTeAyDpmpvAZe0PX3AMvaHr7gHbvwPE3sa3q6AGQdM1N4DIOmam8Bl7Q9fcAy9oevuAdu/A8TexreroAZB0zU3gMg6ZqbwGXtD19wDL2h6+4B278DxN7Gt6ugBkHTNTeAyDpmpvAZe0PX3AMvaHr7gHbvwPE3sa3q6AGQdM1N4DIOmam8Bl7Q9fcAy9oevuAdu/A8TexreroAZB0zU3gMg6ZqbwGXtD19wDL2h6+4B278DxN7Gt6ugBkHTNTeAyDpmpvAZe0PX3AMvaHr7gHbvwPE3sa3q6AGQdM1N4DIOmam8Bl7Q9fcAy9oevuAdu/A8TexreroAZB0zU3gMg6ZqbwGXtD19wDL2h6+4B278DxN7Gt6ugBkHTNTeAyDpmpvAZe0PX3AMvaHr7gHbvwPE3sa3q6AIdOZJxdCaQPPRduLK4tqzE57HTXfA+ZCO/vsR/qt/xUD8QOWXBbxHoXDPoa/wATHxYaZcltlv8Aub0Dvf7d+B4m9jW9XQAyDpmpvAZB0zU3gMvaHr7gGXtD19wDt34Hib2Nb1dADIOmam8DgjwjPB8O65pJFVy1TwbtKeSxxjx8E6d4uWodhObn+vsonpV+yT0q/YqgdMETDREFEPYSLcPHD9w2rt66eMqy0w0i2KyqLyoqL3APzA/SFiomCiXUZBv3jl+4bR47eO2lZaYaRbUVFTmVFA7kuDlw6IKvCXQtTFbE6YhadS9ziS6Ne2IzOXLCc1tqWP2UTlT7JEtTltA595B0zU3gMvaHr7gGXtD19wDt34Hib2Nb1dADIOmam8BkHTNTeAy9oevuAZe0PX3AO3fgeJvY1vV0AMg6ZqbwGQdM1N4DL2h6+4Bl7Q9fcA7d+B4m9jW9XQAyDpmpvAZB0zU3gMvaHr7gGXtD19wDL2h6+4CQAAryHOLu0Csq2cqgfM9hHUoeU0r6p/Sl68VtqY0gjXqtLzr/AGrSbAPXIHsjBsootN6/qv6McWjbMZSGCV4wqW4zth6jxtPhZYVAPpHo8ww7YfO3bOKyyjDLKdCJaBZAAZEABXkOcXdoFcABkQAFeQ5xd2gVwAGRAAV5DnF3aBXAAZEABXkOcXdoFcABkQAFeQ5xd2gVwAGRAAV5DnF3aBXAAZEABXkOcXdoFcABkQAFeQ5xd2gVwAGRAAV5DnF3aBXAAZEABXkOcXdoFcABkQAFeQ5xd2gVwAGRAAV5DnF3aBXAAZEABXkOcXdoFcABkQAFeQ5xd2gfhT71i0j8UxfyLQHy9x399iP9Vv8AioH4gcrODB9mRRD8mmXzN6B3yyHOLu0CuAAyIACvIc4u7QK4ADq74R3AIYppDx9flTUnRmfuGFf0glEOxYkewiWtRLplP81E9UieqTl57bQ6nG2G3bbTt4yrLTKqjTKpYqL0KB/gHmSecTWj01hJ5I5hEQEwgHzERDRMO2rDxy8ZW1lplpOVFRUA7y+Dzw8pVhMUYd0Ap7GOIOsiSw6ccwqoyzNnDKWeiHSfbfbsJzLypyKByjAAV5DnF3aBXAAZEABXkOcXdoFcABkQAFeQ5xd2gVwAGRAAAAACvIc4u7QP9pbGrLaKzmYotiwsviH9v4rtpdgHy/0miljqSTWNVbfREc/e/pPGl2gTQOTPBwSfK+GDQVvFtye8iYz8GK4bT/8AyA7+JDnF3aBXAAZEABXkOcXdoFcABkQAFeQ5xd2gVwAGRAAV5DnF3aBXAAZEABXkOcXdoFcABkQAFeQ5xd2gVwAGRAAV5DnF3aBXAAZEABXkOcXdoFcABkQAFeQ5xd2gVwAGRAAV5DnF3aBXAAZEABXkOcXdoFcABkQAFeQ5xd2gVwAGRAAV5DnF3aBXAAZEABXkOcXdoFcABkQAFeQ5xd2gfhT71i0j8UxfyLQHy9x399iP9Vv+KgfiBys4MH2ZFEPyaZfM3oHfLIc4u7QK4ADIgAK8hzi7tArgAMiqI0ioqIqLyKigdWvCQYA2S0mOEJUvKFWEVWoikkmh3fK47rUW5ZT7Dutspzeq5rbA6zwAFih1MKS0ApPLaZUPnERK5xKYhmJhIuHbVlt28ZW1Ft6O4qcypyAd5mBRhlUbwpqEMuJg1Dy6nUndMsziXMrYy+7nolyn2jXdT7FeTmsA5LAV5DnF3aBXAAZEABXkOcXdoFcABkQAFeQ5xd2gVwAGRAAANcAAkT7N72wDCVltq7q5pU8TnZkkc0nwOGwPmui2lbinza87Txpf2gfkBzE4J10y9wyJCq/5crj20/DiJ5wO82fZve2ASAAGuAASJ9m97YBIAAa4ABIn2b3tgEgABrgAEifZve2ASAAGuAASJ9m97YBIAAa4ABIn2b3tgEgABrgAEifZve2ASAAGuAASJ9m97YBIAAa4ABIn2b3tgEgABrgAEifZve2ASAAGuAASJ9m97YBIAAa4ABIn2b3tgEgABrgAEifZve2ASAAGuAASJ9m97YBIAAa4ABIn2b3tgGPpr6zp74tivkmgPmkjv77Ef6rf8VA/EDlvwVns16F/k0z+ZPgO9qfZve2ASAAGuAASJ9m97YBIAAa4D+Hzl1EOm3D90y8dPGVYbYbS1lpleRUVO6gHTJwk/B+PKoZpF131OShtuhcweNPptLHDFuR3zS8rbCJ/kNKvN9gvJzWWB16gANXVdWhTWpynErrDq/nL2WzmUvkeuXrC+lbT7J22zzNMNJyKyvOigd/uBxheUKwsquXc/lbbqApNLWGHU9kyt2twz6z1bHdadNcqstfAvKgHumfZve2ASAAGuAASJ9m97YBIAAa4ABIn2b3tgEgABrgAAAAAkT7N72wDBVn/AOGtLfEcf83bA+a6I+vvPx1/iB/AHMjgmfZkSTxRMP5GQO8mfZve2ASAAGuAASJ9m97YBIAAa4ABIn2b3tgEgABrgAEifZve2ASAAGuAASJ9m97YBIAAa4ABIn2b3tgEgABrgAEifZve2ASAAGuAASJ9m97YBIAAa4ABIn2b3tgEgABrgAEifZve2ASAAGuAASJ9m97YBIAAa4ABIn2b3tgEgABrgAEifZve2ASAAGuAASJ9m97YBIAAa4ABIn2b3tgGPpr6zp74tivkmgPmkjv77Ef6rf8AFQPxA5b8FZ7Nehf5NM/mT4Dvan2b3tgEgABrgAEifZve2ASAAGuAAQKXS+Bm0BkuaQbmLg4x08cRDh8wjbt67aREaZaZXkVFRbLAOkjhA8BeOwfp++rJq5gn0TV9Nn6q07ZRWmpQ+aX6014JV9S13OZe4BwtAAewaia8qe4PNY0trKq9mTUPHQLdj5w00vExjhV9O5espzstJ1LYqcqAd+OD7hMUCwpKs5bT2hkQy6inf9jNpW22iv5dFWJa7bTusrYqstczSfgVED2QAA1wACRPs3vbAJAADXAAJE+ze9sAkAANcAAASMvaHr7gGXtD19wDt34Hib2Nb1dAGXrSkeJVlS5v0XbiyGPWzE0dvvgfMzEfX3n46/xA/gDmHwUT70PhgSd9i42LKI9bLbLfSsgd53bvwPE3sa3q6AGQdM1N4DIOmam8Bl7Q9fcAy9oevuAdu/A8TexreroAZB0zU3gMg6ZqbwGXtD19wDL2h6+4B278DxN7Gt6ugBkHTNTeAyDpmpvAZe0PX3AMvaHr7gHbvwPE3sa3q6AGQdM1N4DIOmam8Bl7Q9fcAy9oevuAdu/A8TexreroAZB0zU3gMg6ZqbwGXtD19wDL2h6+4B278DxN7Gt6ugBkHTNTeAyDpmpvAZe0PX3AMvaHr7gHbvwPE3sa3q6AGQdM1N4DIOmam8Bl7Q9fcAy9oevuAdu/A8TexreroAZB0zU3gMg6ZqbwGXtD19wDL2h6+4B278DxN7Gt6ugBkHTNTeAyDpmpvAZe0PX3AMvaHr7gHbvwPE3sa3q6AGQdM1N4DIOmam8Bl7Q9fcAy9oevuAdu/A8TexreroAZB0zU3gMg6ZqbwGXtD19wDL2h6+4B278DxN7Gt6ugBkHTNTeAyDpmpvAZe0PX3AMvaHr7gHbvwPE3sa3q6AGQdM1N4DIOmam8Bl7Q9fcAy9oevuAdu/A8TexreroAZB0zU3gMg6ZqbwGXtD19wDL2h6+4B278DxN7Gt6ugCHTmScXQmkDz0XbiyuLasxOex013wPmQjv77Ef6rf8AFQPxA5ZcFvEehcM+hr/Ex8WGmXJbZb/ub0Dvf7d+B4m9jW9XQAyDpmpvAZB0zU3gMvaHr7gGXtD19wDt34Hib2Nb1dADIOmam8BkHTNTeAy9oevuAZe0PX3AO3fgeJvY1vV0AS6TVdyCmUgjqL0phoeZyqZOWoeLhYh1jMPXbSWKipb+3nQDoww9MCCkOCnTZqcSJ1ETGr2eP2llUwxVaWEbW1fQr9e42iW4q8zTKWpyoqIHFEAB7awZ8JCnODJWRC05ohEtPYVtWXM1ljbS8RMIW30zttOnustc7K2KgHfrUTWrQLCHq6l1ZFX09R/BRrCI/h2kRX0G/RPTuXqW8jTK9acqc4HsLIOmam8Bl7Q9fcAy9oevuAdu/A8TexreroAZB0zU3gMg6ZqbwGXtD19wDL2h6+4B278DxN7Gt6ugBkHTNTeAyDpmpvAZe0PX3AMvaHr7gGXtD19wEgABXkOcXdoE2tX/AAvph4gmHzdsD5g4j6+8/HX+IH8Acv8Agq/ZdSrxPH/ysgd6Uhzi7tArgAMiAAryHOLu0CuAAyIACvIc4u7QK4ADIgAK8hzi7tArgAMiAAryHOLu0CuAAyIACvIc4u7QK4ADIgAK8hzi7tArgAMiAAryHOLu0CuAAyIACvIc4u7QK4ADIgAK8hzi7tArgAMiAAryHOLu0CuAAyIACvIc4u7QK4ADIgAK8hzi7tArgAMiAAryHOLu0CuAAyIACvIc4u7QPwp96xaR+KYv5FoD5e47++xH+q3/ABUD8QOVnBg+zIoh+TTL5m9A75ZDnF3aBXAAZEABXkOcXdoFcABkQAFeQ5xd2gVwMxWTVvQ6tuhM1q+p7JXM0kk4cK4iHD1OptledltlbFRpOVFRFA6AMMTBFpdgr08agIlh9H0Tmrxt5JJti+leMW28S8VORl6ynOndTlTvBx9AAe/sDrC6prgm1jOqQSpt7H0ZmTbDqeyZW/SRLm364xbyMvWU5WWu7zLycwd/1VlaNCq5aCyusSr+cuplJps5R65esL6Zhr7J22zzstsryKyvKigfyAAryHOLu0CuAAyIACvIc4u7QK4ADIgAAAABXkOcXdoE2tX/AAvph4gmHzdsD5g4j6+8/HX+IH8Acv8Agq/ZdSrxPH/ysgd6Uhzi7tArgAMiAAryHOLu0CuAAyIACvIc4u7QK4ADIgAK8hzi7tArgAMiAAryHOLu0CuAAyIACvIc4u7QK4ADIgAK8hzi7tArgAMiAAryHOLu0CuAAyIACvIc4u7QK4ADIgAK8hzi7tArgAMiAAryHOLu0CuAAyIACvIc4u7QK4ADIgAK8hzi7tArgAMiAAryHOLu0CuAAyIACvIc4u7QPwp96xaR+KYv5FoD5e47++xH+q3/ABUD8QOVnBg+zIoh+TTL5m9A75ZDnF3aBXAAZEABXkOcXdoFcABkQAFeQ5xd2gVwAHp2uGqGhFeVAZlV1T+VMRssmLtURqxOMhnqeofOmvsW2V5UX4AOhvChwZqb4MFYsRQ6kzpuJlr9Wn0nmrLFjqOh7eRehG05mme4veVAPToADlHgLYbNJ8E6nLMLMW4iZUCnT5lmcyxGrVcqvJ6JcovIjxlOdOZpOToUDvBonSyjlOqNy6l9EpvDzSTzZwzEwcXDtYzD1213e8qcqKi8qKiotioBWAryHOLu0CuAAyIACvIc4u7QK4ADIgAAGuAASJ9m97YBgqz/APDWlviOP+btgfNdEfX3n46/xA/gDmRwTPsyJJ4omH8jIHeTPs3vbAJAADXAAJE+ze9sAkAANcAAkT7N72wCQAA1wACRPs3vbAJAADXAAJE+ze9sAkAANcAAkT7N72wCQAA1wACRPs3vbAJAADXAAJE+ze9sAkAANcAAkT7N72wCQAA1wACRPs3vbAJAADXAAJE+ze9sAkAANcAAkT7N72wCQAA1wACRPs3vbAJAADXAAJE+ze9sAkAANcAAkT7N72wDH019Z098WxXyTQHzSR399iP9Vv8AioH4gct+Cs9mvQv8mmfzJ8B3tT7N72wCQAA1wACRPs3vbAJAADXAAJE+ze9sAkAANcB6owlMHCgGE7VrG1e05g0ZbaRXstmLthFfy+Js9K9dr0dxpnmaTk6FQPn2wgKg6f4OFZEwq3rBlyuYqGaVuEimEXiI6HVfSP3TXdZVPhRbUWxUA9bgAOZ3B64eE1wZqUMUDp3Gv4uridRCce7VVaWVP2uT0Q7TuMryY7Kc6JbzoB3myWcyqkUphJ7I5g4jpfHuWYiGiXDaNu3rtpLWWmVTnRUA8WfZve2ASAAGuAASJ9m97YBIAAa4AAAAAJE+ze9sAwVZ/wDhrS3xHH/N2wPmuiPr7z8df4gfwBzI4Jn2ZEk8UTD+RkDvJn2b3tgEgABrgAEifZve2ASAAGuAASJ9m97YBIAAa4ABIn2b3tgEgABrgAEifZve2ASAAGuAASJ9m97YBIAAa4ABIn2b3tgEgABrgAEifZve2ASAAGuAASJ9m97YBIAAa4ABIn2b3tgEgABrgAEifZve2ASAAGuAASJ9m97YBIAAa4ABIn2b3tgEgABrgAEifZve2ASAAGuAASJ9m97YBj6a+s6e+LYr5JoD5pI7++xH+q3/ABUD8QOW/BWezXoX+TTP5k+A72p9m97YBIAAa4ABIn2b3tgEgABrgAEifZve2ASAAGuAAcfcMnBboVhR1eM0Wn7p1BzqEZePZNN0d2vIN/YliKvOrtrmaZ7vPzogHQRWzVRTWpWnczq7p/KXkBNpY8VlpFT0j52vqXrtr7JhpOVFQDIAAOf3BucIFEVJTaFqWrcmrx7QOYvkdy6OfNK0slfNLzKv3BpedPsV5U5LQO46axMPGw0FGQj92/cP2OMdPXbSNMtsKjKo0ipyKipy2gTQAGuAASJ9m97YBIAAa4AAAkZe0PX3AMvaHr7gHbvwPE3sa3q6AMvWlI8SrKlzfou3FkMetmJo7ffA+ZmI+vvPx1/iB/AHMPgon3ofDAk77FxsWUR62W2W+lZA7zu3fgeJvY1vV0AMg6ZqbwGQdM1N4DL2h6+4Bl7Q9fcA7d+B4m9jW9XQAyDpmpvAZB0zU3gMvaHr7gGXtD19wDt34Hib2Nb1dADIOmam8BkHTNTeAy9oevuAZe0PX3AO3fgeJvY1vV0AMg6ZqbwGQdM1N4DL2h6+4Bl7Q9fcA7d+B4m9jW9XQAyDpmpvAZB0zU3gMvaHr7gGXtD19wDt34Hib2Nb1dADIOmam8BkHTNTeAy9oevuAZe0PX3AO3fgeJvY1vV0AMg6ZqbwGQdM1N4DL2h6+4Bl7Q9fcA7d+B4m9jW9XQAyDpmpvAZB0zU3gMvaHr7gGXtD19wDt34Hib2Nb1dADIOmam8BkHTNTeAy9oevuAZe0PX3AO3fgeJvY1vV0AMg6ZqbwGQdM1N4DL2h6+4Bl7Q9fcA7d+B4m9jW9XQAyDpmpvAZB0zU3gMvaHr7gGXtD19wDt34Hib2Nb1dADIOmam8BkHTNTeAy9oevuAZe0PX3AO3fgeJvY1vV0AMg6ZqbwGQdM1N4DL2h6+4Bl7Q9fcA7d+B4m9jW9XQAyDpmpvAZB0zU3gMvaHr7gGXtD19wDt34Hib2Nb1dAEOnMk4uhNIHnou3FlcW1Zic9jprvgfMhHf32I/1W/4qB+IHLLgt4j0Lhn0Nf4mPiw0y5LbLf8Ac3oHe/278DxN7Gt6ugBkHTNTeAyDpmpvAZe0PX3AMvaHr7gHbvwPE3sa3q6AGQdM1N4DIOmam8Bl7Q9fcAy9oevuAdu/A8TexreroAZB0zU3gMg6ZqbwGXtD19wDL2h6+4B278DxN7Gt6ugDjjhqYEVGcKagLbtw+cQNNZO6bbkk0V3Yqrz+h3q22q6aX9FeVO7aHQzTmg9KatqWTOhFNZO/lc5lEQ1DRcM+ZsaYbZXudKLzoqciotoEIAB2TcG5h9LR19LMHmu6fqzJHjaOKOTqKbt9BNtKiJCvmlX60q2YrSr6VeRfSrayHbUkiZaRGmY21FS1FRnn/aB/uQdM1N4DL2h6+4Bl7Q9fcA7d+B4m9jW9XQAyDpmpvAZB0zU3gMvaHr7gGXtD19wDL2h6+4CQAAryHOLu0CbWr/hfTDxBMPm7YHzBxH195+Ov8QP4A5f8FX7LqVeJ4/8AlZA70pDnF3aBXAAZEABXkOcXdoFcABkQAFeQ5xd2gVwAGRAAV5DnF3aBXAAZEABXkOcXdoFcABkQAFeQ5xd2gVwAGRAAV5DnF3aBXAAZEABXkOcXdoFcABkQAFeQ5xd2gVwAGRAAV5DnF3aBXAAZEABXkOcXdoFcABkQAFeQ5xd2gVwAGRAAV5DnF3aBXAAZEABXkOcXdoFcABkQAFeQ5xd2gfhT71i0j8UxfyLQHy9x399iP9Vv+KgfiBys4MH2ZFEPyaZfM3oHfLIc4u7QK4ADIgAK8hzi7tArgAMiAAryHOLu0CuAAyIACvIc4u7QK4HDvhA8BKTYUVE26Y0MhoeBrIkkOvoN/wAjDEzcspb6GfL0/aNrzLyLyLyB0VT6Qzmi86jaO0ilkRL5nLn7cNFQsQwrDxy8ZWxWWkUDwACKrKo0yqoqcqKncA7aeDL4QdJ45luDtXbO/wDiLplmGo3OYp5/eGESxmFetL9micjCrzpydAHZ+BkQAFeQ5xd2gVwAGRAAAAACvIc4u7QJtav+F9MPEEw+btgfMHEfX3n46/xA/gDl/wAFX7LqVeJ4/wDlZA70pDnF3aBXAAZEABXkOcXdoFcABkQAFeQ5xd2gVwAGRAAV5DnF3aBXAAZEABXkOcXdoFcABkQAFeQ5xd2gVwAGRAAV5DnF3aBXAAZEABXkOcXdoFcABkQAFeQ5xd2gVwAGRAAV5DnF3aBXAAZEABXkOcXdoFcABkQAFeQ5xd2gVwAGRAAV5DnF3aBXAAZEABXkOcXdoFcABkQAFeQ5xd2gfhT71i0j8UxfyLQHy9x399iP9Vv+KgfiBys4MH2ZFEPyaZfM3oHfLIc4u7QK4ADIgAK8hzi7tArgAMiAAryHOLu0CuAAyIACvIc4u7QK4ADr14QfASha+JLEVqVZy905p9K3GM+hnbKMpOHLKeoXwqJ6lV5+boA6Z42Ci5dGP5fHwz2GiYZ406fOXrCstu22VsaZaReVFRUssA/ED+3D99DPncTDPm3T500jbt4w0rLTDSLaioqcqKi90Dua4NfhBHNb8ug6jK4ps7d01gHKO5RMnzSMpOHLKeoaVf8APZRL6Jbz22hzdAAV5DnF3aBXAAZEAAA1wACRPs3vbAMFWf8A4a0t8Rx/zdsD5roj6+8/HX+IH8AcyOCZ9mRJPFEw/kZA7yZ9m97YBIAAa4ABIn2b3tgEgABrgAEifZve2ASAAGuAASJ9m97YBIAAa4ABIn2b3tgEgABrgAEifZve2ASAAGuAASJ9m97YBIAAa4ABIn2b3tgEgABrgAEifZve2ASAAGuAASJ9m97YBIAAa4ABIn2b3tgEgABrgAEifZve2ASAAGuAASJ9m97YBIAAa4ABIn2b3tgEgABrgAEifZve2AY+mvrOnvi2K+SaA+aSO/vsR/qt/wAVA/EDlvwVns16F/k0z+ZPgO9qfZve2ASAAGuAASJ9m97YBIAAa4ABIn2b3tgEgABrgAEifZve2ASAAGuA62uEw4Ph3T6EmGEFUtJmWaSQrtX9IJRDO+2TtlLViHbKf5zKJ6ZE9UiW86codPrbDbttp28YVlthVZaZaSxUVOdFA/wDyZXNJjJJlCziURz+DjoJ6y/h4hw2rDx08ZW1lplpOVFRU5wO8Xg7sPaW4SNG3VW9Ysc4hKx5NDoiq0qMMzlwylnHu0+6Inq2U/GTktRA5tASJ9m97YBIAAa4AAAAAJE+ze9sAwVZ/wDhrS3xHH/N2wPmuiPr7z8df4gfwBzI4Jn2ZEk8UTD+RkDvJn2b3tgEgABrgAEifZve2ASAAGuAASJ9m97YBIAAa4ABIn2b3tgEgABrgAEifZve2ASAAGuAASJ9m97YBIAAa4ABIn2b3tgEgABrgAEifZve2ASAAGuAASJ9m97YBIAAa4ABIn2b3tgEgABrgAEifZve2ASAAGuAASJ9m97YBIAAa4ABIn2b3tgEgABrgAEifZve2ASAAGuAASJ9m97YBj6a+s6e+LYr5JoD5pI7++xH+q3/ABUD8QOW/BWezXoX+TTP5k+A72p9m97YBIAAa4ABIn2b3tgEgABrgAEifZve2ASAAGuAASJ9m97YBIAAa4AB1QcJrwfLEE9jsIao+S2O32PE0kkUK79SvO3FuGE7nLa2wnfaTuoB1bAAK1E6WUioNSSXUuonNoiWTeVRDETCRThtWW3bxlbUVF/indQDvlwDsN2jmFXQpmUzp84gKfyRwyk1gMZGfRLKcnolyndZXuonqV+ADktPs3vbAJAADXAAAEjL2h6+4Bl7Q9fcA7d+B4m9jW9XQBl60pHiVZUub9F24shj1sxNHb74HzMxH195+Ov8QP4A5h8FE+9D4YEnfYuNiyiPWy2y30rIHed278DxN7Gt6ugBkHTNTeAyDpmpvAZe0PX3AMvaHr7gHbvwPE3sa3q6AGQdM1N4DIOmam8Bl7Q9fcAy9oevuAdu/A8TexreroAZB0zU3gMg6ZqbwGXtD19wDL2h6+4B278DxN7Gt6ugBkHTNTeAyDpmpvAZe0PX3AMvaHr7gHbvwPE3sa3q6AGQdM1N4DIOmam8Bl7Q9fcAy9oevuAdu/A8TexreroAZB0zU3gMg6ZqbwGXtD19wDL2h6+4B278DxN7Gt6ugBkHTNTeAyDpmpvAZe0PX3AMvaHr7gHbvwPE3sa3q6AGQdM1N4DIOmam8Bl7Q9fcAy9oevuAdu/A8TexreroAZB0zU3gMg6ZqbwGXtD19wDL2h6+4B278DxN7Gt6ugBkHTNTeAyDpmpvAZe0PX3AMvaHr7gHbvwPE3sa3q6AGQdM1N4DIOmam8Bl7Q9fcAy9oevuAdu/A8TexreroAZB0zU3gMg6ZqbwGXtD19wDL2h6+4B278DxN7Gt6ugBkHTNTeAyDpmpvAZe0PX3AMvaHr7gHbvwPE3sa3q6AGQdM1N4DIOmam8Bl7Q9fcAy9oevuAdu/A8TexreroAh05knF0JpA89F24sri2rMTnsdNd8D5kI7++xH+q3/ABUD8QOV/BdxrqX4ZtDot80yjLENMrcZrFTlg3qc4Hes8nEom1nGzSEh+K+2fsrjW/CnQB/H/A/dLBfGsf8AsA/4H7pYL41j/wBgP1+rGWfdIb9YZAfVjLPukN+sMgfy8nEom1nGzSEh+K+2fsrjW/CnQB/H/A/dLBfGsf8AsA/4H7pYL41j/wBgP1+rGWfdIb9YZAfVjLPukN+sMgfy8nEom1nGzSEh+K+2fsrjW/CnQB/H/A/dLBfGsf8AsA/4H7pYL41j/wBgP1+rGWfdIb9YZAfVjLPukN+sMgfy8nEom1nGzSEh+K+2fsrjW/CnQB/H/A/dLBfGsf8AsA/4H7pYL41j/wBgP1+rGWfdIb9YZAfVjLPukN+sMgfnETSSTt206ipjBOmGUVlplt8w0jxGudFRVToA6heEjwEpfVpHRdelTKwsVReNeq8ncshW2Valj5peV8wyi/WWlXls9Sq9CgdewADTVa1kUyqjptK6waBTp9K51KHyPod+7XkXpYaTmaYaTkVleRUUDvtwPsLWh+GDV86msI9cSulcndsu57KMa1p29VPrrtFW1py1Zai9zmXlTlD39kHTNTeAyDpmpvAZe0PX3AMvaHr7gGXtD19wEgABXkOcXdoE2tX/AAvph4gmHzdsD5g4j6+8/HX+IH8Acv8Agq/ZdSrxPH/ysgd6Uhzi7tArgAMiAAryHOLu0CuAAyIACvIc4u7QK4ADIgAK8hzi7tArgAMiAAryHOLu0CuAAyIACvIc4u7QK4ADIgAK8hzi7tArgAMiAAryHOLu0CuAAyIACvIc4u7QK4ADIgAK8hzi7tArgAMiAAryHOLu0CuAAyIACvIc4u7QK4ADIgAK8hzi7tArgAMiAAryHOLu0CuAAyIACvIc4u7QPwp96xaR+KYv5FoD5e47++xH+q3/ABUD8QP9ZaaYXGZaVF6UUD+vRD/7s8/SUB6If/dnn6SgPRD/AO7PP0lAeiH/AN2efpKA9EP/ALs8/SUB6If/AHZ5+koD0Q/+7PP0lAeiH/3Z5+koD0Q/+7PP0lAeiH/3Z5+koD0Q/wDuzz9JQHoh/wDdnn6SgPRD/wC7PP0lAeiH/wB2efpKA9EP/uzz9JQHoh/92efpKA9EP/uzz9JQHoh/92efpKA9EP8A7s8/SUB6If8A3Z5+koD0Q/8Auzz9JQCvnzSYrT1tUXuK0oH8AAAG8qSrqp5UBWJLKyavJq3CTKXt/wBo7VV4qKcqvp3L1n7JhpORU7nIqcqIoH0E4LGE5QbCoqyhae0ReJDxrnFh5xK22rXsBFWWqwvSyvOy13U+ED3GBkQAAAAAryHOLu0CbWr/AIX0w8QTD5u2B8wcR9fefjr/ABA/gDl/wVfsupV4nj/5WQO9KQ5xd2gVwAGRAAV5DnF3aBXAAZEABXkOcXdoFcABkQAFeQ5xd2gVwAGRAAV5DnF3aBXAAZEABXkOcXdoFcABkQAFeQ5xd2gVwAGRAAV5DnF3aBXAAZEABXkOcXdoFcABkQAFeQ5xd2gVwAGRAAV5DnF3aBXAAZEABXkOcXdoFcABkQAFeQ5xd2gVwAGRAAV5DnF3aBXAAZEABXkOcXdoH4U+9YtI/FMX8i0B8vcd/fYj/Vb/AIqB+IAAAAAAAAAAAAAAAAAAAAAAAAAAAAAAAA7auBA9adaHjGA+SbA7PgMiAAAa4ABIn2b3tgGCrP8A8NaW+I4/5u2B810R9fefjr/ED+AOZHBM+zIkniiYfyMgd5M+ze9sAkAANcAAkT7N72wCQAA1wACRPs3vbAJAADXAAJE+ze9sAkAANcAAkT7N72wCQAA1wACRPs3vbAJAADXAAJE+ze9sAkAANcAAkT7N72wCQAA1wACRPs3vbAJAADXAAJE+ze9sAkAANcAAkT7N72wCQAA1wACRPs3vbAJAADXAAJE+ze9sAkAANcAAkT7N72wCQAA1wACRPs3vbAMtSaCiZlRuay6DYRt/FQT9y6ZVpExm2naoiWryJyr3QOkGK4MzDOeRT54xVS4Vlp400i5dgOZV/wBYD+HnBh4bLprFaqcbX8WbwTSfsegGODEw2XjSMJU22ir3WpvBInWr0D/XnBhYazmzjapHbGNzY08gEt/7wH8djIw0PeoceXZf/WAdjIw0PeoceXZf/WA/fsXeG57z7PluA/rAOxd4bnvPs+W4D+sB+bzgwsNZzZxtUjtjG5saeQCW/wDeA/jsZGGh71Djy7L/AOsA7GRhoe9Q48uy/wDrAfv2LvDc959ny3Af1gHYu8Nz3n2fLcB/WA/N5wYWGs5s42qR2xjc2NPIBLf+8B/HYyMND3qHHl2X/wBYB2MjDQ96hx5dl/8AWA/fsXeG57z7PluA/rAOxd4bnvPs+W4D+sB+bzgwsNZzZxtUjtjG5saeQCW/94D+OxkYaHvUOPLsv/rAOxkYaHvUOPLsv/rAfv2LvDc959ny3Af1gHYu8Nz3n2fLcB/WA/N5wYWGs5s42qR2xjc2NPIBLf8AvAfx2MjDQ96hx5dl/wDWAdjIw0PeoceXZf8A1gMrWxgLYT1SFCYusSsurpJTIYF46dP4pJpCPsVp40jLCYjt400tqqiciAehAAHavwLvrNrL8ZwPyTYHZGBrgAAAAAkT7N72wDBVn/4a0t8Rx/zdsD5roj6+8/HX+IH8AcyOCZ9mRJPFEw/kZA7yZ9m97YBIAAa4ABIn2b3tgEgABrgAEifZve2ASAAGuAASJ9m97YBIAAa4ABIn2b3tgEgABrgAEifZve2ASAAGuAASJ9m97YBIAAa4ABIn2b3tgEgABrgAEifZve2ASAAGuAASJ9m97YBIAAa4ABIn2b3tgEgABrgAEifZve2ASAAGuAASJ9m97YBIAAa4ABIn2b3tgEgABrgAEifZve2ASAAGuAASJ9m97YBIAAa4ABIn2b3tgEgABrgAEifZve2ASAAGuAASJ9m97YBIAAa4ABIn2b3tgEgABxu4Vz2FtKvy+W/OWAOhYAB2r8C76zay/GcD8k2B2Rga4AAAkZe0PX3AMvaHr7gHbvwPE3sa3q6AMvWlI8SrKlzfou3FkMetmJo7ffA+ZmI+vvPx1/iB/AHMPgon3ofDAk77FxsWUR62W2W+lZA7zu3fgeJvY1vV0AMg6ZqbwGQdM1N4DL2h6+4Bl7Q9fcA7d+B4m9jW9XQAyDpmpvAZB0zU3gMvaHr7gGXtD19wDt34Hib2Nb1dADIOmam8BkHTNTeAy9oevuAZe0PX3AO3fgeJvY1vV0AMg6ZqbwGQdM1N4DL2h6+4Bl7Q9fcA7d+B4m9jW9XQAyDpmpvAZB0zU3gMvaHr7gGXtD19wDt34Hib2Nb1dADIOmam8BkHTNTeAy9oevuAZe0PX3AO3fgeJvY1vV0AMg6ZqbwGQdM1N4DL2h6+4Bl7Q9fcA7d+B4m9jW9XQAyDpmpvAZB0zU3gMvaHr7gGXtD19wDt34Hib2Nb1dADIOmam8BkHTNTeAy9oevuAZe0PX3AO3fgeJvY1vV0AMg6ZqbwGQdM1N4DL2h6+4Bl7Q9fcA7d+B4m9jW9XQAyDpmpvAZB0zU3gMvaHr7gGXtD19wDt34Hib2Nb1dADIOmam8BkHTNTeAy9oevuAZe0PX3AO3fgeJvY1vV0AMg6ZqbwGQdM1N4DL2h6+4Bl7Q9fcA7d+B4m9jW9XQAyDpmpvAZB0zU3gMvaHr7gGXtD19wDt34Hib2Nb1dADIOmam8BkHTNTeAy9oevuAZe0PX3AO3fgeJvY1vV0AMg6ZqbwGQdM1N4DL2h6+4Bl7Q9fcA7d+B4m9jW9XQAyDpmpvAZB0zU3gMvaHr7gGXtD19wDt34Hib2Nb1dADIOmam8BkHTNTeAy9oevuAZe0PX3AO3fgeJvY1vV0AMg6ZqbwGQdM1N4DL2h6+4Bl7Q9fcA7d+B4m9jW9XQAyDpmpvAZB0zU3gcR+FPmvovA0pS59DYlsdLVtxrc5Y7wHRMAA7YOBPgvRtEKzWONxMWZQC22W/5TYHZjkHTNTeAy9oevuAZe0PX3AMvaHr7gJAACvIc4u7QJtav+F9MPEEw+btgfMHEfX3n46/xA/gDl/wVfsupV4nj/5WQO9KQ5xd2gVwAGRAAV5DnF3aBXAAZEABXkOcXdoFcABkQAFeQ5xd2gVwAGRAAV5DnF3aBXAAZEABXkOcXdoFcABkQAFeQ5xd2gVwAGRAAV5DnF3aBXAAZEABXkOcXdoFcABkQAFeQ5xd2gVwAGRAAV5DnF3aBXAAZEABXkOcXdoFcABkQAFeQ5xd2gVwAGRAAV5DnF3aBXAAZEABXkOcXdoFcABkQAFeQ5xd2gVwAGRAAV5DnF3aBXAAZEABXkOcXdoFcABkQAFeQ5xd2gVwAGRAAV5DnF3aBXAAcIOFD9h3Sj8ul3zlgDo2AAdtXAgetOtDxjAfJNgdnwGRAAAAACvIc4u7QJtav+F9MPEEw+btgfMHEfX3n46/xA/gDl/wVfsupV4nj/5WQO9KQ5xd2gVwAGRAAV5DnF3aBXAAZEABXkOcXdoFcABkQAFeQ5xd2gVwAGRAAV5DnF3aBXAAZEABXkOcXdoFcABkQAFeQ5xd2gVwAGRAAV5DnF3aBXAAZEABXkOcXdoFcABkQAFeQ5xd2gVwAGRAAV5DnF3aBXAAZEABXkOcXdoFcABkQAFeQ5xd2gVwAGRAAV5DnF3aBXAAZEABXkOcXdoFcABkQAFeQ5xd2gVwAGRAAV5DnF3aBXAAZEABXkOcXdoFcABkQAFeQ5xd2gVwAGRAAV5DnF3aBXAAcIOFD9h3Sj8ul3zlgDo2AAdtXAgetOtDxjAfJNgdnwGRAAANcAAkT7N72wDBVn/4a0t8Rx/zdsD5roj6+8/HX+IH8AcyOCZ9mRJPFEw/kZA7yZ9m97YBIAAa4ABIn2b3tgEgABrgAEifZve2ASAAGuAASJ9m97YBIAAa4ABIn2b3tgEgABrgAEifZve2ASAAGuAASJ9m97YBIAAa4ABIn2b3tgEgABrgAEifZve2ASAAGuAASJ9m97YBIAAa4ABIn2b3tgEgABrgAEifZve2ASAAGuAASJ9m97YBIAAa4ABIn2b3tgEgABrgAEifZve2ASAAGuAASJ9m97YBIAAa4ABIn2b3tgEgABrgAEifZve2ASAAGuAASJ9m97YBIAAa4ABIn2b3tgEgABxu4Vz2FtKvy+W/OWAOhYAB2r8C76zay/GcD8k2B2Rga4AAAAAJE+ze9sAwVZ/+GtLfEcf83bA+a6I+vvPx1/iB/AHMjgmfZkSTxRMP5GQO8mfZve2ASAAGuAASJ9m97YBIAAa4ABIn2b3tgEgABrgAEifZve2ASAAGuAASJ9m97YBIAAa4ABIn2b3tgEgABrgAEifZve2ASAAGuAASJ9m97YBIAAa4ABIn2b3tgEgABrgAEifZve2ASAAGuAASJ9m97YBIAAa4ABIn2b3tgEgABrgAEifZve2ASAAGuAASJ9m97YBIAAa4ABIn2b3tgEgABrgAEifZve2ASAAGuAASJ9m97YBIAAa4ABIn2b3tgEgABrgAEifZve2ASAAGuAASJ9m97YBIAAcbuFc9hbSr8vlvzlgDoWAAdq/Au+s2svxnA/JNgdkYGuAAAJGXtD19wDL2h6+4B278DxN7Gt6ugDL1pSPEqypc36LtxZDHrZiaO33wPmZiPr7z8df4gfwBzD4KJ96HwwJO+xcbFlEetltlvpWQO87t34Hib2Nb1dADIOmam8BkHTNTeAy9oevuAZe0PX3AO3fgeJvY1vV0AMg6ZqbwGQdM1N4DL2h6+4Bl7Q9fcA7d+B4m9jW9XQAyDpmpvAZB0zU3gMvaHr7gGXtD19wDt34Hib2Nb1dADIOmam8BkHTNTeAy9oevuAZe0PX3AO3fgeJvY1vV0AMg6ZqbwGQdM1N4DL2h6+4Bl7Q9fcA7d+B4m9jW9XQAyDpmpvAZB0zU3gMvaHr7gGXtD19wDt34Hib2Nb1dADIOmam8BkHTNTeAy9oevuAZe0PX3AO3fgeJvY1vV0AMg6ZqbwGQdM1N4DL2h6+4Bl7Q9fcA7d+B4m9jW9XQAyDpmpvAZB0zU3gMvaHr7gGXtD19wDt34Hib2Nb1dADIOmam8BkHTNTeAy9oevuAZe0PX3AO3fgeJvY1vV0AMg6ZqbwGQdM1N4DL2h6+4Bl7Q9fcA7d+B4m9jW9XQAyDpmpvAZB0zU3gMvaHr7gGXtD19wDt34Hib2Nb1dADIOmam8BkHTNTeAy9oevuAZe0PX3AO3fgeJvY1vV0AMg6ZqbwGQdM1N4DL2h6+4Bl7Q9fcA7d+B4m9jW9XQAyDpmpvAZB0zU3gMvaHr7gGXtD19wDt34Hib2Nb1dADIOmam8BkHTNTeAy9oevuAZe0PX3AO3fgeJvY1vV0AMg6ZqbwGQdM1N4DL2h6+4Bl7Q9fcA7d+B4m9jW9XQAyDpmpvAZB0zU3gMvaHr7gGXtD19wDt34Hib2Nb1dADIOmam8BkHTNTeAy9oevuAZe0PX3AO3fgeJvY1vV0AMg6ZqbwGQdM1N4HEfhT5r6LwNKUufQ2JbHS1bca3OWO8B0TAAO2DgT4L0bRCs1jjcTFmUAttlv+U2B2Y5B0zU3gMvaHr7gGXtD19wDL2h6+4CQAAryHOLu0CbWr/hfTDxBMPm7YHzBxH195+Ov8QP4A5f8FX7LqVeJ4/+VkDvSkOcXdoFcABkQAFeQ5xd2gVwAGRAAV5DnF3aBXAAZEABXkOcXdoFcABkQAFeQ5xd2gVwAGRAAV5DnF3aBXAAZEABXkOcXdoFcABkQAFeQ5xd2gVwAGRAAV5DnF3aBXAAZEABXkOcXdoFcABkQAFeQ5xd2gVwAGRAAV5DnF3aBXAAZEABXkOcXdoFcABkQAFeQ5xd2gVwAGRAAV5DnF3aBXAAZEABXkOcXdoFcABkQAFeQ5xd2gVwAGRAAV5DnF3aBXAAZEABXkOcXdoFcABkQAFeQ5xd2gVwAHCDhQ/Yd0o/Lpd85YA6NgAHbVwIHrTrQ8YwHyTYHZ8BkQAAAAAryHOLu0CbWr/hfTDxBMPm7YHzBxH195+Ov8QP4A5f8FX7LqVeJ4/+VkDvSkOcXdoFcABkQAFeQ5xd2gVwAGRAAV5DnF3aBXAAZEABXkOcXdoFcABkQAFeQ5xd2gVwAGRAAV5DnF3aBXAAZEABXkOcXdoFcABkQAFeQ5xd2gVwAGRAAV5DnF3aBXAAZEABXkOcXdoFcABkQAFeQ5xd2gVwAGRAAV5DnF3aBXAAZEABXkOcXdoFcABkQAFeQ5xd2gVwAGRAAV5DnF3aBXAAZEABXkOcXdoFcABkQAFeQ5xd2gVwAGRAAV5DnF3aBXAAZEABXkOcXdoFcABkQAFeQ5xd2gVwAHCDhQ/Yd0o/Lpd85YA6NgAHbVwIHrTrQ8YwHyTYHZ8BkQAADXAAJE+ze9sAwVZ/+GtLfEcf83bA+a6I+vvPx1/iB/AHMjgmfZkSTxRMP5GQO8mfZve2ASAAGuAASJ9m97YBIAAa4ABIn2b3tgEgABrgAEifZve2ASAAGuAASJ9m97YBIAAa4ABIn2b3tgEgABrgAEifZve2ASAAGuAASJ9m97YBIAAa4ABIn2b3tgEgABrgAEifZve2ASAAGuAASJ9m97YBIAAa4ABIn2b3tgEgABrgAEifZve2ASAAGuAASJ9m97YBIAAa4ABIn2b3tgEgABrgAEifZve2ASAAGuAASJ9m97YBIAAa4ABIn2b3tgEgABrgAEifZve2ASAAGuAASJ9m97YBIAAcbuFc9hbSr8vlvzlgDoWAAdq/Au+s2svxnA/JNgdkYGuAAAAACRPs3vbAMFWf/hrS3xHH/N2wPmuiPr7z8df4gfwBzI4Jn2ZEk8UTD+RkDvJn2b3tgEgABrgAEifZve2ASAAGuAASJ9m97YBIAAa4ABIn2b3tgEgABrgAEifZve2ASAAGuAASJ9m97YBIAAa4ABIn2b3tgEgABrgAEifZve2ASAAGuAASJ9m97YBIAAa4ABIn2b3tgEgABrgAEifZve2ASAAGuAASJ9m97YBIAAa4ABIn2b3tgEgABrgAEifZve2ASAAGuAASJ9m97YBIAAa4ABIn2b3tgEgABrgAEifZve2ASAAGuAASJ9m97YBIAAa4ABIn2b3tgEgABrgAEifZve2ASAAHG7hXPYW0q/L5b85YA6FgAHavwLvrNrL8ZwPyTYHZGBrgAACRl7Q9fcAy9oevuAdu/A8TexreroAy9aUjxKsqXN+i7cWQx62Ymjt98D5mYj6+8/HX+IH8Acw+Cifeh8MCTvsXGxZRHrZbZb6VkDvO7d+B4m9jW9XQAyDpmpvAZB0zU3gMvaHr7gGXtD19wDt34Hib2Nb1dADIOmam8BkHTNTeAy9oevuAZe0PX3AO3fgeJvY1vV0AMg6ZqbwGQdM1N4DL2h6+4Bl7Q9fcA7d+B4m9jW9XQAyDpmpvAZB0zU3gMvaHr7gGXtD19wDt34Hib2Nb1dADIOmam8BkHTNTeAy9oevuAZe0PX3AO3fgeJvY1vV0AMg6ZqbwGQdM1N4DL2h6+4Bl7Q9fcA7d+B4m9jW9XQAyDpmpvAZB0zU3gMvaHr7gGXtD19wDt34Hib2Nb1dADIOmam8BkHTNTeAy9oevuAZe0PX3AO3fgeJvY1vV0AMg6ZqbwGQdM1N4DL2h6+4Bl7Q9fcA7d+B4m9jW9XQAyDpmpvAZB0zU3gMvaHr7gGXtD19wDt34Hib2Nb1dADIOmam8BkHTNTeAy9oevuAZe0PX3AO3fgeJvY1vV0AMg6ZqbwGQdM1N4DL2h6+4Bl7Q9fcA7d+B4m9jW9XQAyDpmpvAZB0zU3gMvaHr7gGXtD19wDt34Hib2Nb1dADIOmam8BkHTNTeAy9oevuAZe0PX3AO3fgeJvY1vV0AMg6ZqbwGQdM1N4DL2h6+4Bl7Q9fcA7d+B4m9jW9XQAyDpmpvAZB0zU3gMvaHr7gGXtD19wDt34Hib2Nb1dADIOmam8BkHTNTeAy9oevuAZe0PX3AO3fgeJvY1vV0AMg6ZqbwGQdM1N4DL2h6+4Bl7Q9fcA7d+B4m9jW9XQAyDpmpvAZB0zU3gMvaHr7gGXtD19wDt34Hib2Nb1dADIOmam8BkHTNTeBxH4U+a+i8DSlLn0NiWx0tW3GtzljvAdEwADtg4E+C9G0QrNY43ExZlALbZb/lNgdmOQdM1N4DL2h6+4Bl7Q9fcAy9oevuA4WzXhS8E+TzOLlMZPJ8kRBP3kO9RmTvlRG2GlZWxbOXlQDxeyuYI3t9SDyK+8wHmy3hasEKC43jJ3SJrHssxZK+7lve74HhU64WLBJpBQikMhl83pEsVMpVFwjhGpO9RFePHLTLNq9xLVTlA6THrSNvG205mmlUD+QOQeArXTQioLCAgKxKwoiKcSdxL4qGbbhnDT5tG3jKIz6Vnls5AOz+W8LVghQXG8ZO6RNY9lmLJX3ct73fA87svOB77cUl8ivQHZecD324pL5FegROyuYI3t9SDyK+8wDsrmCN7fUg8ivvMB5st4WrBCguN4yd0iax7LMWSvu5b3u+B53ZecD324pL5FegOy84HvtxSXyK9AidlcwRvb6kHkV95gHZXMEb2+pB5FfeYDzZbwtWCFBcbxk7pE1j2WYslfdy3vd8Dzuy84HvtxSXyK9Adl5wPfbikvkV6BE7K5gje31IPIr7zAOyuYI3t9SDyK+8wHmy3hasEKC43jJ3SJrHssxZK+7lve74Hndl5wPfbikvkV6A7Lzge+3FJfIr0CJ2VzBG9vqQeRX3mAdlcwRvb6kHkV95gPNlvC1YIUFxvGTukTWPZZiyV93Le93wPO7Lzge+3FJfIr0B2XnA99uKS+RXoETsrmCN7fUg8ivvMA7K5gje31IPIr7zAebLeFqwQoLjeMndImseyzFkr7uW97vged2XnA99uKS+RXoDsvOB77cUl8ivQInZXMEb2+pB5FfeYB2VzBG9vqQeRX3mA82W8LVghQXG8ZO6RNY9lmLJX3ct73fA87svOB77cUl8ivQHZecD324pL5FegROyuYI3t9SDyK+8wDsrmCN7fUg8ivvMB5st4WrBCguN4yd0iax7LMWSvu5b3u+B53ZecD324pL5FegOy84HvtxSXyK9AidlcwRvb6kHkV95gHZXMEb2+pB5FfeYDzZbwtWCFBcbxk7pE1j2WYslfdy3vd8Dzuy84HvtxSXyK9Adl5wPfbikvkV6BE7K5gje31IPIr7zAOyuYI3t9SDyK+8wHmy3hasEKC43jJ3SJrHssxZK+7lve74Hndl5wPfbikvkV6A7Lzge+3FJfIr0CJ2VzBG9vqQeRX3mAdlcwRvb6kHkV95gPNlvC1YIUFxvGTukTWPZZiyV93Le93wPO7Lzge+3FJfIr0B2XnA99uKS+RXoETsrmCN7fUg8ivvMA7K5gje31IPIr7zAebLeFqwQoLjeMndImseyzFkr7uW97vged2XnA99uKS+RXoDsvOB77cUl8ivQInZXMEb2+pB5FfeYB2VzBG9vqQeRX3mA82W8LVghQXG8ZO6RNY9lmLJX3ct73fA87svOB77cUl8ivQHZecD324pL5FegROyuYI3t9SDyK+8wDsrmCN7fUg8ivvMB5st4WrBCguN4yd0iax7LMWSvu5b3u+B53ZecD324pL5FegOy84HvtxSXyK9AidlcwRvb6kHkV95gHZXMEb2+pB5FfeYDzZbwtWCFBcbxk7pE1j2WYslfdy3vd8Dzuy84HvtxSXyK9Adl5wPfbikvkV6BE7K5gje31IPIr7zAOyuYI3t9SDyK+8wHmy3hasEKC43jJ3SJrHssxZK+7lve74Hndl5wPfbikvkV6A7Lzge+3FJfIr0CJ2VzBG9vqQeRX3mAdlcwRvb6kHkV95gPNlvC1YIUFxvGTukTWPZZiyV93Le93wPO7Lzge+3FJfIr0B2XnA99uKS+RXoETsrmCN7fUg8ivvMA7K5gje31IPIr7zAebLeFqwQoLjeMndImseyzFkr7uW97vged2XnA99uKS+RXoDsvOB77cUl8ivQInZXMEb2+pB5FfeYB2VzBG9vqQeRX3mA82W8LVghQXG8ZO6RNY9lmLJX3ct73fA87svOB77cUl8ivQHZecD324pL5FegROyuYI3t9SDyK+8wDsrmCN7fUg8ivvMB5st4WrBCguN4yd0iax7LMWSvu5b3u+B53ZecD324pL5FegOy84HvtxSXyK9A41Yb+H3g9V7YO88q4oBNZu/nUfFQb1yxES145YVl2+ZaataaSxORFA6xAAHPfgzcMmpjBakNN5fWrGzRw9nsXCvoT0HAtxCKy7YaRq3F5uVUA5s9l5wPfbikvkV6BE7K5gje31IPIr7zAOyuYI3t9SDyK+8wGxofwg+DlTiWPJtIpxOGod0/ah2leSt6wuOjLLS8ip0NIB0c1hev2knjaL+WaAz4AAAAAAAAAAAAAAAAAAAAAAAAAAAAAAAAAAAAAAAAAAAAAAAAAAAAAAAAAAAAAAAAAAAAAAAAAAAAAAAAAAAAAAAAAAAAAAAAAAAAAAAAAAAAAAAAAAAAAAAAAAAAAAAAByawZ/WFG+NnvyLkD0LWF6/aSeNov5ZoDPgAAAAAAAAAAAAAAAAAAAAAAAAAAAAAAAAAAAAAAAAAAAAAAAAAAAAAAAAAAAAAAAAAAAAAAAAAAAAAAAAAAAAAAAAAAAAAAAAAAAAAAAAAAAAAAAAAAAAAAAAAAAAAAAAHJrBn9YUb42e/IuQPQtYXr9pJ42i/lmgM+AAAAAAAAAAAAAAAAAAAAAAAAAAADQyOrqn9JmmGaPUJnsy4zkYWFl714yvwss2AeyJLgW4VlIXbL6UVDUufu2uZr0CrKa1gGhd8HthgtYvG1Jzpxj83HYjO0D9nnB3YXjv8A/SOOa5LfSvna7QJ0ZgEYXUGlv/wfP39vccsMtr+xQIU5wOsKOj7KtTioql0OjPOqy9pr+W0DBzirGsij7TTM8oDSGBxPVK/lj5hE+FWbAM00y0w0rDbKstMrYqKliooH+AAAAAAAAAAAAAAAAAAAAAAAAHmyyRzqdPOKk0njo9u2zFhYdt6tv4GUUDcyHBxr7pPZkKqClkVjc1kres/zIgGyg8BHC/j2UeQ+D9S1WF5mmoRGU/aoHmPeD/wwXDCNvqjKQMW8yKwzav7QJ0VgOYW0Iy029qGpUrDPO0xCo0idSgYuf4P1eFF2lZn1VFKYRU5FxpY9a/lRQMTHy2Yyt96GmcviYR6n+W/dNO2uppEUDxgAAAAAAAAAAAAAAAAAAAAAAAAAAAAAAAAAAAAAAAAAAAAAAAAAAAAAAAAAADk1gz+sKN8bPfkXIHoWsL1+0k8bRfyzQGfAAAAAAAAAAAAAAAAAAAAAAAES3kQDkRUTgDYTFf6uI6jFBHspkj6xcrztVhIdWV5UaYRpOMeIqW2KyyqL0gc+KpuBZq2k7pxG1w1jTKkMUiWvYOWO/QkLy9zGtV4tnSipb0Acr6v8CLBrqyRy3RSq2j7uIcoiJFRMEkQ+as7rTTxVtUD2tLn0ok7r0PKKPwkC6RLMSGdsumepllAPMy9oevuAdu/A8TexreroAZB0zU3gMg6ZqbwGXtD19wHjxkdATF1xEwkriKd/aPmUbZ6lZA9f0twb6hK1WFYpZVDRWLR3zq3LXdrVvMtrKMrbyAccazOB/wAGqmLt9EUPjJzQ+OeWtMtQb7jnGN3E4p4qojPeZsA4LYQHBUYRFTUDGUkot6Cp5IINhp69fSxFdxbp2yiqrTcO2tqoiJ9g00veA4XNMtMNKw2yrLTK2KipYqKB/gAAAAAAAAAAAAAAAAjKtKjLKKqrzIgHIKpzAPwm66/Q8ZR+ryJlMpfqlk0ndsE4xV5UaRGk4xtFTmVlhU74HN6qLgXaLqwzGVt1qxse9YxWmoOTwyOHXLzsq8bVWmubnTFA5W0F4OfBOoA7d5MqulkwfulRpiJmrLUY9ZXpRptoD3VJ6rKG0fZYYkUgk8uR2iMsehZc7dKiJzcrNgFrL2h6+4Bl7Q9fcA7d+B4m9jW9XQAyDpmpvAZB0zU3gZSktBqsaZQzyEpVVnR+aO33I2kTAum1W9iW/tA46VlcGxgiVhsPHkHVy+orFtouK/kcY04ZZVe7xaorC/CgHEKtTgaKwIFiJmVSdYMDSBy65WJdOGPQsSrPLzPWUVhppbOZWWU74HBmtOo+tqpObrJK0qAzejsQrSsu2opwvEvrOdXb1LWHifitKBhwAAAAAAAAAAAAAAAAAB2UcHngTYO+EFUdEU4rTovNJjN2JxEQbL2Gm76GYR0wjOKmIxyW8q8oHKDsWeBb7gZ//wD3HFecD94bgoMDOYY3E0Onzji7LbZ/EtY1t5OgD9uxHYHXubnnlqJ/9wOuDhJ8HCrLBlrkkFCqrICLhZbMKOOpk/ZiYtt+0r9qJfu1VGm1VUTFds8gHEkAAAAAAAAAAAAAAAAAAAAAAAAAAAAAAA5NYM/rCjfGz35FyB6FrC9ftJPG0X8s0BnwAAAAAAAAAAAAAAAAAAAAAPcmDrgn1w4TM8SX1fyFWJW4eIzHTqMtdwUIir9k3Z6Zrn9IyitLYvIB22YN3B0VE1Bu4WdTSWsUzpW6xW1mk1cstOnDxPvdwtrLFi8zS4zffTmA5gUfZZYZfsMMoyymKiIiWInOBYAAZEABXkOcXdoFcABkQAFeQ5xd2gVwM9WL/h9SfxNG/INgfMFNu2kZ+UPP5lA8UAAAAAAAAAAAAABEVVsRLVUDltgu8GxXthGehaQzGCWhlD31jWV5o5VHj9jR3HI08/GWxnvgdn1QWAjg9YP7iGjJJRJ1PaQukRpqeTlhmIiEbT7J0yqYjnl5sREas5FaUDkMyyyyiMsoiInIiJ3AK8hzi7tArgAMiAAryHOLu0CuAAyIACvIc4u7QP5pZQyiVPJK/o5TSjctnkrimcV9CR8Mw/dNp32WkVAOuzCd4Hih9I3MZSrBtmv1PzRcZ6tH5g9VuCfLz4rl6trTpV7iNK0z32UA6rayaraf1Q0miKIVjUXjpJNIdVRXUS7VEbT7Zhr1LbK9xplVRQMqAAAAAAAAAAAAAAAA7neCL9jDF/nFF/ysAc3QK8hzi7tArgdL3DV+yRol+Zrj55FAdfAAAAAAAAAAAAAAAAAAAAAAAAAAAAAAAByawZ/WFG+NnvyLkD0LWF6/aSeNov5ZoDPgAAAAAAAAAAAAAAAAAAAA5xYBHBzT/CNfw9ZlZzEVJqvHD1FcMoisRE4VleVl3b6l13Fb7vc6QO3+h9DKK1f0dgqJULkMHJpPL3aO4eEhHaMO2ET+Kr3VW1V7qgWQK8hzi7tArgAMiAAryHOLu0CuAAyIACvIc4u7QK4GerF/w+pP4mjfkGwPmCmvbSM/KHn8ygeKAAAAAAAAAAAAF+glAqYVm0pgaFUEkEXOZzMXiO4eFhnatNNL0r3GWU7rS2IgHcVgacFfQWqJ1BU9r0cQdK6YIjL5zLlTHl8ua5/Ur9ebTpa9LycicoHP127duXbLp0wywwwiMssspYjKJzIidxAMmAAryHOLu0CuAAyIACvIc4u7QK4ADIgAK8hzi7tArgAPRtdtQNV+EFRR7ROsqjbiPdqwqQsYyyjMVBtr9m5ec7K97mXuoB0w4X2A3WJgtTZqas8ZP6ERb3Fg505dL/Yqq+ldRLKfW2+5b6le4vLYBxnAAAAAAAAAAAAAAA7neCL9jDF/nFF/ysAc3QK8hzi7tArgdL3DV+yRol+Zrj55FAdfAAAAAAAAAAAAAAAAAAAAAAAAAAAAAAAByawZ/WFG+NnvyLkD0LWF6/aSeNov5ZoDPgAAAAAAAAAAAAAAAAAABy14PzA4f4StPG6S0uhXjugdGnrDce0trKR7/nZhWF7qLztr3GeTnVAO7yWSyXyaXQ0olME5g4KDdMuIeHcsIw7dO2UsZZZROREREA24ACRPs3vbAJAHqOt3CywfKjeMcVi1mSuCj2E7Ww7SxUYq2cicS6Rppm3paRE74HFysHhs6upc8ew1WVUE6nNiqyxFTaMdwTH43FsI8VUvMqB6NpDw0+ENHvGmaP0AoTKnP2KtOIh+8T8KtPcVf0QMVH8LhhbR7TKtTCjTpGVXFRiUO+S38NvQB/kNwteFS5s45ui8RZz48rRLf0VQDVSjhka+IbEYm9XNCI1hPVNsOop08a+HjlZT9ED3PRHhvpC9V25p1UVGw/NxkRK5uy8/DY6eO2f5wORdXPCmYHtYDTmHiqdRlFYt8qIjifQLbhEXvvWMd0ynfVtAORMJTOiNOJZBzqhtJ5VPIB9jK7iZfFu4h01zczTCqgH9AQqeesakXimL+RaA+aya9tIz8oefzKB4oAAAAAAAAAAA3FTNTNPq+afy6rirqTPI+aTBuxVsVHUO6T1T161zMsMpyqqgd6eC5gZVd4JlDIaBlDp1NKVzFi2cz167TjHzaWf2bq3ldumVVbGU5+deUD3eAA1wACRPs3vbAMDTmtCrqrKXLNqwabyWj0IlqI8mEa7c4yp3GUaVFaXvJaoHFusDhXcFih7b2Fo9GT+l8QxyMtSyXq7cK10K8fqwtnfZZaA9OUo4b+YNttsUMqGh3LKWow9mc5aeq131Ydu2bPwYy/hA9fR/DWYRD5v/AHCregEMx3LXEW218Kq/s/YB4bHDN4RD1t3lGr+gUSwwtvJDRbDVnQio/s7nQoHsGiHDQO1aYc07qRWxVTHiJVNbMVO7Y6eMLb+mgHI6rbhNsE2sNt3CxVMouicY8VGWXNIINXDKr3f7ZhW3TKd9ptAOYlG6WUXpjLHU6olSKWzmAfs4zqJgIph+6bTpRphVRQKwEifZve2ASAAGuAl0novR6mkgjqLUrk8LNZTMnLUPFQkU7R47eu2ksVFRQOkLhAOD6nGDTN3tYdXTmJmdXMxfLZaitvZO8aXkdPV7rvlsZbX8C8vKocKAAAAAAAAAAAAAAd23A2+xbmH5yRX8rAHPICRPs3vbAJAHT3wx3shqK/mg5+dxIHAkAAAAAAAAAAAAAAAAAAAAAAAAAAAAAAA5NYM/rCjfGz35FyB6FrC9ftJPG0X8s0BnwAAAAAAAAAAAAAAAAABboRQ6eVg0wk1B6NQjUTNJ7HOYCEdJ9k8eNoylvQnLaq9xEUD6H6hanKOVCVUyGq+jLtjiJVDp6JfozYsXFNIivn7Xdtaat5+ZEZTuIB7AA1wAD1tXtW7V/UlQ1undY9IHMqlUIjXpmuV4+b5LHbthOVtte4iAdO2FBwntblb8TF0aqqiImg1E1aadstwzzFmUYx0vHyfWkX7V2qL0tLbYBwsiIh/Fvm4mKfvHz560rbbx40rTTTS8qqqryqoH8AAAAAAAAaSg1ZVYFWc1ZndX9MpvR+NZVFV7ARbbrHs7jaItjad5pFQDnVUDwu1YFHH0NJK+6PuqTy61GGptLnbLiOYT7Zt3yO3nwYnNzKB2H0Zr7qpr6qmpDSKrCl0HNnKSeKV/Do1iRMMquWvSvXS+mZX4LAPnsm3bSM/KHn8ygeKAAAAAAAAAAaGr6gNK60aZymgNCJS9mU6nUSzCwkO7TnaXnaVfsWUS1VVeRERVA+gDAwwP6H4JlXDqTwjtxMKWzR2w9n04xPTPnnPxLtV5WXLC8yd1fTL3EQPeE+ze9sAkAANcB6yrzwjqoMHSjbVJK06XQstZaZVYaDZXjIuKa+1dOk9M1zc/N3wOqXCS4XStisV+/kVSksd0JkjKtMMR71ll/MnzK921bWHVvQiNL30UDgnSallKKaTZ9PqX0imU6mUQtr2Lj4pt+9b/AAtNqqgSgAAAAAAayr2tmsyqebMzyranM6o5GIqNK3ARbbtl5ZzI2wi4rad5pFQDnrUDwytY1GmoaSV+UVcUpgGbGGptLWWYeOZT7Zt39beL02Yn4AOxqqnCgqSwjJRDzOq2m0HMXztlWoiXvF4qMh7bORty1Y0nMvKlqAb8ABrgAGap3I5PSaTPaO0hlsPMJZMnD2Gi4WIYRt2+dNIiNMtIvcA6I8O/A1mmDBTrK9HnL+KoFSB821KoppMZYR5zrCvGvtmU9Sv2TPfRQOLAAAAAAAAAAAAAd23A2+xbmH5yRX8rAHPICRPs3vbAJAHT3wx3shqK/mg5+dxIHAkAAAAAAAAAAAAAAAAAAAAAAAAAAAAAAA5NYM/rCjfGz35FyB6FrC9ftJPG0X8s0BnwAAAAAAAAAAAAAAAAABz/AOB4qTd06rtnlaUycIsJQiXo7hGmmLU9GxOMwip0qy6Ze/gx0UDuSyDpmpvAZB0zU3gMvaHr7gJdJ6w5JQ2jsxpXSRpiClcphnkXFv23liMO2EtVeVOfoTurYgHz/YY2FfTDCqrQi6RzKKfQ9G5e8bcSKVo2vFw7hFsRtU5leNJytNd+zmA9BgAAAAAAAAAAABdobTumNXs2y5QmkkfJo5Xbblt7CPlYVt20io0w0icjTKoq8i2oBEevG3zxt68atbbaVppelV5wP5AAAAAAAAAf6yy020jLLKqqrYiInKqgd1HBl4IsLUNQlitunkiRundKIZGnTD5LG5XAtcrLpLU5G20sabX8DPcA50Ze0PX3AO3fgeJvY1vV0AMg6ZqbwGQdM1N4HDLDd4SejGDxDRVX9XDmEnlYbx2rLbKto8hpRanI0+s9U87qO+5yY3QB0x1j1nU8rcpVF00rEpNGzubxrattv4l4rWKi/YsJzMMp3GU5AMuAAAAAAAAAAAKdG6T0iodOYakNFZ1GSmZQjaNuYqEfNO3jCotvIqfg5gOyDBQ4WGKhn0FQfCZYafQqqy5d0phHVr133EWJdJ6tOltn03OqooHaXRt/R+mMigqT0VpLCTWUzF0j+FjIRpHjp8wvMrLSL/8A8XkUCnl7Q9fcAy9oevuAdu/A8TexreroAxlcFRNEK7qu5xVtTdhmJlk2cKxjcX6eHeon9m+drbyNsNWKi/BzKoHzx1+1JUuweq1J3VZTNwrMZKny8REMsqjuLhmuV0/Y6WWmepbU50UD16AAAAAAAAAAAO6ngfJj6CwXo1niOMxqRxa+qss9Kx3gOdGXtD19wDt34Hib2Nb1dADIOmam8Dps4ZyE9B4RdFHXG49tDnDVtlmeRQHAEAAAAAAAAAAAAAAAAAAAAAAAAAAAAAAA5NYM/rCjfGz35FyB6FrC9ftJPG0X8s0BnwAAAAAAAAAAAAAAAAAB3c8DtQlzRzBeiaT8Wyj+lM7iYtpqz02I6XiGU/B/ZKqfhXpA53gAMiBwT4W+tuLoZUbLKu5VFq6iaZx/FxSMNKjXoRymM0nfZaaxUUDpxAAAAAAAAAAAAAAAAAAAAAAAAAHNbgvMFJivquH6vqVwCvaIUGeO4t8y2za7i43ncuV6USzHXvIgHdIiIiIiJYiciIAAryHOLu0CuBwC4R7hBnVRcviKmqoJk6e09mDnFmEc7VGkkrlpO53OPaReRPsU5V5bEA6W46OjZnGv5jMYt7FRUS8aevnz5tW23jbS2q000vKqqvdA/AAAAAAAAAAAAAAADlJgS4dFOsFOlbmWx0VEzegExfM5Tk7batcRbyK/h7fUPETnRORpEsXuKgd3tDaYUcrAotLKaURmjmYyecQ7EVCRLlq1lthpP2KnMqdxUVALIFeQ5xd2gVwODnCn4KTquyqBqtGiss4ymFBXLcQiOmP7SNl/O+crZytKz6tlOlFRPVKB0dAAAAAAAAAAADud4Iv2MMX+cUX/ACsAc3QK8hzi7tArgdL3DV+yRol+Zrj55FAdfAAAAAAAAAAAAAAAAAAAAAAAAAAAAAAAByawZ/WFG+NnvyLkD0LWF6/aSeNov5ZoDPgAAAAAAAAAAAAAAAAAD6D+DmlTuU4IlXzp0yiJESl3FLYndeNNtL/EDkyAAyIHU1wzcyfPqy6vZWrSo6hZNFvETuK02+ZtXVA66gAAAAAAAAAAAAAAAAAAAAAAADypXLI6dTKEk8sh24iLjXzEO4dMJa028bVEZZRO+qoB9G2CDUDLsG+oajlXTmHdszRlwkZOXzKcr6OeojTy1e6jPIwneZ74G6AAV5DnF3aBx6w9sLyWYKdUzyKlj1y/prSJl5CSCDaW3Eas9PEts/aO7UXvtKidNgdAU/n85pTO46klIpk/mEzmT9uKi4p+3jPHz1tbWmml76qB4AAAAAAAAAAAAAAAAABz14MDC9e1Y00dVF07mapRWkz/ABZU+fN+ll8e0vIzavIjDxeTvNWdKgdwqLbyoBXkOcXdoFcD837hzEuXkNEO2Xjp6yrDbDSWo0yqWKi96wD55sPPB/awfcIKcyaXQquqPT5VnEmVGbGWXLxpVbdJ3PSN2s2JzJYBx0AAAAAAAAAAO53gi/Ywxf5xRf8AKwBzdAryHOLu0CuB0vcNX7JGiX5muPnkUB18AAAAAAAAAAAAAAAAAAAAAAAAAAAAAAAHJrBn9YUb42e/IuQPQtYXr9pJ42i/lmgM+AAAAAAAAAAAAAAAAAAPoKwGI53H4HVVDbttGkdSVHC2dxWGsVU/YB7wAAa4DqU4bui0S7pTVrTNh016GewMZLnjfc4xG2W2U/RxgOsIAAAAAAAAAAAAAAAAAAAAAAAA5l8FlUgxWjhEO6aTWGR5J6v3CTZvGZtZbjWlxYZj8KNI08T/AElA7rwNcAAy9YE/lFFJDE0mn8a7hJbKoV/GRb94tjLt07ZRppepObu8wHzwYVuEHPMJOuWcVhTF48Yl2OsJJoNprkhYFhV4thE5sZeVppe600qgengAAAAAAAAAAAAAAAAAB/Tp69cPWH7l407eO2kaYbZWxWWk5UVF7igfQHwdmEuuEjg+y6Lnkay9pXRZWZPO0VfTvWmGf7KIVPCMWKq82MjadwDkZPs3vbAJAADiBwutRjusXB9d1mSuCR5OKBRKRDbbLPpmoF6qMPUXuqjLSsNInfVQOkQAAAAAAAAAA7tuBt9i3MPzkiv5WAOeQEifZve2ASAOnvhjvZDUV/NBz87iQOBIAAAAAAAAAAAAAAAAAAAAAAAAAAAAAAByawZ/WFG+NnvyLkD0LWF6/aSeNov5ZoDPgAAAAAAAAAAAAAAAAADu/wCCupk6pPggySTcZjv6NTeYS59y82M8R8wn6D1kDl2AA1wHEzhNKh4qu/BlmrySQaxE8og9SeQLDKWtNsMIqPmGU6VdqvUB0FKisqrLSKipyKi9wAAAAAAAAAAAAAAAAAAAAAAAA7teCxqlYq7wZIKlUXCcXNKcxbybvWmmbG/QyLxcOzb3WcRlXif6qgcxQNcAA64+GLwhG6H1dSeoyj0cruZUsVYqa8W1Y0zAMNJYwv47aJanQyB05gAAAAAAAAAAAAAAAAAAAA5icFrXy8qdwmpZR2YxnFSGnrKSOMZaasYZiGlthnnRajz0tvcZeNAd5s+ze9sAkAAKlNaKSynVD53Qucu0bgZ5L38viEVEWxh6wrCqlvdS21O+iAfMpWPQ2Y1d0/pFQSbueKjJBM4iXvmOhp08Vlf4AZwAAAAAAAAB3bcDb7FuYfnJFfysAc8gJE+ze9sAkAdPfDHeyGor+aDn53EgcCQAAAAAAAAAAAAAAAAAAAAAAAAAAAAAADk1gz+sKN8bPfkXIHoWsL1+0k8bRfyzQGfAAAAAAAAAAAAAAAAAAHZFwMtaLiDp3TCpWZxyumZ9CsTmWstL6VX7j0j5lEt5WmnbTtfwOlA7b8g6ZqbwGQdM1N4DL2h6+4D+Xk6dvWGnT2ARthtFZaZaatRUXnRUsA6WeEYwG5rU/SiPrmqykz2IoFOIhX0a5cMq2smiW1VVRqxORy0tuK1zIvpV7locFgAAAAAAAAAAAAAAAAAAAAAKlFKOx9L6USeicrZxo2dR8PL4dLLbXj54ywz+1pAPpioPV1L6F0NkdEJU94mDksuh4Bw7Rj1DDt2jKJz9CAW8g6ZqbwGXtD19wH8vKRO3Ltp69hkYYYRWmmmnliMonOq8gHzyYbNc0TXphJ0xpmsQ08gHEa1LJairajMLDqrDNnSiqjS2920D0WAAAAAAAAAAAAAAAAAAAADypXMYqTzOEm0C9adREE/YiHTbK2Ky2w0ioqL+FAPpMqJrEc151OUPrFdPUZam8pcRD9pEtRp+rOK+RObkR4w2nwAbvIOmam8BkHTNTeAy9oevuA6MuFXq/dUNwsZpPoSF4iFpjL4adsMpzcYqK6erb0q8dNtL+MBw7AAAAAAAAAd1PA+TH0FgvRrPEcZjUji19VZZ6VjvAc6MvaHr7gHbvwPE3sa3q6AGQdM1N4HTZwzkJ6Dwi6KOuNx7aHOGrbLM8igOAIAAAAAAAAAAAAAAAAAAAAAAAAAAAAAAByawZ/WFG+NnvyLkD0LWF6/aSeNov5ZoDPgAAAAAAAAAAAAAAAAADcVI1qzypGtejFadHW1SMo9Hu4pWEWxHzr1L10vebdq2yveaA+k2runtHK0KDSSsGiUczFyifQTuNhXqc+K2lqstJ3GmVtZVO4qKgGjAyIADzYWVy2dy6YyicQEPGwMY74mIh4h2jx29dtI0jTLTK8ioqdxQOsXDL4JKJdvo6sbBdco8ctYz+Lok8b9MwvOqwba86eCaW37VV5GUDq/ncjnNG5pEyOkEqipdMIN4rp/CxTpp29dNotio0y1yooHhAAAAAAAAAAAAAAAAAAAByX4OKgKVg4YNA4N8542FlEQ9nMQzZb6Vw7VWV+B4rsD6EQAGRA9PYXlZjVUeDjTqmziIRzFuJW8hoJpfvl9/Zu0/SaQD55lVWlVVVVVeVVUAAAAAAAAAAAAAAAAAAAAAAB3X8DjWE1SjB0m9DomIaexFE5w06ZRpfUOH7KtsMp3kVG1+EDnyAAyIHWlwz9C2Xshq4rBcw9jUNFRkoiXtnqkeMMPXTPwcW+X4QOrIAAAAAAAAB3O8EX7GGL/OKL/lYA5ugV5DnF3aBXA6XuGr9kjRL8zXHzyKA6+AAAAAAAAAAAAAAAAAAAAAAAAAAAAAAADk1gz+sKN8bPfkXIHoWsL1+0k8bRfyzQGfAAAAAAAAAAAAAAAAAAADsj4KDDRhqATf/ZyrKm7LiQzmIV5R2Lft2MQcY2vpnCqvMw8XlTuI1+MoHcKBkQAFeQ5xd2gVwPQ2EpgW1HYUEtb+rijzMHPmHasw0+l7KO4x0vcxl5nrPN6Vq3oRUA6fsJPg5q8qhXsVO5LLnlMqKO1VpmYyxy00+cseGcpa0zYllrSWpz9wDiiqKiqipYqciooAAAAAAAAAAAAAAAAAA7E+BWokxM68aZUwbYtWR0fZh2GlTmWIe8v7HQHcqAAyIHAThiKcNSao6jVB4eIVl7SKesvX7u3kbcQ7tpv9jxXQHUAAAAAAAAAAAAAAAAAAAAAAAA7JeBPpm1A1o06oM+fWOppJ3Ua6Yt53rp5Yq/otKB3BgAMiBw54V2jOXcEmYTXExvqenUvmNv2uM2sPb/8AuLPhA6SwAAAAAAAAHc7wRfsYYv8AOKL/AJWAOboFeQ5xd2gVwOl7hq/ZI0S/M1x88igOvgAAAAAAAAAAAAAAAAAAAAAAAAAAAAAAA5NYM/rCjfGz35FyB6FrC9ftJPG0X8s0BnwAAAAAAAAAAAAAAAAAAA/p09eOXjD5y8aYeO2kaYaZWxWVTlRUXuKB2wYAXCLwFLISX1LV9zt3Cz1yjELJZ9EtYruPZTkZcP2l5GXvMjLa8jXMvLZaHaKy0y0yjTKoqKlqKnMoH+gSJ9m97YBIAAaxthh4w07eMo0y0ioqKlqKnQoHErCW4NLB9wgvRU9l0r+oqlb61vKsodMsu3zxe6/ccjDzuWqljXfQDqnwjeD2wicHNuImc0o4tJaMusZpmdyVlp86Zdp9k+d+rc8llqqispbZjKBxmVFZVUVFRU50UAAAAAAAAAAAAAAAB2r8DDIGGaGViUp4tMd5NIWAxu8y6x7NYDsjAAa4Dp54bWlLUbW5V/Q9HvpZVIYiOVjoWIfozb/+3A63QAAAAAAAAAAAAAAAAAAAAAAHLjgtKQJIsLqROXjdjEzl0bBYqryK007tZ6lQDvCAAa4DjjwiUmZnmBnWdCNM2o5lbEZ8Lh87ep/IB88oAAAAAAAADu24G32Lcw/OSK/lYA55ASJ9m97YBIA6e+GO9kNRX80HPzuJA4EgAAAAAAAAAAAAAAAAAAAAAAAAAAAAAAHJrBn9YUb42e/IuQPQtYXr9pJ42i/lmgM+AAAAAAAAAAAAAAAAAAAAAiqi2otioB2EYE3CmUoqlSX1aV9voukND3eK4hJulryOljHMiN9186T9NE5rUsRA7gKC0/oXWbRuEpfQKkkBPJRGsI25ioN8jxhe8tnMvSi8oHkz7N72wCQAA1wACPSBlGmXDLSIqLjWovwAcQ8IPg5sHuvVImbwcl+oykr61pJnJXTLDt42vdfQ/Iw33VVUxWlVbVVQOsLCK4P6vzB8bfzSJka0moy7VVZnMoYaesMM9zjXdmO7X8KWc9igcaFSzkUAAAAAAAAAAAAAHcdwP0tZhcHWdzBGLFjqSPlVenEdu2QOdgADXAdF3C9TdqZ4YMVCq1bkyj0uhE7yf2jz/wAoHCgAAAAAAAAAAAAAAAAAAAAAAB79wC49qX4XlWTfGYjL2csuW1/6WnbaeYDv9AAa4D01hlwjMbgn1uuW0txaHTV6n4WIZtpP2oB83gAAAAAAAADu24G32Lcw/OSK/lYA55ASJ9m97YBIA6e+GO9kNRX80HPzuJA4EgAAAAAAAAAAAAAAAAAAAAAAAAAAAAAAHJrBn9YUb42e/IuQPQtYXr9pJ42i/lmgM+AAAAAAAAAAAAAAAAAAAAAAA9t4PeFLXHgzUjSe1Z0meuIZ62ixkriFV5BRbPdRt2q2W/8AUlioB264MfCVVL4RbuDo3TaOhqB0wsRhYSOeokHGNrZ9ZfNKiJaqcjDaovNYqgcwEkTLSI0zG2oqWoqM8/7QP9yDpmpvAZe0PX3AMvaHr7gHbvwPE3sa3q6AGQdM1N4H8vKOu3rtp09iWW2G2VZaZad2o0i8ioqW8qAcKMKTg0qlq8liqT1fwbFAqWPbW1ewbu2Bim/CuEREZ/GYsXmA6l698GytzBzpG1R+sujL2FdttqzCTJza8goxlO67eollv/StjSdAHq8AAAAAAAAAAAd23BES1IvBQZax8T/j8c0q2W43KymwDm3kHTNTeAyDpmpvAZe0PX3AdDfChR7Uww0KattJio7cS52jNttieg3S7QOKQAAAAAAAAAAAAAAAAAAAAAAD3FgePWnGFDVo8ZaxV+qCGS38Kqm0D6L8g6ZqbwGQdM1N4DL2h6+4D1ThXztl5gxVrsNwljLVDZuirj6I87wHziAAAAAAAAAO6ngfJj6CwXo1niOMxqRxa+qss9Kx3gOdGXtD19wDt34Hib2Nb1dADIOmam8Dps4ZyE9B4RdFHXG49tDnDVtlmeRQHAEAAAAAAAAAAAAAAAAAAAAAAAAAAAAAAA5NYM/rCjfGz35FyB6FrC9ftJPG0X8s0BnwAAAAAAAAAAAAAAAAAAAAAAAD/WWmmGkaZaVFRbUVF5UUDlngx8JPX7g7ehZBHTFaaURc2MZImz5pW3DCdyHf8rTv8VcZn/p7oHa/g38IFg84SDqHl0lpKzR+kzxlMeRThtly/Vru8U1biPk/FW2znRAPc6LbyoAAryHOLu0CuAAyIEGm9A6G1k0ciqJU7o5AzuURrOK+hIx0jbDXfTusqncVLFTuAdT+GJwX1Kqr4eY1lVEu4qkVEofGfxkpVFeR0sd8qq0z3XzpETnT0zKJyoqemA4CNMtMNKy0yqNItioqcqKB/gAAAAAAAADvB4Hp6jeCerr7nPY39rVoHOcABkQOirhNHKusMumzSpZxjqXNp3/9zcpsA4tAAAAAAAAAAAAAAAAAAAAAAAPb+CA6V9hPVZuk7tIoX+YD6SQAGRA9RYX0WzBYLVa71qz01EZo6S3pbh22U/iB88QAAAAAAAADud4Iv2MMX+cUX/KwBzdAryHOLu0CuB0vcNX7JGiX5muPnkUB18AAAAAAAAAAAAAAAAAAAAAAAAAAAAAAAHJrBn9YUb42e/IuQPQtYXr9pJ42i/lmgM+AAAAAAAAAAAAAAAAAAAAAAAAAAH9Onrxy8YfOXjTt47aRplplbFZVOZUXuKBy4wd+Etr6qV9CyOk8ctOKNOlRlYWaPFWKcseDiPVcnKtjeNatnKiAdn2D5hy1B4RDlzB0dpKxJqQNomPJJs0y5iMbodqq4r3nRPSraq9wDkzIc4u7QK4ADIgAK0iRFSIRUtRcXaB17cIDwZcrp/DTCuPB7kziApO7RqImkgh2UYcTNE5WnjhnmYff9KcjXeXnDp+jIOLl0W+gI+Gew0TDPGnT5y9YVlt22ytjTLSLyoqKlioB+IAAAAAAAHdJwMUzZi8HWkUuRu1YCkDaKnRjsI0B2CAAMiB0kcKzK2pdhcTKIaZsSYyWXxSd9MVp3b/2wOHgAAAAAAAAAAAAAAAAAAAAAAD31gHy9ZphfVWQiM2os+dttcnMjLDS2/sA+i4ABkQOO/CDzdJJge1kRat4vGy91CW/60Q7dWa4HQaAAAAAAAAA7neCL9jDF/nFF/ysAc3QK8hzi7tArgdL3DV+yRol+Zrj55FAdfAAAAAAAAAAAAAAAAAAAAAAAAAAAAAAAByawZ/WFG+NnvyLkD0LWF6/aSeNov5ZoDPgAAAAAAAAAAAAAAAAAAAAAAAAAAAAfpDxERCP2ImFfvHL500jTDx20rLTKpzKipyooHMbBy4T6vKptmCo5Tp+1Tyi0OrLCQ8e9VI2Gd8lqOYjlXkRERGW0aQDtLwfsLipHCRlzL6r6lLtibMsY8RJI5Ucx7iznXi7fTsp9swrSc1ti8gHuUDXAAJE+ze9sAkAdcXCaYEMNSOVx2EVVXJkYnECxx1JYCGY/vjlOeKZYTneMp6qznZ5e4B1RAAAAAAAAdq3Aw0idt0PrEonjpxjqZwsxxehlp1xduoB2SAANcB0y8NXRtqBr9ofSni1RmbUZSFxrORpYeIeKv7H6fsA68QAAAAAAAAAAAAAAAAAAAAAAHKvgxqPLSDC+ovYzbkyGjJgve4t3/8A7Ad54ADXAcIeGApMzI8EV9KFbsWkNIYCARLefEVuI/8AAB0agAAAAAAAAO7bgbfYtzD85Ir+VgDnkBIn2b3tgEgDp74Y72Q1FfzQc/O4kDgSAAAAAAAAAAAAAAAAAAAAAAAAAAAAAAAcmsGf1hRvjZ78i5A9C1hev2knjaL+WaAz4AAAAAAAAAAAAAAAAAAAAAAAAAAAAAAB5smnc4o7M4adyCaRcumEG8R7DxUK+adPXTaczTLTKoqL+ADsewSOFZmUvfQVA8Jhr0ZBriuYelDh1/bOu4nophnkaZ8IylvSi8qgdtlH6QyOlclg6R0amsLM5ZMHTL+Fi4Z4jx09dtJajTLScigUQJE+ze9sAkAfw+cuYly8h4lyw9dPWVYeO3jKNMtsqlioqLyKip3FA6M+EYwWv9mmvOJWj8I2xQ+liNzSTNWLiuVVr+1hrelhpeTu4rTK90DioAAAAAADn1wOtMElNetKKHNNoylIJDx6WrZa1DPUWz8Nj1f2gdwAADXAdaHDbUIajqu6vawnTrGWUTaIlbxpE9SxEOkbtXvYzhlPwqB1DAAAAAAAAAAAAAAAAAAAAAAAOwTgcqIZSrkpbTB85XEk0lZcuXlnJxj54iKzb+KiqB27AANcB1b8N7TRHcpqyq8cvrWn7+OnEQ7t5kYZYdOmvhx3yfAB1PgAAAAAAAAO7bgbfYtzD85Ir+VgDnkBIn2b3tgEgDp74Y72Q1FfzQc/O4kDgSAAAAAAAAAAAAAAAAAAAAAAAAAAAAAAAcmsGf1hRvjZ78i5A9C1hev2knjaL+WaAz4AAAAAAAAAAAAAAAAAAAAAAAAAAAAAAAAAcvcA/D1pXgvUnh6KUrioqb1cTJ8jMXAtNK03Lm2l/vEPbzWc7THM0nQvKB3jSKnUnpNJoGkNH3riPlsyh2IqEinD7GdvnTaIrLSLZ3UUDzu3fgeJvY1vV0AMg6ZqbwGQdM1N4HFnhIaoYevXBlnqQstRZ5Q9lqkEseJ6ZpeKZVX7pOS307rG5O60yx0AdCgAAAAAAPfOAtT5irnCrq9ncQ/4qEjJozKorlsRWIlFdIi95G22F+AD6F0kSLypG6m8D/cg6ZqbwGXtD19wHG7hDaFrWxgm03ksPL1ajZXDMzmExfTNq8hmkeKyzyc7TKNJ8IHz/gAAAAAAAAAAAAAAAAAAAAAAO5PgcasWpZUPSKnMR/ZPaSTrEd4zHKrqHYxUVOb0qq218LIHP7IOmam8BkHTNTeAy9oevuA6O+FkrJSnuFhGyhw2iw1EpTCShhGWrUx1RX7z4UbfNMr+KBwyAAAAAAAAAd1PA+TH0FgvRrPEcZjUji19VZZ6VjvAc6MvaHr7gHbvwPE3sa3q6AGQdM1N4HTZwzkJ6Dwi6KOuNx7aHOGrbLM8igOAIAAAAAAAAAAAAAAAAAAAAAAAAAAAAAAByawZ/WFG+NnvyLkD0LWF6/aSeNov5ZoDPgAAAAAAAAAAAAAAAAAAAAAAAAAAAAAAAAAA7OeCUwno1uMi8G2l8yaeuFdPI+jbb1q3i1TlfQ6Kv2Kp6dlOlGrE5QO1iQ5xd2gVwAGNiodzGQz2EiHbLbp8w07bZaRFRplUsVFRecD5wa8aDLVnXFTSgKOmnbqRzuLhHDLXPxDL1ril+F2rC/CBhwAAAAA/aCjYqXRsPMIF805iYV6w+cvGVsVhtlUVlpO+ioigfS/g91mQVcVSdDKyYFtlpmeyeHiHrLK28W/xER6wvfZbRple+gHsMDIgeNM5fDTaWxUqjWMeHjHDcO9Z6WG2VZaTqVQPnOr+qyjKna5KW1cxjlXaSaZvnTjoacK1jOlRe76RWeX8IHr8AAAAAAAAAAAAAAAAAAAAH6wkK/jotzBQzCtvoh4y6dsp3WmlsROtQPpEwUqs2KnqjKJVcq54t/J5TDsRbKoiKkS2jTx8i9NjxtpLehEA9vgAMJPJzAUckkwpDNn3FQMrhX0bEvLPUOnTCttr8DLKgfN7WvTeNrKrLpPT6Yt48RP5rEx7aovJ/aPFaRE71igZQAAAAAAAAB3O8EX7GGL/ADii/wCVgDm6BXkOcXdoFcDpe4av2SNEvzNcfPIoDr4AAAAAAAAAAAAAAAAAAAAAAAAAAAAAAAOTWDP6wo3xs9+RcgehawvX7STxtF/LNAZ8AAAAAAAAAAAAAAAAAAAAAAAAAAAAAAAAAAG4qPp3H1Z1vUQp1Ln/ABL2UTeGfq13MTHRG7en0qqB9KNEo2HmcAkyhGsZxFunT92vSw0iqn7FAvgAMiB0TcJbJHcmwxqbPXSIyzMmYKNxUSxEVYV2wvWrCr8IHF4AAAAAAHcLwMFdzNIKtaSVFzSLRYyi0VlWWsNNcqwUQ1/aMsp0MPrVX/WQDsjAyIADq24YKod7DzSQYQMlglVzFMsyWctMM8jLxm1XDbXRazjM3QOs4AAAAAAAAAAAAAAAAAAAAHKbg36j265cJWSxkwguOkNDrJ7MlbZtYaadqnEOl7i4z3FtTusst9AHfXIc4u7QK4ADg3wnFcbNVuDPMpHBRKO5rTZ8kmhkRpUbRz6t+2lnQyiM/gbUDo7AAAAAAAAAAO53gi/Ywxf5xRf8rAHN0CvIc4u7QK4HS9w1fskaJfma4+eRQHXwAAAAAAAAAAAAAAAAAAAAAAAAAAAAAAAcmsGf1hRvjZ78i5A9C1hev2knjaL+WaAz4AAAAAAAAAAAAAAAAAAAAAAAAAAAAAAAAAACKqKiotioB9MtA23zyqugzcQljxqQwStfh9DuwKoADXAdDvCyPXbzDKnzLuy13Kpey3Z08Wq/wVAOHIAAAAAAPdWB3XlEYPlf1Gqetvm2ZU0/yfOHbPKjyBfWMvOTuqzyNp/1MIB9BUFGQkxg3EwgIh3EQ0U6ZfOXrtrGYeO2ktZaRU50VFRUUDaAAPWWENVXIK66sJxVlSNhn0JO4R64Zeqzarh9yK7ep32WkRe/Yqd0D5y6zqu6R1T0+nlXdLYNqGmkijHkI/ZVORrFX0rbK91lpLGkVORUVAMwAAAAAAAAAAAAAAAAAADLLTTSMsoqqq2Iic6qB348GpgyN4PFQMLH0il/EUuporE2myNs2PHDtWf93h16MRhVVU+2baA5QT7N72wCQB/oHSdwpmEG7rnwi4qjEkjuPo/QRhZTDqw1aw8irbYhtLORfTel6fSqgHDUAAAAAAAAAA7tuBt9i3MPzkiv5WAOeQEifZve2ASAOnvhjvZDUV/NBz87iQOBIAAAAAAAAAAAAAAAAAAAAAAAAAAAAAAByawZ/WFG+NnvyLkD0LWF6/aSeNov5ZoDPgAAAAAAAAAAAAAAAAAAAAAAAAAAAAAAAAAAsUOkT+lFLZLRuGdNPHk0mEPBssMpaq8Y8ZZ2gfTNDSpZFRqQyReeXwLmF+LdsM7APzAAa4D57eEfpI7pPhn1kRTh4jbmDjIeAdqi83EwzplpP00bA40gAAAAAAAdznBbYSzFa1Ui1UUkj8ektB2GXTlXjdrcTLlWx00lvPiL6Re9i9AHYYAAkT7N72wDrx4UDA/e1p0U/wDnSr2VK9pVRqGVmbQrh3a3MJezy46InO8dJavSrFqfYsoB0+c3IoAAAAAAAAAAAAAAAAAA528F3gbRFdtYrmuGnMrVaE0RiWXsOw+Z9JMpgytrDCJ9kwwtjTXfRlOlAO7plllllGWURERLERO4gEmfZve2ASAPQOG5hEweDhUVN6TOIl2lIZsw1K5E5XlVqKeMqnGWd1HbNra/g6VQDoIi4qJjop9HRr9t/ERDxp69evGsZpttpbWmlVedVVVUD8gAAAAAAAAADu24G32Lcw/OSK/lYA55ASJ9m97YBIA6e+GO9kNRX80HPzuJA4EgAAAAAAAAAAAAAAAAAAAAAAAAAAAAAAHJrBn9YUb42e/IuQPQtYXr9pJ42i/lmgM+AAAAAAAAAAAAAAAAAAOU9PsASsyV1E0PwgauHEVSmQzyQQk1m8I4c2xctevHaNNqjDPK8dW28qJandTugcWFRUWxUsVAAAAAAAAAAAAAAAOY3Be1FRVaWERAU3mMuafUeoIqTOJbVPSNxXKjh1zWKqtWtWdDKqB3l9u/A8TexreroAZB0zU3gMg6ZqbwPCnNMoORyiNnUwdsOIWAh3kS+etvLGWGGGVaaaXk5kRAPmhrOpjEVh1j0op5F4yPaQziMmbSL9jxz5ptGfgRpE+ADMgAAAAAAAew6ga6aS1AVqSSs2jDxpXstfJ6Jh8axmKhmuR46a7ys22d+wD6IqrK6qK1wUBk9YtDG2YuVTmHZfOmkb5WGuZt20lnI0y1aip0oBrMvaHr7gHbvwPE3sa3q6AP8ao+y0yrLUXaipYqKxyKnWB1A8JRwfkdVhMo6viqGUtRFE4560/ncvhnXLK3zS2q+ZZT/JaVeWz1K95eQOu0AAAAAAAAAAAAAAAByDwN8ECmuFhWE7k8ucvoGi0teMPJ3OFYXi3Du23i2F5mnrSczPc515AO+mrejFEqp6Eymr6g9HXUuk0mh2YeHcu1sts52mls5WmltVVXnVQNLl7Q9fcA7d+B4m9jW9XQB40yg4CTy6Km01nDqFgoJy3ERD97Yyw6dsIrTTTSqtiIiIqqoHQRh3YUERhM1zRUwlMS8+pCjqvJfIHSpi8Y7Rr08S0n2zxURe8yjKdxQONwAAAAAAAAAAA7qeB8mPoLBejWeI4zGpHFr6qyz0rHeA50Ze0PX3AO3fgeJvY1vV0AMg6ZqbwOmzhnIT0HhF0Udcbj20OcNW2WZ5FAcAQAAAAAAAAAAAAAAAAAAAAAAAAAAAAAADk1gz+sKN8bPfkXIHoWsL1+0k8bRfyzQGfAAAAAAAAAAAAAAAAAAH0VYCzLLeCfViw2yjTLVE5cioqWoqcUB6twqOC+qUr+eRlK6GMsUEpi/VXjcXAuUWDi3nS/h0sS1e62xitdONzAdUlf+A5hFYOcS/fU0oRERskdtWO55KmWomCbTuK00ylrtV6G0ZUD0EqKiqipYqciooAAAAAAAAAAA9hVHVEVjYQdN4Wg1XUkexkQ9aRYqKaZVIeCc2ojT183zMspb+FVsREVVRAO+PBpweqI4NNV0vq6ouiRD5j+3mcxaYRl5HxTSemeNdCJzMs9xETu2qoe7JDnF3aBXAAcG+E1rudVS4Nczo/AxnFTunbSyOEYZasaSHaS2Kbs+14tcRe+9ZA6OwAAAAAAAAADmRwduGc9weaapV/TuYvFq/pI/RHrTS2pK4tqxGYhE7jC8iNp0WNdxUUO62FioaOhnUZBv3b9w/YZeOnrtpGmW2FS1GkVOdFQC5Ic4u7QK4H4R0DBTOCfy6YwjqKhYl206fOXzCNsPGGksVlpleRUVO4B0+YcHBmTSjsRMa18HWUPI2TtK1EzGjThlWn0GnO08hk523fOqseqZTmtTmDrjeunrh405fO2nbxhVZaZaSxWVTnRU7gH8gAAAAAAAAAAAByvwNeD7rOwpJtDz+aQ8TRqgDh6noucv3SstxSIvK7hWWvVtLzY/qWe7avpVDvGqkqhoBUfQaAq9q3kLmVSeXsWMsMJa2+bX1T143ztttLyq0oH6gAK8hzi7tA6w+Faw4XTbmLwYqq5wy2rSozSyYQzy3mW1IJlpO/Yrz4GftrQ6qgAAAAAAAAAAAA7neCL9jDF/nFF/wArAHN0CvIc4u7QK4HS9w1fskaJfma4+eRQHXwAAAAAAAAAAAAAAAAAAAAAAAAAAAAAAAcmsGf1hRvjZ78i5A9C1hev2knjaL+WaAz4AAAAAAAAAAAAAAAAAA+ivAU9ihVh+akt+SA9+gfw+cuYh024iHTD108ZVlthtlGmWmV50VF50A4iVxcHzgw1yK+jo+gjqj02fWqswkKpCNK13Fadoiu15eVfSoq9IHCutLgcqwZUr2MqkrEls+cp9bg5o7WEiFXox0td2dy1VA4q0/wLcJ2rZX7dI6oJ83DOFVlYqBcLFOWvxWndtvUB6emUnm8mfrCziVRkC+TndxLhp011NIigeIAAAf25cvoh6y4h3Tb142tjLDDKtNNL0Iic4Hs+rzBbwhK1IlmGoPVHSWPRVRFetQLbl0yi/ZK22iJZ30A5v1C8DHTSbxENOMICmMNJIBLG25TKG0fxTafatPV9IxandS1UXuAdilU1TNWlR9GHdEasaKQclgGUZV6rpm19Etonq3zxfTPGuVeVV5LeRETkA2oFeQ5xd2gVwPFms0l0jlkVOZvGuoSBgXLcRExD1rFYdO2UtaaaXuIiIqgfPVh0YSz/AAlq7I2eS582lGJEjUskTpeRFcMtLjPlT7Z41a1+DFTuIBx2AAAAAAAAAAAHY7wcmH4xQ9ZfUDXTN7JG20jij06iG/7i0q+lhnzS/wCUq+paX1PN6mywO3KjzbDxh88dtstMNIw0y0ytqKi22Ki91ALIADIgcUMKXg7KnsIhYqk8mdMUQpm9tbWZQTpOIi29IcpYiqq87bNjXKqrjKB1W174EuEFg/xT57SmhkTMZMw0qO5zKmGoiFaZ5bFaVlLXa2JbY0iWAehgAAAAAAAAHs2qDBqrsr0mLuBq3oDMpi6bVMaObdK6hHaL9k0+asZs/AqgdnmCjwSlX1DYhxS6vuYOqXTeGxHruTuEVmXuW+VU4xfVPrLObkZtTuoB2Ly+XwEpgXEslcE4g4OFdsunEO4do7dumESxGWWU5ERE7iAeQBkQAHCDD64QKCqNkkyqjqmmjqIp5MnfExkY5aRpmTu1RUVbfuyovIn2POoHTTFxcVHxT6OjYh4/iIh409evXjStNNttLarSqvKqqq84H5AAAAAAAAAAAAB3O8EX7GGL/OKL/lYA5ugV5DnF3aBXA69OEQwB64MKmt2R05q+mUjh4CW0fdSt6zHP1YbV6zEP3iqiInNY8Z/aBxK7EHhHe6Civ601/wCoDsQeEd7oKK/rTX/qB+8NwO+ErF43Ez+ii4lltsW0mzvAfv2GvCc9vaJfrjXmAdhrwnPb2iX6415gPB7EHhHe6Civ601/6gOxB4R3ugor+tNf+oH7w3A74SsXjcTP6KLiWW2xbSbO8B+/Ya8Jz29ol+uNeYB2GvCc9vaJfrjXmA8HsQeEd7oKK/rTX/qBja4uDVrvqUq1nlaFKJzR59K5C6dvohiGiGmnjSNvWHaYqKnS2gHEkAAAAAAAAAAAAAAAAA5NYM/rCjfGz35FyB6FrC9ftJPG0X8s0BnwAAAAAAAAAAAAAAAAAB9EmCH7EWpr80oD5JgD2sAA1wACRPVs9Dqn/VsAxk5oJQikTLxmfUQksx41LG1iYF08Vr4VZtA9dzXA+wXp2+aiJrUXRCIeNc7Sy9lF/ZYB+68H1gcq3j//AANRvnts4pqzqtApS/AYwRJW0jyEwfqHo2zzNtwKNr+1QNW4qZqkoc6h3NGKtaNS1nl+sSxyi8llnLi2gW2GGHTDLp2wywwwljLLKWIidCIB/oGuAASJ9m97YBHaaZYZVptpGWWUtVVWxETpA6pOEhw9YamLMbUBU1N0eSZ08V1SCcQzfpY1plf7s6aTndovqmk9UqWJyAdcIAAAAAAAAAAAAAOw3AU4SeOq7cS2p2vqYv42i7pUcyqePFV4+liLYiO3vdbc9C87PfQDtjlU2lc9lsNOZLMYaPgIx0y+h4mGesvHT120lqNMtM2oqKndQDygNcAAiUlcOYly6h4lyw9dPUbZbdtso0y0i2WoqLyKgHGetnAIwX633j2OnlXELK5k9taWPkzSwb1W1+yaRixluzoVLAOKVOuBilT142/q2rmioVjlVmHnMvZfKq/a47pWLE76sqB6hpHwOeFdKW22pPH0MnLlFsZVzM3jp4qd9lt0iJ+koGLi+Cvw04Ztpl3VrBxCJ9k6nELYv4MZtAP4dcFvhlK2wxF1ewEIjfM0+nEPZqtKBq5FwRGE/MlYbm02oZKnSrY0jcxevXjN1l1Yv6QHuOhXAwQ7Lbt9WJXU9eu15W3EnlqO2me9xj1ppF/RQDl3VTwZeCVVY8cxqUCWkswdWL6Knr9YlMZOZpHa2MMr+BAOUMqlEqkcC7lkllsLAQjlLHbiGcsunbKd5llERAPDn2b3tgEgABq379zDOW4iIesOnTplW2222kZZZZTlVVVeREQDrNw6+FOllG3Mxqlwapo6jpu2jUNMaUulRpxCdxpiFXmbb7nGepT7G3kUDqUmEwj5tHP5nNIx9FxcU8aev375tW3jxtVtVpppeVVVe6B44AAAAAAAAAAAAAO7bgbfYtzD85Ir+VgDnkBIn2b3tgEgABrgAEifZve2ASAAGuAASJ9m97YBIAAa4DjXwj/sJ60PyGE+fQ4Hz1gAAAAAAAAAAAAAAAAHJrBn9YUb42e/IuQPQtYXr9pJ42i/lmgM+AAAAAAAAAAAAAAAAAAPofwO4uFi8EWp5YWJdPuKorBOnnFto1iNsumEVlbOZU7qAe2wAGuAASJ9m97YBIAAa4ABIn2b3tgEgABrgAGGrarCoTVjRxaWU+pNASOVQjLbbyIjHyMM8lnpWbeVppeZES1VUDqAw0OEvpDXC4jqtak2oyQUOfYzmMmTVruNmjHMrKWcrlyvR6ppOexLWVDgeq28qgAAAAAAAAAAAAAAAOSuCfh2Vq4L8c7k7l61SKhb16jcVIot6tju1fTNwzxbVdNc/Jysr3Ut5UDuIqAwqKm8JGSMzKrukztqPYYRqLk8UqOo2FXoadqvpk/6mbWV7igciwAEifZve2ASAAGuAASJ9m97YBIAAa4ABIn2b3tgEgD1HXxhU1KYOkpbjqxaXQ7qPVhWoeUQrSPo6IXoZdItqJbyYzViJ3VA6ocLjhJ63sJP0VRSjrT2htBniqwsshHy+iI1i3kWJepZjIv3NmxnpxucDh+AAAAAAAAAAAAAAAA7tuBt9i3MPzkiv5WAOeQEifZve2ASAAGuAASJ9m97YBIAAa4ABIn2b3tgEgABrgONfCP+wnrQ/IYT59DgfPWAAAAAAAAAAAAAAAAAcmsGf1hRvjZ78i5A9C1hev2knjaL+WaAz4AAAAAAAAAAAAAAAAAA9s1GYUtduDtMPRVWlMoiFgm2sZ/K4n+2gn/4zprkRe+zYvfA7DqmOGEq/nTDiW13UKj6PxXIy3MJR/vUM0vIlqu2lRtm3nXlVEA5pVb4R2DrWy4YfUFrpo5GvHliJDvYlmHf4y/Y8W9VlpV/Aige10n6KiKkJai/9e4D/cvaHr7gHbvwPE3sa3q6AGQdM1N4DIOmam8Bl7Q9fcAy9oevuAdu/A8TexreroAZB0zU3gMg6ZqbwMRWNhFVS1SQbyNrHprJJCy7ZRtXUVGs8eqL3WXSIrxpPwMgcF6++GaonKnETJagKGvZvG2KwzN5siuodhrmxmHKembsXlS1URQOtCubCBrcr+pA1SOtOmcdOH2MrTmHabxYaGTodOk9Kync5rbO6B68AAAAAAAAAAAAAAAAAAFGj1JKQUSnEPSCi86jZTMoRrHcRcG/adPXa95plUX4O6B2B4OvDD1mUJdwtHa9pAxTKWO0R3lWGVHEwYZ5rW0sxHvSq2IvIB2JVP4c2DpXdDuloZTyXOo95ZbLJk/SEi2VXmTEb5GlXoZVQPdfbvwPE3sa3q6AGQdM1N4DIOmam8Bl7Q9fcAy9oevuAdu/A8TexreroAZB0zU3gMg6ZqbwGXtD19wHgTqnsio3BNTOkUdASuDY9VERsYw4dM/habsROsDi1XVwnOC3V06eQ0FSh7Syaw+MiQcjY41hW/tW3zWKwzzc6YyAcAK8+Fbr0rGYiZNVtDw9BZQ9tZR7Drx0e2x33rXIwtiqi4qdQHC2cTqcUhmT+cz6aRcxj4prHfxUW+aevXjXS000qqvwgeGAAAAAAAAAAAAAAAAAd1PA+TH0FgvRrPEcZjUji19VZZ6VjvAc6MvaHr7gHbvwPE3sa3q6AGQdM1N4DIOmam8Bl7Q9fcAy9oevuAdu/A8TexreroAZB0zU3gMg6ZqbwGXtD19wDL2h6+4B278DxN7Gt6ugBkHTNTeAyDpmpvAZe0PX3AccOEVm/onAvrOcehsXGgYTlxrbP9+h+8B8/oAAAAAAAAAAAAAAAAByawZ/WFG+NnvyLkD0LWF6/aSeNov5ZoDPgAAAAAAAAAAAAAAAAAAAA/ty/fQ7xH0O+bdNs8zTDSsqnwoB7KoHhNV/1ZIy7oRW3SaWOGVtWHdx7xpy1+M7aVWV+FAOQFDOFiwrKNKwzPY2jlKHTCIyjMxlbLtbO+1Dq7VV76qoHvChXDYzWXf2dMaiYSLV5ZjvZbOWnGLZ3UYeO27efmxgPbck4a2oCJxUn9WlOIBV5/QzELEInW9YX9gGuheGFwRoizjUplDW/dJQytn6LxQI7/hZME10n9nGUoffiShU/i0gEmN4X3BghU/3eQU8i1s5OKlsOnL38eIQDKTHhq6uZSy/+pepWkEzabsxfR0ycwiclvPiMvekD1XTLhrq6Zky8c0IquopJGG+Rl5GNv4x6x30XGYYVfwsqBx0rF4Q3C8rMYew84rhmkuhXqKy1DSdliAdqyv2K8SjKtJ+FVA49zKbTScxLUbN5jExr9tVVp7EPWnjSqvPyqoHigAAAAAAAAAAAAAAAAAAAAAAP6dPXrh4y+cPG3bxhbWWmFVFRe8qAe6qrcNHCcqcZcuKD1vTxxBOPUQMW99Fwqf/AInqNM/sA5SUE4aavWSsMQ9PKvqLUkds2Yz5wj2Cft9Nqsq076mAPeFGuG4qsimGPquqZpNLW19Xk+OcRiJ+DHR1aBpZbwt2CrHWeiXNMYC374lTC2fFvWgPYVVvCF4MNbtM4CgVGKYRcPN5o2rqDYmEC8hnb55ZajCNtelxl5kRV5V5E5QOVUhzi7tArgAMiB1r8JrgbU5pC1H1/VaTKbzaHdu+Mn8hWIePeKYROWJh2LV9Kn2bCc3qk5LQOq1UVFsVAAAAAAAAAAAAAAAAAAAAAeyavcJCvSqiRtUaq6rPn0glbb5qIWFgotp27V41Za1YndWxANP/ALb2Fj7/ADS7yg2B/bvDkwt3NvFV/UxYxufFmLaW/tA/T/brwvf/ALB0z8pPPOA/268L3/7B0z8pPPOB+H+29hY+/wA0u8oNgP8Abewsff5pd5QbA/t3hyYW7m3iq/qYsY3PizFtLf2gfp/t14Xv/wBg6Z+UnnnAf7deF7/9g6Z+UnnnA/D/AG3sLH3+aXeUGwH+29hY+/zS7yg2B/bvDkwt3NvFV/UxYxufFmLaW/tA/T/brwvf/sHTPyk884D/AG68L3/7B0z8pPPOB+H+29hY+/zS7yg2BHpfhXYRdPqNxtEKZVv0km8mmTDLEXBRUa026fMstI0iNMrz2NMsr8AHqcAAAAAAAAAAAAAAAAA5NYM/rCjfGz35FyB6FrC9ftJPG0X8s0BnwAAAAAAAAAAAAAAAAAAAAAAAAAAAAAAAAAAAAAAAAAAAAAAAAAAAAAAAAAAAAAAAP0h4h/CRDuKhXzbl85bR47eMNKy0w0i2oqKnMqKB3ScGth5QddMpdVPVpzR26p5L3DLEFGPmkZyw5YReXvvmU9V9tz89oHYAAAyIBURpFZaRFRUsVFS1FQDq84QPg5n0PlWvaoKSY0KirEz6j0K75XKrarURDsp9jzq0wnNzpyciB1ktMtMNKw2yrLTK2KipYqKB/gAAAAAAAAAAAAAAAAAAAAAAAAAAAAAAAAAAAAAAAAAAAAAAAAAAAAAAAOTWDP6wo3xs9+RcgehawvX7STxtF/LNAZ8AAAAAAAAAAAAAAAAAAAAAAAAAAAAAAAAAAAAAAAAAAAAAAAAAAAAAAAAAAAAAAAAB5sknc3o1OIOfyCZREvmUvfMxELFQ7asPHLxlbWWmVTmW0DuwwCsOSUYSlHHdCKaxMPA1iyiHRX7q1GGJq5ZTliHKfbJ9mwnN6pOS2wOXoGuAAR6QMstMuGWkRUXGRUXmVOQDrWw6eDWhactR9buD/L3EJP7GoiaUeYRGHUwXnV5D9xh70s8jLXeXnDqgmUtmEnj4iVTaBfwcbCPGnMRDv3au3jp4ytjTLTK8qKi8iooHjgAAAAAAAAAAAAAAAAAAAAAAAAAAAAAAAAAAAAAAAAAAAAAAAAAAAAAByawZ/WFG+NnvyLkD0LWF6/aSeNov5ZoDPgAAAAAAAAAAAAAAAAAAAAAAAAAAAAAAAAAAAAAAAAAAAAAAAAAAAAAAAAAAAAAAAAAFWitKqRUIpFL6WUTnETK5vK37MTCRcM8Vh46eMraioqf/AMUDu2wHcOWjuE5Rt1RmlLyGldYcscp6NhEVGHcwYTk9EOE7/wBkx9ivNycwc3QAEifZve2ASAOMGFtgE1X4TsK9n8Oy7o1Th27xXE5hnSYsTYnIxFMJ9cTuI16pOlU5AOn2v7BbrnwbKQNySs6iURCuGml9CzNwivYKLZRbMZ29Tk6ORbFS3lRAPUwAAAAAAAAAAAAAAAAAAAAAAAAAAAAAAAAAAAAAAAAAAAAAAAAAAAAA5NYM/rCjfGz35FyB6FrC9ftJPG0X8s0BnwAAAAAAAAAAAAAAAAAAAAAAAAAAAAAAAAAAAAAAAAAAAAAAAAAAAAAAAAAAAAAAAAAABWonSykdBqRQFLKJTiJlc2lj5l/CxUO3itu20W1F76dKLyKB3d4CnCGUewkJE4oRTj0LLaxpe5RHrjHR27mjDKcr5wi/Zd1pjnTnTk5g5gZe0PX3AO3fgeJvY1vV0AMg6ZqbwGQdM1N4Emk8FRmmsliKOUuorAziWRbOK+hI12y9dNp+K0zz9C86dwDgpXlwS9SFO30ROKpplG0Ej3iK0zB2rFQCtdxEZa9Owz+BVA4aVgcFThW0RbfPaNSGXUxhHa2MNyqLZZfNp08U8xVTrA9EUjwYcIiiT5pxPqlaYw7TPPiSl8+ZS87ZaT9oGYaqurNYbR03V1SdlteZlZREIvViAefA1HV0TJ4y6gapaYvlaWxFZkcTZ14liAe0qFcH7haU4eumYKqSYS1w+WxImaPGIZ0n4bVxk6gPa9Y/Bf0yqbqEpTXFWLT6X+j5DCu3zqUy10r1lW2m0ZVG3rViKnfZQDhAAAAAAAAAAAAAAAAAAAAAAAAAAAAAAAAAAAAAAAAAAAAAAcmsGf1hRvjZ78i5A9C1hev2knjaL+WaAz4AAAAAAAAAAAAAAAAAAAAAAAAAAAAAAAAAAAAAAAAAAAAAAAAAAAAAAAAAAAAAAAAAAAAeZJpzNqOzWEnshmURL5hAvWX8NFQ7xXbx08ZW1GmWk5UVFA7dsBvhIpHWpDwVVtecyhpTTJnFcQE2eWO4abdxGW15nb/qZb7li8ih2HSBUVIhUW1FxdoFgABkQAFeQ5xd2gVlS3kUD8VgoJWsZYRyq9Ku0tAzDKIymKylidCAAOP/AAgDONga1nd6BdL/AN1AOgUAAAAAAAAAAAAAAAAAAAAAAAAAAAAAAAAAAAAAAAAAAAAA5NYM/rCjfGz35FyB6FrC9ftJPG0X8s0BnwAAAAAAAAAAAAAAAAAAAAAAAAAAAAAAAAAAAAAAAAAAAAAAAAAAAAAAAAAAAAAAAAAAAAAf6y00w0jTLSo0i2oqLyooHYbgT8KbSGqtmBq3r9WKn1GGUYh4Wds2vI6AYTkZZeW8r52nNb6pE6U5g7e6D09obWVRyFpbQSkkBPJTGsI25ioN8jxhUVLbFs5l7y8oF8DIgAK8hzi7tArgAMiAA9CYfLONga1o96XO1/7qAdAAAAAAAAAAAAAAAAAAAAAAAAAAAAAAAAAAAAAAAAAAAAAAByawZ/WFG+NnvyLkD0LWF6/aSeNov5ZoDPgAAAAAAAAAAAAAAAAAAAAAAAAAAAAAAAAAAAAAAAAAAAAAAAAAAAAAAAAAAAAAAAAAAAAAAAPZtSOEhXBg9zvLNWNLomXsPF/3iBeLxsJEp0NumvSr+Hn5EA7MKguFuqspi6hpJXfJ31Dps1Y7amMKw1ES94v2zSJa8ddTSWr3EA7C6GVgUHrFlLE9oHS6UUggG0SyIl0Yw/ZRV7jWKq4q95bFA0AEifZve2ASAAGuAAcaOEWZxsEKsTvShtf+47A+e4AAAAAAAAAAAAAAAAAAAAAAAAAAAAAAAAAAAAAAAAAAAAA5NYM/rCjfGz35FyB6FrC9ftJPG0X8s0BnwAAAAAAAAAAAAAAAAAAAAAAAAAAAAAAAAAAAAAAAAAAAAAAAAAAAAAAAAAAAAAAAAAAAAAAAAABoKGVh07q7mjE6oHTGc0fj3fqYiWxryHbTvWsKnJ3gOVlW/Cy4XFA3TqEnU9k1MYV1YzizuARXuL0ca5V20q99rGX8IHv+Q8Ng5j2XDqnVRbxyrr1b+VTdG8ZVs5nbx2zZzfbqBu4DhjMHeIYT0dQWnkI3Z6ZFhYVtm3vKj+39gHnPuF/wZ3bNrujtN3q9DMA5T+L5AP4nHDZVEuGFSRVV04jG9JSEcMr8KPW1/YB6uphw3tJX7LbqgdRcvhF+wfzWbNv7fwu3bDH84HFqvbhFMJnCAkMdRClVIpZLKOzJji4mVymXsOnbxi1FxVbbx3qpyJyY9gHGQAAAAAAAAAAAAAAAAAAAAAAAAAAAAAAAAAAAAAAAAAAAAA5NYM/rCjfGz35FyB6FrC9ftJPG0X8s0BnwAAAAAAAAAAAAAAAAAAAAAAAAAAAAAAAAAAAAAAAAAAAAAAAAAAAAAAAAAAAAAAAAAAAAAAAAAAAAAAAAAAAAAAAAAAAAAAAAAAAAAAAAAAAAAAAAAAAAAAAAAAAAAAAADk1gz+sKN8bPfkXIHuKlXBG4S07pPN5zCUpq+ZcR8c/iXaPJlFo0jLbxWktRIZeWxekCV2HrCe91dXflOL+igeTCcDZhRxmPxVLKuExLLcaaRndt0XvAfhP+B3wn6OSKZUhjqV1dNw0rhH0a+ZdzOLVtWHbCttIyiwqIq2MrZyoBwXbZVhtphedlVRQP8A9i1B1FUwwi6xIerOg8bKoWaRMM+imHkyfNunCMO0RWkVphhtbeXk9KByrhOBswo4zH4qllXCYlluNNIzu26L3gPI7C9hU+66rbypGfRQHYXsKn3XVbeVIz6KBO7D1hPe6urvynF/RQHYesJ73V1d+U4v6KB5MJwNmFHGY/FUsq4TEstxppGd23Re8B5HYXsKn3XVbeVIz6KA7C9hU+66rbypGfRQJ3YesJ73V1d+U4v6KA7D1hPe6urvynF/RQPJhOBswo4zH4qllXCYlluNNIzu26L3gPI7C9hU+66rbypGfRQHYXsKn3XVbeVIz6KBO7D1hPe6urvynF/RQHYesJ73V1d+U4v6KB5MJwNmFHGY/FUsq4TEstxppGd23Re8B5HYXsKn3XVbeVIz6KA7C9hU+66rbypGfRQJ3YesJ73V1d+U4v6KA7D1hPe6urvynF/RQPJhOBswo4zH4qllXCYlluNNIzu26L3gPI7C9hU+66rbypGfRQHYXsKn3XVbeVIz6KBO7D1hPe6urvynF/RQHYesJ73V1d+U4v6KB5MJwNmFHGY/FUsq4TEstxppGd23Re8B5HYXsKn3XVbeVIz6KA7C9hU+66rbypGfRQJ3YesJ73V1d+U4v6KA7D1hPe6urvynF/RQPJhOBswo4zH4qllXCYlluNNIzu26L3gPI7C9hU+66rbypGfRQHYXsKn3XVbeVIz6KBO7D1hPe6urvynF/RQHYesJ73V1d+U4v6KB5MJwNmFHGY/FUsq4TEstxppGd23Re8B5HYXsKn3XVbeVIz6KA7C9hU+66rbypGfRQJ3YesJ73V1d+U4v6KA7D1hPe6urvynF/RQPJhOBswo4zH4qllXCYlluNNIzu26L3gPI7C9hU+66rbypGfRQHYXsKn3XVbeVIz6KBO7D1hPe6urvynF/RQHYesJ73V1d+U4v6KB5MJwNmFHGY/FUsq4TEstxppGd23Re8B5HYXsKn3XVbeVIz6KA7C9hU+66rbypGfRQJ3YesJ73V1d+U4v6KA7D1hPe6urvynF/RQPJhOBswo4zH4qllXCYlluNNIzu26L3gPI7C9hU+66rbypGfRQHYXsKn3XVbeVIz6KBO7D1hPe6urvynF/RQHYesJ73V1d+U4v6KB5MJwNmFHGY/FUsq4TEstxppGd23Re8B5HYXsKn3XVbeVIz6KA7C9hU+66rbypGfRQJ3YesJ73V1d+U4v6KA7D1hPe6urvynF/RQPJhOBswo4zH4qllXCYlluNNIzu26L3gPI7C9hU+66rbypGfRQHYXsKn3XVbeVIz6KBO7D1hPe6urvynF/RQHYesJ73V1d+U4v6KB5MJwNmFHGY/FUsq4TEstxppGd23Re8B5HYXsKn3XVbeVIz6KA7C9hU+66rbypGfRQJ3YesJ73V1d+U4v6KA7D1hPe6urvynF/RQPJhOBswo4zH4qllXCYlluNNIzu26L3gPI7C9hU+66rbypGfRQHYXsKn3XVbeVIz6KBO7D1hPe6urvynF/RQHYesJ73V1d+U4v6KB5MJwNmFHGY/FUsq4TEstxppGd23Re8B5HYXsKn3XVbeVIz6KA7C9hU+66rbypGfRQJ3YesJ73V1d+U4v6KA7D1hPe6urvynF/RQPJhOBswo4zH4qllXCYlluNNIzu26L3gPI7C9hU+66rbypGfRQHYXsKn3XVbeVIz6KBO7D1hPe6urvynF/RQHYesJ73V1d+U4v6KB5MJwNmFHGY/FUsq4TEstxppGd23Re8B5HYXsKn3XVbeVIz6KA7C9hU+66rbypGfRQJ3YesJ73V1d+U4v6KA7D1hPe6urvynF/RQPJhOBswo4zH4qllXCYlluNNIzu26L3gPI7C9hU+66rbypGfRQHYXsKn3XVbeVIz6KBO7D1hPe6urvynF/RQHYesJ73V1d+U4v6KB5MJwNmFHGY/FUsq4TEstxppGd23Re8B5HYXsKn3XVbeVIz6KA7C9hU+66rbypGfRQPV1e3BzV5YPdW8fWhTaf0OipTL3rly9dy6OiHj9WnraMM2MtuGGVS1eX0wHFgAByEwXMCGtrC3l89mVWs4oxBOqPPnTiKScRb5y0008ZVWcTi3Ly1LGVttsA96dhewqfddVt5UjPooE7sPWE97q6u/KcX9FAdh6wnvdXV35Ti/ooHuOp7g2a96A0YiJNOaQULeP3sc3EsrDx0S0ziq7dspyq4TltYXudAHZgAAryHOLu0CbWr/hfTDxBMPm7YHzBxH195+Ov8QP4A5f8FX7LqVeJ4/+VkDvSkOcXdoFcABkQAFeQ5xd2gVwAGRAAV5DnF3aBXAAZEABXkOcXdoFcABkQAFeQ5xd2gVwAGRAAV5DnF3aBXAAZEABXkOcXdoFcABkQAFeQ5xd2gVwAGRAAV5DnF3aBXAAZEABXkOcXdoFcABkQAFeQ5xd2gVwAGRAAV5DnF3aBXAAZEABXkOcXdoFcABkQAFeQ5xd2gVwAGRAAV5DnF3aBXAAZEABXkOcXdoFcABkQAFeQ5xd2gVwAGRAAV5DnF3aBXAAZEABXkOcXdoFcABkQAFeQ5xd2gVwAHCDhQ/Yd0o/Lpd85YA6NgAHbVwIHrTrQ8YwHyTYHZ8BkQAADXAAJE+ze9sAwVZ/+GtLfEcf83bA+a6I+vvPx1/iB/AHMjgmfZkSTxRMP5GQO8mfZve2ASAAGuAASJ9m97YBIAAa4ABIn2b3tgEgABrgAEifZve2ASAAGuAASJ9m97YBIAAa4ABIn2b3tgEgABrgAEifZve2ASAAGuAASJ9m97YBIAAa4ABIn2b3tgEgABrgAEifZve2ASAAGuAASJ9m97YBIAAa4ABIn2b3tgEgABrgAEifZve2ASAAGuAASJ9m97YBIAAa4ABIn2b3tgEgABrgAEifZve2ASAAGuAASJ9m97YBIAAa4ABIn2b3tgEgABrgAEifZve2ASAAGuAASJ9m97YBIAAcbuFc9hbSr8vlvzlgDoWAAdq/Au+s2svxnA/JNgdkYGuAAAAACRPs3vbAMFWf/hrS3xHH/N2wPmuiPr7z8df4gfwBzI4Jn2ZEk8UTD+RkDvJn2b3tgEgABrgAEifZve2ASAAGuAASJ9m97YBIAAa4ABIn2b3tgEgABrgAEifZve2ASAAGuAASJ9m97YBIAAa4ABIn2b3tgEgABrgAEifZve2ASAAGuAASJ9m97YBIAAa4ABIn2b3tgEgABrgAEifZve2ASAAGuAASJ9m97YBIAAa4ABIn2b3tgEgABrgAEifZve2ASAAGuAASJ9m97YBIAAa4ABIn2b3tgEgABrgAEifZve2ASAAGuAASJ9m97YBIAAa4ABIn2b3tgEgABrgAEifZve2ASAAHG7hXPYW0q/L5b85YA6FgAHavwLvrNrL8ZwPyTYHZGBrgAACRl7Q9fcAy9oevuAdu/A8TexreroAy9aUjxKsqXN+i7cWQx62Ymjt98D5mYj6+8/HX+IH8Acw+Cifeh8MCTvsXGxZRHrZbZb6VkDvO7d+B4m9jW9XQAyDpmpvAZB0zU3gMvaHr7gGXtD19wDt34Hib2Nb1dADIOmam8BkHTNTeAy9oevuAZe0PX3AO3fgeJvY1vV0AMg6ZqbwGQdM1N4DL2h6+4Bl7Q9fcA7d+B4m9jW9XQAyDpmpvAZB0zU3gMvaHr7gGXtD19wDt34Hib2Nb1dADIOmam8BkHTNTeAy9oevuAZe0PX3AO3fgeJvY1vV0AMg6ZqbwGQdM1N4DL2h6+4Bl7Q9fcA7d+B4m9jW9XQAyDpmpvAZB0zU3gMvaHr7gGXtD19wDt34Hib2Nb1dADIOmam8BkHTNTeAy9oevuAZe0PX3AO3fgeJvY1vV0AMg6ZqbwGQdM1N4DL2h6+4Bl7Q9fcA7d+B4m9jW9XQAyDpmpvAZB0zU3gMvaHr7gGXtD19wDt34Hib2Nb1dADIOmam8BkHTNTeAy9oevuAZe0PX3AO3fgeJvY1vV0AMg6ZqbwGQdM1N4DL2h6+4Bl7Q9fcA7d+B4m9jW9XQAyDpmpvAZB0zU3gMvaHr7gGXtD19wDt34Hib2Nb1dADIOmam8BkHTNTeAy9oevuAZe0PX3AO3fgeJvY1vV0AMg6ZqbwGQdM1N4DL2h6+4Bl7Q9fcA7d+B4m9jW9XQAyDpmpvAZB0zU3gMvaHr7gGXtD19wDt34Hib2Nb1dADIOmam8BkHTNTeAy9oevuAZe0PX3AO3fgeJvY1vV0AMg6ZqbwGQdM1N4DL2h6+4Bl7Q9fcA7d+B4m9jW9XQAyDpmpvAZB0zU3gMvaHr7gGXtD19wDt34Hib2Nb1dADIOmam8BkHTNTeBxH4U+a+i8DSlLn0NiWx0tW3GtzljvAdEwADtg4E+C9G0QrNY43ExZlALbZb/lNgdmOQdM1N4DL2h6+4Bl7Q9fcAy9oevuAkAAK8hzi7tAm1q/4X0w8QTD5u2B8wcR9fefjr/ED+AOX/BV+y6lXieP/lZA70pDnF3aBXAAZEABXkOcXdoFcABkQAFeQ5xd2gVwAGRAAV5DnF3aBXAAZEABXkOcXdoFcABkQAFeQ5xd2gVwAGRAAV5DnF3aBXAAZEABXkOcXdoFcABkQAFeQ5xd2gVwAGRAAV5DnF3aBXAAZEABXkOcXdoFcABkQAFeQ5xd2gVwAGRAAV5DnF3aBXAAZEABXkOcXdoFcABkQAFeQ5xd2gVwAGRAAV5DnF3aBXAAZEABXkOcXdoFcABkQAFeQ5xd2gVwAGRAAV5DnF3aBXAAZEABXkOcXdoFcABwg4UP2HdKPy6XfOWAOjYAB21cCB6060PGMB8k2B2fAZEAAAAAK8hzi7tAm1q/4X0w8QTD5u2B8wcR9fefjr/ED+AOX/BV+y6lXieP/lZA70pDnF3aBXAAZEABXkOcXdoFcABkQAFeQ5xd2gVwAGRAAV5DnF3aBXAAZEABXkOcXdoFcABkQAFeQ5xd2gVwAGRAAV5DnF3aBXAAZEABXkOcXdoFcABkQAFeQ5xd2gVwAGRAAV5DnF3aBXAAZEABXkOcXdoFcABkQAFeQ5xd2gVwAGRAAV5DnF3aBXAAZEABXkOcXdoFcABkQAFeQ5xd2gVwAGRAAV5DnF3aBXAAZEABXkOcXdoFcABkQAFeQ5xd2gVwAGRAAV5DnF3aBXAAZEABXkOcXdoFcABwg4UP2HdKPy6XfOWAOjYAB21cCB6060PGMB8k2B2fAZEAAA1wACRPs3vbAMFWf/hrS3xHH/N2wPmuiPr7z8df4gfwBzI4Jn2ZEk8UTD+RkDvJn2b3tgEgABrgAEifZve2ASAAGuAASJ9m97YBIAAa4ABIn2b3tgEgABrgAEifZve2ASAAGuAASJ9m97YBIAAa4ABIn2b3tgEgABrgAEifZve2ASAAGuAASJ9m97YBIAAa4ABIn2b3tgEgABrgAEifZve2ASAAGuAASJ9m97YBIAAa4ABIn2b3tgEgABrgAEifZve2ASAAGuAASJ9m97YBIAAa4ABIn2b3tgEgABrgAEifZve2ASAAGuAASJ9m97YBIAAa4ABIn2b3tgEgABrgAEifZve2ASAAHG7hXPYW0q/L5b85YA6FgAHavwLvrNrL8ZwPyTYHZGBrgAAAAAkT7N72wDBVn/4a0t8Rx/zdsD5roj6+8/HX+IH8AcyOCZ9mRJPFEw/kZA7yZ9m97YBIAAa4ABIn2b3tgEgABrgAEifZve2ASAAGuAASJ9m97YBIAAa4ABIn2b3tgEgABrgAEifZve2ASAAGuAASJ9m97YBIAAa4ABIn2b3tgEgABrgAEifZve2ASAAGuAASJ9m97YBIAAa4ABIn2b3tgEgABrgAEifZve2ASAAGuAASJ9m97YBIAAa4ABIn2b3tgEgABrgAEifZve2ASAAGuAASJ9m97YBIAAa4ABIn2b3tgEgABrgAEifZve2ASAAGuAASJ9m97YBIAAa4ABIn2b3tgEgABxu4Vz2FtKvy+W/OWAOhYAB2r8C76zay/GcD8k2B2Rga4AAAkZe0PX3AMvaHr7gHbvwPE3sa3q6AMvWlI8SrKlzfou3FkMetmJo7ffA+ZmI+vvPx1/iB/AHMPgon3ofDAk77FxsWUR62W2W+lZA7zu3fgeJvY1vV0AMg6ZqbwGQdM1N4DL2h6+4Bl7Q9fcA7d+B4m9jW9XQAyDpmpvAZB0zU3gMvaHr7gGXtD19wDt34Hib2Nb1dADIOmam8BkHTNTeAy9oevuAZe0PX3AO3fgeJvY1vV0AMg6ZqbwGQdM1N4DL2h6+4Bl7Q9fcA7d+B4m9jW9XQAyDpmpvAZB0zU3gMvaHr7gGXtD19wDt34Hib2Nb1dADIOmam8BkHTNTeAy9oevuAZe0PX3AO3fgeJvY1vV0AMg6ZqbwGQdM1N4DL2h6+4Bl7Q9fcA7d+B4m9jW9XQAyDpmpvAZB0zU3gMvaHr7gGXtD19wDt34Hib2Nb1dADIOmam8BkHTNTeAy9oevuAZe0PX3AO3fgeJvY1vV0AMg6ZqbwGQdM1N4DL2h6+4Bl7Q9fcA7d+B4m9jW9XQAyDpmpvAZB0zU3gMvaHr7gGXtD19wDt34Hib2Nb1dADIOmam8BkHTNTeAy9oevuAZe0PX3AO3fgeJvY1vV0AMg6ZqbwGQdM1N4DL2h6+4Bl7Q9fcA7d+B4m9jW9XQAyDpmpvAZB0zU3gMvaHr7gGXtD19wDt34Hib2Nb1dADIOmam8BkHTNTeAy9oevuAZe0PX3AO3fgeJvY1vV0AMg6ZqbwGQdM1N4DL2h6+4Bl7Q9fcA7d+B4m9jW9XQAyDpmpvAZB0zU3gMvaHr7gGXtD19wDt34Hib2Nb1dADIOmam8BkHTNTeAy9oevuAZe0PX3AO3fgeJvY1vV0AMg6ZqbwGQdM1N4DL2h6+4Bl7Q9fcA7d+B4m9jW9XQAyDpmpvAZB0zU3gcR+FPmvovA0pS59DYlsdLVtxrc5Y7wHRMAA7YOBPgvRtEKzWONxMWZQC22W/5TYHZjkHTNTeAy9oevuAZe0PX3AMvaHr7gJAACvIc4u7QJtav+F9MPEEw+btgfMHEfX3n46/xA/gDl/wVfsupV4nj/5WQO9KQ5xd2gVwAGRAAV5DnF3aBXAAZEABXkOcXdoFcABkQAFeQ5xd2gVwAGRAAV5DnF3aBXAAZEABXkOcXdoFcABkQAFeQ5xd2gVwAGRAAV5DnF3aBXAAZEABXkOcXdoFcABkQAFeQ5xd2gVwAGRAAV5DnF3aBXAAZEABXkOcXdoFcABkQAFeQ5xd2gVwAGRAAV5DnF3aBXAAZEABXkOcXdoFcABkQAFeQ5xd2gVwAGRAAV5DnF3aBXAAZEABXkOcXdoFcABkQAFeQ5xd2gVwAGRAAV5DnF3aBXAAcIOFD9h3Sj8ul3zlgDo2AAdtXAgetOtDxjAfJNgdnwGRAAAAACvIc4u7QJtav+F9MPEEw+btgfMHEfX3n46/xA/gDl/wVfsupV4nj/5WQO9KQ5xd2gVwAGRAAV5DnF3aBXAAZEABXkOcXdoFcABkQAFeQ5xd2gVwAGRAAV5DnF3aBXAAZEABXkOcXdoFcABkQAFeQ5xd2gVwAGRAAV5DnF3aBXAAZEABXkOcXdoFcABkQAFeQ5xd2gVwAGRAAV5DnF3aBXAAZEABXkOcXdoFcABkQAFeQ5xd2gVwAGRAAV5DnF3aBXAAZEABXkOcXdoFcABkQAFeQ5xd2gVwAGRAAV5DnF3aBXAAZEABXkOcXdoFcABkQAFeQ5xd2gVwAGRAAV5DnF3aBXAAcIOFD9h3Sj8ul3zlgDo2AAdtXAgetOtDxjAfJNgdnwGRAAANcAAkT7N72wDBVn/4a0t8Rx/zdsD5roj6+8/HX+IH8AcyOCZ9mRJPFEw/kZA7yZ9m97YBIAAa4ABIn2b3tgEgABrgAEifZve2ASAAGuAASJ9m97YBIAAa4ABIn2b3tgEgABrgAEifZve2ASAAGuAASJ9m97YBIAAa4ABIn2b3tgEgABrgAEifZve2ASAAGuAASJ9m97YBIAAa4ABIn2b3tgEgABrgAEifZve2ASAAGuAASJ9m97YBIAAa4ABIn2b3tgEgABrgAEifZve2ASAAGuAASJ9m97YBIAAa4ABIn2b3tgEgABrgAEifZve2ASAAGuAASJ9m97YBIAAa4ABIn2b3tgEgABxu4Vz2FtKvy+W/OWAOhYAB2r8C76zay/GcD8k2B2Rga4AAAAAJE+ze9sAw1Y7vjqvKUObLceSxrPW4bA+a2OY4qNiHf2j1tnqVQPxA5gcFHEsw+GTR1GmkTjpdHOk76q7RdgHejPs3vbAJAADXAAJE+ze9sAkAANcAAkT7N72wCQAA1wACRPs3vbAJAADXAAJE+ze9sAkAANcAAkT7N72wCQAA1wACRPs3vbAJAADXAAJE+ze9sAkAANcAAkT7N72wCQAA1wACRPs3vbAJAADXAAJE+ze9sAkAANcAAkT7N72wCQAA1wACRPs3vbAJAADXAAJE+ze9sAkAANcAAkT7N72wCQAA1wACRPs3vbAJAADXAAJE+ze9sAkAANcAAkT7N72wCQAA1wACRPs3vbAJAADXAAJE+ze9sAkAAOM/CzRCOMC2kjOMiNPZpK2ETp/3lm39iKB0OgAO13gXXH/IFZkT/wD1iAY/7DxQOx0DXAAAEjL2h6+4Bl7Q9fcA7d+B4m9jW9XQB4U6orlGTx8v9FY3oqGeubMTnxmFSzn74HzJ0zg1l9MJ7ANM4qw0yiXKp0Yr1pNgEcDkdwd9ImKNYYtXEY9aRHURHvYVtVWzkbcPET9tgH0B9u/A8TexreroAZB0zU3gMg6ZqbwGXtD19wDL2h6+4B278DxN7Gt6ugBkHTNTeAyDpmpvAZe0PX3AMvaHr7gHbvwPE3sa3q6AGQdM1N4DIOmam8Bl7Q9fcAy9oevuAdu/A8TexreroAZB0zU3gMg6ZqbwGXtD19wDL2h6+4B278DxN7Gt6ugBkHTNTeAyDpmpvAZe0PX3AMvaHr7gHbvwPE3sa3q6AGQdM1N4DIOmam8Bl7Q9fcAy9oevuAdu/A8TexreroAZB0zU3gMg6ZqbwGXtD19wDL2h6+4B278DxN7Gt6ugBkHTNTeAyDpmpvAZe0PX3AMvaHr7gHbvwPE3sa3q6AGQdM1N4DIOmam8Bl7Q9fcAy9oevuAdu/A8TexreroAZB0zU3gMg6ZqbwGXtD19wDL2h6+4B278DxN7Gt6ugBkHTNTeAyDpmpvAZe0PX3AMvaHr7gHbvwPE3sa3q6AGQdM1N4DIOmam8Bl7Q9fcAy9oevuAdu/A8TexreroAZB0zU3gMg6ZqbwGXtD19wDL2h6+4B278DxN7Gt6ugBkHTNTeAyDpmpvAZe0PX3AMvaHr7gHbvwPE3sa3q6AGQdM1N4DIOmam8Bl7Q9fcAy9oevuAdu/A8TexreroAZB0zU3gMg6ZqbwGXtD19wDL2h6+4B278DxN7Gt6ugBkHTNTeAyDpmpvAZe0PX3AMvaHr7gHbvwPE3sa3q6AGQdM1N4DIOmam8Bl7Q9fcAy9oevuAdu/A8TexreroAZB0zU3gMg6ZqbwGXtD19wDL2h6+4B278DxN7Gt6ugBkHTNTeAyDpmpvA4J8MNTFhxgyS6RtOldrOKRQztn01tvFsNvOj/AKQOloAB3EcDJRRpajqXz1W1dMx8/Zdo1i243FOrOnuYwHYTkHTNTeAy9oevuAZe0PX3AMvaHr7gJAACvIc4u7QK4HzaYXNEWqDYTFZFGFd4jEJSCL4vksRphptWkVO8toHqIDX1P0r+oWtah9MVfcU7k87got63bZY6YfMq862cZAPpcotEu4yEajHXqH7t29Z/A0iqn8QLoADIgAK8hzi7tArgAMiAAryHOLu0CuAAyIACvIc4u7QK4ADIgAK8hzi7tArgAMiAAryHOLu0CuAAyIACvIc4u7QK4ADIgAK8hzi7tArgAMiAAryHOLu0CuAAyIACvIc4u7QK4ADIgAK8hzi7tArgAMiAAryHOLu0CuAAyIACvIc4u7QK4ADIgAK8hzi7tArgAMiAAryHOLu0CuAAyIACvIc4u7QK4ADIgAK8hzi7tArgAMiAAryHOLu0CuAAyIACvIc4u7QK4ADIgAK8hzi7tArgAOpDhnqastPquavHESjViRk3iHSL6hUxXTtV/CjTzqA6xgAHfRwU1EntF8DijsS9d4qz6PjZqytnKrLTaO0+SUDmABkQAAAAAryHOLu0CuB0a8LzV81RHCreUlducSGpbKIaYMWJyK2wiuni/hVphV+EDhCAA+iXARrMYrawZaFUuafq9i0lbqAjmlW1ViYfGcvV71rTCqneVAOQYADIgAK8hzi7tArgAMiAAryHOLu0CuAAyIACvIc4u7QK4ADIgAK8hzi7tArgAMiAAryHOLu0CuAAyIACvIc4u7QK4ADIgAK8hzi7tArgAMiAAryHOLu0CuAAyIACvIc4u7QK4ADIgAK8hzi7tArgAMiAAryHOLu0CuAAyIACvIc4u7QK4ADIgAK8hzi7tArgAMiAAryHOLu0CuAAyIACvIc4u7QK4ADIgAK8hzi7tArgAMiAAryHOLu0CuAAyIACvIc4u7QK4ADIgAK8hzi7tArgAPn54Sesx3WThY0nZhH6PYKjDtzR+HaTmVXKK095OlHrx4zdQDi6B+kNDvIuJdQrlLXj5tl2wnSqrYgH0wYO1BWatKiqCUGR0rpuUyKEdPmFSzFfNO0bep+m00B7EAyIAABrgAEifZve2ASAOv7hhKrmqQVQUarRgYbGf0XmawcW0yza16GiWeRppftWW2ET8LwDqGAAdoPA41zMq4pdURNIyxpltKQylhpedFxXUSylvQqOWrE6W1A7OQAGuAASJ9m97YBIAAa4ABIn2b3tgEgABrgAEifZve2ASAAGuAASJ9m97YBIAAa4ABIn2b3tgEgABrgAEifZve2ASAAGuAASJ9m97YBIAAa4ABIn2b3tgEgABrgAEifZve2ASAAGuAASJ9m97YBIAAa4ABIn2b3tgEgABrgAEifZve2ASAAGuAASJ9m97YBIAAa4ABIn2b3tgEgABrgAEifZve2ASAAGuAASJ9m97YBIAAa4ABIn2b3tgEgABrgAEifZve2ASAAGuAASJ9m97YBIAw9d9ZsrqbqlpVWZN22UcyGWvYlhlpbONf2Yrl3+Ft40wyn4wHzlTucTCkM5j5/NolqIjplEvYuJfNr6Z49eNK020vfVVVQPCA92YF9VzVb+EvQah7yF4+CSZMR8eyqcnoWH/tXtq9y1lhUTvqgH0H8/KoH+Aa4AAAAAJE+ze9sAkAYavOrSCrjqgpbVlHIxi0glb6GdNN+pdxFmM5eL3mXrLDXwAfOXPJNMaOTqPo/N4VuGjpbEvYSJcvEsadvXbSstMqnSioqAeEB7Hwdq4JrUPXNRetCVtN/8IjWVi3TK2cfCN+kful/GdtNJ3lsXuAfRFRykEopZIJdSeQRrEXLZtCuoyEfsL6V46eMo0y0n4UVAKIGuAASJ9m97YBIAAa4ABIn2b3tgEgABrgAEifZve2ASAAGuAASJ9m97YBIAAa4ABIn2b3tgEgABrgAEifZve2ASAAGuAASJ9m97YBIAAa4ABIn2b3tgEgABrgAEifZve2ASAAGuAASJ9m97YBIAAa4ABIn2b3tgEgABrgAEifZve2ASAAGuAASJ9m97YBIAAa4ABIn2b3tgEgABrgAEifZve2ASAAGuAASJ9m97YBIAAa4ABIn2b3tgEgABrgAEifZve2ASAAGuAASJ9m97YBIA6yuGAwgGHUJIsHWQRv8AaPGmJ1P0Ya5mbF9DOWrPwtPFRfBr3AOroAB2h8DjUw8dOKXV8TSEVGXypR6UttM86IrL2JbS3/8ACyip/wBaAdm4ADXAAAEjL2h6+4Bl7Q9fcA7d+B4m9jW9XQAyDpmpvAZB0zU3gdJnCuVD/wDxxXz/APKUjlzTmRVgstRjzFT0jqZMWI/Zt/60xXnfVpvoA4QgAO2ngjsJZxSyjkRg3UvmzLqZyRluMo829W1X8Iq2vHCWryqw0qtInQ0vQgHZRkHTNTeAy9oevuAZe0PX3AO3fgeJvY1vV0AMg6ZqbwGQdM1N4DL2h6+4Bl7Q9fcA7d+B4m9jW9XQAyDpmpvAZB0zU3gMvaHr7gGXtD19wDt34Hib2Nb1dADIOmam8BkHTNTeAy9oevuAZe0PX3AO3fgeJvY1vV0AMg6ZqbwGQdM1N4DL2h6+4Bl7Q9fcA7d+B4m9jW9XQAyDpmpvAZB0zU3gMvaHr7gGXtD19wDt34Hib2Nb1dADIOmam8BkHTNTeAy9oevuAZe0PX3AO3fgeJvY1vV0AMg6ZqbwGQdM1N4DL2h6+4Bl7Q9fcA7d+B4m9jW9XQAyDpmpvAZB0zU3gMvaHr7gGXtD19wDt34Hib2Nb1dADIOmam8BkHTNTeAy9oevuAZe0PX3AO3fgeJvY1vV0AMg6ZqbwGQdM1N4DL2h6+4Bl7Q9fcA7d+B4m9jW9XQAyDpmpvAZB0zU3gMvaHr7gGXtD19wDt34Hib2Nb1dADIOmam8BkHTNTeAy9oevuAZe0PX3AO3fgeJvY1vV0AMg6ZqbwGQdM1N4DL2h6+4Bl7Q9fcA7d+B4m9jW9XQAyDpmpvAZB0zU3gMvaHr7gGXtD19wDt34Hib2Nb1dADIOmam8BkHTNTeAy9oevuAZe0PX3AO3fgeJvY1vV0AMg6ZqbwGQdM1N4DL2h6+4Bl7Q9fcA7d+B4m9jW9XQAyDpmpvAZB0zU3gMvaHr7gGXtD19wDt34Hib2Nb1dADIOmam8BkHTNTeAy9oevuAZe0PX3AO3fgeJvY1vV0AYSvCsKi1Q9V8+rRpdM2WYKTQzTxh0vpWol+qf2blnl9U01YnWvcA+dStWsikVbtYc+rHpVEq+mU+jXkW96GEVfSsMp3GWWbEROhAMoBRo5R+bUspBLaLyGDbiplNop1BQjhjnePXjSMss9aoB9G2DjU1Kam6laK1UyjFYSj8CyzFPkZ/vMU8VW371eb1TxWls7iWJ3APZWQdM1N4DIOmam8Bl7Q9fcAy9oevuAZe0PX3ASAAFeQ5xd2gVwAHGfC/wAH+Bwj6jp5QJXTtJu6Y9HyV+0nK5jXaKrHLzojXKwtncaUD5+pvKZlIZrGSScQbyEj5e/eQ0S4eJY26esNKy0yqdKKioB4gGhq9p7Saq+msnp/Q+YNwU4kcW7i4V6yqp6ZlbcVellUtRU7qKoH0RYKOEpRPChqkltYEgfOnUxZYZhpzL0bRW4KMREx2FTnxV9UyvdRUA24ACvIc4u7QK4ADIgAK8hzi7tArgAMiAAryHOLu0CuAAyIACvIc4u7QK4ADIgAK8hzi7tArgAMiAAryHOLu0CuAAyIACvIc4u7QK4ADIgAK8hzi7tArgAMiAAryHOLu0CuAAyIACvIc4u7QK4ADIgAK8hzi7tArgAMiAAryHOLu0CuAAyIACvIc4u7QK4ADIgAK8hzi7tArgAMiAAryHOLu0CuAAyIACvIc4u7QK4ADIgAK8hzi7tArgAMiAAryHOLu0CuAAyIACpJnrty6i3z54yw7dojTTTS2IyiY1qqvcQDpQ4TfDMTCBrC/wDjOgcyVugtEn7TCPXTXpJlGotjb7vsM+pZ6eVe6gHCAAB2HcEvg1PKVU1i8ISlEvtlNG1ag5IjxnkfRzSWNvU6UdsLYi8qWtr3UA7g5DnF3aBXAAZEAAAAAK8hzi7tArgAMiB1RcKzgnNUenaYSFB5c0stmzxlxSNy6Y5IeK5mIj8DfMv/AFInSB1xAAPeWCHhV0xwUK0HFMpHxkbJI3Fhp7KcexiMhredO4jxnlVlrptTmVQO9+rGsyhtb9CZZWBQOcOZlJ5q5R46eML6Zhr7J22nOy2yvIrK8qKgGpAryHOLu0CuAAyIACvIc4u7QK4ADIgAK8hzi7tArgAMiAAryHOLu0CuAAyIACvIc4u7QK4ADIgAK8hzi7tArgAMiAAryHOLu0CuAAyIACvIc4u7QK4ADIgAK8hzi7tArgAMiAAryHOLu0CuAAyIACvIc4u7QK4ADIgAK8hzi7tArgAMiAAryHOLu0CuAAyIACvIc4u7QK4ADIgAK8hzi7tArgAMiAAryHOLu0CuAAyIACvIc4u7QK4ADIgAK8hzi7tArgAMiB/vPyIB1tcJRh5sSKXzTBxqbnSNzCMRXFJ5vCvLUhnfLjQbppPs1tsbaT1KelTlVcUOqkABvKjanaU18VnSSrOiMO03FzV+jL19i2sQzhOV4+bXuMss2r1AfQjVPVjRipyrySVb0QhUcy2SQrEOwtiYz1tE9O8bXutNNWqqr0gexJDnF3aBXAAZEAAA1wACRPs3vbAJAADXARqZUPo7T+is0oXSyWuphJ5zCtwkZDPEtZeO2ksX8CpzovcVEUD578M7BRpPgpVrRNGY129iqNTNpuKo/M1Z9LEQ9v1tpeZHjFqMtJ+BeZUA9AAAORmBphoU8wSqaeiYBt5NKITR6zlqSNt+keJzcc6t9Q9ROZe6nIveDvgqXrtq6r9oPCU/q0n7qZS2JREeMItj6Ge2crp6xzsNJ0Lz86WgaWfZve2ASAAGuAASJ9m97YBIAAa4ABIn2b3tgEgABrgAEifZve2ASAAGuAASJ9m97YBIAAa4ABIn2b3tgEgABrgAEifZve2ASAAGuAASJ9m97YBIAAa4ABIn2b3tgEgABrgAEifZve2ASAAGuAASJ9m97YBIAAa4ABIn2b3tgEgABrgAEifZve2ASAAGuAASJ9m97YBIAAa4ABIn2b3tgEgABrgAEifZve2ASAAGuAASJ9m97YBIAAa4ABIn2b3tgEgABrWmmWGVbbaRlllLVVVsREA6yeEI4TOEo44mNSeDvOmIibvEbhZzSOHatYhEXkacwzSeqedxW05E7nLygdSL58+iXzcREPW3r160rbbbbSq000q2qqqvOqqB/AH7QMFGTKNcS6Xwr2Jiop4y5cuXTCtNvHjS2MssonKqqqoiIB3vcHNgXw+DJVz9VVMYJ01WBSlyw9j2lRFWXQ68rMKyvT3W1Tna5O5yhzEAkT7N72wCQAA1wAAAAASJ9m97YBIAAa4AB6bwpKgaEYR9Wz+rumsKmK+Rt7ARzDKcdARSImI+dr0pbYqcyoqovOB0BV+VCU/wdKwo2r6n0vV2+cqryDjHbK+h4+HVfSvnTS86L3U50W1F5UA9cAAPaeD3hKVrYM9MndL6s583D46spHS98qtwkc7RfUPXfMveaSxpO4qAdz2DPh/VQYUstgpW7indGaaOmF9EyGNfIivWrEVWoZtbEfMci8nI0ndTuqHIkABrgAEifZve2ASAAGuAASJ9m97YBIAAa4ABIn2b3tgEgABrgAEifZve2ASAAGuAASJ9m97YBIAAa4ABIn2b3tgEgABrgAEifZve2ASAAGuAASJ9m97YBIAAa4ABIn2b3tgEgABrgAEifZve2ASAAGuAASJ9m97YBIAAa4ABIn2b3tgEgABrgAEifZve2ASAAGuAASJ9m97YBIAAa4ABIn2b3tgEgABrgAEifZve2ASAAGuAASJ9m97YBIAzlP6xqD1WUZiqYVhUngZFJ4NLXsTFvMVLe4yynO20tnIyyiqq8yAdUOGpwo9Ma62I6rmpT0ZRihTxWnMTHKuJHzRjmW1U+sul+1T0ypzr9igcBmmmmmlaaVVVVtVV51UAB/rLLTbSMMMq000tiIiWqqgdsnBwYBTVB3EFX5XNJbKQv2EfUelEQxyy920nJEvWV5nzSL6VlfUItq+mWxkO0MABIn2b3tgEgABrgAACRl7Q9fcAy9oevuAdu/A8TexreroAZB0zU3gMg6ZqbwGXtD19wDL2h6+4B278DxN7Gt6ugD1HhK4JdXuE5QF9Q+mqI7jHCNPJVNXTpPREA/VPVMrbysryYzK8ip37FA6IcI3BprNwZKcvqGVhSlth22001L5k6ZVYaPcovI27a6elnnTugeqAAH6wkZFy+KdR0BFPYaJh20eOnzptWG3baLajTLScqKi91AOdeDXwrNZ9W7ENRmuiEfU3kTvFdsx6NoxM4djvtL6V9esa57VUDs9qPwnagMISDdPKuazIF/Htso03K4pPQ8a7VeSxXTaoq8vRaB7ky9oevuAZe0PX3AO3fgeJvY1vV0AMg6ZqbwGQdM1N4DL2h6+4Bl7Q9fcA7d+B4m9jW9XQAyDpmpvAZB0zU3gMvaHr7gGXtD19wDt34Hib2Nb1dADIOmam8BkHTNTeAy9oevuAZe0PX3AO3fgeJvY1vV0AMg6ZqbwGQdM1N4DL2h6+4Bl7Q9fcA7d+B4m9jW9XQAyDpmpvAZB0zU3gMvaHr7gGXtD19wDt34Hib2Nb1dADIOmam8BkHTNTeAy9oevuAZe0PX3AO3fgeJvY1vV0AMg6ZqbwGQdM1N4DL2h6+4Bl7Q9fcA7d+B4m9jW9XQAyDpmpvAZB0zU3gMvaHr7gGXtD19wDt34Hib2Nb1dADIOmam8BkHTNTeAy9oevuAZe0PX3AO3fgeJvY1vV0AMg6ZqbwGQdM1N4DL2h6+4Bl7Q9fcA7d+B4m9jW9XQAyDpmpvAZB0zU3gMvaHr7gGXtD19wDt34Hib2Nb1dADIOmam8BkHTNTeAy9oevuAZe0PX3AO3fgeJvY1vV0AMg6ZqbwGQdM1N4DL2h6+4Bl7Q9fcA7d+B4m9jW9XQAyDpmpvAZB0zU3gMvaHr7gGXtD19wDt34Hib2Nb1dADIOmam8BkHTNTeAy9oevuAZe0PX3AO3fgeJvY1vV0AMg6ZqbwGQdM1N4DL2h6+4Bl7Q9fcBHpTTCisilD2f0xpDL5BLoNlppuJjYhl27VLLV5WlS1eTmTlA4DYRfCz1XUHSKo9URAN01m7NrCTSIZacy1019sn2b7uLyWIvSgHWBXLX5WvX5SJqklaFLoubPmVX0PDY2JCwrK/YunSelYTmS3nWxLVUD18AA/WEhIqPinUFAwz2IiH7aO3Tp0wrTbbSrYjKInKqqvcA7aOD74MxaMsy+u3CBlrGWvSxMko8/YRtmD7rL+IZ5led1lj7HnXlsA7I8gonIkZqbwP9y9oevuAZe0PX3AO3fgeJvY1vV0AMg6ZqbwGQdM1N4DL2h6+4Bl7Q9fcAy9oevuAkAAK8hzi7tArgAMiAAryHOLu0CuBgq6ajqtq/wChMVQKs2jziZy5+iq6bVLH0K9ssR66b52Gk6U+EDpAwuuD9rNwbY2LpNInETSigWOrTuauHVr2CZXmZimGfU2c3GJ6Vf8AptRAOKYAAB+8DHx0ri3cfLI1/CRLlcZ2+cPFdvGF6UaZVFQDk5VDwkWFBVO7h5e3S5ilMqh0RlmCnjvj7GE5mUepY8ZT8CgcvqtuGSoDMHbqGrWqymspfIn9pFSd6zEu1XvOnistIl9QOTtXHCK4HtKWFZYrggpVEP0ZVIeaQr6GaZ5/VNqwrtOf7YD3ZJMICoqkbDLyQ1y0Jj0a5kcT6Faa+FlG7U+FANO4phRKKRGoWlEpfIvKiu4121/BQM7liUe2sH8ez5wGWJR7awfx7PnApyWfSN1x/GTmBYtxbMaIYS3n74FX6o6Pe3sv/WWPOA+qOj3t7L/1ljzgZfLEo9tYP49nzgMsSj21g/j2fOBTks+kbrj+MnMCxbi2Y0QwlvP3wKv1R0e9vZf+ssecB9UdHvb2X/rLHnAy+WJR7awfx7PnAZYlHtrB/Hs+cCnJZ9I3XH8ZOYFi3FsxohhLefvgVfqjo97ey/8AWWPOA+qOj3t7L/1ljzgZfLEo9tYP49nzgMsSj21g/j2fOBTks+kbrj+MnMCxbi2Y0QwlvP3wKv1R0e9vZf8ArLHnAfVHR729l/6yx5wMvliUe2sH8ez5wGWJR7awfx7PnApyWfSN1x/GTmBYtxbMaIYS3n74FX6o6Pe3sv8A1ljzgPqjo97ey/8AWWPOBl8sSj21g/j2fOAyxKPbWD+PZ84FOSz6RuuP4ycwLFuLZjRDCW8/fAq/VHR729l/6yx5wH1R0e9vZf8ArLHnAy+WJR7awfx7PnAZYlHtrB/Hs+cCnJZ9I3XH8ZOYFi3FsxohhLefvgVfqjo97ey/9ZY84D6o6Pe3sv8A1ljzgZfLEo9tYP49nzgMsSj21g/j2fOBTks+kbrj+MnMCxbi2Y0QwlvP3wKv1R0e9vZf+ssecB9UdHvb2X/rLHnAy+WJR7awfx7PnAZYlHtrB/Hs+cCnJZ9I3XH8ZOYFi3FsxohhLefvgVfqjo97ey/9ZY84D6o6Pe3sv/WWPOBl8sSj21g/j2fOAyxKPbWD+PZ84FOSz6RuuP4ycwLFuLZjRDCW8/fAq/VHR729l/6yx5wH1R0e9vZf+ssecDL5YlHtrB/Hs+cBliUe2sH8ez5wKcln0jdcfxk5gWLcWzGiGEt5++BV+qOj3t7L/wBZY84D6o6Pe3sv/WWPOBl8sSj21g/j2fOAyxKPbWD+PZ84FOSz6RuuP4ycwLFuLZjRDCW8/fAq/VHR729l/wCssecB9UdHvb2X/rLHnAy+WJR7awfx7PnAZYlHtrB/Hs+cCnJZ9I3XH8ZOYFi3FsxohhLefvgVfqjo97ey/wDWWPOA+qOj3t7L/wBZY84GXyxKPbWD+PZ84DLEo9tYP49nzgU5LPpG64/jJzAsW4tmNEMJbz98Cr9UdHvb2X/rLHnAfVHR729l/wCssecDL5YlHtrB/Hs+cBliUe2sH8ez5wKUnpBIYdmIaiJ3AO0XFsVuJYRO70qB/kxrSqyk7KtzesWjEEynKqxM3h3aJ+k2gHrqlWGvgn0NdtvJ5X3RFUd+qSCjkjl6odG1A40094WfBjosy9c0WdUhpZEsfW/QsIkPDt//AJHqo0n6AHFitbhgK4qSsvYGq2iEpojDN2ozExH++xSMryWWtIjtPwozbaBw0rHrlrTrcmLU0rHp3OJ8+aW1Ei4ppp2x0IyxbipZ3kAxgAABrKsaqawK46Vw1C6t6MRk6msSv1twx6V0xbyvHja+lYYTutNKifDYgHczgNcHJQTB+ZdU7rDZhKT0/dsstu3ysY0JLGlRbWXDLXqmk5uMVLehEA5xgAMiAAryHOLu0CuAAyIAAAAAV5DnF3aBXAAZEABXkOcXdoFcABjYmGho2HeQkZDu37h8yrDx08YRphtledFReRU7wHAjCj4KmglYryMpjUTFQtEJ88tevJQ2yqS2Kb51xLOWHaXoRFY7zPOB1c1sVI1pVIUge0arOobMJLFsLYw2+d2uXydxp29S1ltle4qKBhgAAAAA/ph48d/W3jTP4FsA/VI+OTmjH6fgeKB/uUZh9/RHxrXnAZRmH39EfGtecBlGYff0R8a15wGUZh9/RHxrXnAZRmH39EfGtecBlGYff0R8a15wGUZh9/RHxrXnAZRmH39EfGtecBlGYff0R8a15wGUZh9/RHxrXnAZRmH39EfGtecBlGYff0R8a15wGUZh9/RHxrXnAZRmH39EfGtecBlGYff0R8a15wGUZh9/RHxrXnAZRmH39EfGtecBlGYff0R8a15wGUZh9/RHxrXnAZRmH39EfGtecBlGYff0R8a15wGUZh9/RHxrXnAZRmH39EfGtecBlGYff0R8a15wGUZh9/RHxrXnAZRmH39EfGtecBlGYff0R8a15wGUZh9/RHxrXnAZRmH39EfGtecBlGYff0R8a15wGUZh9/RHxrXnAZRmH39EfGtecBlGYff0R8a15wGUZh9/RHxrXnAZRmH39EfGtecBlGYff0R8a15wGUZh9/RHxrXnAZRmH39EfGtecBlGYff0R8a15wGUZh9/RHxrXnAZRmH39EfGtecBlGYff0R8a15wGUZh9/RHxrXnAZRmH39EfGtecBlGYff0R8a15wGUZh9/RHxrXnAZRmH39EfGtecBlGYff0R8a15wGUZh9/RHxrXnAZRmH39EfGtecBlGYff0R8a15wGUZh9/RHxrXnAZRmH39EfGtecBlGYff0R8a15wGUZh9/RHxrXnAZRmH39EfGtecBlGYff0R8a15wGUZh9/RHxrXnAZRmH39EfGtecBlGYff0R8a15wGUZh9/RHxrXnAZRmH39EfGtecBlGYff0R8a15wGUZh9/RHxrXnAZRmH39EfGtecBlGYff0R8a15wGUZh9/RHxrXnAZRmH39EfGtecBlGYff0R8a15wGUZh9/RHxrXnAZRmH39EfGtecBlGYff0R8a15wP8yhHrzx0R8a15wP4aiolv1cQ9a/C2qgfmAAAAAH6wsLFR0Q7hIKHev371rFdunTCtNtr0IicqqBzYwZeC4raraahaT1rq+oNRdtWXiOn7u2ZRbHPY7dL9bRU5m2+m1EaA7XKmKharKgKMM0VqwotDyuHWxYiIsx4mLbT7N89X0za/h5E7iInIB7YkOcXdoFcABkQAFeQ5xd2gVwAGRAAANcAAkT7N72wCQAA1wACRPs3vbAJAADXAAMVWjQShlYsjZo1Tui8tnsriEbZeQ0c4ZeM8tiKqW8rK2d1lUXvgde9evBC0CpI2/nVR1KntGYtpWm8mTBFiIRpeVbGG09Ox3ERFtRAOBFb2BLhKVLPnrdKatZhGS92vJMpSwsbDNJ3VtdorTKJ3VaZRAPRjTLTLSstIqKi2Ki86KB/gAAAAAAAAAAAAAAAAAAAAAAAAAAAAAAAAAAAAAAAAAAAAAAAAAAAAAAAAAAAAAAAAAAAAAAAAAAAAAAAAAAAAAAAAAAAAABpaD1Z1hVlzFmVUAoZOJ/EtNowrMDCNvWWFXmxmkTFY/C0qAc06k+CMrfpe1DzSuCfwdDZa3Y03BuFSJj1Z7qWJ6RhpO+qgdiFRGBfUBg9u3MVQuhrmKnTtlMaczKyIi1aSxbWFaSx3y8qYqIqW2WgcoAAEifZve2ASAAGuAASJ9m97YBIAAa4AAAAAJE+ze9sAkAANcAAkT7N72wCQAA1wACRPs3vbAJAH+NsMvGGnbbKNMtJY0yqWoqdCgYqtDA+waq4kevKeVQyCMinqWNRriHSGik/A9dYradYHFqsDgX6gJ823E0BprSiizxq3FcNvGI6HZ+B4iPF/TA4+U04FetSTvbKIVw0Zmrtu3i1mEG/gl+HE43pA9WTjgncLeWtNJAyujE1RnmWEnTDKNfg45GP2gZt/wY+Gs6+t1QuX34lIpWn80QgH69i4w7PeM/eaT/AEsB2LjDs94z95pP9LA/GI4MPDkhcXj6kMXH5v8AmWTrb1RQH49jOw3PeU/eSUfSgHYzsNz3lP3klH0oDzOxcYdnvGfvNJ/pYDsXGHZ7xn7zSf6WB+MRwYeHJC4vH1IYuPzf8yydbeqKA/HsZ2G57yn7ySj6UA7Gdhue8p+8ko+lAeZ2LjDs94z95pP9LAdi4w7PeM/eaT/SwPxiODDw5IXF4+pDFx+b/mWTrb1RQH49jOw3PeU/eSUfSgHYzsNz3lP3klH0oDzOxcYdnvGfvNJ/pYDsXGHZ7xn7zSf6WB+MRwYeHJC4vH1IYuPzf8yydbeqKA/HsZ2G57yn7ySj6UA7Gdhue8p+8ko+lAeZ2LjDs94z95pP9LAdi4w7PeM/eaT/AEsD8Yjgw8OSFxePqQxcfm/5lk629UUB+PYzsNz3lP3klH0oB2M7Dc95T95JR9KA8zsXGHZ7xn7zSf6WA7Fxh2e8Z+80n+lgfjEcGHhyQuLx9SGLj83/ADLJ1t6ooD8exnYbnvKfvJKPpQDsZ2G57yn7ySj6UB5nYuMOz3jP3mk/0sB2LjDs94z95pP9LA/GI4MPDkhcXj6kMXH5v+ZZOtvVFAfj2M7Dc95T95JR9KAdjOw3PeU/eSUfSgPM7Fxh2e8Z+80n+lgOxcYdnvGfvNJ/pYH4xHBh4ckLi8fUhi4/N/zLJ1t6ooD8exnYbnvKfvJKPpQDsZ2G57yn7ySj6UB5nYuMOz3jP3mk/wBLAdi4w7PeM/eaT/SwPxiODDw5IXF4+pDFx+b/AJlk629UUB+PYzsNz3lP3klH0oB2M7Dc95T95JR9KA8zsXGHZ7xn7zSf6WA7Fxh2e8Z+80n+lgfjEcGHhyQuLx9SGLj83/MsnW3qigPx7Gdhue8p+8ko+lAOxnYbnvKfvJKPpQHmdi4w7PeM/eaT/SwHYuMOz3jP3mk/0sD8Yjgw8OSFxePqQxcfm/5lk629UUB+PYzsNz3lP3klH0oB2M7Dc95T95JR9KA8zsXGHZ7xn7zSf6WA7Fxh2e8Z+80n+lgfjEcGHhyQuLx9SGLj83/MsnW3qigPx7Gdhue8p+8ko+lAOxnYbnvKfvJKPpQHmdi4w7PeM/eaT/SwHYuMOz3jP3mk/wBLA/GI4MPDkhcXj6kMXH5v+ZZOtvVFAfj2M7Dc95T95JR9KAdjOw3PeU/eSUfSgPM7Fxh2e8Z+80n+lgOxcYdnvGfvNJ/pYH4xHBh4ckLi8fUhi4/N/wAyydbeqKA/HsZ2G57yn7ySj6UA7Gdhue8p+8ko+lAeZ2LjDs94z95pP9LAdi4w7PeM/eaT/SwPzecGDhxOGmUiak0dI3bYq0llCp+yKUDz5dwWmGRGtozFUClUvT7aIn0G0ifFvGlA3NH+B6wjJgrDc/pdQqUu2vVMsxb+Ies/Ay6RnWA97UK4EKQOWnb2sSvOYRbK2K8cSeVsQ6p3kePWnlv4cVAOSdWnBgYIFXDbqLeVet0njXVn9vP4pqKZaVO6rrkdagHIV3RSjFEYCEllFqPS6UQjtlWGXMFDMOWERLOSxlEA/kABrgAEifZve2ASAAGuAASJ9m97YBIAAa4AAA/yxOgBYnQBJnv+V3rfh5vMBI+FesB8K9YGtsToAWJ0ASZ7/ld634ebzASPhXrAfCvWBrbE6AFidAEme/5Xet+Hm8wEj4V6wHwr1ga2xOgBYnQBJnv+V3rfh5vMBI+FesB8K9YGtsToAWJ0ASZ7/ld634ebzASPhXrAfCvWBrbE6AFidAEme/5Xet+Hm8wEj4V6wHwr1ga2xOgBYnQBJnv+V3rfh5vMBI+FesB8K9YGtsToAWJ0ASZ7/ld634ebzASPhXrAfCvWBrbE6AFidAEme/5Xet+Hm8wEj4V6wHwr1ga2xOgBYnQBJnv+V3rfh5vMBI+FesB8K9YGtsToAWJ0ASZ7/ld634ebzASPhXrAfCvWBrbE6AFidAEme/5Xet+Hm8wEj4V6wHwr1ga2xOgBYnQBJnv+V3rfh5vMBI+FesB8K9YGtsToAWJ0ASZ7/ld634ebzASPhXrAfCvWBrbE6AFidAEme/5Xet+Hm8wEj4V6wHwr1ga2xOgBYnQBJnv+V3rfh5vMBI+FesB8K9YGtsToAWJ0ASZ7/ld634ebzASPhXrAfCvWBrbE6AFidAEme/5Xet+Hm8wEj4V6wHwr1ga2xOgBYnQBJnv+V3rfh5vMBI+FesB8K9YGtsToAWJ0ASZ7/ld634ebzASPhXrAfCvWBrbE6AFidAEme/5Xet+Hm8wEj4V6wHwr1ga2xOgBYnQBJnv+V3rfh5vMBI+FesB8K9YGtsToAWJ0ALE6AP/Z" vertex="1" parent="1">
          <mxGeometry x="717.99" y="427.5" width="67.02" height="70" as="geometry" />
        </mxCell>
        <mxCell id="RRd2hfE3uXQuu0yDxtk--32" value="&lt;b&gt;&lt;font color=&quot;#333333&quot;&gt;Github for source control,CICD&lt;/font&gt;&lt;/b&gt;" style="rounded=0;whiteSpace=wrap;html=1;fillColor=#EAEDED;fontSize=22;fontColor=#FFFFFF;strokeColor=none;labelBackgroundColor=none;" vertex="1" parent="1">
          <mxGeometry x="70" y="574" width="881.5" height="73" as="geometry" />
        </mxCell>
        <mxCell id="RRd2hfE3uXQuu0yDxtk--33" value="" style="shape=image;html=1;verticalAlign=top;verticalLabelPosition=bottom;labelBackgroundColor=#ffffff;imageAspect=0;aspect=fixed;image=https://cdn1.iconfinder.com/data/icons/unicons-line-vol-3/24/github-128.png;fontColor=#333333;" vertex="1" parent="1">
          <mxGeometry x="306.5" y="590.5" width="40" height="40" as="geometry" />
        </mxCell>
        <mxCell id="RRd2hfE3uXQuu0yDxtk--34" value="" style="sketch=0;aspect=fixed;pointerEvents=1;shadow=0;dashed=0;html=1;strokeColor=none;labelPosition=center;verticalLabelPosition=bottom;verticalAlign=top;align=center;shape=mxgraph.mscae.other.powerpoint;fillColor=#DE5D24;fontColor=#333333;" vertex="1" parent="1">
          <mxGeometry x="915.74" y="367" width="50" height="50" as="geometry" />
        </mxCell>
      </root>
    </mxGraphModel>
  </diagram>
</mxfile>
